<?xml version="1.0" encoding="utf-8"?>
<!-- Generator: Adobe Illustrator 24.2.1, SVG Export Plug-In . SVG Version: 6.00 Build 0)  -->
<svg version="1.1" id="Layer_1" xmlns="http://www.w3.org/2000/svg" xmlns:xlink="http://www.w3.org/1999/xlink" x="0px" y="0px"
	 viewBox="0 0 528.6 222.7" style="enable-background:new 0 0 528.6 222.7;" xml:space="preserve">
<style type="text/css">
	.st0{fill:#39B54A;}
	.st1{stroke:#000000;stroke-width:2;stroke-miterlimit:10;}
</style>
<g>
	<polygon points="442.3,-0.4 441.3,-0.2 442.5,0.9 	"/>
	<path d="M441.3,11.2c1.1,1,1.8,3,3.8,3l-1.8-1.9c1.5-0.3,1.4-1.5,0.9-2.6l0.1,1.2c-0.2-0.3-1.2-0.1-1.4-0.4
		c0.8-1.9-1.4-2.4,0.3-4.1l0.2,0.1l-1-1.4c0.2-0.4,0.9-0.3,1.2-0.1c-0.8-1.2-1.7-2.1-1.6-3.8c-2.8,1.3,2.2,3.6-0.6,5l-0.2-0.1
		C442.3,7.6,440.5,9.6,441.3,11.2z"/>
	<path d="M443.6,5.1c0,0,0,0.1,0.1,0.1C443.8,5.1,443.7,5.1,443.6,5.1z"/>
	<path d="M440.2,71.8l0.4,0.1C440.5,71.8,440.3,71.8,440.2,71.8z"/>
	<path d="M445.6,51.3C445.6,51.4,445.6,51.4,445.6,51.3C446.2,51.6,446,51.6,445.6,51.3z"/>
	<path d="M442,182.7l-0.6,0.4C441.9,182.9,442,182.8,442,182.7z"/>
	<path d="M441.7,210.1C441.7,210.1,441.7,210.2,441.7,210.1C441.7,210.2,441.7,210.1,441.7,210.1z"/>
	<path d="M450.2,197.6l0.6-0.1C450.5,197.4,450.3,197.4,450.2,197.6z"/>
	<path d="M451.5,206.3c-0.1,0.2-0.2,0.5-0.3,0.7C451.5,206.9,451.6,206.7,451.5,206.3z"/>
	<path d="M441.5,209.8c0.1,0.1,0.2,0.2,0.2,0.3C441.7,209.9,441.6,209.8,441.5,209.8z"/>
	<path d="M451.2,184.2l1.5-0.4C452.2,183.8,451.6,184.1,451.2,184.2z"/>
	<path d="M452.7,208.6c-0.3,0.1-0.4,0.3-0.5,0.5C452.4,208.9,452.6,208.7,452.7,208.6z"/>
	<path d="M441.4,13.1c0-0.3-0.1-0.5-0.2-0.9C441.1,12.4,441.2,12.8,441.4,13.1z"/>
	<path d="M452,134.3c0.2,0.1,0.3,0.1,0.6,0.2C452.5,134.2,452.2,134.2,452,134.3z"/>
	<path d="M452.1,163.6L452.1,163.6c0.1,0.1,0.2,0,0.3,0H452.1z"/>
	<path d="M451.7,155.1c0.1,0,0.2,0.1,0.3,0.1C451.9,155.1,451.8,155.1,451.7,155.1z"/>
	<path d="M453.7,169.9c0.1,0.1,0.3,0.2,0.5,0.3L453.7,169.9z"/>
	<path d="M452.2,176.2c0.5-0.3,1,0,1.5,0.3c0.7-1.5-1.1-2,0.1-3.7l-0.7,0.8c-1.1-1-1.3-2.9,0.1-3.9l0.5,0.3c-1.2-1,1-2.5,0-3
		c-0.6,0.4-1,0-1.6,0.6l-1.2-2.5l2-0.2l-0.7-1.3c-0.8,0.3,0.6-1.8-1.3-1.8c0.7-0.8,1.5,0.3,2.3,0.6c-0.6-0.7,0.3-0.8-0.9-1.5
		l1.7-0.7l-1.3-1.9c0.2,0.1,0.3,0,0.5,0.1c-1.5-0.9,0.8-2.2-1.7-3.3c0.1,0.1,0.2,0,0.3,0.1c-1.4-0.6-0.4-2.1-0.1-2.7
		c-0.3-1-1.7-0.4-2.4-0.4c0.4-2.9,0.3-2-1.8-4.4c2.2-1.5,3.5,1.7,5-0.2c-1.1-0.2-1.9-1.5-2.3-2.9c0.7-1.3,1.3-3.5,2.8-4.8l-1.4,0.1
		l-0.8-1.8l2.1,1c-0.5-0.3-1.4-1.2-2.1-1.8c-1.3-1.9,3.1-1.1,0.9-2.6c0.2-0.1,0.3-0.1,0.5-0.1c-1.1-0.5-0.7-1.7-1.1-3.2l1.8,0.5
		l-0.4,0.9c1.8-0.5-0.3-1.6-0.2-2.5c-0.6-1-2.1-0.5-2.7-1c0.1-0.3-0.5-0.9,0.1-1.1c0.6-0.9,2.2-0.1,2.9,0.1c-1.9-0.7-1.6-1-2.4-2.6
		c0.9-0.1,1.3,0,1.5,0.2c-0.2-0.3-0.6-0.6-1.4-0.8l1-0.6c1.5-1.9-3.4-1.8-2.9-4c1,0.6-0.3-1.9,0.9-2.6c0.3,0.8,2.7-0.4,3.8,0.1
		c0.6-1.8-2.2-0.7-2.6-2.1l2.3,0.6c-1-1.4-1.2-0.3-2-1.7c0.7,0.4,0.6-0.6,1.3,0.2c0.2-1.8,0-1.4,0.3-3l-2.2-0.1
		c-0.3-0.5,0.7-0.8,1.1-0.9c0,0.2,0,0.6,0.3,0.5c1.9-0.7-1.1-1,0.7-1.8c-0.7,0.2-1.7,0.4-1.8-0.3c1.3,0.2,1.2-1,1.8-1.1
		c-0.9,0.4-0.4-1.4-1.9-1.5c1-0.8,1.1,0.2,1.8,0.3c-1.7-0.6-0.3-2.7-1.3-3.3c0.1,0,0.2,0,0.3,0c-1.1-0.8-1.3-2.2-2.8-3.8l1.3,0.5
		c0.5-1.7-2.7-1-2.7-2.3c1.8,0.3-0.2-2.3,1.8-1.7c-1-0.8-1.5-1.7-3.1-2.2c1-0.8,2.5,1.4,3,0.4l-1-1.1l1-0.2c-0.7,0-0.8-1.1-1.4-1
		c1.2-0.2,2-0.7,2.9-0.6c-0.4-0.7,0.7-1.8-0.3-2.4l0.6-0.1c-2.2-0.7-0.5-2.2-2.7-2.6l1.2-0.5c-0.2-1.1-2.5-0.9-3-1.4
		c-0.1-0.4-0.3-1-0.2-1.5c1.5,1.4,1.7-0.8,2.5-1.1c0-0.6-0.2-2.3-1.3-2.7c1.2,0.7,2.1,0.2,2.2,1.5c2.2-0.7-0.5-1.9-0.2-3.3h1
		c-0.7-2-2.4-2-4.2-2.9c1.3-0.2,1.6-0.1,2.9,0.5c0.7-1.3-0.1-3.4,0-4.9c0.9-0.5,1.4-0.2,1.8,0.3c-1-1.5,0.2-3.4-2.1-4.4
		c0.9,0.4,0.6-0.6,1-1.2c-0.5,0-1.1-0.1-1-0.2c-0.9-0.9-1.8-3-1-4.1l0.7,0.4c0.3-2.5-3.5-3.6-1.9-6.4c0.5-0.5,1.8,0.5,1.8-0.5
		c-0.8-0.5-2.5-0.3-2.1-1.6l1.5,0.1l-1.5-0.9c-1.2,0.5-0.8,1.9-2.1,0.9c1.4-1.2-1.4-1,0.2-2.4c0.2,0.3,1.3,0.7,1.9,1
		c1.7-3-1.5-4.1,0.3-7.1c-1.2-1.5-1.4-3.4-2.5-4.4c1.5,0.1,2.8,0,3.9,0.7c0.2-1.3-3.1-1.8-1-2.7c-2-0.6-1.3-3.5-4.1-3.8
		c0.6-0.1,0-1.4,1.6-0.1c-0.9-1.7,2.4-2.3,2.4-3.1c-0.1-0.4-1.8,0.5-1.8-0.5c0.1-0.1,0.4-0.2,0.5-0.3l-0.7-0.4
		c0.6-0.4,1.4,0.4,2.1,0.5c0.6-1.4-1.6-2.3-1.8-4l0.5,0.3l0.1-1.7l0.2,0.1l-1-1.4h0.7c-0.2-0.3-0.7-0.4-0.8-0.8l0.9,0.1
		c-1.4-0.4-2.2-2-2.2-2.8l0.4-0.2l-1.8-1.9c1-1,2.1,1.3,1.5-0.7l1.8,0.5c-0.7-1.4,0.2-1.6-0.4-2.6c-0.9,0.4-0.8,1.1-1.6,0.6
		c2.1-1.1-0.6-1.8-1.4-2.8c0,0.5,0,0.9,1.1,1.3c0,0.6-1,0.2-1,0.6l1,0.8l-1.3,0.2l1,1.4c-1.5-0.1-0.2,1.3-1.7,0.7
		c0.6,1-0.4,1.5,1.1,2.4c-0.9,0.7-1.1-1-1.2-0.3c1.2,3.9,1,7.9,0.6,11.9l-0.7-0.4c0.7,0.4,1.2,0.9,1.7,1.2c-1.2,0.7-2.6,3.3-0.4,4.3
		c-0.1,0.1-0.4-0.1-0.6-0.2c0.3,1.3-1.2,3.8-1,5.7c2.3,0.8-1.4,2.9,1.8,3.6l-0.7-0.4c0.9-0.7,2.2,0.9,3,1.2
		c-2.1,0.6-1.6,0.1-3.5,0.7l0.7-0.8l-2,0.2c4.4,2.4-2,4.5,1.2,6c-0.2-0.1-0.4-0.1-0.6-0.2c-1,1,1.2,1.7,1.8,2.4
		c-0.9,0.1-1.4-0.4-2.1-0.8c-0.6,1.8,1.7,4.7,0.4,6.7c1.2,0.7,1.5-0.3,2.4,0.4c-0.3,0.6-1.2,1-1.8,0.3c-2.1,1.7,1.4,5.5-0.5,8.1
		c1.3,1.3,1.8,0.5,2.7,2.6c-0.8-0.5-2.8,0.5-2.9-0.7l-0.9-0.1c-0.2,2.1-0.5,4.8,2.1,5.9c-1.9,0.1-0.4,0.4-1.4,1.2
		c0.2,0.3,0.3,0,0.4-0.2c1.6,0.7-0.1,1.1,0.2,1.7l-0.3-0.2l1.2,1.5c-0.2,0.2-0.6,0.6-1.2,0.7h1.3c0,0.8-1.7,0.4-1.3,1.4l1-0.2
		c-0.6,0.6,0.8,1.6-0.6,1.8c-0.3,0-0.2-0.1-0.2-0.3c-2,1,0.7,2.5-0.2,3.8l2.1-0.3c0.7,1.2-0.4,0.7-1.2,0.7c0,0.8-0.7,1-0.9,2
		c0.5,0.5,0.8,0.3,1.4,0.4l-0.5,1.1l-1.2-0.7c3.1,1.6-0.3,4.1,2.5,5.2c-0.6,0.6-1.3-0.5-1.6-0.2c-1.3,2,2.1,4.3,0.5,6
		c-1.5,2.7,0,5.7-1,8.6l0.6-0.1l-0.4,2.1c1.3,0.6,0.7,2,2.2,2.8c-0.5-0.1-1.1,0.1-1.5-0.1c0.2,0.9,0.8,1.8,0.1,2.4l-0.5-0.3
		c-0.3,2-0.3,4.7,0.7,5.7c0.1,0.7-0.9,0.7-1.6,0.9c-0.1,1.1,0.5,1.9,1.4,2.8c-0.2,0.2-0.5,0.5-1,0.8l1.4,0.4
		c-0.2,0.5-1.1,0.1-1.5,0.5c1.7,1.8,0.2,3.8,0.3,5.1l0.7-0.2c0.5,0.5-0.4,1.5-1.1,0.9c-0.8,2.5,2.2,3.6,1.9,7c-2.5,0.5,0.8,3-2,3.5
		c0.7,1.4-0.4,2.3,1.3,3.3c-0.3,0-0.4,0.2-0.5-0.1c-1,0.6-0.2,2.4,0.5,3.8l-0.8,0.2c1.8,0.5,1.3,2.9,3.2,3.4
		c-0.4,0.2-0.8-0.3-1.1-0.5c-1.7,0.8,0.8,1.3,0.5,2.2c-0.5-0.1-1,0.2-1.3,0c-2,3.2,1.4,7.7,0.1,11.8c-0.1,1.1,1.9-0.4,1.8,1.1
		c-0.9,0.4-1.9-0.7-2.3,0.2c1.2,0.7,0.9,0.9,0.8,1.8c-0.6-0.2-1,0-1.4-0.6c-0.8,0.5,1.5,2.2,0,3.3c0.6-0.1,0.9,0.1,1.2,0.3
		c1.6,1.5-1.6,3.6-0.7,3.7c0,0,0.3,0.5,0.4,0.1c0,0.6-0.3,1.4-1.2,1.3c0.5,0.3,1.3,0.5,1.4,1l-1.1-0.2c0.2,0.3,0.9,0.6,1,0.8
		l0.6-0.4c-0.9,0.7,1.3,1.9-0.8,1.9v-0.2l-0.9,1.2c0.8,0.5,1.6,1,1.4,1.8c-2.1,0.3-0.4,2.1-0.6,3.1h-0.7c1,0.8,0.6,2.9,1,2.5
		c0,0.8-0.5,1.9-1.1,1.5c0.4,0.6,0.4,2,1.6,2.3l-1.8,1.3c2.6,0.8-0.9,2.6,1.9,2.7c-0.4,0.7-1,0.6-1.5,1.1c1.4,1,1.1,2,0.9,3.1h-0.3
		c-0.2,1,1.2,2.3,1.3,3.7l-2.1,0.3c0.3,0.8,1.9,0.9,1.5,1.7c-0.3,0.2-0.4,0-0.6-0.2c0.4,0.7-0.1,1.7-0.6,2.2c1.5,1.1,1,1.9,2.6,2.9
		c-1.8,0.9-0.8-1.3-2.6-0.5c-1,1.6,0.1,3.2,1,4.9c-0.4,0.2-0.7,0-1.2-0.1c0,0,5.1,3.5,7.1,2.8c1.4,0.4,2.2,0.9,3.4-0.6
		c-0.8-0.5-1.8-1.9-0.3-2.1l-1.5-0.1c-0.7-2,3-0.2,2.9-2.6l-0.5,0.5c-0.1-0.4-1-0.8-0.6-1.3c0.4-0.2,0.6,0.2,0.9,0.4l-2-2
		c0.9-0.1,1.3,0,2,0.4c-0.1-1.8-2.7,0.4-2.1-1.8c0.6-0.4,0.9,0.1,1.4,0.4c1.2-1,0.1-1.7-0.7-2.8c1.3,0,1.2,0.7,2-0.2
		c-0.7,0.2-1.8,0.3-2-0.4c1.3,0.3,0.7-0.5,1-1.2c-0.5,0.1-1.1,0.1-1.3-0.2c-0.2-0.3,0.3-0.6,0.2-1l-1.3,0.8
		c-1.2-1.1,0.7-1.8,1.2-2.6c0.2,0.1,0.4,0.2,0.5,0.4c0.5-0.9,1.6-1.8,0.4-3l0.2,0.1c-1.3-2.1-2.2,0.7-3.4-1.8
		c0.3-0.8,4.3,0.4,2.7-1.5c-1.1,0.9-2.7-1.2-3.2-2.3l2.5,1.1c0-0.4-0.7-1.2-0.4-1.4l-0.6,0.1c-2.2,0.1,0.3-1.4-1-2.2
		c2.9,0.9,2.4,1,5.3,1.2c-1.6-0.7-3.1-1.6-2.8-3l2.3,1.1c0.5-1.9-2.9-4-4.8-5.5c1.7,0.4,2.3-0.2,3.7,0.4l-0.4-1.8l1.8,0.5
		c-1.9-0.7-0.6-1.5-3-1.4c0.3,0.2,0.6,0.2,0.5,0.5c-0.7,0-2.2-0.3-2.1-1.3c0.6-0.6,0.9,0.4,1.6,0.2c-1-0.6,0.6-0.6-0.1-1.2l-1,0.6
		c-1.4-0.4-0.1-1-0.8-1.6c0.6,0.7,1.4,0.5,2.3,0.2h-0.2c-0.1-0.4-1.1-1-0.3-1.3l2,0.4l-1.4-0.6c0.2-0.3,0.9-0.4,1.3,0
		c1.2-2.1-4.2,0.1-2.4-2.6c0.7,0,1.2,0.3,0.8,1.1c1.2,0.1,1.9-0.1,2.3-0.8c0.1,0,0.1,0,0.2,0C453.4,178.8,453.5,177.1,452.2,176.2z"
		/>
	<path d="M453.4,180.2c0,0.7,0,1.4,0.3,1.7C454.1,181.7,454.6,180.2,453.4,180.2z"/>
	<path d="M450.3,70.8c0.1,0.1,0.1,0.2,0.2,0.3C450.4,70.9,450.4,70.8,450.3,70.8z"/>
	<path d="M449.6,64.8c-0.2,0.1-0.3,0.2-0.4,0.3C449.6,65.1,449.9,65.1,449.6,64.8z"/>
	<path d="M451.5,125.7L451.5,125.7L451.5,125.7z"/>
	<path d="M451.7,92.2c-0.6-0.5-1.2-0.7-1.7-0.7C450.2,91.8,450.6,92.2,451.7,92.2z"/>
	<path d="M451,103.6c0.1,0.1,0.2,0.1,0.3,0.2C451.2,103.7,451.1,103.6,451,103.6z"/>
	<path d="M452.5,127.6c-0.6-0.5-0.6-1.2-1-1.8C451.8,126.2,451.2,127.2,452.5,127.6z"/>
	<polygon points="447.4,57.6 448.4,58.2 447.7,57.6 	"/>
	<path d="M448.1,63.1c-0.2,0.2,0.4,1.2,0.9,0.9C448.6,63.8,448.4,63.4,448.1,63.1z"/>
	<polygon points="447.4,84.2 448.5,84.6 447.7,84.1 	"/>
</g>
<path class="st0" d="M518.1,116.8c0-0.7-0.1-1.4-0.1-2.1c0-0.9-0.1-1.8-0.3-2.7c-0.8-6.9-2.5-13.5-5.3-19.9
	c-0.1-0.3-0.2-0.5-0.3-0.7c-3.8-8.8-8.9-16.4-15.4-23c-0.4-0.4-0.9-0.9-1.3-1.3c-1.8-1.8-3.6-3.4-5.5-4.9c-4.5-3.6-9.4-6.7-14.7-9.3
	c-0.6-0.3-1.2-0.6-1.8-0.9c-5-2.3-10.1-3.9-15.5-4.9c-3.9-0.8-7.9-1.1-12-1.2c-0.3,0-0.7,0-1,0h-57.3v115.8l-0.4-0.9l-7.9-20.9
	l-14.5-38.2l-15-39.4l-6.2-16.4h-42.3l-6.2,16.3l-1.5,4l0,0l-0.3,0.8l-5.1,13.4l-1.3,3.5l-0.3,0.8l-2,5.4l-6.7,17.6l-2.8,7.2
	l-7,18.4l-9.1,23.9l-1.9,5.1V45.9h-38.7v57.5h-55.9V45.9h-38.7v116.1H83c-6.6,0-12.5-1-17.8-3.1s-9.7-5-13.3-8.7
	c-3.6-3.6-6.4-8.1-8.4-13.2c-0.5-1.3-0.9-2.5-1.3-3.9c-0.8-2.6-1.3-5.4-1.5-8.3c0-0.5-0.1-1-0.1-1.5c0-1-0.1-1.9-0.1-2.9
	c0-6,1-11.6,2.9-16.7s4.7-9.5,8.3-13.2c1.2-1.2,2.4-2.3,3.8-3.3l0,0c0.6-0.4,1.1-0.8,1.7-1.2c2.4-1.6,5-3,7.9-4.1
	c3.9-1.6,8.3-2.6,13-3c1.2-0.1,2.4-0.1,3.7-0.2c0.4,0,0.9,0,1.3,0H92V45.9H73.3c-10.3,0-19.8,2-28.7,6.1c-1.7,0.8-3.4,1.6-5,2.5
	c-3.8,2-7.3,4.4-10.6,7c-0.3,0.2-0.6,0.4-0.9,0.6c-0.4,0.4-0.9,0.7-1.3,1.1c-1.9,1.6-3.8,3.3-5.6,5.1C14.6,75.2,9.3,83.2,5.6,92.2
	c-3.8,9-5.6,18.4-5.6,28.1c0,9.9,1.9,19.3,5.8,28.3c3.8,9,9,16.9,15.7,23.7c6.6,6.8,14.4,12.2,23.3,16.3c8.9,4.1,18.4,6.1,28.5,6.1
	h89.2v-61.5h55.9v61.8h62.4c0.1-0.3,0.2-0.7,0.4-1.1c1-2.1-0.1-1.4-2.1-1.3c-1.8,0.1-3.6,0.5-3.2-2c0.4-2.3,2.8-1.6,3.4-3.2
	c0.5-1.7-1.6-2-2-3.3c-1.3-4.2,8.2-1.1,9.8-1.3c-1-0.4-4-1.5-3-2.5c-2.3-0.5-4.3-1.5-4.2-3.2c0-0.3,0.1-0.6,0.2-1
	c1.4-0.3,2.6,0.6,4,1c0.2,0,0.4,0.1,0.6,0.1c-0.1-0.1-0.2-0.2-0.3-0.3c-0.8-1.2,1.5-2.6,2.4-2.8c0.5-0.1,1,0,1.5,0.2
	c1,0.5,1.9,1.4,3,1.6c0-1.3,0.1-2.6,1.4-2.8c0.3,0,0.5,0,0.6,0.1l1.2-3.5l0.2-0.6h1.6c-0.1-0.1-0.1-0.2-0.1-0.3
	c-0.4-1,0.6-1.8,1.9-2c0,0-0.1,0-0.1-0.1c-1.8,0-3.1-0.1-4.7-0.9c-0.9-0.4-4.2-2.5-1.4-2.8c-2.5-0.9-5.2-1.3-5.2-5.1
	c1.1-0.3,1.9,0.3,2.9,0.5c-0.5-0.5-1.1-1.1-1.7-1.8c-0.8-0.9-1.5-2-1.8-3.1c-0.1-0.3-0.2-0.5-0.2-0.8c-0.5-3,2.6-2.3,4.1-0.9
	c0.4,0.4,1.1,1.9,1.7,1.8c0.7-0.1,0.6-1.4,1.1-1.9c2-1.7,3.4,1.1,4.5,2.5c0.6,0.6,1.6,1.9,2.5,1.6c1-0.3,0.5-1.8,1.2-2.4
	c0.3-0.3,0.5-0.4,0.8-0.5c0.1-0.1,0.2-0.2,0.3-0.4c-1-0.5-4.8-0.1-4.9-1.8c-0.1-1.6,1.8-1.4,2.6-1.1c-1.2-0.5-7.8-3.5-6.1-6
	c0-0.2,0-0.5,0-0.9c0.4-1.9,2.2-1.3,2.7-2.6c0.4-1.4-1.2-1.6-1.5-2.6c-1-3.4,6.3-1,7.5-1.1c-0.8-0.3-3-1.2-2.3-2
	c-0.8-0.2-1.4-0.5-2-0.8c-0.4-0.2-0.8-0.5-1-0.9c-0.3-0.4-0.3-1,0-1.6c1.2-0.2,2.3,0.8,3.5,0.9c-1.2-1,0.9-2.4,1.6-2.6
	c1.4-0.3,2.2,1.3,3.4,1.5c0-1,0.2-2.1,1.2-2.3c0.6-0.1,1.1,0.4,1.6,0.9l1.4-3.9c-0.3-0.3-0.4-0.5-0.4-0.8c0-0.5,0.4-1,1-1.3l0.1-0.2
	c-1.2,0-2.1-0.1-3.2-0.7c-0.7-0.4-3.1-2-1-2.2c-0.2-0.1-0.4-0.1-0.6-0.2c-1.7-0.6-3.4-1.1-3.3-3.9c0.8-0.2,1.5,0.3,2.2,0.4
	c-0.9-1.1-2.5-2.8-2.7-4.5c0-0.3,0-0.5,0-0.7c0-0.4,0.2-0.6,0.5-0.8c0.6-0.5,2,0.1,2.7,0.8c0.3,0.3,0.8,1.4,1.2,1.4
	c0.6-0.1,0.5-1.1,0.9-1.5c1.5-1.4,2.5,0.9,3.4,2c0.4,0.5,1.2,1.5,1.9,1.3c0.8-0.3,0.4-1.4,1-1.9c0.1-0.1,0.3-0.2,0.4-0.3
	c0.1-0.2,0.3-0.3,0.4-0.5c-0.8-0.4-3.6,0-3.7-1.4c-0.1-1.1,1.1-1.1,1.8-1c-1.3-0.6-5.9-2.9-4.1-4.9c0.9,0.2,1.4,1.2,2.1,1.6
	c-0.5-1,1.1-1.4,1.7-1.3c1,0.3,1.2,1.5,2,2c0.3-0.7,0.6-1.4,1.3-1.2c0.5,0.1,0.7,0.8,1,1.3l0.8-2.2c-0.4-0.1-0.7-0.4-1-0.6l0,0
	c-1.4-0.4-2.7-1.2-2.6-2.3c0.2-0.1,0.5-0.2,0.8-0.1c-0.9-0.4-1.4-0.9,0.2-1.7c-0.9-0.3-2.3-2.1-3-3.6c-0.2-0.5-0.4-1-0.4-1.4
	c0.3,0,0.7,0,1,0.1c-0.3-0.3-0.9-1.6-1.2-2.8c-0.3-1.1-0.4-2.3,0.3-2.4c0.5-0.1,1,0.7,1.6,1.6c0.7,1.2,1.3,2.7,1.5,3.3
	c-0.1-1,0.1-2,1-1.6c0.8,0.3,1,1.6,1.4,2.5c-0.1-0.4,0-0.8,0.2-0.9c-0.1-0.5-0.2-1-0.2-1.6c0-2.6,1.5-0.1,2.2,0.6
	c-0.2-0.5-0.4-1.1-0.6-1.6c-0.5-1.3-0.8-2.5-0.5-3.9c0.5,0.2,0.9,1.1,1.2,1.7c0-1.5-2-4.4-1.3-6c0.6-1.4,1.9,0.7,2.3,1.8
	c-0.2-1.8-0.9-4.6-0.1-6.1c0.5,0.3,0.7,1,1.1,1.5c-0.5-1.6-0.9-3.5-0.6-5.3c0.1-1,0.6-3.6,1.3-2.8c0.1-0.8,0.3-1.7,0.5-2.7
	c0.3,0.5,0.4,1.6,0.5,2.9c0.8-1.3,1.3,1.5,1.5,2.6c0.2,1.9-0.2,3.7-0.7,5.3c0.4-0.4,0.7-1.1,1.1-1.5c0.9,1.5,0.1,4.4,0,6.1
	c0.4-1.1,1.7-3.1,2.3-1.8c0.7,1.6-1.2,4.5-1.3,6c0.3-0.6,0.6-1.5,1.1-1.7c0.1,0.5,0.1,1,0.1,1.5c0,1.5-0.6,2.8-1.1,4.1
	c0.5-0.7,2-3,2.1-0.9c0,0.1,0,0.2,0,0.3c0,0.6-0.1,1.1-0.2,1.7c0.2,0.2,0.2,0.6,0,1.1c0.4-0.9,0.6-2.5,1.4-2.8c1-0.3,1.1,0.7,1,1.6
	c0.1-0.5,0.7-1.9,1.3-3c0.6-1.1,1.3-2,1.8-1.9s0.6,0.6,0.5,1.2c-0.1,1.4-1,3.5-1.4,4c0.3-0.1,0.7-0.1,1-0.1c0,1.5-2.1,4.6-3.3,5
	c1.6,0.8,1.1,1.3,0.2,1.7c0.3,0,0.6,0,0.9,0.1c0.1,1.1-1.3,1.9-2.6,2.3l0,0c-0.3,0.3-0.6,0.5-0.9,0.6l0.8,2.1c0.3-0.5,0.5-1.1,1-1.3
	c0.6-0.2,1,0.5,1.3,1.2c0.8-0.5,1-1.8,2-2c0.6-0.1,2.2,0.2,1.7,1.3c0.8-0.5,1.3-1.4,2.1-1.6c1.7,2-2.9,4.3-4.1,4.9
	c0.7-0.1,1.9-0.1,1.8,1c-0.1,1.4-2.9,1-3.7,1.4c0.1,0.2,0.3,0.4,0.4,0.5c0.1,0,0.3,0.1,0.5,0.3c0.6,0.6,0.1,1.6,0.9,1.9
	c0.7,0.3,1.5-0.8,1.9-1.3c0.9-1.1,1.8-3.3,3.4-2c0.4,0.4,0.3,1.4,0.9,1.5c0.4,0,0.9-1.1,1.3-1.4c1.1-1.1,3.5-1.7,3.1,0.7
	c-0.3,1.7-1.8,3.4-2.7,4.5c0.8-0.2,1.4-0.6,2.2-0.4c0,1.4-0.4,2.3-1.1,2.8c-0.8,0.6-1.8,0.9-2.8,1.3c1.9,0.2,0.1,1.6-0.8,2.1
	c-0.1,0-0.1,0.1-0.2,0.1c-0.3,0.1-0.6,0.3-0.8,0.4c-0.8,0.3-1.5,0.4-2.4,0.4l0.1,0.2c0.2,0.1,0.4,0.2,0.5,0.3
	c0.5,0.5,0.8,1.1,0.2,1.8l1.4,3.9c0.5-0.5,1-1,1.6-0.9c0.9,0.1,1.1,1,1.1,2v0.3c0.4-0.1,0.7-0.2,1-0.4c0.8-0.5,1.5-1.2,2.4-1.1
	c0.3,0.1,0.7,0.3,1.1,0.6c0.7,0.5,1.3,1.3,0.6,2c1.2-0.1,2.3-1.1,3.4-0.9c0.8,1.9-0.9,2.9-2.9,3.4c0.8,0.8-1.5,1.7-2.2,2
	c1.2,0.1,8.4-2.3,7.5,1.1c-0.3,1-1.9,1.3-1.5,2.6c0.3,0.9,1.2,0.9,1.9,1.4c0.4,0.3,0.7,0.6,0.8,1.3c0,0.4,0,0.7,0,1
	c1.5,2.5-5,5.4-6.1,5.9c0.8-0.3,2.7-0.4,2.6,1.1c-0.1,1.7-3.9,1.3-4.9,1.8c0.1,0.2,0.2,0.3,0.3,0.4c0.3,0.1,0.5,0.2,0.8,0.5
	c0.8,0.6,0.2,2.1,1.2,2.4s2-1,2.5-1.6c1.2-1.4,2.5-4.1,4.5-2.5c0.5,0.5,0.4,1.8,1.1,1.9c0.5,0.1,1.3-1.4,1.7-1.8
	c1.6-1.3,4.7-2.1,4.2,0.9c-0.4,2.1-2.4,4.3-3.8,5.6c1-0.2,1.9-0.8,2.9-0.5c0,3.8-2.7,4.2-5.2,5.1c2.8,0.3-0.5,2.3-1.4,2.8
	c-1.7,0.9-3,0.9-4.7,0.9c0,0-0.1,0-0.1,0.1c1.4,0.3,2.5,1.2,1.8,2.3h1.6l1.4,4.1c0.2-0.1,0.4-0.1,0.6-0.1c1.3,0.2,1.4,1.5,1.4,2.8
	c1.6-0.2,2.7-2.1,4.5-1.8c1,0.2,3.6,1.9,2.1,3.1c1.6-0.2,3-1.4,4.6-1.1c1,2.3-1.3,3.5-3.9,4.1c1,1-2,2.1-3,2.5
	c1.6,0.1,11.2-2.9,9.8,1.3c-0.1,0.2-0.1,0.3-0.3,0.5c-0.7,0.9-2.2,1.3-1.8,2.8c0.5,1.6,3,0.9,3.4,3.2c0.4,2.4-1.4,2.1-3.2,2
	c-0.6,0-1.1-0.1-1.5-0.1c-1-0.1-1.4-0.1-0.6,1.4c0.3,0.4,0.4,0.8,0.5,1.1h36.1l0,0H445c10.3,0,19.8-2,28.7-6.1
	c3.6-1.6,7.1-3.5,10.4-5.7c4.7-3,9-6.6,13-10.7c6.6-6.9,11.8-14.8,15.6-23.8c0.6-1.4,1.1-2.8,1.6-4.3c0.6-1.6,1.1-3.1,1.5-4.8
	c1.6-6,2.5-12.2,2.5-18.5v-0.6C518.2,119.2,518.2,118.1,518.1,116.8z M453.2,158.9c-5.3,2.1-11.3,3.1-18,3.1h-8.9V78.8h10.5
	c3.9,0.1,7.5,0.6,10.9,1.4c1.8,0.5,3.6,1,5.3,1.7c1.5,0.6,2.9,1.3,4.2,1.9l0,0c2.9,1.5,5.4,3.3,7.7,5.4c0.5,0.5,0.9,0.9,1.4,1.4
	c2.9,2.9,5.3,6.3,7.1,10.2c0.5,1,0.9,2,1.3,3c0.3,0.9,0.6,1.7,0.9,2.6c1,3.2,1.6,6.5,1.9,10c0.1,1.3,0.2,2.6,0.2,3.9
	c0,1.9-0.1,3.8-0.3,5.6c-0.3,2.9-0.8,5.7-1.6,8.4c-0.3,0.9-0.6,1.8-1,2.7c-1.9,5-4.6,9.4-8.3,13.1c-2.9,3-6.4,5.5-10.4,7.4
	C455.2,158.2,454.2,158.6,453.2,158.9z"/>
<g>
	<g>
		<g>
			<g>
				<g>
					<polygon points="443,-0.4 442.2,-0.2 443.2,0.4 					"/>
					<path d="M442.2,6.9c0.9,0.7,1.4,1.9,3.1,1.9l-1.5-1.2c1.3-0.2,1.2-0.9,0.8-1.6l0.1,0.8c-0.2-0.2-1-0.1-1.1-0.3
						c0.6-1.2-1.1-1.5,0.3-2.6L444,4l-0.8-0.9c0.2-0.3,0.8-0.2,1-0.1c-0.7-0.8-1.4-1.4-1.3-2.4c-2.3,0.8,1.8,2.3-0.5,3.1l-0.1-0.1
						C443,4.8,441.6,5.8,442.2,6.9z"/>
					<path d="M444.1,3.1L444.1,3.1C444.2,3.1,444.2,3.1,444.1,3.1z"/>
					<path d="M440.8,45.3h0.4C441,45.3,440.9,45.3,440.8,45.3z"/>
					<path d="M445.3,32.4L445.3,32.4C445.8,32.6,445.7,32.6,445.3,32.4z"/>
					<path d="M441.2,115.7l-0.5,0.3C441.2,115.8,441.3,115.8,441.2,115.7z"/>
					<path d="M440.8,133.1L440.8,133.1L440.8,133.1z"/>
					<path d="M447.9,125.2h0.5C448.1,125.2,447.9,125.2,447.9,125.2z"/>
					<path d="M448.8,130.7c-0.1,0.2-0.2,0.3-0.2,0.5C448.8,131.2,448.9,130.9,448.8,130.7z"/>
					<path d="M440.6,132.9c0.1,0.1,0.1,0.1,0.2,0.2C440.7,133.1,440.7,132.9,440.6,132.9z"/>
					<path d="M448.7,116.7l1.2-0.2C449.5,116.6,449.1,116.7,448.7,116.7z"/>
					<path d="M449.7,132.2c-0.2,0.1-0.4,0.2-0.4,0.3C449.5,132.4,449.7,132.3,449.7,132.2z"/>
					<path d="M442.2,8.1c0-0.2,0-0.3-0.2-0.6C442,7.8,442.1,7.9,442.2,8.1z"/>
					<path d="M449.8,85.2c0.1,0,0.3,0.1,0.5,0.1C450.2,85.1,450,85.1,449.8,85.2z"/>
					<path d="M449.6,103.7L449.6,103.7c0.1,0,0.2,0,0.2,0H449.6z"/>
					<path d="M449.4,98.2c0.1,0,0.2,0.1,0.3,0.1C449.6,98.2,449.5,98.2,449.4,98.2z"/>
					<path d="M450.9,107.7c0.1,0.1,0.2,0.1,0.4,0.2L450.9,107.7z"/>
					<path d="M449.6,111.7c0.4-0.2,0.8,0,1.2,0.2c0.6-1-0.9-1.3,0.1-2.3l-0.6,0.5c-0.9-0.7-1.1-1.9,0.1-2.5l0.4,0.2
						c-1-0.6,0.8-1.6,0-1.9c-0.5,0.3-0.8,0-1.3,0.4l-1-1.6l1.6-0.1l-0.5-0.8c-0.6,0.2,0.5-1.1-1-1.1c0.6-0.5,1.2,0.2,1.9,0.4
						c-0.5-0.5,0.2-0.5-0.7-1l1.4-0.5l-1-1.2c0.1,0.1,0.2,0,0.4,0c-1.2-0.6,0.7-1.4-1.4-2.1c0.1,0,0.1,0,0.2,0
						c-1.1-0.4-0.3-1.4-0.1-1.7c-0.3-0.6-1.4-0.3-2-0.3c0.4-1.8,0.3-1.2-1.4-2.8c1.8-0.9,2.9,1.1,4.1-0.1c-0.9-0.2-1.5-1-1.9-1.9
						c0.6-0.8,1.1-2.2,2.3-3l-1.2,0.1l-0.6-1.2l1.7,0.7c-0.4-0.2-1.1-0.8-1.7-1.2c-1-1.2,2.5-0.7,0.8-1.6c0.1,0,0.3-0.1,0.4-0.1
						c-0.9-0.3-0.6-1.1-0.9-2l1.5,0.3l-0.3,0.6c1.5-0.3-0.2-1-0.2-1.6c-0.5-0.6-1.7-0.3-2.2-0.6c0.1-0.2-0.4-0.5,0.1-0.7
						c0.5-0.5,1.8-0.1,2.4,0.1c-1.5-0.5-1.3-0.6-2-1.7c0.7-0.1,1,0,1.2,0.2c-0.2-0.2-0.5-0.4-1.2-0.5l0.9-0.4
						c1.2-1.2-2.8-1.2-2.3-2.6c0.8,0.4-0.2-1.2,0.8-1.6c0.2,0.5,2.2-0.2,3.1,0.1c0.5-1.1-1.8-0.4-2.1-1.4l1.9,0.4
						c-0.8-0.9-1-0.2-1.6-1.1c0.5,0.2,0.5-0.4,1.1,0.1c0.2-1.2,0-0.9,0.2-1.9l-1.8-0.1c-0.2-0.3,0.6-0.5,0.9-0.6
						c0,0.1,0,0.4,0.2,0.3c1.5-0.4-0.9-0.7,0.5-1.1c-0.6,0.1-1.4,0.2-1.5-0.2c1.1,0.1,1-0.7,1.5-0.7c-0.8,0.3-0.3-0.9-1.5-1
						c0.8-0.5,0.9,0.2,1.5,0.2c-1.4-0.4-0.2-1.7-1-2.1c0.1,0,0.2,0,0.3,0c-0.8-0.5-1.1-1.4-2.3-2.4l1,0.4c0.4-1-2.2-0.6-2.1-1.5
						c1.5,0.2-0.1-1.4,1.5-1c-0.8-0.5-1.2-1.1-2.5-1.4c0.8-0.5,2,0.9,2.4,0.3l-0.8-0.7l0.8-0.1c-0.6,0-0.6-0.7-1.1-0.6
						c1-0.1,1.6-0.4,2.3-0.4c-0.3-0.5,0.6-1.1-0.2-1.5h0.5c-1.8-0.4-0.4-1.4-2.2-1.6l1-0.3c-0.2-0.7-2-0.6-2.5-0.9
						c-0.1-0.3-0.3-0.6-0.1-0.9c1.2,0.9,1.4-0.5,2.1-0.7c0-0.4-0.1-1.4-1-1.7c0.9,0.4,1.7,0.2,1.8,1c1.8-0.4-0.4-1.2-0.2-2.1h0.8
						c-0.6-1.3-2-1.3-3.4-1.8c1-0.1,1.3,0,2.3,0.3c0.6-0.8-0.1-2.2,0-3.1c0.7-0.3,1.2-0.1,1.5,0.2c-0.8-1,0.2-2.2-1.6-2.8
						c0.7,0.2,0.5-0.4,0.8-0.8c-0.4,0-0.9-0.1-0.8-0.1c-0.7-0.6-1.4-1.9-0.8-2.6L447,39c0.3-1.6-2.8-2.3-1.5-4.1
						c0.4-0.3,1.5,0.3,1.5-0.3c-0.7-0.3-2.1-0.2-1.7-1l1.2,0.1l-1.2-0.6c-1,0.3-0.6,1.2-1.7,0.6c1.1-0.7-1.1-0.6,0.2-1.5
						c0.1,0.2,1,0.5,1.5,0.6c1.4-1.9-1.2-2.6,0.3-4.5c-0.9-0.9-1.1-2.2-2-2.8c1.2,0.1,2.3,0.1,3.2,0.5c0.2-0.8-2.5-1.2-0.8-1.7
						c-1.6-0.4-1-2.2-3.3-2.4c0.5,0,0-0.9,1.3,0c-0.8-1.1,2-1.4,2-1.9c-0.1-0.3-1.5,0.3-1.5-0.3c0.1-0.1,0.3-0.1,0.4-0.2l-0.5-0.2
						c0.5-0.3,1.1,0.3,1.7,0.3c0.5-0.9-1.3-1.5-1.5-2.6l0.4,0.2l0.1-1.1l0.1,0.1l-0.8-0.9h0.6c-0.2-0.2-0.5-0.3-0.6-0.5l0.7,0.1
						c-1.1-0.3-1.7-1.3-1.8-1.8l0.3-0.1l-1.5-1.2c0.8-0.6,1.7,0.8,1.2-0.4l1.5,0.3c-0.6-0.9,0.2-1-0.3-1.6c-0.8,0.3-0.7,0.7-1.3,0.4
						c1.7-0.7-0.4-1.1-1.1-1.8c0,0.3,0,0.6,0.9,0.8c0,0.4-0.8,0.1-0.9,0.4l0.8,0.5l-1,0.1l0.8,0.9c-1.2-0.1-0.2,0.8-1.4,0.5
						c0.5,0.6-0.3,1,0.9,1.5c-0.7,0.4-0.9-0.7-1-0.2c1,2.5,0.8,5,0.4,7.5l-0.5-0.2c0.5,0.2,1,0.6,1.4,0.8c-1,0.4-2.2,2.1-0.4,2.7
						c-0.1,0.1-0.4,0-0.5-0.1c0.2,0.9-1.1,2.4-0.9,3.6c1.9,0.5-1.2,1.8,1.4,2.3l-0.5-0.3c0.7-0.4,1.8,0.6,2.4,0.8
						c-1.7,0.3-1.3,0-2.8,0.4l0.6-0.5l-1.4,0.1c3.6,1.5-1.6,2.9,1,3.8c-0.1-0.1-0.4,0-0.5-0.1c-0.8,0.6,1,1.1,1.5,1.6
						c-0.7,0.1-1.1-0.3-1.7-0.5c-0.5,1.1,1.3,3,0.2,4.2c0.9,0.4,1.3-0.2,2,0.3c-0.3,0.4-1,0.7-1.5,0.2c-1.7,1.1,1.1,3.5-0.5,5.2
						c1,0.9,1.5,0.3,2.2,1.6c-0.7-0.3-2.3,0.3-2.4-0.5L440,46c-0.1,1.3-0.4,3.1,1.7,3.8c-1.5,0-0.3,0.2-1.1,0.7
						c0.2,0.2,0.2,0,0.3-0.1c1.3,0.5-0.1,0.7,0.2,1.1l-0.3-0.1l0.9,0.9c-0.2,0.2-0.5,0.4-1,0.4h1.1c0,0.5-1.4,0.2-1.1,0.9l0.8-0.1
						c-0.5,0.4,0.6,1-0.5,1.1c-0.2,0-0.1-0.1-0.2-0.2c-1.6,0.6,0.5,1.6-0.2,2.4l1.7-0.2c0.5,0.8-0.4,0.5-1,0.4
						c0,0.5-0.5,0.6-0.7,1.3c0.4,0.3,0.6,0.2,1.1,0.3l-0.4,0.7l-0.9-0.4c2.5,1-0.3,2.6,2,3.3c-0.5,0.4-1-0.4-1.3-0.1
						c-1.1,1.2,1.6,2.8,0.4,3.8c-1.2,1.7,0,3.6-0.9,5.5h0.5l-0.4,1.3c1,0.4,0.6,1.3,1.8,1.8c-0.4,0-0.9,0.1-1.2-0.1
						c0.1,0.6,0.7,1.2,0,1.5l-0.4-0.2c-0.3,1.2-0.3,3,0.6,3.6c0.1,0.4-0.7,0.4-1.3,0.5c-0.1,0.7,0.4,1.2,1.2,1.8
						c-0.2,0.2-0.4,0.3-0.8,0.5l1.1,0.3c-0.2,0.3-0.9,0.1-1.2,0.3c1.3,1.1,0.1,2.4,0.2,3.2l0.6-0.1c0.4,0.3-0.3,1-0.9,0.6
						c-0.7,1.6,1.8,2.3,1.5,4.4c-2,0.3,0.6,1.9-1.7,2.2c0.6,0.9-0.3,1.5,1,2.1c-0.2,0-0.3,0.1-0.4,0c-0.9,0.4-0.2,1.5,0.4,2.4h-0.7
						c1.5,0.3,1.1,1.9,2.6,2.2c-0.3,0.1-0.6-0.2-0.9-0.3c-1.4,0.5,0.7,0.8,0.4,1.4c-0.4,0-0.8,0.1-1.1,0c-1.6,2,1.1,4.9,0,7.5
						c-0.1,0.7,1.6-0.3,1.5,0.7c-0.8,0.3-1.5-0.5-1.9,0.1c0.9,0.4,0.7,0.6,0.7,1.2c-0.5-0.1-0.8,0-1.2-0.4c-0.6,0.3,1.2,1.4-0.1,2.1
						c0.5,0,0.7,0.1,1,0.2c1.3,1-1.3,2.3-0.6,2.4c0,0,0.2,0.3,0.4,0c0,0.4-0.2,0.9-1,0.8c0.4,0.2,1,0.4,1.1,0.6l-0.9-0.2
						c0.2,0.2,0.7,0.4,0.8,0.5l0.5-0.3c-0.7,0.4,1,1.2-0.6,1.2v-0.1l-0.7,0.8c0.7,0.3,1.3,0.6,1.1,1.1c-1.7,0.2-0.4,1.3-0.6,2h-0.6
						c0.8,0.5,0.5,1.8,0.8,1.6c0,0.5-0.4,1.2-0.9,0.9c0.3,0.4,0.3,1.3,1.3,1.5l-1.4,0.8c2.1,0.5-0.8,1.6,1.5,1.7
						c-0.4,0.5-0.9,0.4-1.2,0.7c1.1,0.6,0.9,1.3,0.7,2H441c-0.2,0.7,1,1.4,1.1,2.4l-1.7,0.2c0.2,0.5,1.6,0.6,1.2,1.1
						c-0.3,0.1-0.4,0-0.4-0.1c0.3,0.5-0.1,1.1-0.5,1.4c1.2,0.7,0.8,1.2,2.1,1.9c-1.5,0.5-0.7-0.8-2.1-0.3c-0.8,1,0,2,0.8,3.1
						c-0.3,0.1-0.6,0-1-0.1c0,0,4.1,2.2,5.8,1.8c1.1,0.3,1.8,0.6,2.7-0.3c-0.7-0.3-1.5-1.2-0.2-1.4l-1.2-0.1
						c-0.6-1.3,2.4-0.1,2.4-1.6l-0.4,0.3c-0.1-0.3-0.8-0.5-0.4-0.8c0.3-0.1,0.5,0.1,0.8,0.2l-1.6-1.3c0.7-0.1,1.1,0,1.6,0.2
						c-0.1-1.1-2.2,0.2-1.7-1.2c0.5-0.3,0.7,0.1,1.1,0.3c1-0.6,0.1-1.1-0.6-1.8c1.1,0,0.9,0.4,1.6-0.1c-0.6,0.1-1.5,0.2-1.6-0.2
						c1.1,0.2,0.6-0.3,0.8-0.7c-0.4,0.1-0.9,0.1-1.1-0.1s0.3-0.4,0.2-0.7l-1.1,0.5c-1-0.7,0.5-1.1,1-1.7c0.2,0,0.3,0.1,0.4,0.2
						c0.4-0.6,1.3-1.2,0.4-1.9l0.1,0.1c-1.1-1.4-1.8,0.4-2.8-1.2c0.2-0.5,3.5,0.3,2.2-1c-0.9,0.6-2.2-0.8-2.6-1.5l2.1,0.7
						c0-0.3-0.6-0.8-0.3-0.9h-0.5c-1.8,0.1,0.2-0.9-0.8-1.4c2.4,0.6,1.9,0.7,4.3,0.8c-1.3-0.5-2.5-1-2.3-1.9l1.8,0.7
						c0.4-1.2-2.3-2.6-3.8-3.5c1.4,0.3,1.8-0.1,3,0.3l-0.3-1.1l1.5,0.3c-1.5-0.5-0.5-1-2.5-0.9c0.3,0.1,0.5,0.1,0.4,0.3
						c-0.6,0-1.8-0.2-1.7-0.8c0.5-0.4,0.8,0.2,1.3,0.1c-0.8-0.4,0.5-0.4-0.1-0.8l-0.9,0.3c-1.1-0.3,0-0.6-0.6-1
						c0.5,0.5,1.2,0.3,1.8,0.1h-0.1c-0.1-0.3-0.9-0.7-0.2-0.9l1.6,0.2l-1.2-0.4c0.2-0.2,0.8-0.3,1.1,0c1-1.3-3.4,0-2-1.7
						c0.6,0,1,0.2,0.6,0.7c1,0.1,1.5,0,1.9-0.5c0.1,0,0.1,0,0.2,0C450.6,113.3,450.7,112.2,449.6,111.7z"/>
					<path d="M450.6,114.2c0,0.5,0,0.9,0.2,1.1C451.1,115.2,451.6,114.2,450.6,114.2z"/>
					<path d="M449,44.8c0,0.1,0.1,0.1,0.2,0.2C449.1,44.8,449,44.8,449,44.8z"/>
					<path d="M448.5,41.1c-0.2,0-0.3,0.1-0.4,0.2C448.5,41.1,448.7,41.1,448.5,41.1z"/>
					<path d="M449.5,79.6L449.5,79.6L449.5,79.6z"/>
					<path d="M449.9,58.4c-0.5-0.3-0.9-0.5-1.3-0.5C448.7,58.1,449.1,58.3,449.9,58.4z"/>
					<path d="M449.3,65.6c0.1,0,0.1,0.1,0.2,0.1C449.4,65.6,449.4,65.6,449.3,65.6z"/>
					<path d="M450.3,80.8c-0.5-0.3-0.5-0.8-0.8-1.1C449.8,79.9,449.2,80.6,450.3,80.8z"/>
					<polygon points="446.8,36.4 447.6,36.8 447,36.4 					"/>
					<path d="M447.3,39.9c-0.2,0.2,0.3,0.8,0.7,0.6C447.6,40.3,447.5,40.1,447.3,39.9z"/>
					<polygon points="446.5,53.3 447.4,53.4 446.7,53.1 					"/>
				</g>
			</g>
		</g>
	</g>
</g>
<path d="M393.8,120.4"/>
<g>
	<path class="st1" d="M411.5,99.9v37.6h22.9v3.3h-26.8V99.9H411.5z"/>
	<path class="st1" d="M448.3,99.9v40.9h-3.9V99.9H448.3z"/>
	<path class="st1" d="M490.5,99.9v3.3h-14.3v37.6h-3.9v-37.6h-14.2v-3.3H490.5z"/>
	<path class="st1" d="M528.3,99.9v3.3H504V118h22.8v3.3H504v16.2h24.6v3.3h-28.5V99.9H528.3z"/>
</g>
</svg>
