<?xml version="1.0" encoding="utf-8"?>
<!-- Generator: Adobe Illustrator 24.2.1, SVG Export Plug-In . SVG Version: 6.00 Build 0)  -->
<svg version="1.1" id="Layer_1" xmlns="http://www.w3.org/2000/svg" xmlns:xlink="http://www.w3.org/1999/xlink" x="0px" y="0px"
	 viewBox="0 0 531.4 215.9" style="enable-background:new 0 0 531.4 215.9;" xml:space="preserve">
<style type="text/css">
	.st0{fill:#39B54A;}
</style>
<path d="M409.2,100.1"/>
<g>
	<polygon points="521.4,167.6 520.9,166.6 518.4,167.8 	"/>
	<path d="M495.6,166.5c-2.3,1.1-6.7,1.8-6.8,3.9l4.2-1.9c0.6,1.6,3.3,1.5,5.8,1l-2.8,0.1c0.7-0.2,0.3-1.2,1-1.4
		c4.2,0.8,5.3-1.4,9.2,0.4l-0.2,0.2l3.1-1c1,0.2,0.6,1,0.3,1.3c2.7-0.8,4.8-1.7,8.5-1.6c-2.9-2.9-8.1,2.2-11-0.6l0.2-0.2
		C503.4,167.6,499.3,165.7,495.6,166.5z"/>
	<path d="M509.3,168.9c-0.1,0-0.2,0-0.2,0.1S509.2,169,509.3,168.9z"/>
	<path d="M360.7,164.8l-0.1,0.5C360.8,165,361,164.9,360.7,164.8z"/>
	<path d="M406.1,170.5c-0.1,0-0.1,0-0.2-0.1C405.6,171.1,405.8,170.9,406.1,170.5z"/>
	<path d="M114,165.4l-0.9-0.7C113.3,165.4,113.6,165.5,114,165.4z"/>
	<path d="M53,164.9C53,164.9,52.9,165,53,164.9C52.9,165,53,164.9,53,164.9z"/>
	<path d="M80.8,173.8l0.1,0.6C81,174.1,80.9,173.9,80.8,173.8z"/>
	<path d="M61.1,175c-0.5-0.1-1.1-0.3-1.6-0.3C59.8,175,60.5,175.1,61.1,175z"/>
	<path d="M53.6,164.7c-0.2,0.1-0.4,0.2-0.6,0.2C53.2,164.9,53.5,164.8,53.6,164.7z"/>
	<path d="M110.4,174.9l0.8,1.5C111.1,175.9,110.7,175.4,110.4,174.9z"/>
	<path d="M56.2,176.2c-0.3-0.3-0.6-0.4-1-0.5C55.4,175.9,55.7,176.2,56.2,176.2z"/>
	<path d="M491.6,166.6c0.6,0,1.2-0.1,2-0.2C492.9,166.3,492.2,166.4,491.6,166.6z"/>
	<path d="M221.4,176.2c-0.2,0.2-0.3,0.4-0.4,0.6C221.5,176.7,221.5,176.5,221.4,176.2z"/>
	<path d="M156.4,176l-0.2,0.1c0.1,0.1,0.1,0.1,0.3,0.2L156.4,176z"/>
	<path d="M175.3,175.8c-0.1,0.1-0.2,0.2-0.3,0.3C175.3,175.9,175.3,175.8,175.3,175.8z"/>
	<path d="M142,177.6c-0.2,0.1-0.5,0.3-0.7,0.5L142,177.6z"/>
	<path d="M128.3,176c0.6,0.5,0,1-0.7,1.5c3.4,0.7,4.6-1.2,8.1,0.2L134,177c2.3-1.1,6.6-1.3,8.6,0.1l-0.6,0.5c2.2-1.2,5.6,1,6.6,0
		c-0.9-0.7,0-1-1.4-1.7l5.6-1.2l0.4,2l2.9-0.7c-0.7-0.8,3.9,0.6,4-1.3c1.7,0.7-0.7,1.5-1.3,2.3c1.6-0.6,1.8,0.3,3.4-0.9l1.6,1.8
		l4.3-1.3c-0.2,0.2,0.1,0.3-0.2,0.5c2-1.5,5,0.9,7.5-1.7c-0.1,0.1-0.1,0.2-0.1,0.3c1.4-1.4,4.7-0.4,6-0.1c2.2-0.3,0.9-1.7,1-2.5
		c6.4,0.5,4.4,0.3,9.8-1.8c3.2,2.2-3.8,3.6,0.3,5.2c0.5-1.1,3.4-1.9,6.6-2.4c2.9,0.8,7.9,1.4,10.7,2.9l-0.3-1.5l4.1-0.8l-2.3,2.1
		c0.7-0.5,2.7-1.4,4.1-2.1c4.3-1.3,2.4,3.2,5.8,1c0.1,0.2,0.2,0.3,0.3,0.5c1.1-1.1,3.9-0.7,7.1-1.1l-1.1,1.9l-2.1-0.4
		c1.1,1.8,3.5-0.3,5.5-0.2c2.1-0.6,1.1-2.2,2.2-2.7c0.8,0.1,1.9-0.5,2.5,0.1c1.9,0.6,0.2,2.2-0.4,3c1.6-1.9,2.2-1.7,5.8-2.5
		c0.2,0.9-0.1,1.3-0.6,1.5c0.8-0.2,1.4-0.6,1.8-1.5l1.2,1.1c4.1,1.6,4.1-3.5,9-2.9c-1.3,1,4.3-0.2,5.8,1c-1.7,0.3,0.8,2.7-0.2,3.9
		c3.9,0.7,1.6-2.2,4.8-2.7l-1.3,2.3c3.1-1,0.7-1.3,3.9-2c-0.9,0.7,1.4,0.6-0.5,1.4c4.1,0.2,3,0,6.6,0.3l0.3-2.3
		c1.2-0.3,1.7,0.7,2,1.2c-0.5,0-1.3,0-1.2,0.3c1.4,1.9,2.3-1.1,3.9,0.7c-0.4-0.7-0.9-1.7,0.6-1.8c-0.5,1.4,2.3,1.3,2.4,1.9
		c-0.9-0.9,3.2-0.4,3.4-1.9c1.7,1-0.5,1.1-0.6,1.8c1.4-1.8,6-0.3,7.3-1.3c0,0.1,0.1,0.2,0.1,0.3c1.8-1.1,4.9-1.3,8.5-2.9l-1.2,1.3
		c3.7,0.6,2.2-2.7,5.3-2.7c-0.6,1.8,5-0.2,3.7,1.9c1.8-1.1,3.7-1.5,4.9-3.1c1.7,1-3.3,2.5-0.9,3l2.6-1l0.5,1
		c0.1-0.7,2.4-0.8,2.2-1.4c0.4,1.2,1.4,2,1.3,2.9c1.6-0.4,3.9,0.8,5.3-0.3l0.1,0.6c1.6-2.2,5-0.5,5.8-2.7l1,1.2
		c2.5-0.2,2-2.6,3.2-3.1c1-0.1,2.2-0.3,3.3-0.1c-3.2,1.5,1.6,1.8,2.3,2.6c1.3,0,5-0.2,6.1-1.3c-1.5,1.2-0.6,2.1-3.3,2.2
		c1.5,2.2,4.2-0.5,7.3-0.2v1c4.4-0.7,4.5-2.5,6.4-4.3c0.5,1.3,0.1,1.6-1.2,2.9c2.9,0.8,7.6-0.1,10.9,0c1,0.9,0.4,1.4-0.7,1.9
		c3.4-1,7.7,0.2,9.8-2.1c-0.8,0.9,1.4,0.6,2.6,1c0-0.5,0.2-1.1,0.4-1c2.1-0.9,6.7-1.8,9.2-1l-0.9,0.7c5.6,0.4,8.1-3.6,14.3-1.9
		c1.1,0.5-1.1,1.9,1.1,1.8c1.1-0.8,0.7-2.6,3.6-2.1l-0.2,1.5l2-1.5c-1-1.2-4.2-0.8-2-2.2c2.6,1.4,2.2-1.4,5.4,0.3
		c-0.7,0.2-1.7,1.3-2.2,1.9c6.6,1.8,9.2-1.5,15.8,0.4c3.3-1.2,7.6-1.4,9.8-2.5c-0.2,1.5-0.2,2.8-1.7,4c2.8,0.2,4.1-3.2,6.1-1
		c1.4-2.1,7.8-1.3,8.5-4.2c0.1,0.6,3,0,0.1,1.6c3.9-0.9,5.1,2.5,6.8,2.5c1-0.1-1.1-1.8,1.1-1.9c0.3,0.1,0.3,0.4,0.6,0.5l0.9-0.7
		c0.9,0.7-1,1.4-1.1,2.2c3.2,0.6,5.2-1.7,9-1.8l-0.6,0.5l3.8,0.1l-0.2,0.2l3.1-1L468,170c0.7-0.2,0.9-0.7,1.9-0.8l-0.3,0.9
		c1-1.4,4.6-2.2,6.4-2.2l0.3,0.4l4.2-1.9c2.2,1-2.8,2.2,1.6,1.5l-1.1,1.9c3.1-0.7,3.6,0.3,5.7-0.4c-1-1-2.5-0.8-1.4-1.7
		c2.5,2.1,3.9-0.6,6.3-1.4c-1.2,0-2,0-2.8,1.1c-1.3,0-0.5-1-1.2-1.1l-1.8,1.1l-0.5-1.3l-3.1,1c0.2-1.5-2.8-0.2-1.6-1.8
		c-2.2,0.6-3.4-0.4-5.3,1.1c-1.5-0.9,2.3-1.1,0.8-1.3c-8.6,1.2-17.5,1-26.5,0.5l0.9-0.7c-0.9,0.7-2,1.2-2.7,1.7
		c-1.5-1.2-7.4-2.7-9.5-0.5c-0.3-0.1,0.2-0.5,0.4-0.6c-3,0.3-8.4-1.3-12.6-1.1c-1.8,2.4-6.4-1.5-8,1.8l0.9-0.7
		c1.4,0.9-2.1,2.3-2.7,3.1c-1.2-2.1-0.1-1.6-1.5-3.6l1.7,0.7l-0.4-1.7c-5.4,4.5-10-2.1-13.4,1.2c0.2-0.2,0.2-0.5,0.4-0.6
		c-2.2-1-3.8,1.2-5.4,1.8c-0.2-0.9,1-1.4,1.8-2.1c-3.9-0.7-10.5,1.7-14.9,0.3c-1.5,1.2,0.6,1.6-1,2.5c-1.3-0.3-2.3-1.3-0.6-1.9
		c-3.7-2.2-12.4,1.4-18.1-0.6c-3,1.3-1.1,1.9-5.8,2.7c1.1-0.8-1.1-2.9,1.7-3l0.3-0.9c-4.6-0.2-10.7-0.5-13.2,2.1
		c-0.1-1.9-0.8-0.4-2.6-1.4c-0.7,0.2,0.1,0.3,0.3,0.4c-1.7,1.6-2.5-0.1-3.8,0.2l0.4-0.3l-3.3,1.2c-0.5-0.2-1.4-0.6-1.5-1.2v1.3
		c-1.8,0-0.9-1.7-3.1-1.4l0.5,1c-1.4-0.6-3.6,0.8-3.9-0.7c-0.1-0.3,0.2-0.2,0.7-0.2c-2.2-2-5.7,0.7-8.4-0.3l0.7,2.2
		c-2.6,0.7-1.6-0.4-1.5-1.2c-1.8,0-2.2-0.7-4.5-0.9c-1.2,0.5-0.6,0.8-1,1.4l-2.3-0.1l1.5-1.2c-3.7,3.1-9.2-0.4-11.6,2.5
		c-1.4-0.6,1.2-1.3,0.4-1.7c-4.3-1.4-9.7,2.1-13.3,0.5c-5.9-1.5-12.7,0-19.2-1.1l0.1,0.6l-4.6-0.5c-1.3,1.3-4.4,0.7-6.4,2.2
		c0.2-0.5-0.3-1.2,0.2-1.5c-2,0.2-4.1,0.8-5.3,0l0.7-0.5c-4.4-0.4-10.5-0.4-12.8,0.7c-1.5,0.1-1.5-0.9-1.9-1.6
		c-2.5-0.1-4.2,0.5-6.3,1.5c-0.5-0.2-1.1-0.5-1.7-1l-1,1.4c-1.1-0.2-0.2-1.2-1.1-1.5c-3.9,1.7-8.6,0.2-11.3,0.3l0.4,0.7
		c-1.1,0.6-3.4-0.4-2-1.2c-5.5-0.8-8.1,2.2-15.5,1.9c-1-2.6-6.7,0.8-7.8-2.1c-3.1,0.7-5.1-0.4-7.3,1.3c-0.1-0.3-0.3-0.4,0.2-0.5
		c-1.2-1.1-5.4-0.3-8.5,0.5l-0.2-0.9c-1.1,1.9-6.6,1.3-7.7,3.2c-0.3-0.4,0.6-0.8,1-1.1c-1.6-1.8-2.9,0.9-5,0.5c0.2-0.5-0.5-1,0-1.3
		c-7-2-17.2,1.4-26.3,0c-2.5-0.1,0.9,2-2.4,1.8c-1-1,1.6-1.9-0.5-2.3c-1.5,1.2-2.1,0.9-4.1,0.8c0.4-0.6,0-1,1.5-1.5
		c-1.2-0.8-5,1.5-7.4-0.1c0.1,0.6-0.3,0.9-0.7,1.3c-3.5,1.7-7.9-1.7-8.3-0.7c0,0-1.2,0.3-0.2,0.5c-1.3,0-3.1-0.3-2.8-1.2
		c-0.7,0.5-1.2,1.3-2.2,1.4l0.5-1.1c-0.6,0.2-1.2,0.9-1.8,1.1l0.9,0.7c-1.5-0.9-4.3,1.3-4.2-0.8h0.5l-2.7-0.9
		c-1.1,0.8-2.2,1.7-4,1.4c-0.7-2.2-4.7-0.5-7-0.7l0.1-0.8c-1.8,1.1-6.5,0.6-5.6,1c-1.8,0-4.2-0.5-3.3-1.2c-1.4,0.4-4.5,0.4-5.2,1.7
		l-2.9-1.8c-1.7,2.7-5.8-1-5.9,1.9c-1.6-0.4-1.2-1.1-2.4-1.6c-2.2,1.4-4.6,1.2-6.9,0.9l-0.1-0.3c-2.3-0.2-5.1,1.2-8.3,1.3l-0.7-2.2
		c-1.7,0.3-2.1,2-3.7,1.5c-0.4-0.3,0-0.4,0.4-0.6c-1.6,0.4-3.7-0.1-5-0.7c-2.5,1.6-4.4,1-6.5,2.7c-1.9-1.9,2.9-0.8,1.2-2.6
		c-3.5-1-7.1,0-10.9,1c-0.3-0.4,0.1-0.7,0.3-1.2c0,0-7.8,5.2-6.4,7.3c-1,1.4-2.1,2.3,1.2,3.4c1.1-0.8,4.2-1.9,4.8-0.3l0.2-1.5
		c4.4-0.7,0.4,3.1,5.7,3l-1.1-0.5c1-0.1,1.8-1.1,2.9-0.6c0.3,0.4-0.4,0.6-0.8,1l4.4-2c0.2,0.9,0,1.3-0.9,2c4-0.1-0.8-2.7,4.1-2.2
		c0.9,0.7-0.3,0.9-1,1.4c2.3,1.3,3.8,0.1,6.2-0.7c0,1.3-1.5,1.2,0.4,2c-0.4-0.7-0.6-1.9,0.9-2c-0.7,1.4,1.1,0.7,2.6,1.1
		c-0.3-0.5-0.2-1.1,0.4-1.3c0.7-0.2,1.3,0.3,2.3,0.2l-1.8-1.3c2.5-1.3,3.9,0.7,5.8,1.3c-0.2,0.2-0.5,0.4-0.9,0.5
		c2,0.5,4.1,1.6,6.6,0.5l-0.2,0.2c4.8-1.3-1.5-2.2,4.1-3.5c1.8,0.3-0.9,4.4,3.4,2.8c-2-1.2,2.7-2.8,5.1-3.3l-2.5,2.6
		c1,0,2.7-0.7,3.2-0.4l-0.1-0.6c-0.2-2.2,3.1,0.3,4.9-1c-2.2,3-2.3,2.4-2.7,5.4c1.7-1.6,3.7-3.2,6.8-2.8l-2.6,2.3
		c4.1,0.5,9-2.9,12.4-4.8c-0.9,1.7,0.5,2.3-1,3.8l4-0.4l-1.1,1.9c1.6-1.9,3.4-0.6,3.1-3.1c-0.4,0.3-0.4,0.6-1.1,0.5
		c0.1-0.8,0.8-2.3,2.8-2.2c1.4,0.6-0.8,1-0.4,1.7c1.3-1,1.4,0.6,2.8-0.1l-1.2-1.1c1-1.4,2.3-0.1,3.6-0.8c-1.6,0.6-1.1,1.4-0.5,2.3
		l-0.1-0.2c1-0.1,2.3-1.1,3-0.3l-0.8,2l1.5-1.5c0.6,0.2,0.9,1,0,1.3c4.5,1.2-0.1-4.3,5.8-2.5c-0.1,0.8-0.8,1.3-2.4,0.8
		c-0.3,1.2,0.1,1.9,1.7,2.4c0,0.1,0,0.2,0,0.2C122.2,177.3,126.2,177.4,128.3,176z"/>
	<path d="M119.1,177.2c-1.7,0-3.1,0-3.7,0.3C115.7,177.9,119.2,178.5,119.1,177.2z"/>
	<path d="M363,175.1c-0.2,0.1-0.4,0.1-0.6,0.2C362.6,175.2,362.8,175.2,363,175.1z"/>
	<path d="M376.1,174.5c-0.1-0.2-0.4-0.3-0.7-0.4C375.4,174.4,375.6,174.7,376.1,174.5z"/>
	<path d="M240.4,175.8L240.4,175.8L240.4,175.8z"/>
	<path d="M315,176.3c1.1-0.6,1.6-1.2,1.6-1.7C315.9,174.8,315.3,175.2,315,176.3z"/>
	<path d="M289.8,175.5c-0.2,0.1-0.3,0.2-0.5,0.3C289.7,175.7,289.8,175.6,289.8,175.5z"/>
	<path d="M236.4,176.8c1.1-0.7,2.7-0.6,3.9-1C239.3,176.1,237.2,175.5,236.4,176.8z"/>
	<polygon points="392.1,172.3 390.8,173.3 392.2,172.6 	"/>
	<path d="M379.8,173c-0.5-0.2-2.7,0.4-2.1,0.9C378.4,173.4,379.1,173.2,379.8,173z"/>
	<polygon points="332.9,172 332.3,173.1 333.4,172.3 	"/>
</g>
<g>
	<polygon points="246.1,170.8 246.3,171.3 247.3,170.7 	"/>
	<path d="M256.9,171.3c1-0.5,2.8-0.7,2.8-1.6l-1.7,0.8c-0.2-0.7-1.4-0.6-2.4-0.4h1.2c-0.3,0.1-0.1,0.5-0.4,0.6
		c-1.8-0.3-2.2,0.6-3.8-0.1l0.1-0.1l-1.3,0.4c-0.4-0.1-0.2-0.4-0.1-0.5c-1.1,0.3-2,0.7-3.6,0.7c1.2,1.2,3.4-0.9,4.6,0.3l-0.1,0.1
		C253.6,170.8,255.3,171.6,256.9,171.3z"/>
	<path d="M251.1,170.3h0.1C251.2,170.2,251.2,170.2,251.1,170.3z"/>
	<path d="M313.4,172l0.1-0.2C313.4,171.9,313.3,171.9,313.4,172z"/>
	<path d="M294.4,169.6L294.4,169.6C294.6,169.4,294.5,169.4,294.4,169.6z"/>
	<path d="M416.8,171.7l0.4,0.3C417.1,171.7,416.9,171.7,416.8,171.7z"/>
	<path d="M442.3,171.9L442.3,171.9L442.3,171.9z"/>
	<path d="M430.7,168.2l-0.1-0.2C430.6,168.1,430.6,168.2,430.7,168.2z"/>
	<path d="M438.9,167.8c0.2,0.1,0.5,0.1,0.7,0.1C439.5,167.7,439.2,167.7,438.9,167.8z"/>
	<path d="M442.1,172c0.1,0,0.2-0.1,0.3-0.1C442.2,172,442.1,172,442.1,172z"/>
	<path d="M418.3,167.8l-0.3-0.6C418,167.4,418.1,167.6,418.3,167.8z"/>
	<path d="M441,167.3c0.1,0.1,0.3,0.2,0.4,0.2C441.3,167.4,441.2,167.3,441,167.3z"/>
	<path d="M258.5,171.2c-0.2,0-0.5,0-0.8,0.1C258,171.4,258.3,171.3,258.5,171.2z"/>
	<path d="M371.8,167.2c0.1-0.1,0.1-0.1,0.1-0.2C371.7,167.1,371.7,167.1,371.8,167.2z"/>
	<path d="M399,167.3L399,167.3c0.1,0,0-0.1,0-0.1V167.3z"/>
	<path d="M391.1,167.4l0.1-0.1C391.1,167.4,391.1,167.4,391.1,167.4z"/>
	<path d="M405,166.7c0.1-0.1,0.2-0.1,0.3-0.2L405,166.7z"/>
	<path d="M410.8,167.3c-0.3-0.2,0-0.4,0.3-0.6c-1.4-0.3-1.9,0.5-3.4-0.1l0.7,0.3c-1,0.5-2.7,0.6-3.6,0l0.3-0.2
		c-0.9,0.5-2.4-0.4-2.8,0c0.4,0.3,0,0.4,0.6,0.7l-2.3,0.5l-0.2-0.8l-1.2,0.3c0.3,0.3-1.6-0.3-1.7,0.5c-0.7-0.3,0.3-0.6,0.5-1
		c-0.7,0.2-0.8-0.1-1.4,0.4l-0.7-0.7l-1.8,0.5c0.1-0.1,0-0.1,0.1-0.2c-0.8,0.6-2.1-0.4-3.1,0.7c0.1,0,0-0.1,0.1-0.1
		c-0.6,0.6-2,0.2-2.5,0c-0.9,0.1-0.4,0.7-0.4,1c-2.7-0.2-1.8-0.1-4.1,0.7c-1.4-0.9,1.6-1.5-0.1-2.1c-0.2,0.5-1.4,0.8-2.8,1
		c-1.2-0.3-3.3-0.6-4.5-1.2l0.1,0.6l-1.7,0.3l1-0.9c-0.3,0.2-1.1,0.6-1.7,0.9c-1.8,0.5-1-1.3-2.4-0.4c-0.1-0.1-0.1-0.1-0.1-0.2
		c-0.4,0.5-1.6,0.3-3,0.5l0.5-0.8l0.9,0.2c-0.5-0.8-1.5,0.1-2.3,0.1c-0.9,0.3-0.5,0.9-0.9,1.1c-0.3,0-0.8,0.2-1.1,0
		c-0.8-0.2-0.1-0.9,0.2-1.2c-0.7,0.8-0.9,0.7-2.4,1c-0.1-0.4,0-0.5,0.2-0.6c-0.3,0.1-0.6,0.3-0.8,0.6l-0.5-0.4
		c-1.7-0.6-1.7,1.4-3.8,1.2c0.6-0.4-1.8,0.1-2.4-0.4c0.7-0.1-0.3-1.1,0.1-1.6c-1.7-0.3-0.7,0.9-2,1.1l0.5-1
		c-1.3,0.4-0.3,0.5-1.6,0.8c0.4-0.3-0.6-0.3,0.2-0.6c-1.7-0.1-1.3,0-2.8-0.1l-0.1,0.9c-0.5,0.1-0.7-0.3-0.8-0.5c0.2,0,0.5,0,0.5-0.1
		c-0.6-0.8-1,0.5-1.6-0.3c0.2,0.3,0.4,0.7-0.3,0.8c0.2-0.6-1-0.5-1-0.8c0.4,0.4-1.3,0.2-1.4,0.8c-0.7-0.4,0.2-0.5,0.3-0.8
		c-0.6,0.7-2.5,0.1-3.1,0.5c0-0.1,0-0.1,0-0.1c-0.8,0.4-2,0.6-3.6,1.2l0.5-0.5c-1.5-0.2-0.9,1.1-2.2,1.1c0.3-0.8-2.1,0.1-1.5-0.8
		c-0.8,0.4-1.6,0.6-2.1,1.3c-0.7-0.4,1.4-1,0.4-1.3l-1.1,0.4l-0.2-0.4c0,0.3-1,0.3-0.9,0.6c-0.2-0.5-0.6-0.8-0.6-1.2
		c-0.7,0.1-1.6-0.3-2.2,0.1l-0.1-0.2c-0.7,0.9-2.1,0.2-2.4,1.1l-0.4-0.5c-1,0.1-0.8,1.1-1.3,1.3c-0.4,0-0.9,0.1-1.4,0.1
		c1.4-0.6-0.7-0.7-1-1.1c-0.5,0-2.1,0.1-2.5,0.5c0.6-0.5,0.2-0.9,1.4-0.9c-0.6-0.9-1.8,0.2-3.1,0.1V168c-1.8,0.3-1.9,1-2.7,1.8
		c-0.2-0.5,0-0.7,0.5-1.2c-1.2-0.3-3.2,0-4.6,0c-0.4-0.4-0.1-0.6,0.3-0.8c-1.4,0.4-3.2-0.1-4.1,0.9c0.4-0.4-0.6-0.2-1.1-0.4
		c0,0.2-0.1,0.4-0.2,0.4c-0.9,0.4-2.8,0.7-3.8,0.4l0.4-0.3c-2.4-0.2-3.4,1.5-6,0.8c-0.5-0.2,0.5-0.8-0.5-0.8
		c-0.5,0.3-0.3,1.1-1.5,0.9l0.1-0.6l-0.8,0.6c0.4,0.5,1.8,0.3,0.8,0.9c-1.1-0.6-0.9,0.6-2.3-0.1c0.3-0.1,0.7-0.5,0.9-0.8
		c-2.7-0.7-3.8,0.6-6.6-0.2c-1.4,0.5-3.2,0.6-4.1,1c0.1-0.6,0.1-1.2,0.7-1.7c-1.2-0.1-1.7,1.3-2.6,0.4c-0.6,0.9-3.3,0.5-3.6,1.7
		c0-0.2-1.3,0,0-0.7c-1.6,0.4-2.1-1-2.9-1c-0.4,0,0.5,0.8-0.5,0.8c-0.1-0.1-0.1-0.2-0.3-0.2l-0.4,0.3c-0.4-0.3,0.4-0.6,0.4-0.9
		c-1.3-0.3-2.2,0.7-3.8,0.8l0.3-0.2h-1.6l0.1-0.1l-1.3,0.4v-0.3c-0.3,0.1-0.4,0.3-0.8,0.3l0.1-0.4c-0.4,0.6-1.9,0.9-2.7,0.9
		l-0.1-0.2l-1.7,0.8c-0.9-0.4,1.2-0.9-0.7-0.6l0.5-0.8c-1.3,0.3-1.5-0.1-2.4,0.2c0.4,0.4,1,0.3,0.6,0.7c-1-0.9-1.6,0.2-2.6,0.6
		c0.5,0,0.8,0,1.2-0.5c0.5,0,0.2,0.4,0.5,0.4l0.8-0.4l0.2,0.5l1.3-0.4c-0.1,0.6,1.2,0.1,0.7,0.7c0.9-0.3,1.4,0.2,2.2-0.4
		c0.6,0.4-1,0.5-0.3,0.5c3.6-0.5,7.3-0.4,11.1-0.2l-0.4,0.3c0.4-0.3,0.8-0.5,1.1-0.7c0.6,0.5,3.1,1.1,4,0.2c0.1,0.1-0.1,0.2-0.2,0.3
		c1.3-0.1,3.5,0.5,5.3,0.5c0.8-1,2.7,0.6,3.4-0.7l-0.4,0.3c-0.6-0.4,0.9-0.9,1.1-1.3c0.5,0.9,0,0.7,0.6,1.5l-0.7-0.3l0.2,0.7
		c2.3-1.9,4.2,0.9,5.6-0.5c-0.1,0.1-0.1,0.2-0.2,0.3c0.9,0.4,1.6-0.5,2.3-0.8c0.1,0.4-0.4,0.6-0.8,0.9c1.6,0.3,4.4-0.7,6.2-0.1
		c0.6-0.5-0.2-0.7,0.4-1c0.6,0.1,1,0.5,0.3,0.8c1.6,0.9,5.2-0.6,7.6,0.2c1.3-0.5,0.5-0.8,2.4-1.1c-0.5,0.3,0.5,1.2-0.7,1.2l-0.1,0.4
		c1.9,0.1,4.5,0.2,5.5-0.9c0.1,0.8,0.4,0.2,1.1,0.6c0.3-0.1,0-0.1-0.1-0.2c0.7-0.7,1.1,0,1.6-0.1l-0.2,0.1l1.4-0.5
		c0.2,0.1,0.6,0.3,0.6,0.5v-0.6c0.7,0,0.4,0.7,1.3,0.6l-0.2-0.4c0.6,0.3,1.5-0.3,1.7,0.3c0,0.1-0.1,0.1-0.3,0.1
		c0.9,0.8,2.4-0.3,3.5,0.1l-0.3-0.9c1.1-0.3,0.7,0.2,0.6,0.5c0.7,0,0.9,0.3,1.9,0.4c0.5-0.2,0.3-0.3,0.4-0.6l1,0.2l-0.6,0.5
		c1.5-1.3,3.8,0.1,4.9-1.1c0.6,0.3-0.5,0.5-0.2,0.7c1.8,0.6,4.1-0.9,5.6-0.2c2.5,0.6,5.3,0,8,0.4v-0.2l1.9,0.2
		c0.5-0.5,1.8-0.3,2.7-0.9c-0.1,0.2,0.1,0.5-0.1,0.6c0.8-0.1,1.7-0.3,2.2,0l-0.3,0.2c1.8,0.1,4.4,0.2,5.3-0.3
		c0.6-0.1,0.6,0.4,0.8,0.7c1.1,0,1.8-0.2,2.6-0.6c0.2,0.1,0.5,0.2,0.7,0.4l0.4-0.6c0.4,0.1,0.1,0.5,0.5,0.6c1.7-0.7,3.6-0.1,4.7-0.1
		l-0.2-0.3c0.5-0.2,1.4,0.2,0.8,0.5c2.3,0.3,3.4-0.9,6.5-0.8c0.4,1.1,2.8-0.3,3.3,0.9c1.3-0.3,2.2,0.2,3.1-0.5
		c0,0.1,0.1,0.2-0.1,0.2c0.5,0.4,2.2,0.1,3.6-0.2l0.1,0.4c0.5-0.8,2.7-0.6,3.2-1.3c0.1,0.2-0.3,0.3-0.4,0.5c0.7,0.7,1.2-0.4,2.1-0.2
		c-0.1,0.2,0.2,0.4,0,0.6c2.9,0.8,7.2-0.6,11,0c1.1,0-0.4-0.8,1-0.8c0.4,0.4-0.7,0.8,0.2,1c0.6-0.5,0.9-0.4,1.7-0.3
		c-0.2,0.3,0,0.4-0.6,0.6c0.5,0.3,2.1-0.6,3.1,0c0-0.2,0.1-0.4,0.3-0.5c1.4-0.7,3.3,0.7,3.5,0.3c0,0,0.5-0.1,0.1-0.2
		c0.5,0,1.3,0.1,1.2,0.5c0.3-0.2,0.5-0.5,0.9-0.6l-0.2,0.5c0.2-0.1,0.5-0.4,0.8-0.4l-0.4-0.3c0.6,0.4,1.8-0.5,1.8,0.3h-0.2l1.1,0.4
		c0.5-0.3,0.9-0.7,1.7-0.6c0.3,0.9,1.9,0.2,2.9,0.3v0.3c0.8-0.4,2.7-0.2,2.4-0.4c0.7,0,1.7,0.2,1.4,0.5c0.6-0.2,1.9-0.2,2.2-0.7
		l1.2,0.8c0.7-1.1,2.4,0.4,2.5-0.8c0.7,0.2,0.5,0.4,1,0.7c0.9-0.6,1.9-0.5,2.9-0.4v0.1c1,0.1,2.1-0.5,3.5-0.6l0.3,0.9
		c0.7-0.1,0.9-0.8,1.6-0.6c0.2,0.1,0,0.2-0.2,0.2c0.7-0.2,1.6,0,2.1,0.3c1-0.6,1.8-0.4,2.7-1.1c0.8,0.8-1.2,0.4-0.5,1.1
		c1.5,0.4,3,0,4.6-0.4c0.1,0.2,0,0.3-0.1,0.5c0,0,3.3-2.2,2.7-3c0.4-0.6,0.9-0.9-0.5-1.4c-0.5,0.3-1.7,0.8-2,0.1l-0.1,0.6
		c-1.8,0.3-0.2-1.3-2.4-1.3l0.5,0.2c-0.4,0-0.8,0.4-1.2,0.2c-0.1-0.2,0.2-0.3,0.3-0.4l-1.8,0.8c-0.1-0.4,0-0.6,0.4-0.8
		c-1.7,0,0.3,1.1-1.7,0.9c-0.4-0.3,0.1-0.4,0.4-0.6c-1-0.5-1.6,0-2.6,0.3c0-0.6,0.6-0.5-0.2-0.8c0.2,0.3,0.3,0.8-0.4,0.8
		c0.3-0.6-0.5-0.3-1.1-0.4c0.1,0.2,0.1,0.5-0.2,0.6c-0.3,0.1-0.6-0.1-1-0.1l0.7,0.5c-1.1,0.5-1.6-0.3-2.4-0.5
		c0.1-0.1,0.2-0.2,0.4-0.2c-0.8-0.2-1.7-0.7-2.8-0.2l0.1-0.1c-2,0.5,0.6,0.9-1.7,1.4c-0.8-0.1,0.4-1.8-1.4-1.2
		c0.8,0.5-1.1,1.1-2.2,1.4l1-1.1c-0.4,0-1.1,0.3-1.3,0.2l0.1,0.2c0.1,0.9-1.3-0.1-2,0.4c0.9-1.3,1-1,1.1-2.3
		c-0.7,0.7-1.5,1.3-2.8,1.2l1.1-1c-1.7-0.2-3.8,1.2-5.2,2c0.4-0.7-0.2-1,0.4-1.6l-2,0.2l0.5-0.8c-0.7,0.8-1.4,0.3-1.3,1.3
		c0.2-0.1,0.2-0.3,0.5-0.2c0,0.3-0.3,1-1.2,0.9c-0.6-0.3,0.3-0.4,0.2-0.7c-0.6,0.4-0.6-0.3-1.2,0l0.5,0.4c-0.4,0.6-1,0-1.5,0.3
		c0.7-0.3,0.5-0.6,0.2-1v0.1c-0.4,0-1,0.5-1.2,0.1l0.4-0.8l-0.6,0.6c-0.2-0.1-0.4-0.4,0-0.6c-1.9-0.5,0.1,1.8-2.4,1
		c0-0.3,0.3-0.5,1-0.3c0.1-0.5-0.1-0.8-0.7-1v-0.1C413.3,166.8,411.6,166.8,410.8,167.3z"/>
	<path d="M414.6,166.8c0.7,0,1.3,0,1.5-0.1C416,166.6,414.6,166.3,414.6,166.8z"/>
	<path d="M312.4,167.7c0.1,0,0.2-0.1,0.3-0.1C312.6,167.7,312.5,167.7,312.4,167.7z"/>
	<path d="M306.9,168c0.1,0.1,0.2,0.1,0.3,0.2C307.2,168,307.2,167.9,306.9,168z"/>
	<path d="M363.8,167.4L363.8,167.4L363.8,167.4z"/>
	<path d="M332.5,167.2c-0.5,0.3-0.7,0.5-0.7,0.7C332.2,167.8,332.4,167.7,332.5,167.2z"/>
	<path d="M343.1,167.5c0.1,0,0.1-0.1,0.2-0.1C343.1,167.5,343.1,167.5,343.1,167.5z"/>
	<path d="M365.5,167c-0.5,0.3-1.1,0.3-1.6,0.4C364.3,167.3,365.1,167.6,365.5,167z"/>
	<polygon points="300.2,168.9 300.8,168.5 300.2,168.8 	"/>
	<path d="M305.4,168.6c0.2,0.1,1.1-0.2,0.9-0.4C306,168.4,305.7,168.5,305.4,168.6z"/>
	<polygon points="325.1,169 325.3,168.5 324.8,168.9 	"/>
</g>
<path class="st0" d="M531.3,72.6c0-0.7-0.1-1.4-0.1-2.1c0-0.9-0.1-1.9-0.3-2.8c-0.8-7-2.6-13.8-5.4-20.4c-0.1-0.3-0.2-0.5-0.3-0.7
	c-3.9-9-9.1-16.8-15.8-23.6c-0.4-0.4-0.9-0.9-1.3-1.3c-1.8-1.8-3.7-3.5-5.6-5c-4.6-3.7-9.6-6.9-15.1-9.5c-0.6-0.3-1.2-0.7-1.9-0.9
	c-5.1-2.3-10.4-4-15.9-5.1c-4-0.8-8.1-1.2-12.3-1.2c-0.3,0-0.7,0-1.1,0h-58.8v118.7l-0.4-1l-8.1-21.4L374,57.1l-15.4-40.4L352.3,0
	h-43.4l-6.3,16.7l-1.5,4.1l0,0l-0.3,0.8l-5.2,13.7l-1.3,3.6l-0.3,0.8l-2.1,5.5L285,63.3l-2.8,7.4L275,89.6l-9.3,24.5l-2,5.2V0H224
	v59h-57.4V0h-39.7v119.1H85.1c-6.7,0-12.8-1.1-18.2-3.2c-5.4-2.2-10-5.1-13.7-8.9c-3.7-3.7-6.6-8.3-8.6-13.5c-0.5-1.3-0.9-2.6-1.3-4
	c-0.8-2.7-1.3-5.6-1.6-8.5c0-0.5-0.1-1-0.1-1.6c0-1-0.1-2-0.1-3c0-6.2,1-11.9,2.9-17.1c2-5.2,4.8-9.7,8.5-13.5
	c1.2-1.2,2.5-2.3,3.9-3.4l0,0c0.6-0.4,1.1-0.8,1.8-1.2c2.4-1.7,5.1-3.1,8.1-4.3c4-1.6,8.5-2.6,13.3-3c1.2-0.1,2.5-0.1,3.8-0.2
	c0.4,0,0.9,0,1.3,0h9.1V0.1H75.1c-10.5,0-20.3,2.1-29.4,6.3c-1.8,0.8-3.4,1.7-5.1,2.6c-3.9,2.1-7.5,4.5-10.9,7.1
	c-0.3,0.2-0.6,0.4-0.9,0.7c-0.4,0.4-0.9,0.7-1.3,1.1c-2,1.6-3.9,3.4-5.7,5.3c-6.8,7-12.2,15.1-16,24.4C2,56.8,0,66.5,0,76.5
	c0,10.1,2,19.8,5.9,29.1c3.9,9.2,9.3,17.4,16.1,24.3c6.8,7,14.8,12.5,23.9,16.7s18.9,6.3,29.3,6.3h91.4v-63h57.3v63h64
	c0.1-0.3,0.2-0.7,0.4-1.2c1.1-2.2-0.1-1.4-2.2-1.3c-1.9,0.1-3.7,0.5-3.3-2c0.4-2.3,2.9-1.6,3.5-3.3c0.5-1.7-1.7-2.1-2.1-3.3
	c-1.4-4.3,8.4-1.2,10.1-1.3c-1-0.4-4.1-1.5-3.1-2.6c-2.3-0.5-4.4-1.5-4.3-3.3c0-0.3,0.1-0.7,0.2-1c1.4-0.3,2.7,0.6,4.1,1
	c0.2,0,0.4,0.1,0.6,0.1c-0.1-0.1-0.2-0.2-0.3-0.3c-0.8-1.2,1.5-2.7,2.5-2.9c0.6-0.1,1.1,0,1.5,0.2c1.1,0.5,2,1.5,3.1,1.6
	c0-1.3,0.1-2.7,1.5-2.9c0.3,0,0.5,0,0.7,0.1l1.2-3.6l0.2-0.6h1.7c-0.1-0.1-0.1-0.2-0.1-0.3c-0.4-1,0.6-1.8,1.9-2.1
	c0,0-0.1,0-0.1-0.1c-1.8,0-3.2-0.1-4.8-1c-1-0.4-4.3-2.5-1.5-2.8c-2.5-0.9-5.4-1.3-5.4-5.2c1.1-0.3,2,0.3,3,0.6
	c-0.5-0.5-1.1-1.2-1.7-1.9c-0.8-1-1.5-2.1-1.9-3.2c-0.1-0.3-0.2-0.5-0.2-0.8c-0.6-3.1,2.7-2.3,4.3-1c0.4,0.4,1.2,1.9,1.7,1.8
	c0.7-0.1,0.6-1.5,1.2-1.9c2.1-1.7,3.4,1.1,4.7,2.5c0.6,0.7,1.6,2,2.6,1.6c1.1-0.3,0.5-1.8,1.2-2.5c0.3-0.3,0.5-0.4,0.8-0.5
	c0.1-0.1,0.2-0.2,0.3-0.4c-1.1-0.5-4.9-0.1-5.1-1.8c-0.1-1.6,1.9-1.4,2.7-1.2c-1.2-0.5-8-3.6-6.3-6.2c0-0.2,0-0.5,0-0.9
	c0.4-1.9,2.3-1.3,2.8-2.7c0.4-1.4-1.2-1.7-1.5-2.7c-1-3.5,6.4-1,7.7-1.1c-0.8-0.3-3.1-1.2-2.3-2.1c-0.8-0.2-1.5-0.5-2-0.8
	c-0.4-0.2-0.8-0.5-1-1c-0.3-0.4-0.3-1,0-1.7c1.2-0.2,2.3,0.8,3.6,0.9c-1.2-1.1,0.9-2.5,1.7-2.6c1.4-0.3,2.2,1.4,3.5,1.5
	c0-1.1,0.2-2.2,1.2-2.3c0.6-0.1,1.1,0.4,1.6,1l1.4-4c-0.3-0.3-0.4-0.5-0.4-0.8c0-0.6,0.4-1,1.1-1.3l0.1-0.2c-1.2,0-2.2-0.1-3.3-0.7
	c-0.7-0.4-3.2-2-1-2.3c-0.2-0.1-0.4-0.1-0.6-0.2c-1.7-0.6-3.4-1.2-3.4-4c0.8-0.2,1.5,0.3,2.3,0.4c-1-1.1-2.5-2.9-2.8-4.6
	c0-0.3,0-0.6,0-0.7c0-0.4,0.2-0.7,0.5-0.8c0.7-0.5,2,0.1,2.8,0.8c0.3,0.3,0.8,1.5,1.2,1.5c0.6-0.1,0.5-1.2,0.9-1.5
	c1.6-1.4,2.6,0.9,3.4,2c0.4,0.5,1.2,1.6,1.9,1.3c0.8-0.3,0.4-1.4,1-2c0.1-0.1,0.3-0.2,0.4-0.3c0.1-0.2,0.3-0.3,0.4-0.6
	c-0.8-0.4-3.7,0-3.8-1.4c-0.1-1.1,1.2-1.1,1.8-1c-1.3-0.6-6-3-4.3-5c0.9,0.2,1.4,1.2,2.2,1.7c-0.5-1.1,1.2-1.4,1.8-1.3
	c1,0.3,1.2,1.6,2,2.1c0.3-0.7,0.6-1.4,1.3-1.2c0.5,0.1,0.7,0.8,1,1.4l0.8-2.2c-0.4-0.1-0.7-0.4-1-0.6l0,0c-1.4-0.4-2.8-1.2-2.6-2.3
	c0.2-0.1,0.5-0.2,0.8-0.1c-1-0.4-1.4-1,0.2-1.7c-0.9-0.3-2.4-2.2-3-3.7c-0.2-0.6-0.4-1-0.4-1.4c0.3,0,0.7,0,1.1,0.1
	c-0.3-0.3-0.9-1.7-1.2-2.9c-0.3-1.2-0.4-2.3,0.3-2.4c0.5-0.1,1.1,0.7,1.6,1.7c0.7,1.2,1.4,2.8,1.5,3.4c-0.1-1,0.1-2,1.1-1.7
	c0.8,0.3,1.1,1.7,1.4,2.6c-0.1-0.4,0-0.8,0.2-1c-0.1-0.5-0.2-1.1-0.2-1.7c0-2.7,1.6-0.1,2.2,0.6c-0.2-0.6-0.4-1.1-0.7-1.7
	c-0.5-1.3-0.8-2.5-0.5-4c0.6,0.2,0.9,1.1,1.2,1.8c0-1.5-2-4.5-1.3-6.2c0.6-1.4,1.9,0.7,2.3,1.8c-0.2-1.8-1-4.8-0.1-6.3
	c0.5,0.3,0.7,1,1.1,1.5c-0.5-1.7-0.9-3.6-0.7-5.5c0.1-1,0.6-3.7,1.4-2.9c0.1-0.8,0.3-1.8,0.6-2.8c0.3,0.5,0.4,1.7,0.5,3
	c0.8-1.3,1.4,1.5,1.5,2.6c0.2,1.9-0.2,3.8-0.7,5.5c0.4-0.4,0.7-1.1,1.1-1.5c0.9,1.6,0.1,4.5,0,6.3c0.4-1.1,1.8-3.2,2.3-1.8
	c0.7,1.7-1.2,4.6-1.3,6.2c0.3-0.6,0.6-1.6,1.2-1.8c0.1,0.6,0.1,1,0.1,1.5c0,1.5-0.7,2.8-1.2,4.2c0.6-0.7,2.1-3.1,2.2-1
	c0,0.1,0,0.2,0,0.3c0,0.6-0.1,1.2-0.2,1.7c0.2,0.2,0.2,0.6,0,1.2c0.4-0.9,0.6-2.6,1.5-2.9c1-0.3,1.2,0.7,1.1,1.7
	c0.1-0.5,0.7-1.9,1.4-3.1c0.6-1.1,1.3-2,1.8-1.9s0.6,0.6,0.5,1.2c-0.1,1.4-1,3.6-1.4,4.1c0.3-0.1,0.7-0.1,1-0.1
	c0,1.5-2.2,4.7-3.4,5.1c1.7,0.8,1.1,1.4,0.2,1.7c0.3,0,0.6,0,0.9,0.1c0.1,1.2-1.3,1.9-2.7,2.3l0,0c-0.3,0.3-0.6,0.5-1,0.6l0.8,2.2
	c0.3-0.5,0.5-1.1,1-1.3c0.7-0.2,1,0.5,1.3,1.2c0.8-0.5,1-1.8,2-2.1c0.6-0.1,2.3,0.2,1.8,1.3c0.8-0.5,1.3-1.5,2.2-1.7
	c1.8,2-3,4.4-4.3,5c0.7-0.1,1.9-0.1,1.8,1c-0.1,1.4-3,1-3.8,1.4c0.1,0.2,0.3,0.4,0.4,0.6c0.1,0,0.3,0.1,0.5,0.3c0.6,0.6,0.1,1.7,1,2
	c0.7,0.3,1.5-0.8,1.9-1.3c0.9-1.1,1.9-3.4,3.5-2c0.4,0.4,0.3,1.5,0.9,1.5c0.4,0,1-1.2,1.3-1.5c1.1-1.1,3.6-1.8,3.2,0.7
	c-0.3,1.7-1.8,3.5-2.8,4.6c0.8-0.2,1.5-0.6,2.3-0.4c0,1.5-0.4,2.3-1.1,2.9c-0.8,0.7-1.8,0.9-2.9,1.3c2,0.2,0.1,1.6-0.8,2.2
	c-0.1,0-0.1,0.1-0.2,0.1c-0.3,0.1-0.6,0.3-0.8,0.4c-0.8,0.3-1.5,0.4-2.4,0.4l0.1,0.2c0.2,0.1,0.4,0.2,0.5,0.3
	c0.5,0.5,0.8,1.1,0.2,1.8l1.4,4c0.5-0.5,1-1,1.7-1c0.9,0.1,1.1,1.1,1.2,2v0.3c0.4-0.1,0.7-0.2,1-0.4c0.8-0.5,1.5-1.2,2.5-1.1
	c0.3,0.1,0.7,0.3,1.1,0.6c0.7,0.5,1.3,1.4,0.6,2.1c1.2-0.1,2.3-1.1,3.5-0.9c0.8,1.9-0.9,2.9-3,3.5c0.8,0.8-1.5,1.8-2.3,2.1
	c1.2,0.1,8.7-2.3,7.7,1.1c-0.3,1-1.9,1.3-1.5,2.7c0.3,0.9,1.2,1,1.9,1.4c0.4,0.3,0.7,0.6,0.8,1.3c0,0.4,0,0.7,0,1
	c1.6,2.6-5.1,5.6-6.3,6.1c0.8-0.3,2.8-0.4,2.7,1.2c-0.1,1.7-4,1.3-5.1,1.8c0.1,0.2,0.2,0.3,0.3,0.4c0.3,0.1,0.5,0.2,0.8,0.5
	c0.8,0.7,0.2,2.2,1.2,2.5s2-1,2.6-1.6c1.2-1.4,2.6-4.3,4.7-2.5c0.5,0.5,0.4,1.8,1.2,1.9c0.6,0.1,1.3-1.5,1.7-1.8
	c1.6-1.4,4.8-2.2,4.3,1c-0.4,2.2-2.5,4.4-3.8,5.8c1-0.2,1.9-0.8,3-0.6c0,3.9-2.8,4.3-5.4,5.2c2.8,0.3-0.5,2.4-1.4,2.8
	c-1.7,0.9-3.1,1-4.8,1c0,0-0.1,0-0.1,0.1c1.4,0.3,2.5,1.2,1.8,2.3h1.7l1.5,4.2c0.2-0.1,0.4-0.1,0.6-0.1c1.3,0.2,1.5,1.6,1.4,2.9
	c1.7-0.2,2.8-2.1,4.6-1.8c1.1,0.2,3.7,1.9,2.2,3.2c1.6-0.2,3.1-1.4,4.7-1.1c1,2.4-1.3,3.6-4,4.3c1,1-2.1,2.2-3.1,2.6
	c1.7,0.1,11.4-3,10.1,1.3c-0.1,0.2-0.1,0.3-0.3,0.5c-0.7,0.9-2.3,1.4-1.8,2.9c0.6,1.7,3.1,1,3.4,3.3c0.4,2.5-1.4,2.1-3.3,2
	c-0.6,0-1.1-0.1-1.5-0.1c-1-0.1-1.4-0.1-0.7,1.5c0.3,0.4,0.4,0.8,0.5,1.2h37.1l0,0h45.8c10.5,0,20.4-2.1,29.4-6.3
	c3.7-1.7,7.3-3.6,10.6-5.9c4.8-3.1,9.3-6.8,13.3-10.9c6.8-7,12.1-15.2,16-24.4c0.6-1.5,1.2-2.9,1.6-4.4c0.6-1.6,1.1-3.2,1.5-4.9
	c1.7-6.2,2.5-12.5,2.6-19v-0.7C531.5,75.1,531.4,73.9,531.3,72.6z M464.8,115.9c-5.4,2.2-11.5,3.2-18.4,3.2h-9.1V33.6H448
	c4,0.1,7.7,0.6,11.2,1.5c1.9,0.5,3.7,1.1,5.4,1.8c1.5,0.6,2.9,1.3,4.3,2l0,0c2.9,1.5,5.6,3.4,7.9,5.5c0.5,0.5,1,0.9,1.4,1.4
	c3,3,5.4,6.5,7.3,10.5c0.5,1,1,2,1.4,3.1c0.3,0.9,0.7,1.8,0.9,2.7c1,3.3,1.7,6.7,1.9,10.3c0.1,1.3,0.2,2.7,0.2,4
	c0,2-0.1,3.9-0.3,5.8c-0.3,3-0.8,5.9-1.7,8.6c-0.3,1-0.6,1.9-1,2.8c-1.9,5.2-4.8,9.7-8.5,13.5c-3,3-6.6,5.6-10.7,7.6
	C466.9,115,465.8,115.4,464.8,115.9z"/>
<path d="M430.6,142.6"/>
<path d="M190.1,186.5v-3.6h4.1v10.4H190c-1.1-2.1-2.5-3.7-4.4-4.9c-1.8-1.2-3.9-1.7-6.1-1.7c-2.1,0-4,0.6-5.7,1.7s-3,2.6-3.9,4.5
	s-1.4,3.9-1.4,6.1s0.5,4.3,1.5,6.2c1,1.9,2.3,3.4,4.1,4.5c1.7,1.1,3.6,1.7,5.7,1.7c2.6,0,4.9-0.8,6.9-2.4s3.4-3.8,4.4-6.7l4.1,2.2
	c-1.1,3.6-3.1,6.4-5.9,8.4c-2.8,2-6.2,3-10,3c-3.1,0-5.9-0.7-8.4-2.2c-2.4-1.5-4.3-3.5-5.7-6s-2-5.3-2-8.3c0-3.3,0.7-6.2,2.1-8.8
	c1.4-2.6,3.3-4.6,5.7-6s5.2-2.1,8.4-2.1c2.1,0,4,0.4,5.8,1.1C187,184.1,188.6,185.1,190.1,186.5z"/>
<path d="M208.3,186.9v16.5c0,2.9,0.6,5,1.7,6.4c1.1,1.3,2.7,2,4.9,2s3.8-0.7,5-2c1.1-1.3,1.7-3.5,1.7-6.4v-16.6h-3.8v-4h12.7v4h-4
	v17c0,3.9-1,6.8-2.9,8.8c-2,2-4.8,3-8.6,3s-6.7-1-8.6-3c-1.9-2-2.9-5.1-2.9-9.1v-16.7h-4v-4h12.7v4h-3.9V186.9z"/>
<path d="M253.3,184.9v-2.2h4v9.8h-4v-2.2c-1.7-2.5-4-3.8-6.9-3.8c-1.8,0-3.1,0.4-4.1,1.1c-0.9,0.7-1.4,1.7-1.4,3.1
	c0,1.3,0.4,2.3,1.3,2.9c0.9,0.7,2.3,1.2,4.1,1.7l3.8,1c2.4,0.6,4.3,1.5,5.6,2.6c1.3,1.1,2.1,2.2,2.5,3.4c0.4,1.2,0.6,2.5,0.6,4
	c0,2.9-0.9,5.3-2.8,7c-1.8,1.7-4.3,2.6-7.4,2.6c-2.9,0-5.6-1.1-8-3.2v2.7h-4v-11.9h4v2.9c1.9,3.6,4.5,5.3,7.6,5.3
	c1.8,0,3.2-0.5,4.2-1.4s1.5-2.3,1.5-4c0-2.3-1.6-3.9-4.9-4.8l-4-1.1c-2.9-0.8-5.1-2-6.4-3.4c-1.4-1.4-2.1-3.3-2.1-5.6
	c0-2.9,0.8-5.1,2.5-6.6c1.7-1.6,4-2.4,7-2.4C248.6,182.3,251.1,183.2,253.3,184.9z"/>
<path d="M276,186.9v24.3h4.2v4H267v-4h4.1v-24.3H276z"/>
<path d="M319.9,199c0,3.3-0.7,6.2-2.2,8.8c-1.5,2.6-3.5,4.5-6,5.9c-2.6,1.4-5.5,2.1-8.7,2.1s-6.1-0.7-8.6-2.2s-4.5-3.5-5.9-6
	c-1.4-2.6-2.1-5.5-2.1-8.7s0.7-6,2.1-8.6c1.4-2.5,3.4-4.5,5.9-5.9s5.4-2.1,8.6-2.1c3.3,0,6.3,0.7,8.8,2.2c2.6,1.5,4.6,3.4,6,6
	C319.1,193,319.9,195.8,319.9,199z M303.1,211.5c2.2,0,4.2-0.6,6-1.7c1.7-1.2,3.1-2.7,4.1-4.6s1.4-4,1.4-6.1c0-2.2-0.5-4.3-1.5-6.2
	c-1-1.9-2.4-3.4-4.2-4.5c-1.8-1.1-3.8-1.6-6-1.6s-4.1,0.5-5.8,1.6c-1.7,1.1-3,2.5-3.9,4.4s-1.4,4-1.4,6.3c0,2.4,0.5,4.6,1.4,6.5
	s2.3,3.4,4,4.5C298.8,211,300.8,211.5,303.1,211.5z"/>
<path d="M352.7,182.9h11.2v4H360v24.3h3.9v4h-12.2v-4h3.8v-24.3l-11.1,28.7h-1l-11-28.7v24.3h3.6v4h-11.5v-4h3.9v-24.3h-3.9v-4h11.1
	l8.5,22.2L352.7,182.9z"/>
<polygon points="271.1,190.9 271.1,168.3 275.9,168.3 276,193.3 "/>
</svg>
