<svg id="Layer_1" data-name="Layer 1" xmlns="http://www.w3.org/2000/svg" viewBox="0 0 543 356.2">
  <defs>
    <style>
      .cls-1{fill:#58595b}.cls-2{opacity:.75}.cls-3{fill:#fff}.cls-5{fill:#6cbe45}.cls-6{fill:none;stroke:#000;stroke-miterlimit:10}.cls-7{fill:#38a549}.cls-8{fill:#d1d3d4}.cls-9{fill:#a7a9ac}.cls-10{fill:#8dc63f}.cls-11{opacity:.3}.cls-12{fill:#39b54a}.cls-13{opacity:.23}.cls-14{fill:#6d6e71}.cls-15{opacity:.12}.cls-16{opacity:.31}.cls-17{opacity:.14}
    </style>
  </defs>
  <ellipse class="cls-1" cx="271.5" cy="178.1" rx="271.5" ry="178.1"/>
  <g class="cls-2">
    <path d="M76.4 263.3a6.25 6.25 0 01-1.2 4.3l-1.7-1.6a4.76 4.76 0 00.7-3 4.68 4.68 0 00-1.7-2.9 5.38 5.38 0 00-4.3-1.4c-1.6.2-3.2 1.2-4.9 3.1a8.32 8.32 0 00-2.3 4.7 4.81 4.81 0 001.8 4.2 4.35 4.35 0 004.3 1.1 8.74 8.74 0 002.7-1.4l1.7 1.6a8.43 8.43 0 01-4.6 2.1 7 7 0 01-5.6-2.1 7.09 7.09 0 01-2.5-4.8c-.2-2.4.8-4.9 3.1-7.4a10.33 10.33 0 015.8-3.4 7 7 0 016.3 2.1 7.88 7.88 0 012.4 4.8zM90.9 276.1a9.37 9.37 0 01-2.2 5.8 10.48 10.48 0 01-5.5 4 8.82 8.82 0 01-10.7-7.4 10.41 10.41 0 012.2-6.5 9.88 9.88 0 015.1-3.8 7.63 7.63 0 017.3 1.4c2.6 1.8 3.8 4 3.8 6.5zm-8.3 7.7a8.88 8.88 0 004.2-3.3 7.76 7.76 0 001.7-5 5.6 5.6 0 00-2.4-4.2 5.84 5.84 0 00-4.7-1.2c-1.7.3-3.2 1.4-4.7 3.4a8.67 8.67 0 00-1.8 4.8c0 1.7.9 3.1 2.6 4.5a5.21 5.21 0 005.1 1zM95.7 276.4l2.9 1.8-3.5 15.3 12-10 2.9 1.8-9.2 14.9-1.9-1.2 5.4-8.8c.2-.3.5-.8 1-1.5s.9-1.4 1.4-2.3l-12 10-2-1.2 3.5-15.2-.3.5c-.2.4-.6.9-1 1.7s-.8 1.3-1 1.7l-5.4 8.8-1.9-1.2zM113 286.8l7 3.6a5.06 5.06 0 012.7 2.9 5 5 0 01-.4 3.9 5.46 5.46 0 01-2.8 2.6 4.65 4.65 0 01-4.2-.5l-4.9-2.5-3.4 6.6-2.1-1.1zm7.1 6.4a4 4 0 00-1.7-1.3l-4.2-2.2-2.8 5.4 4.2 2.2a4.31 4.31 0 002.6.6 2.75 2.75 0 002-1.7 2.69 2.69 0 00-.1-3zM130.1 295.3l2.4 1.1-1.4 18.6-2.4-1.1.5-5.5-6.3-2.9-3.9 4-2.2-1zm-.7 11l.8-8.2-5.8 5.9zM151.2 305.4a6.24 6.24 0 01.5 4.4l-2.2-.8a4.68 4.68 0 00-.5-3.1 5 5 0 00-2.7-2.1 5.41 5.41 0 00-4.5.2 8.57 8.57 0 00-3.5 4.7 8.7 8.7 0 00-.5 5.2 5 5 0 003.2 3.3 4.33 4.33 0 004.4-.5 7.22 7.22 0 002-2.2l2.2.8a7.85 7.85 0 01-3.6 3.6 7.34 7.34 0 01-6 .1 7.51 7.51 0 01-4.1-3.5c-1.1-2.2-1-4.8.2-8a9.27 9.27 0 014.2-5.2 7 7 0 016.6-.3 6.39 6.39 0 014.3 3.4zM168.5 309.8l-.6 2-5.6-1.8-4.8 14.7-2.3-.7 4.8-14.7-5.6-1.8.6-2zM183 313.7l2.3.5-1.6 7.1 8.8 2 1.6-7.1 2.3.5-3.9 17.1-2.3-.5 1.8-8-8.8-2-1.8 8-2.3-.5zM213.8 322.5a9.69 9.69 0 01.7 6.2 10.22 10.22 0 01-3.1 6.1 8.83 8.83 0 01-12.9-1.8 9.64 9.64 0 01-.9-6.8 10.28 10.28 0 012.8-5.7 7.66 7.66 0 017.2-2.1c2.9.5 5 1.8 6.2 4.1zm-4 10.6a9.74 9.74 0 002.3-4.9 7.44 7.44 0 00-.7-5.2 5.44 5.44 0 00-4-2.6 5.88 5.88 0 00-4.7 1.1 7.78 7.78 0 00-2.6 5.1 8.63 8.63 0 00.6 5.1c.7 1.5 2.2 2.4 4.4 2.8a4.72 4.72 0 004.7-1.4zM218.6 332.6a4.89 4.89 0 00.4 2.5 4.48 4.48 0 003.8 2.2 6.38 6.38 0 002.4-.1 2.76 2.76 0 002.4-2.4 2.34 2.34 0 00-.6-2.1 8.61 8.61 0 00-2.6-1.4l-2.2-.8a9.1 9.1 0 01-3-1.5 3.68 3.68 0 01-1.2-3.5 5.19 5.19 0 012.1-3.7 6.39 6.39 0 014.7-1 7.39 7.39 0 014.4 1.9 4.78 4.78 0 011.3 4.5l-2.2-.3a4.47 4.47 0 00-.5-2.2 4.17 4.17 0 00-3.3-1.8 4 4 0 00-3 .5 2.71 2.71 0 00-1.1 1.9 2.08 2.08 0 00.8 2 11.82 11.82 0 002.9 1.3l2.3.8a8.23 8.23 0 012.5 1.4 4 4 0 011.2 3.7 4.51 4.51 0 01-2.6 3.9 8.92 8.92 0 01-4.9.7 7.3 7.3 0 01-4.8-2.3 5.4 5.4 0 01-1.2-4.7zM234.7 322.5l12.7 1-.2 2.1-10.4-.8-.4 5.3 9.6.8-.2 2-9.6-.8-.5 5.9 10.6.8-.2 2.1-12.9-1zM267.9 324.2h2.7l6.2 17.6h-2.6l-1.7-5.3-6.9-.1-2 5.2h-2.4zm3.8 10.4l-2.6-7.8-2.9 7.7zM280.8 336a4.29 4.29 0 00.8 2.4 4.5 4.5 0 004.1 1.6 5.56 5.56 0 002.3-.5 2.63 2.63 0 001.9-2.7 2.39 2.39 0 00-.9-2 7 7 0 00-2.8-.9l-2.3-.5a10 10 0 01-3.2-1 3.61 3.61 0 01-1.7-3.2 4.85 4.85 0 011.4-3.9 6.55 6.55 0 014.4-1.7 7.08 7.08 0 014.6 1.2 4.56 4.56 0 012 4.2l-2.2.1a4 4 0 00-.8-2.1q-1-1.35-3.6-1.2a4.54 4.54 0 00-2.9 1 2.78 2.78 0 00-.8 2.1 1.8 1.8 0 001.1 1.8 18 18 0 003.1.8l2.4.5a6.94 6.94 0 012.7 1 4.34 4.34 0 011.8 3.5 4.4 4.4 0 01-1.9 4.2 8.25 8.25 0 01-4.8 1.4 7.08 7.08 0 01-5.1-1.5 5.65 5.65 0 01-1.9-4.4zM297.4 335.2a4.33 4.33 0 00.9 2.4c.8 1.1 2.2 1.6 4.1 1.4a7.75 7.75 0 002.3-.6 2.66 2.66 0 001.8-2.8 2.44 2.44 0 00-1-2 10.66 10.66 0 00-2.8-.8l-2.3-.4a9.51 9.51 0 01-3.3-.9 3.7 3.7 0 01-1.9-3.1 5.13 5.13 0 011.3-4 6.45 6.45 0 014.4-1.9 8.16 8.16 0 014.7 1 4.72 4.72 0 012.2 4.1l-2.2.2a5.12 5.12 0 00-.9-2.1 4.16 4.16 0 00-3.6-1.1 4 4 0 00-2.8 1.1 2.7 2.7 0 00-.7 2.1 2 2 0 001.2 1.8 13 13 0 003.2.7l2.4.4a7.06 7.06 0 012.7.9 4.23 4.23 0 011.9 3.4 4.36 4.36 0 01-1.7 4.3 9.11 9.11 0 01-4.7 1.6 7 7 0 01-5.1-1.3 5.6 5.6 0 01-2.1-4.3zM311.1 322.1l12.6-1.6.3 2.1-10.3 1.3.7 5.3 9.5-1.2.3 2-9.5 1.2.7 5.9 10.5-1.3.3 2.1-12.8 1.6zM326.8 320.1l3.4-.6 7.5 13.7 2.4-15.5 3.3-.6 3 17.3-2.2.4-1.8-10.2a13 13 0 01-.3-1.8c-.1-.8-.3-1.7-.4-2.6l-2.4 15.4-2.3.4-7.5-13.7.1.5c.1.4.2 1.1.4 1.9s.3 1.5.4 1.9l1.8 10.2-2.2.4zM346.5 316.5l7.4-1.7a4.91 4.91 0 014.7.8 3.8 3.8 0 011.3 2.3 4.7 4.7 0 01-.3 2.9 4.23 4.23 0 01-1.1 1.3 5.16 5.16 0 012.2.7 4.69 4.69 0 011.5 6c-.7 1.6-2.2 2.6-4.5 3.1l-7.3 1.7zm8.2 5.7a5 5 0 002.2-.9 2.44 2.44 0 00.8-2.6 2.22 2.22 0 00-1.9-1.9 7.2 7.2 0 00-2.4.2l-4.2 1 1.2 5.3zm2.6 7.7a3.77 3.77 0 002.8-1.9 2.74 2.74 0 00.1-2 2.45 2.45 0 00-2.3-2.1 6.87 6.87 0 00-2.4.2l-4.6 1.1 1.4 6zM362.2 312.7l2.3-.6 4.1 14.9 8.5-2.4.6 2-10.8 3zM372.1 310l2.6-.9 7.4 6.5 2.2-9.6 2.7-.9-3.1 12 2.2 6.7-2.3.7-2.2-6.7zM400.9 299.9l6.4-2.8a6.56 6.56 0 016.1.1 9.45 9.45 0 014 4.7 13.3 13.3 0 011.1 5 6.37 6.37 0 01-4.1 6.2l-6.4 2.8zm12.2 11.6a8.47 8.47 0 001.7-1 4.33 4.33 0 001.3-2.5 7.46 7.46 0 00-.2-2.9c-.2-.7-.4-1.2-.6-1.8-.9-2-1.9-3.4-3.2-4.1s-2.7-.8-4.5 0l-3.8 1.7 5.4 12.3zM416.8 292.8l11.3-5.8 1 1.9-9.3 4.8 2.4 4.7 8.6-4.4.9 1.8-8.6 4.4 2.7 5.3 9.4-4.8 1 1.9-11.5 5.9zM432 284.8l12 10.2-3.4-15.4 2.3-1.4 3.5 18.3-2.2 1.3-14.5-11.7zM444.9 276.8l2-1.3 9.8 14.6-2 1.3zM460.5 267a6.16 6.16 0 014 2l-1.8 1.4a5.34 5.34 0 00-2.8-1.2 4.45 4.45 0 00-3.2 1.2 5 5 0 00-2.2 3.9q-.15 2.4 2.1 5.4a7.91 7.91 0 004.1 3.1 4.82 4.82 0 004.5-1 4.36 4.36 0 001.9-4 7.07 7.07 0 00-.8-2.9l1.8-1.4a8.71 8.71 0 011.2 4.9 7.42 7.42 0 01-3.1 5.2 7.66 7.66 0 01-5.2 1.6c-2.4-.2-4.7-1.7-6.7-4.4a9.51 9.51 0 01-2.2-6.3 7.24 7.24 0 013.2-5.8 7.52 7.52 0 015.2-1.7zM463.6 262.9l9.4-8.5 1.4 1.6-7.7 7 3.6 4 7.1-6.4 1.4 1.5-7.1 6.4 4 4.4 7.9-7.1 1.4 1.6-9.6 8.6z"/>
  </g>
  <path class="cls-3" d="M76 260.6a6.25 6.25 0 01-1.2 4.3l-1.7-1.6a4.76 4.76 0 00.7-3 4.68 4.68 0 00-1.7-2.9 5.38 5.38 0 00-4.3-1.4c-1.6.2-3.2 1.2-4.9 3.1a8.32 8.32 0 00-2.3 4.7 4.81 4.81 0 001.8 4.2 4.35 4.35 0 004.3 1.1 8.74 8.74 0 002.7-1.4l1.7 1.6a8.43 8.43 0 01-4.6 2.1 7 7 0 01-5.6-2.1 7.09 7.09 0 01-2.5-4.8c-.2-2.4.8-4.9 3.1-7.4a10.33 10.33 0 015.8-3.4 7 7 0 016.3 2.1 8.14 8.14 0 012.4 4.8zM90.5 273.4a9.37 9.37 0 01-2.2 5.8 10.48 10.48 0 01-5.5 4 8.82 8.82 0 01-10.7-7.4 10.41 10.41 0 012.2-6.5 9.88 9.88 0 015.1-3.8 7.63 7.63 0 017.3 1.4c2.6 1.8 3.8 4 3.8 6.5zm-8.3 7.7a8.88 8.88 0 004.2-3.3 7.76 7.76 0 001.7-5 5.6 5.6 0 00-2.4-4.2 5.84 5.84 0 00-4.7-1.2c-1.7.3-3.2 1.4-4.7 3.4a8.67 8.67 0 00-1.8 4.8c0 1.7.9 3.1 2.6 4.5a5.21 5.21 0 005.1 1zM95.3 273.7l2.9 1.8-3.5 15.3 12-10 2.9 1.8-9.2 14.9-1.9-1.3 5.4-8.8c.2-.3.5-.8 1-1.5s.9-1.4 1.4-2.3l-12 10-2-1.2 3.5-15.2-.3.5c-.2.4-.6.9-1 1.7s-.8 1.3-1 1.7l-5.4 8.8-1.9-1.2zM112.7 284.1l7 3.6a5.06 5.06 0 012.7 2.9 5 5 0 01-.4 3.9 5.46 5.46 0 01-2.8 2.6 4.65 4.65 0 01-4.2-.5l-4.9-2.5-3.4 6.6-2.1-1.1zm7 6.4a4 4 0 00-1.7-1.3l-4.2-2.2-2.8 5.4 4.2 2.2a4.31 4.31 0 002.6.6 2.75 2.75 0 002-1.7 2.52 2.52 0 00-.1-3zM129.8 292.6l2.4 1.1-1.4 18.6-2.4-1.1.5-5.5-6.3-2.9-3.9 4-2.2-1zm-.8 11.1l.8-8.2-5.8 5.9zM150.8 302.7a6.24 6.24 0 01.5 4.4l-2.2-.8a4.68 4.68 0 00-.5-3.1 5 5 0 00-2.7-2.1 5.41 5.41 0 00-4.5.2 8.57 8.57 0 00-3.5 4.7 8.7 8.7 0 00-.5 5.2 5 5 0 003.2 3.3 4.33 4.33 0 004.4-.5 7.22 7.22 0 002-2.2l2.2.8a7.85 7.85 0 01-3.6 3.6 7.34 7.34 0 01-6 .1 7.51 7.51 0 01-4.1-3.5c-1.1-2.2-1-4.8.2-8a9.27 9.27 0 014.2-5.2 7 7 0 016.6-.3 6.67 6.67 0 014.3 3.4zM168.1 307.1l-.6 2-5.6-1.8-4.8 14.7-2.3-.7 4.8-14.7-5.6-1.8.6-2zM182.6 311.1l2.3.5-1.6 7.1 8.8 2 1.6-7.1 2.3.5-3.9 17.1-2.3-.5 1.8-8-8.8-2-1.8 8-2.3-.5zM213.4 319.8a9.69 9.69 0 01.7 6.2 10.22 10.22 0 01-3.1 6.1 8.83 8.83 0 01-12.9-1.8 9.64 9.64 0 01-.9-6.8 10.28 10.28 0 012.8-5.7 7.66 7.66 0 017.2-2.1 8.07 8.07 0 016.2 4.1zm-4 10.6a9.74 9.74 0 002.3-4.9 7.44 7.44 0 00-.7-5.2 5.44 5.44 0 00-4-2.6 5.88 5.88 0 00-4.7 1.1 7.78 7.78 0 00-2.6 5.1 8.63 8.63 0 00.6 5.1c.7 1.5 2.2 2.4 4.4 2.8a4.52 4.52 0 004.7-1.4zM218.2 329.9a4.89 4.89 0 00.4 2.5 4.48 4.48 0 003.8 2.2 6.38 6.38 0 002.4-.1 2.76 2.76 0 002.4-2.4 2.34 2.34 0 00-.6-2.1 8.61 8.61 0 00-2.6-1.4l-2.2-.8a9.1 9.1 0 01-3-1.5 3.68 3.68 0 01-1.2-3.5 5.19 5.19 0 012.1-3.7 6.39 6.39 0 014.7-1 7.39 7.39 0 014.4 1.9 4.78 4.78 0 011.3 4.5l-2.2-.3a4.47 4.47 0 00-.5-2.2 4.17 4.17 0 00-3.3-1.8 4 4 0 00-3 .5 2.71 2.71 0 00-1.1 1.9 2.08 2.08 0 00.8 2 11.82 11.82 0 002.9 1.3l2.3.8a8.23 8.23 0 012.5 1.4 4 4 0 011.2 3.7 4.51 4.51 0 01-2.6 3.9 8.92 8.92 0 01-4.9.7 7.3 7.3 0 01-4.8-2.3 5.4 5.4 0 01-1.2-4.7zM234.3 319.8l12.7 1-.2 2.1-10.4-.8-.4 5.3 9.6.8-.2 2-9.6-.8-.5 5.9 10.6.8-.2 2.1-12.9-1zM267.5 321.5h2.7l6.2 17.6h-2.6l-1.7-5.3-6.9-.1-2 5.2h-2.4zm3.8 10.4l-2.6-7.8-2.9 7.7zM280.4 333.3a4.29 4.29 0 00.8 2.4 4.5 4.5 0 004.1 1.6 5.56 5.56 0 002.3-.5 2.63 2.63 0 001.9-2.7 2.39 2.39 0 00-.9-2 7 7 0 00-2.8-.9l-2.3-.5a10 10 0 01-3.2-1 3.61 3.61 0 01-1.7-3.2 4.85 4.85 0 011.4-3.9 6.55 6.55 0 014.4-1.7 7.08 7.08 0 014.6 1.2 4.56 4.56 0 012 4.2l-2.2.1a4 4 0 00-.8-2.1q-1-1.35-3.6-1.2a4.54 4.54 0 00-2.9 1 2.78 2.78 0 00-.8 2.1 1.8 1.8 0 001.1 1.8 18 18 0 003.1.8l2.4.5a6.94 6.94 0 012.7 1 4.34 4.34 0 011.8 3.5 4.4 4.4 0 01-1.9 4.2 8.25 8.25 0 01-4.8 1.4 7.08 7.08 0 01-5.1-1.5 5.65 5.65 0 01-1.9-4.4zM297 332.5a4.33 4.33 0 00.9 2.4c.8 1.1 2.2 1.6 4.1 1.4a7.75 7.75 0 002.3-.6 2.66 2.66 0 001.8-2.8 2.44 2.44 0 00-1-2 10.66 10.66 0 00-2.8-.8l-2.3-.4a9.51 9.51 0 01-3.3-.9 3.7 3.7 0 01-1.9-3.1 5.13 5.13 0 011.3-4 6.45 6.45 0 014.4-1.9 8.16 8.16 0 014.7 1 4.72 4.72 0 012.2 4.1l-2.2.2a5.12 5.12 0 00-.9-2.1 4.16 4.16 0 00-3.6-1.1 4 4 0 00-2.8 1.1 2.7 2.7 0 00-.7 2.1 2 2 0 001.2 1.8 13 13 0 003.2.7l2.4.4a7.06 7.06 0 012.7.9 4.23 4.23 0 011.9 3.4 4.36 4.36 0 01-1.7 4.3 9.11 9.11 0 01-4.7 1.6 7 7 0 01-5.1-1.3 5.6 5.6 0 01-2.1-4.3zM310.8 319.4l12.6-1.6.3 2.1-10.3 1.3.7 5.3 9.5-1.2.3 2-9.5 1.2.7 5.9 10.5-1.3.3 2.1-12.8 1.6zM326.4 317.4l3.4-.6 7.5 13.7 2.4-15.5 3.3-.6 3 17.3-2.2.4-1.8-10.2a13 13 0 01-.3-1.8c-.1-.8-.3-1.7-.4-2.6l-2.4 15.4-2.3.4-7.5-13.7.1.5c.1.4.2 1.1.4 1.9s.3 1.5.4 1.9l1.8 10.2-2.2.4zM346.2 313.8l7.4-1.7a4.91 4.91 0 014.7.8 3.8 3.8 0 011.3 2.3 4.7 4.7 0 01-.3 2.9 4.23 4.23 0 01-1.1 1.3 5.16 5.16 0 012.2.7 4.69 4.69 0 011.5 6c-.7 1.6-2.2 2.6-4.5 3.1l-7.3 1.7zm8.2 5.7a5 5 0 002.2-.9 2.44 2.44 0 00.8-2.6 2.22 2.22 0 00-1.9-1.9 7.2 7.2 0 00-2.4.2l-4.2 1 1.2 5.3zm2.6 7.7a3.77 3.77 0 002.8-1.9 2.74 2.74 0 00.1-2 2.45 2.45 0 00-2.3-2.1 6.87 6.87 0 00-2.4.2l-4.6 1.1 1.4 6zM361.9 310.1l2.3-.6 4.1 14.9 8.5-2.4.6 2-10.8 3zM371.8 307.3l2.6-.9 7.4 6.5 2.2-9.6 2.7-.9-3.1 12 2.2 6.7-2.3.7-2.2-6.7zM400.5 297.2l6.4-2.8a6.56 6.56 0 016.1.1 9.45 9.45 0 014 4.7 13.3 13.3 0 011.1 5 6.37 6.37 0 01-4.1 6.2l-6.4 2.8zm12.3 11.6a8.47 8.47 0 001.7-1 4.33 4.33 0 001.3-2.5 7.46 7.46 0 00-.2-2.9c-.2-.7-.4-1.2-.6-1.8-.9-2-1.9-3.4-3.2-4.1s-2.7-.8-4.5 0l-3.8 1.7 5.4 12.3zM416.5 290.1l11.3-5.8 1 1.9-9.3 4.8 2.4 4.7 8.6-4.4.9 1.8-8.6 4.4 2.7 5.3 9.4-4.8 1 1.9-11.5 5.9zM431.6 282.1l12 10.2-3.4-15.4 2.3-1.4 3.5 18.3-2.2 1.3-14.5-11.7zM444.5 274.1l2-1.3 9.8 14.6-2 1.3zM460.2 264.4a6.16 6.16 0 014 2l-1.8 1.4a5.34 5.34 0 00-2.8-1.2 4.45 4.45 0 00-3.2 1.2 5 5 0 00-2.2 3.9q-.15 2.4 2.1 5.4a7.91 7.91 0 004.1 3.1 4.82 4.82 0 004.5-1 4.36 4.36 0 001.9-4 7.07 7.07 0 00-.8-2.9l1.8-1.4a8.71 8.71 0 011.2 4.9 7.42 7.42 0 01-3.1 5.2 7.66 7.66 0 01-5.2 1.6c-2.4-.2-4.7-1.7-6.7-4.4a9.51 9.51 0 01-2.2-6.3 7.24 7.24 0 013.2-5.8c1.8-1.4 3.5-2 5.2-1.7zM463.3 260.2l9.4-8.5 1.4 1.6-7.7 7 3.6 4 7.1-6.4 1.4 1.5-7.1 6.4 4 4.4 7.9-7.1 1.4 1.6-9.6 8.6z"/>
  <path d="M338.2 276.6v-.6a1.7 1.7 0 00-.1-.7 19.78 19.78 0 00-1.4-5.3c0-.1-.1-.1-.1-.2a20.3 20.3 0 00-4.1-6.2l-.3-.3a17.38 17.38 0 00-1.5-1.3 19.91 19.91 0 00-3.9-2.5c-.2-.1-.3-.2-.5-.2a14.68 14.68 0 00-4.2-1.3 16.55 16.55 0 00-3.2-.3h-15.7v31.1l-.1-.2-2.1-5.6-3.9-10.3-4-10.6-1.7-4.4H280l-1.7 4.4-.4 1.1-.1.2-1.4 3.6-.3.9-.1.2-.5 1.4-1.8 4.7-.7 1.9-1.9 4.9-2.4 6.4-.5 1.4v-31.2h-10.4V273h-15v-15.4h-10.4v31.2h-10.9a14.19 14.19 0 01-4.8-.8 11.11 11.11 0 01-3.6-2.3 11.81 11.81 0 01-2.3-3.5c-.1-.3-.2-.7-.3-1a17 17 0 01-.4-2.2v-1.2a13.3 13.3 0 01.8-4.5 10.43 10.43 0 012.2-3.5c.3-.3.7-.6 1-.9.2-.1.3-.2.5-.3a10.34 10.34 0 012.1-1.1 12.8 12.8 0 013.5-.8h3.7v-8.8h-5a18 18 0 00-7.7 1.6 5.39 5.39 0 00-1.3.7 13.79 13.79 0 00-2.8 1.9.22.22 0 00-.2.2l-.3.3a19.2 19.2 0 00-1.5 1.4 19.76 19.76 0 00-4.2 6.4 19.44 19.44 0 00-1.5 7.6 19.81 19.81 0 001.5 7.6 20.89 20.89 0 004.2 6.4 21.62 21.62 0 006.3 4.4 18.08 18.08 0 007.7 1.7H243v-16.5h15v16.5h16.5c0-.1.1-.2.1-.3.3-.6 0-.4-.6-.3s-1 .1-.9-.5.8-.4.9-.9-.4-.5-.5-.9c-.4-1.1 2.2-.3 2.6-.3-.3-.1-1.1-.4-.8-.7-.6-.1-1.1-.4-1.1-.9a.37.37 0 01.1-.3c.4-.1.7.2 1.1.3h.2l-.1-.1c-.2-.3.4-.7.7-.8a.6.6 0 01.4.1c.3.1.5.4.8.4 0-.3 0-.7.4-.7h.2l.3-.9.1-.2h.4v-.1c-.1-.3.2-.5.5-.5a3 3 0 01-1.3-.2c-.2-.1-1.1-.7-.4-.7-.7-.2-1.4-.3-1.4-1.4.3-.1.5.1.8.1l-.5-.5a2.18 2.18 0 01-.5-.8c0-.1 0-.1-.1-.2-.1-.8.7-.6 1.1-.2.1.1.3.5.5.5s.2-.4.3-.5c.5-.5.9.3 1.2.7.2.2.4.5.7.4s.1-.5.3-.7.1-.1.2-.1l.1-.1c-.3-.1-1.3 0-1.3-.5s.5-.4.7-.3c-.3-.1-2.1-.9-1.7-1.6v-.2c.1-.5.6-.3.7-.7s-.3-.4-.4-.7c-.3-.9 1.7-.3 2-.3-.2-.1-.8-.3-.6-.5-.2-.1-.4-.1-.5-.2s-.2-.1-.3-.2a.3.3 0 010-.4c.3 0 .6.2.9.2-.3-.3.2-.7.4-.7.4-.1.6.4.9.4 0-.3.1-.6.3-.6a.52.52 0 01.4.2l.4-1.1c-.1-.1-.1-.1-.1-.2a.32.32 0 01.3-.3 1.49 1.49 0 01-.9-.2c-.2-.1-.8-.5-.3-.6a.31.31 0 01-.2-.1c-.5-.2-.9-.3-.9-1 .2 0 .4.1.6.1-.2-.3-.7-.8-.7-1.2v-.2a.35.35 0 01.1-.2.66.66 0 01.7.2c.1.1.2.4.3.4s.1-.3.2-.4c.4-.4.7.2.9.5.1.1.3.4.5.3s.1-.4.3-.5l.1-.1.1-.1c-.2-.1-1 0-1-.4s.3-.3.5-.3c-.3-.2-1.6-.8-1.1-1.3.2.1.4.3.6.4-.1-.3.3-.4.5-.3s.3.4.5.5c.1-.2.2-.4.3-.3s.2.2.3.4l.2-.6c-.1 0-.2-.1-.3-.2-.4-.1-.7-.3-.7-.6h.2c-.2-.1-.4-.2 0-.5a2.9 2.9 0 01-.8-1 .6.6 0 01-.1-.4h.3a2.19 2.19 0 01-.3-.8c-.1-.3-.1-.6.1-.6s.3.2.4.4a2.26 2.26 0 01.4.9c0-.3 0-.5.3-.4s.3.4.4.7c0-.1 0-.2.1-.2s-.1-.3-.1-.4c0-.7.4 0 .6.2-.1-.1-.1-.3-.2-.4a2 2 0 01-.1-1.1c.1 0 .2.3.3.5 0-.4-.5-1.2-.3-1.6s.5.2.6.5c0-.5-.2-1.2 0-1.6.1.1.2.3.3.4a5.9 5.9 0 01-.2-1.4c0-.3.2-1 .4-.7 0-.2.1-.5.1-.7.1.1.1.4.1.8.2-.3.4.4.4.7a3.18 3.18 0 01-.2 1.4c.1-.1.2-.3.3-.4.2.4 0 1.2 0 1.6.1-.3.5-.8.6-.5s-.3 1.2-.3 1.6a2.19 2.19 0 01.3-.5v.4a4.51 4.51 0 01-.3 1.1c.1-.2.5-.8.6-.2v.1a.9.9 0 01-.1.5v.3c.1-.2.2-.7.4-.8s.3.2.3.4a2.85 2.85 0 01.4-.8c.2-.3.3-.5.5-.5a.19.19 0 01.1.3 2.82 2.82 0 01-.4 1.1h.3a2.07 2.07 0 01-.9 1.3c.4.2.3.4 0 .5h.2c0 .3-.3.5-.7.6-.1.1-.2.1-.2.2l.2.6c.1-.1.1-.3.3-.3a.27.27 0 01.3.3c.2-.1.3-.5.5-.5s.6.1.5.3c.2-.1.3-.4.6-.4.5.5-.8 1.2-1.1 1.3.2 0 .5 0 .5.3s-.8.3-1 .4a.1.1 0 00.1.1.1.1 0 01.1.1c.2.2 0 .4.2.5s.4-.2.5-.3c.2-.3.5-.9.9-.5.1.1.1.4.2.4s.2-.3.3-.4c.3-.3.9-.5.8.2a3.46 3.46 0 01-.7 1.2c.2 0 .4-.2.6-.1 0 .4-.1.6-.3.7s-.5.2-.7.3c.5.1 0 .4-.2.6h-.1a.35.35 0 00-.2.1 1.27 1.27 0 01-.6.1.1.1 0 01.1.1.44.44 0 01.1.5l.4 1.1c.1-.1.3-.3.4-.2s.3.3.3.5v.1c.1 0 .2-.1.3-.1a1.49 1.49 0 01.7-.3c.1 0 .2.1.3.2s.3.4.2.5c.3 0 .6-.3.9-.2.2.5-.2.8-.8.9.2.2-.4.5-.6.5.3 0 2.3-.6 2 .3-.1.3-.5.3-.4.7.1.2.3.2.5.4s.2.2.2.3v.3c.4.7-1.3 1.5-1.7 1.6.2-.1.7-.1.7.3s-1 .3-1.3.5l.1.1c.1 0 .1.1.2.1.2.2 0 .6.3.7s.5-.3.7-.4c.3-.4.7-1.1 1.2-.7.1.1.1.5.3.5s.3-.4.5-.5c.4-.4 1.3-.6 1.1.2a3.31 3.31 0 01-1 1.5 1.13 1.13 0 01.8-.1c0 1-.7 1.1-1.4 1.4.7.1-.1.6-.4.7a3 3 0 01-1.3.2c.4.1.7.3.5.6h.4l.4 1.1h.2c.3 0 .4.4.4.7.4 0 .7-.6 1.2-.5.3 0 1 .5.6.8.4 0 .8-.4 1.2-.3.3.6-.3.9-1.1 1.1.3.3-.5.6-.8.7.4 0 3-.8 2.6.3a.1.1 0 01-.1.1c-.2.2-.6.4-.5.7s.8.2.9.9-.4.6-.9.5h-.4c-.3 0-.4 0-.2.4a.37.37 0 01.1.3h21.7a16.71 16.71 0 007.7-1.7 15.09 15.09 0 002.8-1.5 19.27 19.27 0 003.5-2.9 19.76 19.76 0 004.2-6.4 7.6 7.6 0 00.4-1.1 5 5 0 00.4-1.3 20.8 20.8 0 00.7-5v-.2a4.29 4.29 0 00.4-1.7zm-17.4 11.3a12.1 12.1 0 01-4.8.8h-2.5v-22.4h2.8a13.52 13.52 0 012.9.4 5.78 5.78 0 011.4.5 11.73 11.73 0 011.1.5 11 11 0 012.1 1.4l.4.4a10.15 10.15 0 011.9 2.7 3 3 0 00.4.8 1.85 1.85 0 01.2.7 12.82 12.82 0 01.5 2.7v1.1a7.57 7.57 0 01-.1 1.5 14.35 14.35 0 01-.4 2.2c-.1.2-.2.5-.3.7a9.07 9.07 0 01-2.2 3.5 9.51 9.51 0 01-2.8 2 1.47 1.47 0 01-.6.5z" opacity=".73"/>
  <path class="cls-5" d="M338.2 273.3v-.6a1.7 1.7 0 00-.1-.7 19.78 19.78 0 00-1.4-5.3c0-.1-.1-.1-.1-.2a20.3 20.3 0 00-4.1-6.2l-.3-.3a17.38 17.38 0 00-1.5-1.3 19.91 19.91 0 00-3.9-2.5c-.2-.1-.3-.2-.5-.2a14.68 14.68 0 00-4.2-1.3 16.55 16.55 0 00-3.2-.3h-15.7v31.1l-.1-.2-2.1-5.6-3.9-10.3-4-10.6-1.7-4.4H280l-1.7 4.4-.4 1.1-.1.2-1.4 3.6-.3.9-.1.2-.5 1.4-1.8 4.7-.7 1.9-1.9 4.9-2.4 6.4-.5 1.4v-31.2h-10.4v15.4h-15v-15.4h-10.4v31.2h-10.9a14.19 14.19 0 01-4.8-.8 11.11 11.11 0 01-3.6-2.3 11.81 11.81 0 01-2.3-3.5c-.1-.3-.2-.7-.3-1a17 17 0 01-.4-2.2v-1.2a13.3 13.3 0 01.8-4.5 10.43 10.43 0 012.2-3.5c.3-.3.7-.6 1-.9.2-.1.3-.2.5-.3a10.34 10.34 0 012.1-1.1 12.8 12.8 0 013.5-.8h3.7v-8.8h-5a18 18 0 00-7.7 1.6 5.39 5.39 0 00-1.3.7 13.79 13.79 0 00-2.8 1.9.22.22 0 00-.2.2l-.3.3a19.2 19.2 0 00-1.5 1.4 19.76 19.76 0 00-4.2 6.4 19.44 19.44 0 00-1.5 7.6 19.81 19.81 0 001.5 7.6 20.89 20.89 0 004.2 6.4 21.62 21.62 0 006.3 4.4 18.08 18.08 0 007.7 1.7H243v-16.5h15v16.5h16.5c0-.1.1-.2.1-.3.3-.6 0-.4-.6-.3s-1 .1-.9-.5.8-.4.9-.9-.4-.5-.5-.9c-.4-1.1 2.2-.3 2.6-.3-.3-.1-1.1-.4-.8-.7-.6-.1-1.1-.4-1.1-.9a.37.37 0 01.1-.3c.4-.1.7.2 1.1.3h.2l-.1-.1c-.2-.3.4-.7.7-.8a.6.6 0 01.4.1c.3.1.5.4.8.4 0-.3 0-.7.4-.7h.2l.3-.9.1-.2h.4v-.1c-.1-.3.2-.5.5-.5a3 3 0 01-1.3-.2c-.2-.1-1.1-.7-.4-.7-.7-.2-1.4-.3-1.4-1.4.3-.1.5.1.8.1l-.5-.5a2.18 2.18 0 01-.5-.8c0-.1 0-.1-.1-.2-.1-.8.7-.6 1.1-.2.1.1.3.5.5.5s.2-.4.3-.5c.5-.5.9.3 1.2.7.2.2.4.5.7.4s.1-.5.3-.7.1-.1.2-.1l.1-.1c-.3-.1-1.3 0-1.3-.5s.5-.4.7-.3c-.3-.1-2.1-.9-1.7-1.6v-.2c.1-.5.6-.3.7-.7s-.3-.4-.4-.7c-.3-.9 1.7-.3 2-.3-.2-.1-.8-.3-.6-.5-.2-.1-.4-.1-.5-.2s-.2-.1-.3-.2a.3.3 0 010-.4c.3 0 .6.2.9.2-.3-.3.2-.7.4-.7.4-.1.6.4.9.4 0-.3.1-.6.3-.6a.52.52 0 01.4.2l.4-1.1c-.1-.1-.1-.1-.1-.2a.32.32 0 01.3-.3 1.49 1.49 0 01-.9-.2c-.2-.1-.8-.5-.3-.6a.31.31 0 01-.2-.1c-.5-.2-.9-.3-.9-1 .2 0 .4.1.6.1-.2-.3-.7-.8-.7-1.2v-.2a.35.35 0 01.1-.2.66.66 0 01.7.2c.1.1.2.4.3.4s.1-.3.2-.4c.4-.4.7.2.9.5.1.1.3.4.5.3s.1-.4.3-.5l.1-.1.1-.1c-.2-.1-1 0-1-.4s.3-.3.5-.3c-.3-.2-1.6-.8-1.1-1.3.2.1.4.3.6.4-.1-.3.3-.4.5-.3s.3.4.5.5c.1-.2.2-.4.3-.3s.2.2.3.4l.2-.6c-.1 0-.2-.1-.3-.2-.4-.1-.7-.3-.7-.6h.2c-.2-.1-.4-.2 0-.5a2.9 2.9 0 01-.8-1 .6.6 0 01-.1-.4h.3a2.19 2.19 0 01-.3-.8c-.1-.3-.1-.6.1-.6s.3.2.4.4a2.26 2.26 0 01.4.9c0-.3 0-.5.3-.4s.3.4.4.7c0-.1 0-.2.1-.2s-.1-.3-.1-.4c0-.7.4 0 .6.2-.1-.1-.1-.3-.2-.4a2 2 0 01-.1-1.1c.1 0 .2.3.3.5 0-.4-.5-1.2-.3-1.6s.5.2.6.5c0-.5-.2-1.2 0-1.6.1.1.2.3.3.4a5.9 5.9 0 01-.2-1.4c0-.3.2-1 .4-.7 0-.2.1-.5.1-.7.1.1.1.4.1.8.2-.3.4.4.4.7a3.18 3.18 0 01-.2 1.4c.1-.1.2-.3.3-.4.2.4 0 1.2 0 1.6.1-.3.5-.8.6-.5s-.3 1.2-.3 1.6a2.19 2.19 0 01.3-.5v.4a4.51 4.51 0 01-.3 1.1c.1-.2.5-.8.6-.2v.1a.9.9 0 01-.1.5v.3c.1-.2.2-.7.4-.8s.3.2.3.4a2.85 2.85 0 01.4-.8c.2-.3.3-.5.5-.5a.19.19 0 01.1.3 2.82 2.82 0 01-.4 1.1h.3a2.07 2.07 0 01-.9 1.3c.4.2.3.4 0 .5h.2c0 .3-.3.5-.7.6-.1.1-.2.1-.2.2l.2.6c.1-.1.1-.3.3-.3a.27.27 0 01.3.3c.2-.1.3-.5.5-.5s.6.1.5.3c.2-.1.3-.4.6-.4.5.5-.8 1.2-1.1 1.3.2 0 .5 0 .5.3s-.8.3-1 .4a.1.1 0 00.1.1.1.1 0 01.1.1c.2.2 0 .4.2.5s.4-.2.5-.3c.2-.3.5-.9.9-.5.1.1.1.4.2.4s.2-.3.3-.4c.3-.3.9-.5.8.2a3.46 3.46 0 01-.7 1.2c.2 0 .4-.2.6-.1 0 .4-.1.6-.3.7s-.5.2-.7.3c.5.1 0 .4-.2.6h-.1a.35.35 0 00-.2.1 1.27 1.27 0 01-.6.1.1.1 0 01.1.1.44.44 0 01.1.5l.4 1.1c.1-.1.3-.3.4-.2s.3.3.3.5v.1c.1 0 .2-.1.3-.1a1.49 1.49 0 01.7-.3c.1 0 .2.1.3.2s.3.4.2.5c.3 0 .6-.3.9-.2.2.5-.2.8-.8.9.2.2-.4.5-.6.5.3 0 2.3-.6 2 .3-.1.3-.5.3-.4.7.1.2.3.2.5.4s.2.2.2.3v.3c.4.7-1.3 1.5-1.7 1.6.2-.1.7-.1.7.3s-1 .3-1.3.5l.1.1c.1 0 .1.1.2.1.2.2 0 .6.3.7s.5-.3.7-.4c.3-.4.7-1.1 1.2-.7.1.1.1.5.3.5s.3-.4.5-.5c.4-.4 1.3-.6 1.1.2a3.31 3.31 0 01-1 1.5 1.13 1.13 0 01.8-.1c0 1-.7 1.1-1.4 1.4.7.1-.1.6-.4.7a3 3 0 01-1.3.2c.4.1.7.3.5.6h.4l.4 1.1h.2c.3 0 .4.4.4.7.4 0 .7-.6 1.2-.5.3 0 1 .5.6.8.4 0 .8-.4 1.2-.3.3.6-.3.9-1.1 1.1.3.3-.5.6-.8.7.4 0 3-.8 2.6.3a.1.1 0 01-.1.1c-.2.2-.6.4-.5.7s.8.2.9.9-.4.6-.9.5h-.4c-.3 0-.4 0-.2.4a.37.37 0 01.1.3h21.7a16.71 16.71 0 007.7-1.7 15.09 15.09 0 002.8-1.5 19.27 19.27 0 003.5-2.9 19.76 19.76 0 004.2-6.4 7.6 7.6 0 00.4-1.1 5 5 0 00.4-1.3 20.8 20.8 0 00.7-5v-.2a4.29 4.29 0 00.4-1.7zm-17.4 11.3a12.1 12.1 0 01-4.8.8h-2.5V263h2.8a13.52 13.52 0 012.9.4 5.78 5.78 0 011.4.5 11.73 11.73 0 011.1.5 11 11 0 012.1 1.4l.4.4a10.15 10.15 0 011.9 2.7 3 3 0 00.4.8 1.85 1.85 0 01.2.7 12.82 12.82 0 01.5 2.7v1.1a7.57 7.57 0 01-.1 1.5 14.35 14.35 0 01-.4 2.2c-.1.2-.2.5-.3.7a9.07 9.07 0 01-2.2 3.5 9.51 9.51 0 01-2.8 2c-.1.3-.4.4-.6.5z"/>
  <path class="cls-3" d="M41.4 236H506v2.5H41.4z"/>
  <path class="cls-5" d="M272.3 113.8v24.6l-5.3-7-3.9-5.3-8.1-10.8-16.3-21.7a9.8 9.8 0 00-7.9-4h-14.3V75.4H232a23.1 23.1 0 0118.6 9.4z"/>
  <path class="cls-7" d="M267 131.4l5.3 7-21.8 29a23.1 23.1 0 01-18.6 9.4h-15.4v-14.2h14.4a9.48 9.48 0 007.9-4.1l16.2-21.6 8.1-10.8z"/>
  <path class="cls-8" d="M216.5 162.6v16a.9.9 0 01-.9.9h-17.7a.9.9 0 01-.9-.9v-17.8a.9.9 0 01.9-.9h17.6a.9.9 0 01.9.9v1.8zM216.5 73.6v17.8a.9.9 0 01-.9.9h-17.7a.9.9 0 01-.9-.9V73.6a.9.9 0 01.9-.9h17.6a1 1 0 011 .9z"/>
  <path class="cls-9" d="M193.7 162.6h3.2v14.2h-3.2zM193.7 75.4h3.2v14.2h-3.2z"/>
  <path class="cls-8" d="M193.7 162.6v16a.9.9 0 01-.9.9h-4.9a.9.9 0 01-.9-.9v-17.7a.9.9 0 01.9-.9h4.9a.9.9 0 01.9.9zM193.7 75.4v16.1a.9.9 0 01-.9.9h-4.9a.9.9 0 01-.9-.9V73.7a.9.9 0 01.9-.9h4.9a.9.9 0 01.9.9z"/>
  <path class="cls-9" d="M183.2 162.6h3.8v14.2h-3.8zM183.2 75.4h3.8v14.2h-3.8z"/>
  <path class="cls-8" d="M183.2 162.6v16a.9.9 0 01-.9.9h-4.9a.9.9 0 01-.9-.9v-17.8a.9.9 0 01.9-.9h4.9a.9.9 0 01.9.9zM183.2 73.6v17.8a.9.9 0 01-.9.9h-4.9a.9.9 0 01-.9-.9V73.6a.9.9 0 01.9-.9h4.9a.9.9 0 01.9.9z"/>
  <path class="cls-9" d="M172.7 162.6h3.8v14.2h-3.8zM172.7 75.4h3.8v14.2h-3.8z"/>
  <path class="cls-8" d="M172.7 162.6v16a.9.9 0 01-.9.9h-4.9a.9.9 0 01-.9-.9v-17.8a.9.9 0 01.9-.9h4.9a.9.9 0 01.9.9zM172.7 73.6v17.8a.9.9 0 01-.9.9h-4.9a.9.9 0 01-.9-.9V73.6a.9.9 0 01.9-.9h4.9a1 1 0 01.9.9z"/>
  <path class="cls-9" d="M162.8 162.6h3.2v14.2h-3.2zM162.8 75.4h3.2v14.2h-3.2z"/>
  <path class="cls-8" d="M162.8 162.6v16a.9.9 0 01-.9.9h-17.7a.9.9 0 01-.9-.9v-17.8a.9.9 0 01.9-.9h17.7a.9.9 0 01.9.9zM162.8 75.4v16a.9.9 0 01-.9.9h-17.7a.9.9 0 01-.9-.9V73.6a.9.9 0 01.9-.9h17.7a.9.9 0 01.9.9z"/>
  <path d="M143.2 162.6v14.2H82.6a23.11 23.11 0 01-23.1-23.1V98.4a23.11 23.11 0 0123.1-23.1h60.6v14.2H84.1a9.82 9.82 0 00-9.8 9.8v53.5a9.82 9.82 0 009.8 9.8z"/>
  <path class="cls-10" d="M272.3 119l-25.6-33.8c-3.8-4.8-10.3-6.4-13-6.4h-12.2c-3.7-.1-3.8 8.1 0 8.2s11.6 0 11.6 0c4.5.3 7.1 3.6 9.3 6.8s29.9 39.1 29.9 39.1V119z"/>
  <g class="cls-11">
    <path class="cls-3" d="M223.8 80.4c-2.7 0-2.8 4.1 0 4.3s8.3 0 8.3 0c4.2 0 8.5 3.1 9.9 4.9s30.3 40 30.3 40v-7l-28.4-36.9a16.83 16.83 0 00-10.7-5.3c-2.1-.1-9.4 0-9.4 0z"/>
  </g>
  <path class="cls-12" d="M266.6 136.2a4.35 4.35 0 01.1 5.3l-20 25.5c-3.8 4.8-10.3 6.4-13 6.4h-12.2c-3.7.1-3.8-8.1 0-8.2s11.6 0 11.6 0c4.5-.3 7.1-3.6 9.3-6.8 1.7-2.4 12.5-16.2 17.9-23.1a3.64 3.64 0 015.6-.1z"/>
  <g class="cls-13">
    <path class="cls-3" d="M223.8 171.8c-2.7 0-2.8-4.1 0-4.3s8.3 0 8.3 0c4.2 0 8.5-3.1 9.9-4.9 1.2-1.5 15.4-20.1 19.6-25.6a1.78 1.78 0 012.6-.2l.2.1a2.11 2.11 0 01.2 2.7l-20.7 26.9a16.83 16.83 0 01-10.7 5.3c-2.1.1-9.4 0-9.4 0z"/>
  </g>
  <path class="cls-3" d="M143.2 75.4h19.6v1.7h-19.6z"/>
  <path class="cls-14" d="M143.2 80.9h19.6v3h-19.6z"/>
  <path class="cls-3" d="M143.2 88.1h19.6v1.7h-19.6zM143.2 85.9h19.6v.8h-19.6zM143.2 78.1h19.6v.8h-19.6z"/>
  <path d="M161.9 73.5v17.9H144V73.5h17.9m.1-.8h-18.1a.68.68 0 00-.7.7v18.1a.68.68 0 00.7.7H162a.68.68 0 00.7-.7V73.4c.1-.4-.3-.7-.7-.7z"/>
  <path class="cls-3" d="M196.9 75.3h19.6V77h-19.6z"/>
  <path class="cls-14" d="M196.9 80.9h19.6v3h-19.6z"/>
  <path class="cls-3" d="M196.9 88h19.6v1.7h-19.6zM196.9 85.9h19.6v.8h-19.6zM196.9 78h19.6v.8h-19.6z"/>
  <path d="M215.6 73.5v17.9h-17.9V73.5h17.9m.1-.9h-18.1a.68.68 0 00-.7.7v18.1a.68.68 0 00.7.7h18.1a.68.68 0 00.7-.7V73.3a.75.75 0 00-.7-.7z"/>
  <path class="cls-3" d="M143.2 162.6h19.6v1.7h-19.6z"/>
  <path class="cls-14" d="M143.2 168.2h19.6v3h-19.6z"/>
  <path class="cls-3" d="M143.2 175.3h19.6v1.7h-19.6zM143.2 173.2h19.6v.8h-19.6zM143.2 165.3h19.6v.8h-19.6z"/>
  <path d="M161.9 160.8v17.9H144v-17.9h17.9m.1-.9h-18.1a.68.68 0 00-.7.7v18.1a.68.68 0 00.7.7H162a.68.68 0 00.7-.7v-18.1c.1-.3-.3-.7-.7-.7z"/>
  <path class="cls-3" d="M196.9 162.6h19.6v1.7h-19.6z"/>
  <path class="cls-14" d="M196.9 168.2h19.6v3h-19.6z"/>
  <path class="cls-3" d="M196.9 175.3h19.6v1.7h-19.6zM196.9 173.2h19.6v.8h-19.6zM196.9 165.3h19.6v.8h-19.6z"/>
  <path d="M215.6 160.8v17.9h-17.9v-17.9h17.9m.1-.9h-18.1a.68.68 0 00-.7.7v18.1a.68.68 0 00.7.7h18.1a.68.68 0 00.7-.7v-18.1a.75.75 0 00-.7-.7z"/>
  <path class="cls-3" d="M165.9 162.6h6.7v1.7h-6.7z"/>
  <path class="cls-14" d="M165.9 168.2h6.7v3h-6.7z"/>
  <path class="cls-3" d="M165.9 175.3h6.7v1.7h-6.7zM165.9 173.2h6.7v.8h-6.7zM165.9 165.3h6.7v.8h-6.7z"/>
  <path d="M171.8 160.8v17.9h-5.1v-17.9h5.1m.1-.9h-5.3a.68.68 0 00-.7.7v18.1a.68.68 0 00.7.7h5.3a.68.68 0 00.7-.7v-18.1c.1-.3-.3-.7-.7-.7z"/>
  <path class="cls-3" d="M176.4 162.6h6.7v1.7h-6.7z"/>
  <path class="cls-14" d="M176.4 168.2h6.7v3h-6.7z"/>
  <path class="cls-3" d="M176.4 175.3h6.7v1.7h-6.7zM176.4 173.2h6.7v.8h-6.7zM176.4 165.3h6.7v.8h-6.7z"/>
  <path d="M182.3 160.8v17.9h-5.1v-17.9h5.1m.1-.9h-5.3a.68.68 0 00-.7.7v18.1a.68.68 0 00.7.7h5.3a.68.68 0 00.7-.7v-18.1c.1-.3-.3-.7-.7-.7z"/>
  <path class="cls-3" d="M186.9 162.7h6.7v1.7h-6.7z"/>
  <path class="cls-14" d="M186.9 168.3h6.7v3h-6.7z"/>
  <path class="cls-3" d="M186.9 175.4h6.7v1.7h-6.7zM186.9 173.2h6.7v.8h-6.7zM186.9 165.4h6.7v.8h-6.7z"/>
  <path d="M192.8 160.9v17.9h-5.1v-17.9h5.1m.2-.9h-5.3a.68.68 0 00-.7.7v18.1a.68.68 0 00.7.7h5.3a.68.68 0 00.7-.7v-18.1a.68.68 0 00-.7-.7z"/>
  <path class="cls-3" d="M186.9 75.5h6.7v1.7h-6.7z"/>
  <path class="cls-14" d="M186.9 81h6.7v3h-6.7z"/>
  <path class="cls-3" d="M186.9 88.1h6.7v1.7h-6.7zM186.9 86h6.7v.8h-6.7zM186.9 78.2h6.7v.8h-6.7z"/>
  <path d="M192.8 73.6v17.9h-5.1V73.6h5.1m.2-.8h-5.3a.68.68 0 00-.7.7v18.1a.68.68 0 00.7.7h5.3a.68.68 0 00.7-.7V73.5a.68.68 0 00-.7-.7z"/>
  <path class="cls-8" d="M183.2 77.3h3.8v1.2h-3.8z"/>
  <path class="cls-1" d="M183.2 81.4h3.8v2.1h-3.8z"/>
  <path class="cls-8" d="M183.2 86.5h3.8v1.2h-3.8zM183.2 85h3.8v.6h-3.8zM183.2 79.3h3.8v.6h-3.8z"/>
  <path d="M186.1 76.2v12.5H184V76.2h2.1m.8-.8h-3.8v14.2h3.8V75.4z"/>
  <path class="cls-8" d="M172.7 77.3h3.8v1.2h-3.8z"/>
  <path class="cls-1" d="M172.7 81.4h3.8v2.1h-3.8z"/>
  <path class="cls-8" d="M172.7 86.5h3.8v1.2h-3.8zM172.7 85h3.8v.6h-3.8zM172.7 79.3h3.8v.6h-3.8z"/>
  <path d="M175.6 76.2v12.5h-2.1V76.2h2.1m.8-.8h-3.8v14.2h3.8V75.4z"/>
  <path class="cls-8" d="M162.8 77.3h3.2v1.2h-3.2z"/>
  <path class="cls-1" d="M162.8 81.4h3.2v2.1h-3.2z"/>
  <path class="cls-8" d="M162.8 86.5h3.2v1.2h-3.2zM162.8 85h3.2v.6h-3.2zM162.8 79.3h3.2v.6h-3.2z"/>
  <path d="M165.1 76.2v12.5h-1.5V76.2h1.5m.8-.8h-3.2v14.2h3.2V75.4z"/>
  <path class="cls-8" d="M193.7 77.4h3.2v1.2h-3.2z"/>
  <path class="cls-1" d="M193.7 81.4h3.2v2.1h-3.2z"/>
  <path class="cls-8" d="M193.7 86.5h3.2v1.2h-3.2zM193.7 85h3.2v.6h-3.2zM193.7 79.3h3.2v.6h-3.2z"/>
  <path d="M196 76.2v12.5h-1.5V76.2h1.5m.9-.8h-3.2v14.2h3.2V75.4z"/>
  <path class="cls-8" d="M183.2 164.6h3.8v1.2h-3.8z"/>
  <path class="cls-1" d="M183.2 168.6h3.8v2.1h-3.8z"/>
  <path class="cls-8" d="M183.2 173.8h3.8v1.2h-3.8zM183.2 172.2h3.8v.6h-3.8zM183.2 166.6h3.8v.6h-3.8z"/>
  <path d="M186.1 163.5V176H184v-12.5h2.1m.8-.9h-3.8v14.2h3.8v-14.2z"/>
  <path class="cls-8" d="M172.7 164.6h3.8v1.2h-3.8z"/>
  <path class="cls-1" d="M172.7 168.6h3.8v2.1h-3.8z"/>
  <path class="cls-8" d="M172.7 173.8h3.8v1.2h-3.8zM172.7 172.2h3.8v.6h-3.8zM172.7 166.6h3.8v.6h-3.8z"/>
  <path d="M175.6 163.5V176h-2.1v-12.5h2.1m.8-.9h-3.8v14.2h3.8v-14.2z"/>
  <path class="cls-8" d="M162.8 164.6h3.2v1.2h-3.2z"/>
  <path class="cls-1" d="M162.8 168.6h3.2v2.1h-3.2z"/>
  <path class="cls-8" d="M162.8 173.8h3.2v1.2h-3.2zM162.8 172.2h3.2v.6h-3.2zM162.8 166.6h3.2v.6h-3.2z"/>
  <path d="M165.1 163.5V176h-1.5v-12.5h1.5m.8-.9h-3.2v14.2h3.2v-14.2z"/>
  <path class="cls-8" d="M193.7 164.6h3.2v1.2h-3.2z"/>
  <path class="cls-1" d="M193.7 168.6h3.2v2.1h-3.2z"/>
  <path class="cls-8" d="M193.7 173.8h3.2v1.2h-3.2zM193.7 172.2h3.2v.6h-3.2zM193.7 166.6h3.2v.6h-3.2z"/>
  <path d="M196 163.5V176h-1.5v-12.5h1.5m.9-.8h-3.2v14.2h3.2v-14.2z"/>
  <path class="cls-3" d="M176.4 75.4h6.7v1.7h-6.7z"/>
  <path class="cls-14" d="M176.4 80.9h6.7v3h-6.7z"/>
  <path class="cls-3" d="M176.4 88.1h6.7v1.7h-6.7zM176.4 85.9h6.7v.8h-6.7zM176.4 78.1h6.7v.8h-6.7z"/>
  <path d="M182.3 73.5v17.9h-5.1V73.5h5.1m.1-.8h-5.3a.68.68 0 00-.7.7v18.1a.68.68 0 00.7.7h5.3a.68.68 0 00.7-.7V73.4c.1-.4-.3-.7-.7-.7z"/>
  <path class="cls-3" d="M165.9 75.4h6.7v1.7h-6.7z"/>
  <path class="cls-14" d="M165.9 80.9h6.7v3h-6.7z"/>
  <path class="cls-3" d="M165.9 88.1h6.7v1.7h-6.7zM165.9 85.9h6.7v.8h-6.7zM165.9 78.1h6.7v.8h-6.7z"/>
  <path d="M171.8 73.5v17.9h-5.1V73.5h5.1m.1-.8h-5.3a.68.68 0 00-.7.7v18.1a.68.68 0 00.7.7h5.3a.68.68 0 00.7-.7V73.4c.1-.4-.3-.7-.7-.7z"/>
  <g class="cls-16">
    <path class="cls-3" d="M226.2 81.7c-2 0-1.9 2 .1 2.1s7.2 0 7.2 0c3.2.4 6.7 1.7 10.3 6.4l28.6 37.4v-2.4l-28.3-37.6c-3.4-4-8.3-5.9-11.3-5.9z"/>
  </g>
  <g class="cls-16">
    <path class="cls-3" d="M225.9 170.9c-2 0-1.9-2 .1-2.1s7.2 0 7.2 0c3.2-.4 6.7-1.7 10.3-6.4 3.2-4.2 16.1-20.8 18.8-24.3a.93.93 0 011.2-.2l.1.1a.56.56 0 01.1.9L243.8 165c-3.4 4-8.3 5.9-11.3 5.9z"/>
  </g>
  <path d="M261.8 127.8l9.2 12.3 1.3-1.7-9.2-12.3-1.3 1.7z"/>
  <g class="cls-2">
    <path d="M114.1 109.9v10.7h-2.3c-.5-3.7-2.1-8.6-6.8-8.6a4.72 4.72 0 00-5 4.8c0 4.2 4.6 4.9 7.4 5.9 4.4 1.5 8.4 3.6 8.4 9.5 0 5.4-3.1 10.2-9.1 10.2a11.32 11.32 0 01-7.8-3l-1.6 2.1h-1.9v-11.3h2.3c1.9 8.9 5.8 9.8 9.1 9.8a4.57 4.57 0 004.8-4.6c0-3.5-3.9-5-7.1-6.1-3.5-1.1-8.7-2.7-8.7-10.1 0-5.6 3.8-9.5 9.3-9.5a9.5 9.5 0 016.2 2.2l.8-1.9h2zM136.3 134.1c-.7 3.6-2.9 8-7.8 8-6.7 0-9.9-6.3-9.9-12.8 0-7.1 4-12.3 9.4-12.3a6.18 6.18 0 015 2.2l.8-1.4h1.6l.2 8.9h-1.8c-1.2-6-3.1-7.9-5.1-7.9-2.5 0-4.3 2.8-4.3 10.5 0 6.6 1.3 10.7 5 10.7 3 0 4.5-2.7 5.1-6h1.8zM153.6 127.6v-7c0-1.2-.6-1.5-1.5-1.5h-.9v-1.5h10.2v1.5h-1.3c-.9 0-1.5.2-1.5 1.5v17.8c0 1.2.6 1.5 1.5 1.5h1.3v1.5h-10.2v-1.5h.9c.9 0 1.5-.2 1.5-1.5v-9.2h-6.7v9.3c0 1.2.6 1.5 1.4 1.5h.9v1.5H139V140h1.3c.9 0 1.5-.2 1.5-1.5v-17.8c0-1.2-.6-1.5-1.5-1.5H139v-1.5h10.2v1.5h-.9c-.9 0-1.4.2-1.4 1.5v7h6.7zM163 117.7h9.5v1.5h-.5c-.6 0-.8.4-.8.9a3.09 3.09 0 00.2 1.1l3.5 12.3h.2l2.5-7.8-1.2-4.3c-.3-1.2-.9-2.3-2.2-2.3v-1.5h8.8v1.5h-.9a.94.94 0 00-1 1c0 .3.2.8.2 1.1l3.2 12.1h.2l3.5-11.3a13.2 13.2 0 00.3-1.3c0-1.4-.8-1.5-1.9-1.5h-.7v-1.5h7.6v1.5c-2.3 0-2.9 1.1-3.6 3.5l-5.9 19h-1.9l-3.8-12.8h-.1l-4.1 12.8h-1.8l-5.8-18.9c-.8-2.5-1.6-3.6-3.5-3.6zM188.9 139.9c2.3 0 3-2.1 3.9-4.8l6.3-18.1h1.8l7 19.5c.7 1.9 1.5 3.4 3.4 3.4v1.5h-10.6v-1.5h1.3c.6 0 1.1-.3 1.1-.9a4.11 4.11 0 00-.3-1.3l-.9-2.7h-7.2l-.7 2a5.85 5.85 0 00-.2 1.3c0 1.6 1.3 1.6 2 1.6h.8v1.5h-7.7v-1.5zm12.3-6.4l-3-9.2-3 9.2zM223.7 117.7c2 0 7.5.1 7.5 5.3 0 3.5-2.7 5.4-5.6 5.6v.3c2.5.1 6.4 1.3 6.4 6 0 4.9-3.2 6.4-8 6.4h-10.8v-1.5h1.3c.9 0 1.5-.2 1.5-1.5v-17.8c0-1.2-.6-1.5-1.5-1.5h-1.3v-1.5h10.5zm-1.6 10.4c2.5 0 4-1.1 4-4.5 0-1.8-.4-4.5-3.5-4.5h-.4c-.4 0-1.1.1-1.1 1.5v7.4h1zm-1 10.8c0 1 .5 1 .8 1h.7c1.8 0 3.8-.4 3.8-5.2 0-2.3-.2-5.2-4.3-5.2h-1z"/>
  </g>
  <path class="cls-5" d="M272.3 138.4v-24.6l5.3 7 3.9 5.3 8.1 10.8 16.3 21.7a9.8 9.8 0 007.9 4h14.4v14.2h-15.5a23.1 23.1 0 01-18.6-9.4z"/>
  <path class="cls-7" d="M277.6 120.9l-5.3-7 21.8-29a23.1 23.1 0 0118.6-9.4h15.5v14.2h-14.4a9.48 9.48 0 00-7.9 4.1l-16.2 21.6-8.1 10.8z"/>
  <path class="cls-8" d="M328.2 91.4V73.6a.9.9 0 01.9-.9h17.7a.9.9 0 01.9.9v17.8a.9.9 0 01-.9.9h-17.7a.9.9 0 01-.9-.9zM328.2 178.6v-17.8a.9.9 0 01.9-.9h17.7a.9.9 0 01.9.9v17.8a.9.9 0 01-.9.9h-17.7a.9.9 0 01-.9-.9z"/>
  <path class="cls-9" d="M347.8 75.4h3.2v14.2h-3.2zM347.8 162.7h3.2v14.2h-3.2z"/>
  <path class="cls-8" d="M350.9 89.6v-16a.9.9 0 01.9-.9h4.9a.9.9 0 01.9.9v17.7a.9.9 0 01-.9.9h-4.9a.9.9 0 01-.9-.9zM350.9 176.9v-16.1a.9.9 0 01.9-.9h4.9a.9.9 0 01.9.9v17.8a.9.9 0 01-.9.9h-4.9a.9.9 0 01-.9-.9z"/>
  <path class="cls-9" d="M357.7 75.4h3.8v14.2h-3.8zM357.7 162.7h3.8v14.2h-3.8z"/>
  <path class="cls-8" d="M361.4 89.6v-16a.9.9 0 01.9-.9h4.9a.9.9 0 01.9.9v17.8a.9.9 0 01-.9.9h-4.9a.9.9 0 01-.9-.9zM361.4 176.9v-16a.9.9 0 01.9-.9h4.9a.9.9 0 01.9.9v17.8a.9.9 0 01-.9.9h-4.9a.9.9 0 01-.9-.9z"/>
  <path class="cls-9" d="M368.2 75.4h3.8v14.2h-3.8zM368.2 162.7h3.8v14.2h-3.8z"/>
  <path class="cls-8" d="M371.9 91.4V73.6a.9.9 0 01.9-.9h4.9a.9.9 0 01.9.9v17.8a.9.9 0 01-.9.9h-4.9a1 1 0 01-.9-.9zM371.9 178.6v-17.8a.9.9 0 01.9-.9h4.9a.9.9 0 01.9.9v17.8a.9.9 0 01-.9.9h-4.9a1 1 0 01-.9-.9z"/>
  <path class="cls-9" d="M378.7 75.4h3.2v14.2h-3.2zM378.7 162.7h3.2v14.2h-3.2z"/>
  <path class="cls-8" d="M381.8 91.4V73.6a.9.9 0 01.9-.9h17.8a.9.9 0 01.9.9v17.8a.9.9 0 01-.9.9h-17.7a1 1 0 01-1-.9zM381.8 176.9v-16a.9.9 0 01.9-.9h17.8a.9.9 0 01.9.9v17.8a.9.9 0 01-.9.9h-17.7a.9.9 0 01-.9-.9v-1.8z"/>
  <path d="M401.4 89.6V75.4H462a23.11 23.11 0 0123.1 23.1v55.3a23.11 23.11 0 01-23.1 23.1h-60.6v-14.2h59.1a9.82 9.82 0 009.8-9.8V99.4a9.82 9.82 0 00-9.8-9.8z"/>
  <path class="cls-10" d="M272.3 132.8l25.6 33.2c3.8 4.8 10.3 6.4 13 6.4h12.2c3.7.1 3.8-8.1 0-8.2s-11.6 0-11.6 0c-4.5-.3-7.1-3.6-9.3-6.8s-29.9-38.7-29.9-38.7v14.1z"/>
  <g class="cls-11">
    <path class="cls-3" d="M320.8 171.8c2.7 0 2.8-4.1 0-4.3s-8.3 0-8.3 0c-4.2 0-8.5-3.1-9.9-4.9s-30.3-40-30.3-40v7l28.4 36.9a16.83 16.83 0 0010.7 5.3c2.1.1 9.4 0 9.4 0z"/>
  </g>
  <path class="cls-12" d="M278 116a4.35 4.35 0 01-.1-5.3l20-25.5c3.8-4.8 10.3-6.4 13-6.4h12.2c3.7-.1 3.8 8.1 0 8.2s-11.6 0-11.6 0c-4.5.3-7.1 3.6-9.3 6.8-1.7 2.4-12.5 16.2-17.9 23.1a3.64 3.64 0 01-5.6.1z"/>
  <g class="cls-13">
    <path class="cls-3" d="M320.8 80.4c2.7 0 2.8 4.1 0 4.3s-8.3 0-8.3 0c-4.2 0-8.5 3.1-9.9 4.9-1.2 1.5-15.4 20.1-19.6 25.6a1.78 1.78 0 01-2.6.2l-.2-.1a2.11 2.11 0 01-.2-2.7l20.7-26.9a16.83 16.83 0 0110.7-5.3c2.1-.1 9.4 0 9.4 0z"/>
  </g>
  <path class="cls-3" d="M381.88 175.12h19.6v1.7h-19.6z"/>
  <path class="cls-14" d="M381.88 168.33h19.6v3h-19.6z"/>
  <path class="cls-3" d="M381.88 162.46h19.6v1.7h-19.6zM381.88 165.48h19.6v.8h-19.6zM381.88 173.33h19.6v.8h-19.6z"/>
  <path d="M400.6 160.8v17.9h-17.9v-17.9h17.9m.1-.9h-18.1a.68.68 0 00-.7.7v18.1a.68.68 0 00.7.7h18.1a.68.68 0 00.7-.7v-18.1a.75.75 0 00-.7-.7z"/>
  <path class="cls-3" d="M328.11 175.26h19.6v1.7h-19.6z"/>
  <path class="cls-14" d="M328.11 168.37h19.6v3h-19.6z"/>
  <path class="cls-3" d="M328.11 162.5h19.6v1.7h-19.6zM328.11 165.62h19.6v.8h-19.6zM328.11 173.37h19.6v.8h-19.6z"/>
  <path d="M346.9 160.9v17.9H329v-17.9h17.9m.1-.9h-18.1a.68.68 0 00-.7.7v18.1a.68.68 0 00.7.7H347a.68.68 0 00.7-.7v-18.1c.1-.4-.3-.7-.7-.7z"/>
  <path class="cls-3" d="M381.88 87.96h19.6v1.7h-19.6z"/>
  <path class="cls-14" d="M381.88 81.07h19.6v3h-19.6z"/>
  <path class="cls-3" d="M381.88 75.2h19.6v1.7h-19.6zM381.88 78.31h19.6v.8h-19.6zM381.88 86.07h19.6v.8h-19.6z"/>
  <path d="M400.6 73.6v17.9h-17.9V73.6h17.9m.1-.9h-18.1a.68.68 0 00-.7.7v18.1a.68.68 0 00.7.7h18.1a.68.68 0 00.7-.7V73.4a.68.68 0 00-.7-.7z"/>
  <path class="cls-3" d="M328.11 87.96h19.6v1.7h-19.6z"/>
  <path class="cls-14" d="M328.11 81.07h19.6v3h-19.6z"/>
  <path class="cls-3" d="M328.11 75.2h19.6v1.7h-19.6zM328.11 78.31h19.6v.8h-19.6zM328.11 86.07h19.6v.8h-19.6z"/>
  <path d="M346.9 73.6v17.9H329V73.6h17.9m.1-.9h-18.1a.68.68 0 00-.7.7v18.1a.68.68 0 00.7.7H347a.68.68 0 00.7-.7V73.4c.1-.4-.3-.7-.7-.7z"/>
  <path class="cls-3" d="M372.03 87.96h6.7v1.7h-6.7z"/>
  <path class="cls-14" d="M372.03 81.07h6.7v3h-6.7z"/>
  <path class="cls-3" d="M372.03 75.2h6.7v1.7h-6.7zM372.03 78.31h6.7v.8h-6.7zM372.03 86.07h6.7v.8h-6.7z"/>
  <path d="M377.8 73.6v17.9h-5.1V73.6h5.1m.2-.9h-5.3a.68.68 0 00-.7.7v18.1a.68.68 0 00.7.7h5.3a.68.68 0 00.7-.7V73.4a.68.68 0 00-.7-.7z"/>
  <path class="cls-3" d="M361.5 87.94h6.7v1.7h-6.7z"/>
  <path class="cls-14" d="M361.5 81.05h6.7v3h-6.7z"/>
  <path class="cls-3" d="M361.5 75.28h6.7v1.7h-6.7zM361.5 78.29h6.7v.8h-6.7zM361.5 86.05h6.7v.8h-6.7z"/>
  <path d="M367.3 73.5v17.9h-5.1V73.5h5.1m.1-.8h-5.3a.68.68 0 00-.7.7v18.1a.68.68 0 00.7.7h5.3a.68.68 0 00.7-.7V73.4c.1-.4-.3-.7-.7-.7z"/>
  <path class="cls-3" d="M350.98 87.89h6.7v1.7h-6.7z"/>
  <path class="cls-14" d="M350.98 81h6.7v3h-6.7z"/>
  <path class="cls-3" d="M350.98 75.13h6.7v1.7h-6.7zM350.98 78.15h6.7v.8h-6.7zM350.98 86h6.7v.8h-6.7z"/>
  <path d="M356.8 73.5v17.9h-5.1V73.5h5.1m.1-.9h-5.3a.68.68 0 00-.7.7v18.1a.68.68 0 00.7.7h5.3a.68.68 0 00.7-.7V73.3c.1-.3-.3-.7-.7-.7z"/>
  <path class="cls-3" d="M350.98 175.05h6.7v1.7h-6.7z"/>
  <path class="cls-14" d="M350.98 168.16h6.7v3h-6.7z"/>
  <path class="cls-3" d="M350.98 162.39h6.7v1.7h-6.7zM350.98 165.41h6.7v.8h-6.7zM350.98 173.26h6.7v.8h-6.7z"/>
  <path d="M356.8 160.7v17.9h-5.1v-17.9h5.1m.1-.8h-5.3a.68.68 0 00-.7.7v18.1a.68.68 0 00.7.7h5.3a.68.68 0 00.7-.7v-18.1c.1-.4-.3-.7-.7-.7z"/>
  <path class="cls-8" d="M357.59 173.69h3.8v1.2h-3.8z"/>
  <path class="cls-1" d="M357.59 168.81h3.8v2.1h-3.8z"/>
  <path class="cls-8" d="M357.59 164.51h3.8v1.2h-3.8zM357.59 166.62h3.8v.6h-3.8zM357.59 172.37h3.8v.6h-3.8z"/>
  <path d="M360.6 163.5V176h-2.1v-12.5h2.1m.8-.8h-3.8v14.2h3.8v-14.2z"/>
  <path class="cls-8" d="M368.12 173.69h3.8v1.2h-3.8z"/>
  <path class="cls-1" d="M368.12 168.81h3.8v2.1h-3.8z"/>
  <path class="cls-8" d="M368.12 164.51h3.8v1.2h-3.8zM368.12 166.62h3.8v.6h-3.8zM368.12 172.37h3.8v.6h-3.8z"/>
  <path d="M371.1 163.5V176H369v-12.5h2.1m.8-.8h-3.8v14.2h3.8v-14.2z"/>
  <path class="cls-8" d="M378.63 173.69h3.2v1.2h-3.2z"/>
  <path class="cls-1" d="M378.63 168.81h3.2v2.1h-3.2z"/>
  <path class="cls-8" d="M378.63 164.51h3.2v1.2h-3.2zM378.63 166.62h3.2v.6h-3.2zM378.63 172.37h3.2v.6h-3.2z"/>
  <path d="M381 163.5V176h-1.5v-12.5h1.5m.8-.8h-3.2v14.2h3.2v-14.2z"/>
  <path class="cls-8" d="M347.66 173.64h3.2v1.2h-3.2z"/>
  <path class="cls-1" d="M347.66 168.76h3.2v2.1h-3.2z"/>
  <path class="cls-8" d="M347.66 164.46h3.2v1.2h-3.2zM347.66 166.67h3.2v.6h-3.2zM347.66 172.32h3.2v.6h-3.2z"/>
  <path d="M350.1 163.5V176h-1.5v-12.5h1.5m.8-.9h-3.2v14.2h3.2v-14.2z"/>
  <path class="cls-8" d="M357.59 86.49h3.8v1.2h-3.8z"/>
  <path class="cls-1" d="M357.59 81.51h3.8v2.1h-3.8z"/>
  <path class="cls-8" d="M357.59 77.31h3.8v1.2h-3.8zM357.59 79.42h3.8v.6h-3.8zM357.59 85.06h3.8v.6h-3.8z"/>
  <path d="M360.6 76.2v12.5h-2.1V76.2h2.1m.8-.8h-3.8v14.2h3.8V75.4z"/>
  <path class="cls-8" d="M368.12 86.49h3.8v1.2h-3.8z"/>
  <path class="cls-1" d="M368.12 81.51h3.8v2.1h-3.8z"/>
  <path class="cls-8" d="M368.12 77.31h3.8v1.2h-3.8zM368.12 79.42h3.8v.6h-3.8zM368.12 85.06h3.8v.6h-3.8z"/>
  <path d="M371.1 76.2v12.5H369V76.2h2.1m.8-.8h-3.8v14.2h3.8V75.4z"/>
  <path class="cls-8" d="M378.63 86.49h3.2v1.2h-3.2z"/>
  <path class="cls-1" d="M378.63 81.51h3.2v2.1h-3.2z"/>
  <path class="cls-8" d="M378.63 77.31h3.2v1.2h-3.2zM378.63 79.42h3.2v.6h-3.2zM378.63 85.06h3.2v.6h-3.2z"/>
  <path d="M381 76.2v12.5h-1.5V76.2h1.5m.8-.8h-3.2v14.2h3.2V75.4z"/>
  <path class="cls-8" d="M347.66 86.44h3.2v1.2h-3.2z"/>
  <path class="cls-1" d="M347.66 81.46h3.2v2.1h-3.2z"/>
  <path class="cls-8" d="M347.66 77.26h3.2v1.2h-3.2zM347.66 79.37h3.2v.6h-3.2zM347.66 85.11h3.2v.6h-3.2z"/>
  <path d="M350.1 76.2v12.5h-1.5V76.2h1.5m.8-.8h-3.2v14.2h3.2V75.4z"/>
  <path class="cls-3" d="M361.5 175.12h6.7v1.7h-6.7z"/>
  <path class="cls-14" d="M361.5 168.33h6.7v3h-6.7z"/>
  <path class="cls-3" d="M361.5 162.46h6.7v1.7h-6.7zM361.5 165.48h6.7v.8h-6.7zM361.5 173.33h6.7v.8h-6.7z"/>
  <path d="M367.3 160.8v17.9h-5.1v-17.9h5.1m.1-.9h-5.3a.68.68 0 00-.7.7v18.1a.68.68 0 00.7.7h5.3a.68.68 0 00.7-.7v-18.1c.1-.3-.3-.7-.7-.7z"/>
  <path class="cls-3" d="M372.03 175.12h6.7v1.7h-6.7z"/>
  <path class="cls-14" d="M372.03 168.33h6.7v3h-6.7z"/>
  <path class="cls-3" d="M372.03 162.46h6.7v1.7h-6.7zM372.03 165.48h6.7v.8h-6.7zM372.03 173.33h6.7v.8h-6.7z"/>
  <path d="M377.8 160.8v17.9h-5.1v-17.9h5.1m.1-.9h-5.3a.68.68 0 00-.7.7v18.1a.68.68 0 00.7.7h5.3a.68.68 0 00.7-.7v-18.1c.1-.3-.2-.7-.7-.7z"/>
  <g class="cls-16">
    <path class="cls-3" d="M318.4 170.5c2 0 1.9-2-.1-2.1s-7.2 0-7.2 0c-3.2-.4-6.7-1.7-10.3-6.4s-28.5-36.8-28.5-36.8v2.5l28.3 37c3.4 4 8.3 5.9 11.3 5.9 1.8-.1 6.5-.1 6.5-.1z"/>
  </g>
  <g class="cls-16">
    <path class="cls-3" d="M318.7 81.3c2 0 1.9 2-.1 2.1s-7.2 0-7.2 0c-3.2.4-6.7 1.7-10.3 6.4-3.2 4.2-16.1 20.8-18.8 24.3a.93.93 0 01-1.2.2l-.1-.1a.56.56 0 01-.1-.9l19.9-26.1c3.4-4 8.3-5.9 11.3-5.9z"/>
  </g>
  <path d="M282.8 124.4l-9.2-12.3-1.3 1.7 9.2 12.3 1.3-1.7z"/>
  <g class="cls-2">
    <path d="M161.8 202.9v-8c0-1.4-.7-1.7-1.7-1.7H159v-1.7h11.8v1.7h-1.5c-1 0-1.7.3-1.7 1.7v20.5c0 1.4.6 1.7 1.7 1.7h1.5v1.7H159v-1.7h1.1c1 0 1.7-.3 1.7-1.7v-10.7h-7.7v10.7c0 1.4.6 1.7 1.6 1.7h1v1.7H145v-1.7h1.5c1 0 1.7-.3 1.7-1.7v-20.5c0-1.4-.6-1.7-1.7-1.7H145v-1.7h11.7v1.7h-1c-1 0-1.6.3-1.6 1.7v8zM192.4 196.4a3.71 3.71 0 00.4-1.5c0-.8-.2-1.7-1.6-1.7h-.7v-1.7h7.7v1.7c-1.9 0-3 1.9-3.3 2.4l-5.2 10.2v9.5c0 1.4.7 1.7 1.8 1.7h1.4v1.7h-12.2V217h1.4c1 0 1.8-.3 1.8-1.7v-8.5l-6.2-11.2c-1.1-1.9-2-2.4-3.8-2.5v-1.7h12.2v1.7h-1.3a1.15 1.15 0 00-1.2 1.2 2.93 2.93 0 00.3 1l4.5 8.3h.2zM212.1 191.6c7.8 0 13 5.3 13 14.1 0 9.9-6.2 13.1-13.6 13.1h-10v-1.7h1.4c1 0 1.8-.3 1.8-1.7v-20.5c0-1.4-.7-1.7-1.8-1.7h-1.4v-1.7h10.6zm-1.6 23.8c0 1 0 1.6 1.9 1.6s6.1-.7 6.1-12.2c0-10.5-3.8-11.7-6.4-11.7-1 0-1.6.2-1.6 1.4zM242.4 191.6c7.1 0 8.7 4 8.7 6.8 0 1.2-.7 5.7-7.1 6.4v.3c2.1.2 4.1 1.7 4.7 5.2.4 2.3.2 5.8 1.6 5.8.7 0 1.5-1.3 1.6-4.2h1.9c0 2.4-1.4 7.7-5.6 7.7-4.5 0-5.1-4.7-5.5-9.1-.4-4.2-1.5-4.7-2.9-4.7h-1.2v9.6c0 1.4.5 1.7 1.6 1.7h1.2v1.7h-11.7v-1.7h1.4c1.1 0 1.8-.3 1.8-1.7v-20.5c0-1.4-.7-1.7-1.8-1.7h-1.4v-1.7h12.7zm-1.8 12.3c2 0 4.2-.7 4.2-5.6 0-3.7-1.2-5-4-5h-.7c-.6 0-1.5.2-1.5 2v8.6zM256.5 217.1c2.6 0 3.4-2.4 4.5-5.5l7.2-20.8h2.1l8 22.5c.8 2.2 1.7 3.9 4 3.9v1.7h-12.2v-1.7h1.4c.7 0 1.3-.3 1.3-1.1a3.7 3.7 0 00-.4-1.5l-1-3.1h-8.2l-.8 2.3a8 8 0 00-.3 1.5c0 1.9 1.4 1.9 2.3 1.9h1v1.7h-8.9zm14.2-7.4l-3.4-10.6-3.5 10.6zM295.8 191.6v1.7h-1.2c-1.1 0-1.7.3-1.7 1.7v14.6c0 4.3.3 8 4.9 8 3.8 0 5.6-3.4 5.6-8V195c0-1.4-.7-1.7-1.8-1.7h-1.5v-1.7h8.6v1.7h-1.5c-1 0-1.7.3-1.7 1.7v14.5c0 9.8-6.8 10.2-8.8 10.2-3.3 0-9.6-.6-9.6-10.2V195c0-1.4-.7-1.7-1.7-1.7h-1.5v-1.7zM325 191.6v1.7h-1.4c-1 0-1.7.3-1.7 1.7v20.5c0 1.5.9 1.7 1.4 1.7h.8c2.4 0 6.7-.6 7.2-7.3h1.6v9h-20.1v-1.7h1.5c1 0 1.7-.3 1.7-1.7V195c0-1.4-.7-1.7-1.7-1.7h-1.5v-1.7zM349.7 191.6v1.7h-1.1c-1 0-1.8.3-1.8 1.7v20.5c0 1.4.7 1.7 1.8 1.7h1.1v1.7h-11.9v-1.7h1.5c1 0 1.7-.3 1.7-1.7V195c0-1.4-.7-1.7-1.7-1.7h-1.5v-1.7zM374.6 210.4c-.8 4.1-3.3 9.2-8.9 9.2-7.8 0-11.4-7.2-11.4-14.7 0-8.2 4.6-14.2 10.8-14.2a6.83 6.83 0 015.7 2.5l1-1.6h1.8l.2 10.2h-2c-1.4-7-3.5-9-5.9-9-2.9 0-4.9 3.2-4.9 12.1 0 7.6 1.5 12.4 5.8 12.4 3.5 0 5.2-3.1 5.9-6.9zM396.9 190.9v9.4h-2c-.4-3.3-1.8-7.6-6-7.6a4.14 4.14 0 00-4.4 4.2c0 3.7 4.1 4.3 6.5 5.2 3.9 1.4 7.4 3.2 7.4 8.4 0 4.8-2.7 9-8.1 9a9.79 9.79 0 01-6.9-2.7l-1.4 1.9h-1.7v-9.9h2c1.7 7.8 5.2 8.6 8.1 8.6a4.1 4.1 0 004.3-4.1c0-3.1-3.4-4.4-6.3-5.4-3.1-1-7.6-2.4-7.6-8.9 0-5 3.4-8.4 8.2-8.4a8.07 8.07 0 015.4 1.9l.7-1.7h1.8z"/>
  </g>
  <g class="cls-2">
    <path d="M310.9 113.7c2.3 0 8.7.2 8.7 6.1 0 4-3.2 6.2-6.5 6.4v.4c2.8.1 7.4 1.5 7.4 6.9 0 5.6-3.6 7.4-9.2 7.4h-12.4v-1.7h1.4c1.1 0 1.8-.3 1.8-1.7V117c0-1.4-.7-1.7-1.8-1.7h-1.4v-1.7h12zm-1.8 11.9c2.9 0 4.6-1.3 4.6-5.2 0-2.1-.5-5.1-4-5.1h-.5c-.4 0-1.3.1-1.3 1.7v8.6zm-1.2 12.5c0 1.1.6 1.2 1 1.2h.8c2 0 4.4-.4 4.4-6 0-2.7-.2-6-4.9-6H308v10.8zM332.9 119.4c5.6 0 6.9 3.1 6.9 5.3 0 .9-.5 4.5-5.6 5.1v.2c1.6.2 3.2 1.3 3.7 4.1.3 1.8.2 4.6 1.3 4.6.5 0 1.2-1 1.2-3.3h1.5c0 1.9-1.1 6.1-4.4 6.1-3.5 0-4-3.7-4.4-7.2-.3-3.3-1.2-3.7-2.3-3.7h-.9v7.6c0 1.1.4 1.3 1.2 1.3h.9v1.3h-9.3v-1.3h1.1c.9 0 1.4-.2 1.4-1.3V122c0-1.1-.5-1.3-1.4-1.3h-1.1v-1.3zm-1.4 9.8c1.6 0 3.3-.5 3.3-4.5 0-2.9-.9-4-3.2-4h-.6c-.5 0-1.2.2-1.2 1.6v6.8h1.7zM353 118.8c6.4 0 8.8 5.8 8.8 11.4s-2.5 11.4-8.8 11.4-8.8-5.8-8.8-11.4 2.4-11.4 8.8-11.4zm0 21.4c3.1 0 3.6-5.2 3.6-10.1s-.5-10.1-3.6-10.1-3.6 5.2-3.6 10.1.4 10.1 3.6 10.1zM381.1 119.4v8.2h-1.3c-.3-5.6-3.1-6.9-4.3-6.9h-.5v17.5c0 1.1.5 1.3 1.3 1.3h1.1v1.3H368v-1.3h1c.8 0 1.4-.2 1.4-1.3v-17.5h-.5c-1.1 0-4 1.3-4.3 6.9h-1.3v-8.2zM396.8 128.4v-6.3c0-1.1-.5-1.3-1.3-1.3h-.9v-1.3h9.3v1.3h-1.2c-.8 0-1.3.2-1.3 1.3v16.2c0 1.1.5 1.3 1.3 1.3h1.2v1.3h-9.3v-1.3h.9c.8 0 1.3-.2 1.3-1.3v-8.5h-6.1v8.5c0 1.1.5 1.3 1.3 1.3h.8v1.3h-9.2v-1.3h1.2c.8 0 1.3-.2 1.3-1.3v-16.2c0-1.1-.5-1.3-1.3-1.3h-1.2v-1.3h9.2v1.3h-.8c-.8 0-1.3.2-1.3 1.3v6.3zM421.2 126.8c-.1-2.3-.8-6.1-4.5-6.1h-2.1c-.3 0-.8.2-.8 1.1v6.9h1.1c2.2 0 2.3-2.1 2.3-2.9v-.6h1.3v8.4h-1.3v-.4c0-2.3-.8-3.1-2.5-3.1h-.9v8.4c0 .7 0 1.1 1.6 1.1h.7c1.9 0 5.4-.5 5.4-6.6h1.3v7.9h-16.1v-1.3h1.1c.9 0 1.4-.2 1.4-1.3v-16.2c0-1.1-.5-1.3-1.4-1.3h-1.1v-1.3h15.8v7.4h-1.3zM436.3 119.4c5.6 0 6.9 3.1 6.9 5.3 0 .9-.5 4.5-5.6 5.1v.2c1.6.2 3.2 1.3 3.7 4.1.3 1.8.2 4.6 1.3 4.6.5 0 1.2-1 1.2-3.3h1.5c0 1.9-1.1 6.1-4.4 6.1-3.5 0-4-3.7-4.4-7.2-.3-3.3-1.2-3.7-2.3-3.7h-.9v7.6c0 1.1.4 1.3 1.2 1.3h.9v1.3h-9.3v-1.3h1.1c.9 0 1.4-.2 1.4-1.3V122c0-1.1-.5-1.3-1.4-1.3h-1.1v-1.3zm-1.4 9.8c1.6 0 3.3-.5 3.3-4.5 0-2.9-.9-4-3.2-4h-.5c-.5 0-1.2.2-1.2 1.6v6.8h1.6zM461.9 118.9v7.5h-1.6c-.3-2.6-1.5-6-4.8-6a3.25 3.25 0 00-3.5 3.3c0 2.9 3.2 3.4 5.2 4.1 3.1 1.1 5.8 2.5 5.8 6.6 0 3.8-2.1 7.1-6.4 7.1a7.43 7.43 0 01-5.4-2.1l-1.1 1.5h-1.4v-7.8h1.6c1.4 6.2 4.1 6.8 6.4 6.8a3.27 3.27 0 003.4-3.2c0-2.4-2.7-3.5-5-4.3s-6-1.9-6-7a6.27 6.27 0 016.5-6.6 7 7 0 014.3 1.5l.6-1.4z"/>
  </g>
  <path class="cls-3" d="M311 111.5c2.3 0 8.7.2 8.7 6.1 0 4-3.2 6.2-6.5 6.4v.4c2.8.1 7.4 1.5 7.4 6.9 0 5.6-3.6 7.4-9.2 7.4H299V137h1.4c1.1 0 1.8-.3 1.8-1.7v-20.5c0-1.4-.7-1.7-1.8-1.7H299v-1.7h12zm-1.8 11.9c2.9 0 4.6-1.3 4.6-5.2 0-2.1-.5-5.1-4-5.1h-.5c-.4 0-1.3.1-1.3 1.7v8.6zm-1.2 12.5c0 1.1.6 1.2 1 1.2h.8c2 0 4.4-.4 4.4-6 0-2.7-.2-6-4.9-6h-1.2v10.8zM333 117.2c5.6 0 6.9 3.1 6.9 5.3 0 .9-.5 4.5-5.6 5.1v.2c1.6.2 3.2 1.3 3.7 4.1.3 1.8.2 4.6 1.3 4.6.5 0 1.2-1 1.2-3.3h1.5c0 1.9-1.1 6.1-4.4 6.1-3.5 0-4-3.7-4.4-7.2-.3-3.3-1.2-3.7-2.3-3.7h-.9v7.6c0 1.1.4 1.3 1.2 1.3h.9v1.3h-9.3v-1.3h1.1c.9 0 1.4-.2 1.4-1.3v-16.2c0-1.1-.5-1.3-1.4-1.3h-1.1v-1.3zm-1.4 9.8c1.6 0 3.3-.5 3.3-4.5 0-2.9-.9-4-3.2-4h-.6c-.5 0-1.2.2-1.2 1.6v6.8h1.7zM353.1 116.6c6.4 0 8.8 5.8 8.8 11.4s-2.5 11.4-8.8 11.4-8.8-5.8-8.8-11.4 2.5-11.4 8.8-11.4zm0 21.5c3.1 0 3.6-5.2 3.6-10.1s-.5-10.1-3.6-10.1-3.6 5.2-3.6 10.1.4 10.1 3.6 10.1zM381.2 117.2v8.2h-1.3c-.3-5.6-3.1-6.9-4.3-6.9h-.5V136c0 1.1.5 1.3 1.3 1.3h1.1v1.3h-9.4v-1.3h1c.8 0 1.4-.2 1.4-1.3v-17.5h-.5c-1.1 0-4 1.3-4.3 6.9h-1.3v-8.2zM396.9 126.2v-6.3c0-1.1-.5-1.3-1.3-1.3h-.9v-1.4h9.3v1.3h-1.2c-.8 0-1.3.2-1.3 1.3V136c0 1.1.5 1.3 1.3 1.3h1.2v1.3h-9.3v-1.3h.9c.8 0 1.3-.2 1.3-1.3v-8.5h-6.1v8.5c0 1.1.5 1.3 1.3 1.3h.8v1.3h-9.2v-1.3h1.2c.8 0 1.3-.2 1.3-1.3v-16.2c0-1.1-.5-1.3-1.3-1.3h-1.2v-1.3h9.2v1.3h-.8c-.8 0-1.3.2-1.3 1.3v6.3h6.1zM421.4 124.6c-.1-2.3-.8-6.1-4.5-6.1h-2.1c-.3 0-.8.2-.8 1.1v6.9h1.1c2.2 0 2.3-2.1 2.3-2.9v-.6h1.3v8.4h-1.3v-.4c0-2.3-.8-3.1-2.5-3.1h-.9v8.4c0 .7 0 1.1 1.6 1.1h.7c1.9 0 5.4-.5 5.4-6.6h1.3v7.9h-16.1v-1.3h1.1c.9 0 1.4-.2 1.4-1.3v-16.2c0-1.1-.5-1.3-1.4-1.3h-1.1v-1.4h15.8v7.4zM436.4 117.2c5.6 0 6.9 3.1 6.9 5.3 0 .9-.5 4.5-5.6 5.1v.2c1.6.2 3.2 1.3 3.7 4.1.3 1.8.2 4.6 1.3 4.6.5 0 1.2-1 1.2-3.3h1.5c0 1.9-1.1 6.1-4.4 6.1-3.5 0-4-3.7-4.4-7.2-.3-3.3-1.2-3.7-2.3-3.7h-.9v7.6c0 1.1.4 1.3 1.2 1.3h.9v1.3h-9.3v-1.3h1.1c.9 0 1.4-.2 1.4-1.3v-16.2c0-1.1-.5-1.3-1.4-1.3h-1.1v-1.3zM435 127c1.6 0 3.3-.5 3.3-4.5 0-2.9-.9-4-3.2-4h-.6c-.5 0-1.2.2-1.2 1.6v6.8h1.7zM462 116.7v7.5h-1.6c-.3-2.6-1.5-6-4.8-6a3.25 3.25 0 00-3.5 3.3c0 2.9 3.2 3.4 5.2 4.1 3.1 1.1 5.8 2.5 5.8 6.6 0 3.8-2.1 7.1-6.4 7.1a7.43 7.43 0 01-5.4-2.1l-1.1 1.5h-1.4v-7.8h1.6c1.4 6.2 4.1 6.8 6.4 6.8a3.27 3.27 0 003.4-3.2c0-2.4-2.7-3.5-5-4.3s-6-1.9-6-7a6.27 6.27 0 016.5-6.6 7 7 0 014.3 1.5l.6-1.4zM114.2 107.5v10.7h-2.3c-.5-3.7-2.1-8.6-6.8-8.6a4.72 4.72 0 00-5 4.8c0 4.2 4.6 4.9 7.4 5.9 4.4 1.5 8.4 3.6 8.4 9.5 0 5.4-3.1 10.2-9.1 10.2a11.32 11.32 0 01-7.8-3l-1.6 2.1h-1.9v-11.2h2.3c1.9 8.9 5.8 9.8 9.1 9.8a4.57 4.57 0 004.8-4.6c0-3.5-3.9-5-7.1-6.1-3.5-1.1-8.7-2.7-8.7-10.1 0-5.6 3.8-9.5 9.3-9.5a9.5 9.5 0 016.2 2.2l.8-1.9h2zM136.4 131.8c-.7 3.6-2.9 8-7.8 8-6.7 0-9.9-6.3-9.9-12.8 0-7.1 4-12.3 9.4-12.3a6.18 6.18 0 015 2.2l.8-1.4h1.6l.2 8.9h-1.8c-1.2-6-3.1-7.9-5.1-7.9-2.5 0-4.3 2.8-4.3 10.5 0 6.6 1.3 10.7 5 10.7 3 0 4.5-2.7 5.1-6h1.8zM153.7 125.3v-7c0-1.2-.6-1.5-1.5-1.5h-.9v-1.5h10.2v1.5h-1.3c-.9 0-1.5.2-1.5 1.5v17.8c0 1.2.6 1.5 1.5 1.5h1.3v1.5h-10.2v-1.5h.9c.9 0 1.5-.2 1.5-1.5v-9.3H147v9.3c0 1.2.6 1.5 1.4 1.5h.9v1.5h-10.2v-1.5h1.3c.9 0 1.5-.2 1.5-1.5v-17.8c0-1.2-.6-1.5-1.5-1.5h-1.3v-1.5h10.2v1.5h-.8c-.9 0-1.4.2-1.4 1.5v7zM163.2 115.4h9.5v1.5h-.5c-.6 0-.8.4-.8.9a3.09 3.09 0 00.2 1.1l3.5 12.3h.2l2.5-7.8-1.2-4.3c-.3-1.2-.9-2.3-2.2-2.3v-1.5h8.8v1.5h-.9a.94.94 0 00-1 1c0 .3.2.8.2 1.1l3.2 12.1h.2l3.5-11.3a13.2 13.2 0 00.3-1.3c0-1.4-.8-1.5-1.9-1.5h-.7v-1.5h7.6v1.5c-2.3 0-2.9 1.1-3.6 3.5l-5.9 19h-1.9l-3.8-12.8-4.1 12.8h-1.9l-5.8-18.9c-.8-2.5-1.6-3.6-3.5-3.6zM189 137.6c2.3 0 3-2.1 3.9-4.8l6.3-18.1h1.8l7 19.5c.7 1.9 1.5 3.4 3.4 3.4v1.5h-10.6v-1.5h1.3c.6 0 1.1-.3 1.1-.9a4.11 4.11 0 00-.3-1.3l-.9-2.7h-7.2l-.7 2a5.85 5.85 0 00-.2 1.3c0 1.6 1.3 1.6 2 1.6h.8v1.5H189v-1.5zm12.4-6.4l-3-9.2-3 9.2zM223.8 115.4c2 0 7.5.1 7.5 5.3 0 3.5-2.7 5.4-5.6 5.6v.3c2.5.1 6.4 1.3 6.4 6 0 4.9-3.2 6.4-8 6.4h-10.8v-1.5h1.3c.9 0 1.5-.2 1.5-1.5v-17.8c0-1.2-.6-1.5-1.5-1.5h-1.3v-1.5h10.5zm-1.6 10.4c2.5 0 4-1.1 4-4.5 0-1.8-.4-4.5-3.5-4.5h-.4c-.4 0-1.1.1-1.1 1.5v7.4h1zm-1 10.8c0 1 .5 1 .8 1h.7c1.8 0 3.8-.4 3.8-5.2 0-2.3-.2-5.2-4.3-5.2h-1z"/>
  <path class="cls-5" d="M161.7 200.4v-8c0-1.4-.7-1.7-1.7-1.7h-1.1V189h11.8v1.7h-1.5c-1 0-1.7.3-1.7 1.7v20.5c0 1.4.6 1.7 1.7 1.7h1.5v1.7h-11.8v-1.7h1.1c1 0 1.7-.3 1.7-1.7v-10.7H154v10.7c0 1.4.6 1.7 1.6 1.7h1v1.7h-11.7v-1.7h1.5c1 0 1.7-.3 1.7-1.7v-20.5c0-1.4-.6-1.7-1.7-1.7h-1.5V189h11.7v1.7h-1c-1 0-1.6.3-1.6 1.7v8zM192.4 193.8a3.71 3.71 0 00.4-1.5c0-.8-.2-1.7-1.6-1.7h-.7v-1.7h7.7v1.7c-1.9 0-3 1.9-3.3 2.4l-5.2 10.2v9.5c0 1.4.7 1.7 1.8 1.7h1.4v1.7h-12.2v-1.7h1.4c1 0 1.8-.3 1.8-1.7v-8.5l-6.2-11.2c-1.1-1.9-2-2.4-3.8-2.5v-1.7h12.2v1.7h-1.3a1.15 1.15 0 00-1.2 1.2 2.93 2.93 0 00.3 1l4.5 8.3h.2zM212 189c7.8 0 13 5.3 13 14.1 0 9.9-6.2 13.1-13.6 13.1h-9.9v-1.7h1.4c1 0 1.8-.3 1.8-1.7v-20.5c0-1.4-.7-1.7-1.8-1.7h-1.4v-1.7H212zm-1.5 23.9c0 1 0 1.6 1.9 1.6s6.1-.7 6.1-12.2c0-10.5-3.8-11.7-6.4-11.7-1 0-1.6.2-1.6 1.4zM242.4 189c7.1 0 8.7 4 8.7 6.8 0 1.2-.7 5.7-7.1 6.4v.3c2.1.2 4.1 1.7 4.7 5.2.4 2.3.2 5.8 1.6 5.8.7 0 1.5-1.3 1.6-4.2h1.9c0 2.4-1.4 7.7-5.6 7.7-4.5 0-5.1-4.7-5.5-9.1-.4-4.2-1.5-4.7-2.9-4.7h-1.3v9.6c0 1.4.5 1.7 1.6 1.7h1.2v1.7h-11.8v-1.7h1.4c1.1 0 1.8-.3 1.8-1.7v-20.5c0-1.4-.7-1.7-1.8-1.7h-1.4v-1.7h12.9zm-1.8 12.3c2 0 4.2-.7 4.2-5.6 0-3.7-1.2-5-4-5h-.7c-.6 0-1.5.2-1.5 2v8.6zM256.4 214.5c2.6 0 3.4-2.4 4.5-5.5l7.2-20.8h2.1l8 22.5c.8 2.2 1.7 3.9 4 3.9v1.7H270v-1.7h1.4c.7 0 1.3-.3 1.3-1.1a3.7 3.7 0 00-.4-1.5l-1-3.1h-8.2l-.8 2.3a8 8 0 00-.3 1.5c0 1.9 1.4 1.9 2.3 1.9h1v1.7h-8.9zm14.2-7.4l-3.4-10.6-3.5 10.6zM295.7 189v1.7h-1.2c-1.1 0-1.7.3-1.7 1.7V207c0 4.3.3 8 4.9 8 3.8 0 5.6-3.4 5.6-8v-14.6c0-1.4-.7-1.7-1.8-1.7H300V189h8.6v1.7h-1.5c-1 0-1.7.3-1.7 1.7v14.5c0 9.8-6.8 10.2-8.8 10.2-3.3 0-9.6-.6-9.6-10.2v-14.5c0-1.4-.7-1.7-1.7-1.7h-1.5V189zM324.9 189v1.7h-1.4c-1 0-1.7.3-1.7 1.7v20.5c0 1.5.9 1.7 1.4 1.7h.8c2.4 0 6.7-.6 7.2-7.3h1.6v9h-20.1v-1.7h1.5c1 0 1.7-.3 1.7-1.7v-20.5c0-1.4-.7-1.7-1.7-1.7h-1.5V189zM349.6 189v1.7h-1.1c-1 0-1.8.3-1.8 1.7v20.5c0 1.4.7 1.7 1.8 1.7h1.1v1.7h-11.9v-1.7h1.5c1 0 1.7-.3 1.7-1.7v-20.5c0-1.4-.7-1.7-1.7-1.7h-1.5V189zM374.5 207.8c-.8 4.1-3.3 9.2-8.9 9.2-7.8 0-11.4-7.2-11.4-14.7 0-8.2 4.6-14.2 10.8-14.2a6.83 6.83 0 015.7 2.5l1-1.6h1.8l.2 10.2h-2c-1.4-7-3.5-9-5.9-9-2.9 0-4.9 3.2-4.9 12.1 0 7.6 1.5 12.4 5.8 12.4 3.5 0 5.2-3.1 5.9-6.9zM396.8 188.3v9.4h-2c-.4-3.3-1.8-7.6-6-7.6a4.14 4.14 0 00-4.4 4.2c0 3.7 4.1 4.3 6.5 5.2 3.9 1.4 7.4 3.2 7.4 8.4 0 4.8-2.7 9-8.1 9a9.79 9.79 0 01-6.9-2.7l-1.4 1.9h-1.7v-9.9h2c1.7 7.8 5.2 8.6 8.1 8.6a4.1 4.1 0 004.3-4.1c0-3.1-3.4-4.4-6.3-5.4-3.1-1-7.6-2.4-7.6-8.9 0-5 3.4-8.4 8.2-8.4a8.07 8.07 0 015.4 1.9l.7-1.7h1.8z"/>
</svg>
