<?xml version="1.0" encoding="utf-8"?>
<!-- Generator: Adobe Illustrator 24.2.1, SVG Export Plug-In . SVG Version: 6.00 Build 0)  -->
<svg version="1.1" id="Layer_1" xmlns="http://www.w3.org/2000/svg" xmlns:xlink="http://www.w3.org/1999/xlink" x="0px" y="0px"
	 viewBox="0 0 472 211.8" style="enable-background:new 0 0 472 211.8;" xml:space="preserve">
<style type="text/css">
	.st0{fill:#39B54A;}
</style>
<g>
	<polygon points="280.1,-0.5 279.2,-0.8 279.6,0.8 	"/>
	<path d="M272.7,9.8c0.2,1.5-0.3,3.7,1.2,4.6l-0.4-2.6c1.4,0.5,2-0.7,2.2-2l-0.6,1.2c0-0.4-0.9-0.7-0.8-1.1c1.7-1.4,0.3-2.9,2.6-3.7
		l0.1,0.2V4.6c0.4-0.3,0.9,0.2,1,0.5c0.1-1.5-0.1-2.8,0.9-4.3c-2.9-0.1-0.4,4.5-3.3,4.3l-0.1-0.2C275.5,7,273.1,7.9,272.7,9.8z"/>
	<path d="M278.1,5.2v0.1C278.1,5.3,278.1,5.3,278.1,5.2z"/>
	<path d="M237.1,65.9l0.3,0.3C237.3,66,237.3,65.9,237.1,65.9z"/>
	<path d="M253,49.4C253,49.4,253,49.5,253,49.4C253.3,49.9,253.3,49.8,253,49.4z"/>
	<path d="M174.9,170.2l-0.7,0.1C174.6,170.5,174.8,170.4,174.9,170.2z"/>
	<path d="M158.9,195.7L158.9,195.7L158.9,195.7z"/>
	<path d="M172.8,188.1l0.5,0.2C173,188.1,172.9,188,172.8,188.1z"/>
	<path d="M168.6,196.9c-0.3,0.2-0.5,0.3-0.6,0.6C168.4,197.5,168.6,197.2,168.6,196.9z"/>
	<path d="M158.9,195.3c0,0.1,0,0.2,0,0.4C159,195.6,159,195.4,158.9,195.3z"/>
	<path d="M181.1,176.1l1.3,0.4C182.1,176.2,181.6,176.2,181.1,176.1z"/>
	<path d="M168.3,199.5c-0.3,0-0.5,0.1-0.7,0.2C167.9,199.7,168.2,199.7,168.3,199.5z"/>
	<path d="M271.8,11.6c0.1-0.2,0.3-0.5,0.3-0.9C271.9,10.9,271.8,11.2,271.8,11.6z"/>
	<path d="M210.4,129.9c0.1,0.1,0.2,0.3,0.4,0.4C210.8,130.1,210.6,130,210.4,129.9z"/>
	<path d="M193.7,157.2v0.1c0.1,0,0.1,0,0.3,0L193.7,157.2z"/>
	<path d="M198.3,149.1c0.1,0.1,0.1,0.2,0.2,0.3C198.4,149.2,198.4,149.1,198.3,149.1z"/>
	<path d="M191.2,164c0,0.2,0.1,0.3,0.2,0.5L191.2,164z"/>
	<path d="M186.5,169.1c0.6,0,0.8,0.5,1,1c1.4-1.1,0.3-2.5,2.2-3.4l-1,0.4c-0.3-1.5,0.7-3.4,2.3-3.6l0.2,0.5
		c-0.4-1.5,2.2-1.9,1.7-2.8c-0.7,0.1-0.8-0.5-1.6-0.2l0.5-2.9l1.7,0.8l0.2-1.5c-0.8-0.1,1.5-1.4,0-2.3c1-0.4,1,1,1.5,1.6
		c0-1,0.7-0.6,0.2-1.8l1.8,0.1l0.1-2.4c0.1,0.2,0.2,0.1,0.3,0.3c-0.7-1.5,1.9-1.7,0.6-3.9c0,0.1,0.1,0.1,0.2,0.2
		c-0.7-1.2,0.9-2.2,1.5-2.6c0.3-1.1-1.1-1.2-1.6-1.6c2-2.5,1.4-1.7,1.1-4.9c2.5-0.3,1.8,3.3,4,2.3c-0.7-0.7-0.6-2.3-0.1-3.9
		c1.3-0.9,3-2.7,4.9-3.2l-1.2-0.5l0.4-2.1l1,2c-0.2-0.5-0.4-1.8-0.6-2.7c0.1-2.4,3,0.4,2.2-2c0.2,0,0.3,0,0.4,0.1
		c-0.6-1,0.4-2,0.9-3.5l1.1,1.3l-0.8,0.7c1.7,0.4,0.6-1.6,1.2-2.4c0.1-1.2-1.4-1.5-1.5-2.2c0.3-0.3,0.1-1,0.7-1
		c0.9-0.5,1.7,0.9,2.2,1.5c-1.1-1.6-0.7-1.7-0.4-3.6c0.7,0.3,1,0.6,1,0.9c0-0.4-0.1-0.9-0.6-1.4h1.1c2.2-1-1.6-3.3,0.1-5.1
		c0.4,1,0.9-1.9,2.2-2c-0.2,0.9,2.3,0.9,2.9,1.9c1.5-1.3-1.3-1.7-0.8-3.2l1.5,1.6c0-1.8-0.8-0.9-0.5-2.6c0.3,0.7,0.8-0.3,0.9,0.8
		c1.2-1.6,0.8-1.3,1.9-2.7l-1.6-1.2c0.1-0.6,1-0.4,1.4-0.3c-0.1,0.2-0.4,0.5-0.1,0.6c1.8,0.3-0.3-1.5,1.5-1.3
		c-0.6-0.2-1.5-0.4-1.2-1.1c0.9,0.8,1.6-0.4,2-0.2c-1,0,0.5-1.6-0.6-2.3c1.2-0.3,0.7,0.7,1.2,1.1c-1-1.4,1.3-2.7,0.9-3.7
		c0.1,0.1,0.2,0.1,0.3,0.1c-0.4-1.3,0.2-2.7,0-4.9L228,97c1.4-1.3-1.5-2.2-0.7-3.5c1.2,1.1,1.2-2.2,2.4-0.7
		c-0.3-1.2-0.2-2.3-1.1-3.5c1.2-0.3,1.1,2.5,2.1,1.8l-0.1-1.5l0.9,0.3c-0.5-0.4,0-1.4-0.5-1.6c1,0.4,1.9,0.3,2.6,0.8
		c0.1-0.9,1.6-1.3,1.1-2.4l0.5,0.2c-1.3-1.7,0.9-2.3-0.6-3.7l1.2,0.1c0.5-1.1-1.4-2-1.6-2.8c0.2-0.5,0.3-1.1,0.7-1.4
		c0.3,2,1.8,0.1,2.6,0.2c0.4-0.5,1.2-2.2,0.6-3.1c0.5,1.2,1.5,1.2,0.8,2.4c2.1,0.4,0.7-2,1.7-3.2l0.8,0.5c0.6-2.2-0.7-3.1-1.6-4.7
		c1.1,0.4,1.3,0.7,1.9,1.8c1.3-0.9,1.9-3.2,2.8-4.6c1,0,1.2,0.5,1.2,1.2c0.1-1.9,2.1-3.1,0.9-5.1c0.5,0.8,0.8-0.3,1.5-0.6
		c-0.4-0.2-0.8-0.6-0.7-0.6c-0.2-1.3,0.3-3.7,1.6-4.3l0.3,0.7c1.7-2.2-0.6-5.1,2.2-6.9c0.7-0.2,1.1,1.3,1.7,0.4
		c-0.4-0.8-1.8-1.5-0.7-2.5l1.1,0.8l-0.7-1.5c-1.2-0.1-1.7,1.4-2.2-0.2c1.7-0.4-0.5-1.6,1.6-2.1c-0.1,0.4,0.6,1.3,0.9,1.8
		c3-1.9,1.2-4.5,4.3-6.5c-0.1-1.9,0.8-3.8,0.6-5.3c1.1,0.8,2.1,1.4,2.6,2.6c0.9-1.1-1.4-3.2,0.8-3c-1.2-1.5,1-3.9-1-5.5
		c0.5,0.2,0.8-1.3,1.3,0.7c0.3-2.1,3.2-1,3.6-1.7c0.2-0.5-1.7-0.4-1.1-1.3c0.2-0.1,0.4,0,0.6,0l-0.3-0.7c0.7-0.1,0.8,1.1,1.4,1.4
		c1.3-1.1,0.1-3,0.9-4.6l0.2,0.5l1-1.6l0.1,0.2v-1.8l0.5,0.4c0-0.4-0.3-0.7-0.1-1.1l0.6,0.6c-0.8-1.1-0.5-3-0.1-3.7h0.4l-0.4-2.6
		c1.3-0.5,0.9,2.2,1.5,0l1.1,1.3c0.2-1.7,1.1-1.4,1.2-2.6c-1,0-1.2,0.7-1.6-0.2c2.3-0.1,0.6-1.9,0.5-3.3c-0.3,0.5-0.5,0.9,0.1,1.7
		c-0.3,0.5-0.9-0.3-1.1,0l0.3,1.2l-1.1-0.4V16c-1.1-0.8-0.9,1.1-1.8-0.1c-0.1,1.2-1.2,1.2-0.5,2.7c-1.1,0.2-0.3-1.5-0.8-0.9
		c-1.3,4.2-3.7,7.8-6.4,11.4l-0.3-0.7c0.3,0.7,0.4,1.4,0.6,1.9c-1.3,0.1-4,1.9-2.8,3.8c-0.2,0.1-0.3-0.3-0.4-0.4
		c-0.6,1.4-3.1,2.9-4,4.8c1.4,1.9-2.8,2-0.7,4.2l-0.3-0.7c1.1-0.2,1.2,1.9,1.7,2.5c-1.9-0.5-1.3-0.7-3.1-1l1-0.4l-1.4-0.6
		c2.1,4.3-4.1,3.3-2.5,6.2c-0.1-0.2-0.3-0.3-0.4-0.4c-1.3,0.5,0,2.2,0,3.1c-0.7-0.3-0.8-1.1-1.1-1.7c-1.5,1.3-1.4,5.2-3.5,6.4
		c0.5,1.2,1.3,0.5,1.6,1.6c-0.6,0.4-1.6,0.4-1.6-0.6c-2.6,0.6-2.1,5.9-5,7.4c0.2,1.9,1.1,1.3,0.6,3.7c-0.4-0.8-2.5-0.9-1.8-2.1
		l-0.6-0.6c-1.3,1.9-3.1,4.3-1.8,6.5c-1.5-0.8-0.5,0.2-1.7,0.4c0,0.4,0.2,0.1,0.4,0c0.8,1.5-0.7,1-0.8,1.7l-0.1-0.3l0.1,1.9
		c-0.3,0.1-0.8,0.3-1.3,0.1l1,0.6c-0.4,0.8-1.5-0.4-1.8,0.7l0.9,0.3c-0.8,0.3-0.3,1.9-1.5,1.3c-0.2-0.1-0.1-0.2,0-0.4
		c-2.1,0-0.9,2.7-2.3,3.4l1.8,0.7c-0.2,1.4-0.8,0.5-1.3,0.1c-0.4,0.8-1.1,0.6-1.8,1.5c0.1,0.7,0.5,0.6,0.8,1.1l-1,0.8l-0.5-1.2
		c1.5,3-2.6,3.7-1,6.1c-0.8,0.3-0.7-1.1-1.2-0.9c-2.2,1.2-0.9,5-3,5.8c-2.7,1.8-3.3,5.3-5.7,7.6l0.5,0.2l-1.5,1.7
		c0.7,1.1-0.6,2.2,0.1,3.7c-0.3-0.3-1-0.4-1.1-0.8c-0.4,0.9-0.4,2.1-1.3,2.2l-0.2-0.5c-1.4,1.7-3,4.2-2.7,5.7
		c-0.3,0.7-1.1,0.2-1.7,0c-0.7,1-0.7,2-0.5,3.3c-0.3,0.1-0.7,0.2-1.2,0.3l0.8,1.1c-0.4,0.4-0.9-0.4-1.4-0.2c0.3,2.4-2,3.7-2.7,4.9
		l0.6,0.2c0.1,0.7-1.2,1.2-1.4,0.3c-2,1.9-0.4,4.4-2.5,7.4c-2.2-0.7-1.1,3.2-3.6,2.3c-0.2,1.7-1.6,2-0.9,3.7c-0.2-0.1-0.4,0-0.3-0.3
		c-1.1,0-1.6,2.1-1.8,3.8l-0.7-0.3c1.1,1.3-0.7,3.4,0.5,4.7c-0.4,0-0.5-0.6-0.6-1c-1.8-0.1-0.1,1.6-0.9,2.3c-0.3-0.3-0.9-0.3-1-0.6
		c-3.3,2-3.3,7.9-6.7,11.1c-0.7,1,1.7,0.5,0.8,1.9c-1,0-1.1-1.6-1.9-0.9c0.5,1.2,0.2,1.3-0.4,2.1c-0.4-0.4-0.8-0.5-0.7-1.3
		c-0.9,0.1-0.1,2.8-1.9,3.1c0.5,0.2,0.6,0.6,0.8,0.9c0.4,2.2-3.3,2.6-2.7,3.1c0,0-0.1,0.6,0.3,0.3c-0.3,0.5-1,1.2-1.6,0.6
		c0.2,0.5,0.7,1.1,0.5,1.6l-0.7-0.7c0,0.4,0.4,0.9,0.3,1.2l0.7-0.1c-1.1,0.2-0.1,2.4-1.7,1.4l0.1-0.2l-1.4,0.7
		c0.4,0.8,0.7,1.7,0,2.3c-1.8-0.7-1.5,1.7-2.3,2.6l-0.5-0.4c0.3,1.2-1.2,3-0.7,2.8c-0.4,0.7-1.4,1.5-1.7,0.8c0,0.8-0.8,2.1-0.1,3
		l-2.1,0.4c1.6,2-2.2,2-0.1,3.4c-0.7,0.5-1.1,0-1.8,0.3c0.5,1.6-0.3,2.5-1,3.3l-0.2-0.1c-0.8,0.9-0.4,2.7-1.1,4.1l-1.8-0.7
		c-0.2,0.9,1,1.8,0.2,2.3c-0.3,0-0.3-0.2-0.3-0.4c-0.1,0.9-1,1.5-1.8,1.8c0.6,1.8-0.4,2.3,0.4,4c-1.9-0.1,0.1-1.6-1.7-1.7
		c-1.7,1-1.8,3-2,5.1c-0.4,0-0.5-0.4-0.9-0.7c0,0,2,5.7,3.9,6c0.8,1.1,1.2,1.9,2.9,1.1c-0.4-0.8-0.4-2.6,1-2.1l-1.1-0.8
		c0.6-2.2,2.4,1.3,3.8-1l-0.7,0.2c0.2-0.5-0.3-1.2,0.3-1.5c0.4,0,0.4,0.4,0.5,0.8l-0.4-2.8c0.7,0.3,1,0.6,1.3,1.3
		c1-1.7-2.3-0.9-0.6-2.7c0.7-0.1,0.6,0.6,0.8,1.1c1.6-0.4,1-1.6,1-2.9c1,0.6,0.5,1.2,1.7,0.8c-0.6-0.2-1.6-0.6-1.3-1.3
		c0.8,0.9,0.8-0.1,1.5-0.6c-0.4-0.1-0.9-0.4-0.9-0.8s0.6-0.4,0.8-0.9l-1.5,0.1c-0.3-1.6,1.5-1.3,2.4-1.9c0.1,0.2,0.2,0.4,0.2,0.6
		c0.9-0.6,2.3-1,2-2.6l0.1,0.2c0.2-2.6-2.1-0.4-1.6-3.3c0.7-0.6,3.1,2.4,3-0.1c-1.4,0.3-1.4-2.4-1.2-3.7l1.3,2.2
		c0.3-0.4,0.1-1.4,0.5-1.5l-0.5-0.2c-1.7-0.9,1-1.2,0.5-2.5c1.7,2.3,1.3,2.1,3.5,3.6c-0.8-1.5-1.5-3-0.4-4.2l1.1,2.1
		c1.4-1.5,0.1-5.1-0.5-7.5c1.1,1.2,1.9,0.9,2.6,2.2l0.7-1.8l1.1,1.3c-1.1-1.6,0.4-1.7-1.6-2.8c0.1,0.3,0.4,0.4,0.1,0.7
		c-0.5-0.4-1.5-1.4-0.9-2.2c0.8-0.3,0.5,0.8,1.2,0.9c-0.4-1,0.8-0.3,0.6-1.2h-1.1c-0.8-1.1,0.5-1,0.3-1.9c0.1,1,0.8,1.1,1.6,1.3
		h-0.2c0.2-0.5-0.3-1.5,0.6-1.4l1.3,1.3l-0.7-1.3c0.3-0.1,1,0,1,0.6c2.1-1.4-3.3-1.9-0.4-3.6c0.5,0.4,0.8,0.9,0,1.4
		c0.9,0.7,1.5,0.8,2.2,0.3c0.1,0,0.1,0.1,0.2,0.1C185.9,172.2,187,170.5,186.5,169.1z"/>
	<path d="M185.1,173.5c-0.4,0.7-0.8,1.3-0.7,1.7C184.8,175.2,186.1,174,185.1,173.5z"/>
	<path d="M245.5,69.7c0,0.1,0,0.2,0,0.3C245.5,69.9,245.5,69.8,245.5,69.7z"/>
	<path d="M248.4,63.9c-0.2,0-0.4,0-0.5,0.1C248.2,64.2,248.5,64.2,248.4,63.9z"/>
	<path d="M214.9,121.7L214.9,121.7L214.9,121.7z"/>
	<path d="M234.3,90.5c-0.2-0.8-0.5-1.2-0.9-1.5C233.3,89.4,233.5,89.8,234.3,90.5z"/>
	<path d="M227.3,100.7c0,0.1,0.1,0.2,0.1,0.3C227.4,100.9,227.3,100.8,227.3,100.7z"/>
	<path d="M214.6,123.8c-0.2-0.8,0.2-1.4,0.2-2.1C214.9,122.3,213.8,122.9,214.6,123.8z"/>
	<polygon points="250.8,56.1 251.3,57.2 251.1,56.2 	"/>
	<path d="M248.2,61.6c-0.3,0.1-0.4,1.3,0.2,1.3C248.2,62.4,248.2,62,248.2,61.6z"/>
	<polygon points="235.6,81 236.2,81.7 235.9,80.9 	"/>
</g>
<path class="st0" d="M472.3,96.8c0-0.6-0.1-1.3-0.1-1.9c0-0.8-0.1-1.7-0.2-2.5c-0.7-6.3-2.3-12.3-4.8-18.2c-0.1-0.2-0.2-0.5-0.3-0.7
	c-3.4-8-8.1-15-14-21c-0.4-0.4-0.8-0.8-1.2-1.1c-1.6-1.6-3.3-3.1-5-4.5c-4.1-3.3-8.5-6.1-13.4-8.4c-0.5-0.3-1.1-0.6-1.7-0.8
	c-4.5-2.1-9.2-3.6-14.1-4.5c-3.6-0.7-7.2-1-11-1.1c-0.3,0-0.6,0-0.9,0h-52.2v105.5l-0.3-0.8l-7.2-19L332.6,83l-13.7-36l-5.6-14.8
	h-38.6L269.1,47l-1.4,3.6l0,0l-0.2,0.7l-4.7,12.2l-1.2,3.2l-0.3,0.7l-1.9,4.9l-6.1,16.1l-2.5,6.6l-6.4,16.8l-8.3,21.8l-1.8,4.7V32.2
	h-35.2v52.4h-51V32.2h-35.3v105.9H75.6c-6,0-11.4-0.9-16.2-2.9c-4.8-1.9-8.9-4.6-12.2-8c-3.3-3.3-5.9-7.4-7.7-12
	c-0.5-1.1-0.8-2.3-1.1-3.5c-0.7-2.4-1.1-5-1.4-7.6c0-0.5-0.1-0.9-0.1-1.4c0-0.9-0.1-1.8-0.1-2.7c0-5.5,0.9-10.6,2.6-15.2
	c1.8-4.6,4.3-8.6,7.6-12c1.1-1.1,2.2-2.1,3.4-3l0,0c0.5-0.4,1-0.7,1.6-1.1c2.2-1.5,4.6-2.7,7.2-3.8c3.6-1.5,7.6-2.3,11.9-2.7
	c1.1-0.1,2.2-0.1,3.4-0.2c0.4,0,0.8,0,1.1,0h8.1V32.1H66.8c-9.4,0-18.1,1.9-26.2,5.6C39,38.4,37.5,39.2,36,40
	c-3.4,1.9-6.6,4-9.6,6.4c-0.3,0.2-0.5,0.4-0.8,0.6c-0.4,0.3-0.8,0.7-1.2,1c-1.8,1.4-3.5,3-5.1,4.7C13.2,58.9,8.5,66.2,5.1,74.4
	C1.7,82.6,0,91.2,0,100.1c0,9,1.8,17.6,5.2,25.8c3.5,8.2,8.2,15.4,14.3,21.6c6.1,6.2,13.2,11.1,21.3,14.9c8.1,3.7,16.8,5.6,26,5.6
	h81.3v-56h51v56H256c0.1-0.3,0.2-0.7,0.4-1c0.9-1.9-0.1-1.2-1.9-1.2c-1.7,0.1-3.3,0.4-2.9-1.8c0.3-2.1,2.6-1.4,3.1-2.9
	s-1.5-1.8-1.9-3c-1.2-3.8,7.5-1,9-1.2c-0.9-0.3-3.6-1.4-2.8-2.3c-2.1-0.5-3.9-1.3-3.8-2.9c0-0.3,0.1-0.6,0.2-0.9
	c1.3-0.2,2.4,0.6,3.7,0.9c0.2,0,0.4,0.1,0.6,0.1c-0.1-0.1-0.2-0.2-0.3-0.3c-0.7-1.1,1.3-2.4,2.2-2.6c0.5-0.1,0.9,0,1.3,0.2
	c0.9,0.4,1.8,1.3,2.8,1.4c0-1.1,0.1-2.4,1.3-2.5c0.2,0,0.4,0,0.6,0.1l1.1-3.2l0.2-0.6h1.5c-0.1-0.1-0.1-0.2-0.1-0.2
	c-0.4-0.9,0.5-1.6,1.7-1.8c0,0-0.1,0-0.1-0.1c-1.6,0-2.8-0.1-4.3-0.8c-0.8-0.4-3.8-2.2-1.3-2.5c-2.2-0.8-4.8-1.2-4.8-4.6
	c1-0.2,1.8,0.3,2.7,0.5c-0.5-0.5-1-1-1.5-1.7c-0.7-0.8-1.3-1.8-1.7-2.8c-0.1-0.2-0.2-0.5-0.2-0.7c-0.5-2.8,2.4-2.1,3.8-0.8
	c0.4,0.3,1,1.7,1.5,1.6c0.7-0.1,0.6-1.3,1-1.7c1.9-1.5,3.1,1,4.1,2.2c0.5,0.6,1.4,1.8,2.3,1.5s0.4-1.6,1.1-2.2
	c0.3-0.2,0.5-0.4,0.7-0.4c0.1-0.1,0.2-0.2,0.3-0.4c-0.9-0.5-4.4-0.1-4.5-1.6c-0.1-1.4,1.7-1.3,2.4-1c-1.1-0.5-7.1-3.2-5.6-5.5
	c0-0.2,0-0.5,0-0.8c0.3-1.7,2-1.2,2.4-2.4c0.4-1.3-1.1-1.5-1.4-2.4c-0.9-3.1,5.7-0.9,6.8-1c-0.7-0.3-2.8-1.1-2.1-1.9
	c-0.7-0.2-1.3-0.4-1.8-0.7c-0.4-0.2-0.7-0.5-0.9-0.8c-0.2-0.4-0.3-0.9,0-1.5c1.1-0.2,2.1,0.7,3.2,0.8c-1.1-0.9,0.8-2.2,1.5-2.3
	c1.3-0.2,2,1.2,3.1,1.4c0-0.9,0.2-2,1.1-2.1c0.5-0.1,1,0.4,1.4,0.8l1.3-3.6c-0.2-0.3-0.3-0.5-0.3-0.7c0-0.5,0.4-0.9,0.9-1.1l0.1-0.2
	c-1.1,0-1.9-0.1-2.9-0.7c-0.6-0.3-2.8-1.8-0.9-2c-0.2-0.1-0.3-0.1-0.5-0.2c-1.5-0.5-3.1-1-3-3.5c0.7-0.2,1.3,0.2,2,0.4
	c-0.8-1-2.2-2.6-2.5-4.1c0-0.3,0-0.5,0-0.7c0-0.4,0.2-0.6,0.4-0.7c0.6-0.4,1.8,0.1,2.5,0.7c0.3,0.3,0.7,1.3,1.1,1.3
	c0.5-0.1,0.4-1,0.8-1.4c1.4-1.2,2.3,0.8,3.1,1.8c0.4,0.5,1.1,1.4,1.7,1.2c0.7-0.3,0.3-1.2,0.9-1.8c0.1-0.1,0.2-0.2,0.4-0.3
	c0.1-0.2,0.2-0.3,0.4-0.5c-0.7-0.4-3.3,0-3.4-1.3c-0.1-1,1-1,1.6-0.9c-1.1-0.5-5.3-2.7-3.8-4.5c0.8,0.2,1.3,1.1,2,1.5
	c-0.5-0.9,1-1.2,1.6-1.1c0.9,0.2,1.1,1.4,1.8,1.8c0.2-0.7,0.6-1.3,1.1-1.1c0.5,0.1,0.7,0.7,0.9,1.2l0.7-2c-0.3-0.1-0.7-0.3-0.9-0.6
	l0,0c-1.3-0.4-2.5-1.1-2.3-2.1c0.2-0.1,0.5-0.2,0.7-0.1c-0.8-0.3-1.3-0.8,0.2-1.5c-0.8-0.3-2.1-1.9-2.7-3.3
	c-0.2-0.5-0.3-0.9-0.3-1.2c0.3,0,0.6,0,0.9,0.1c-0.3-0.3-0.8-1.5-1.1-2.6c-0.3-1-0.3-2.1,0.3-2.2c0.4-0.1,0.9,0.6,1.4,1.5
	c0.7,1.1,1.2,2.5,1.4,3c-0.1-0.9,0.1-1.8,0.9-1.5c0.7,0.3,0.9,1.5,1.2,2.3c-0.1-0.4,0-0.7,0.2-0.8c-0.1-0.5-0.2-0.9-0.2-1.5
	c0-2.4,1.4-0.1,2,0.6c-0.2-0.5-0.4-1-0.6-1.5c-0.4-1.1-0.7-2.2-0.4-3.6c0.5,0.2,0.8,1,1.1,1.6c0-1.4-1.8-4-1.2-5.5
	c0.5-1.3,1.7,0.7,2.1,1.6c-0.2-1.6-0.8-4.2-0.1-5.6c0.4,0.3,0.7,0.9,1,1.3c-0.4-1.5-0.8-3.2-0.6-4.9c0.1-0.9,0.6-3.3,1.2-2.5
	c0.1-0.7,0.3-1.6,0.5-2.5c0.3,0.4,0.4,1.5,0.5,2.7c0.7-1.2,1.2,1.4,1.3,2.3c0.2,1.7-0.2,3.4-0.6,4.9c0.3-0.4,0.6-1,1-1.3
	c0.8,1.4,0.1,4,0,5.6c0.4-1,1.6-2.9,2.1-1.6c0.6,1.5-1.1,4.1-1.1,5.5c0.3-0.6,0.6-1.4,1-1.6c0.1,0.5,0.1,0.9,0.1,1.4
	c0,1.3-0.6,2.5-1,3.7c0.5-0.6,1.9-2.8,1.9-0.8c0,0.1,0,0.2,0,0.3c0,0.6-0.1,1-0.2,1.5c0.2,0.2,0.2,0.6,0,1c0.3-0.8,0.6-2.3,1.3-2.6
	c0.9-0.3,1,0.6,0.9,1.5c0.1-0.5,0.7-1.7,1.2-2.7c0.6-1,1.2-1.8,1.6-1.7s0.5,0.5,0.5,1.1c-0.1,1.3-0.9,3.2-1.2,3.6
	c0.3-0.1,0.6-0.1,0.9-0.1c0,1.4-1.9,4.2-3,4.5c1.5,0.7,1,1.2,0.2,1.5c0.3,0,0.5,0,0.8,0.1c0.1,1-1.1,1.7-2.4,2.1l0,0
	c-0.2,0.2-0.5,0.4-0.8,0.6l0.7,1.9c0.3-0.5,0.5-1,0.9-1.1c0.6-0.2,0.9,0.5,1.1,1.1c0.7-0.4,0.9-1.6,1.8-1.8c0.5-0.1,2,0.2,1.6,1.1
	c0.7-0.4,1.1-1.3,2-1.5c1.6,1.8-2.6,3.9-3.8,4.5c0.6-0.1,1.7-0.1,1.6,0.9c-0.1,1.2-2.6,0.9-3.4,1.3c0.1,0.2,0.3,0.3,0.4,0.5
	c0.1,0,0.3,0.1,0.4,0.3c0.5,0.5,0.1,1.5,0.8,1.8c0.6,0.2,1.3-0.7,1.7-1.2c0.8-1,1.7-3,3.1-1.8c0.4,0.3,0.3,1.3,0.8,1.4
	c0.4,0,0.8-1,1.1-1.3c1-1,3.2-1.6,2.9,0.7c-0.2,1.5-1.6,3.1-2.5,4.1c0.7-0.2,1.3-0.6,2-0.4c0,1.3-0.4,2.1-1,2.5
	c-0.7,0.6-1.6,0.8-2.5,1.2c1.8,0.2,0.1,1.4-0.7,1.9c-0.1,0-0.1,0.1-0.2,0.1c-0.3,0.1-0.5,0.3-0.7,0.3c-0.7,0.3-1.4,0.3-2.2,0.3
	l0.1,0.2c0.2,0.1,0.3,0.2,0.5,0.2c0.5,0.4,0.7,1,0.2,1.6l1.2,3.6c0.5-0.5,0.9-0.9,1.5-0.8c0.8,0.1,1,0.9,1,1.8v0.3
	c0.3-0.1,0.6-0.2,0.9-0.4c0.7-0.5,1.3-1.1,2.2-1c0.3,0.1,0.7,0.2,1,0.5c0.7,0.5,1.2,1.2,0.5,1.8c1.1-0.1,2.1-1,3.1-0.8
	c0.7,1.7-0.8,2.6-2.7,3.1c0.7,0.7-1.3,1.6-2,1.9c1.1,0.1,7.7-2.1,6.8,1c-0.3,0.9-1.7,1.1-1.3,2.4c0.3,0.8,1.1,0.8,1.7,1.3
	c0.3,0.2,0.6,0.6,0.7,1.1c0,0.4,0,0.7,0,0.9c1.4,2.3-4.6,5-5.6,5.4c0.7-0.2,2.5-0.4,2.4,1c-0.1,1.5-3.6,1.1-4.5,1.6
	c0.1,0.2,0.2,0.3,0.3,0.4c0.2,0.1,0.5,0.2,0.7,0.4c0.7,0.6,0.2,1.9,1.1,2.2c0.9,0.3,1.8-0.9,2.3-1.5c1.1-1.3,2.3-3.8,4.1-2.2
	c0.5,0.4,0.4,1.6,1,1.7c0.5,0.1,1.1-1.3,1.5-1.6c1.4-1.2,4.3-1.9,3.8,0.8c-0.3,1.9-2.2,3.9-3.4,5.1c0.9-0.2,1.7-0.7,2.7-0.5
	c0,3.5-2.5,3.8-4.8,4.6c2.5,0.3-0.5,2.1-1.3,2.5c-1.5,0.8-2.7,0.8-4.3,0.8c0,0-0.1,0-0.1,0.1c1.3,0.2,2.2,1.1,1.6,2.1h1.5l1.3,3.7
	c0.2-0.1,0.3-0.1,0.6-0.1c1.1,0.2,1.3,1.4,1.3,2.5c1.5-0.2,2.5-1.9,4.1-1.6c0.9,0.2,3.3,1.7,2,2.9c1.4-0.2,2.7-1.2,4.2-1
	c0.9,2.1-1.2,3.2-3.6,3.8c0.9,0.9-1.8,2-2.7,2.3c1.5,0.1,10.2-2.6,9,1.2c-0.1,0.2-0.1,0.3-0.3,0.4c-0.6,0.8-2,1.2-1.6,2.5
	c0.5,1.5,2.7,0.8,3.1,2.9c0.4,2.2-1.3,1.9-2.9,1.8c-0.5,0-1-0.1-1.3-0.1c-0.9-0.1-1.3-0.1-0.6,1.3c0.2,0.4,0.3,0.7,0.4,1h33l0,0
	h40.7c9.4,0,18.1-1.9,26.2-5.6c3.3-1.5,6.5-3.2,9.5-5.2c4.3-2.8,8.2-6,11.8-9.7c6.1-6.3,10.8-13.5,14.2-21.7c0.6-1.3,1-2.6,1.5-3.9
	c0.5-1.4,1-2.9,1.4-4.3c1.5-5.5,2.2-11.1,2.3-16.9v-0.6C472.4,99,472.4,97.9,472.3,96.8z M413.2,135.2c-4.8,1.9-10.3,2.9-16.4,2.9
	h-8.1v-76h9.5c3.5,0.1,6.8,0.5,9.9,1.3c1.7,0.4,3.3,0.9,4.8,1.6c1.3,0.5,2.6,1.1,3.8,1.8l0,0c2.6,1.4,5,3,7,4.9
	c0.4,0.4,0.8,0.8,1.3,1.2c2.6,2.7,4.8,5.8,6.5,9.3c0.5,0.9,0.8,1.8,1.2,2.7c0.3,0.8,0.6,1.6,0.8,2.4c0.9,2.9,1.5,6,1.7,9.2
	c0.1,1.2,0.2,2.4,0.2,3.6c0,1.8-0.1,3.5-0.3,5.1c-0.3,2.7-0.7,5.2-1.5,7.6c-0.3,0.8-0.6,1.7-0.9,2.5c-1.7,4.6-4.2,8.6-7.5,12
	c-2.7,2.7-5.8,5-9.5,6.7C415,134.5,414.1,134.9,413.2,135.2z"/>
<g>
	<path d="M109.3,159v-8.1H84.8l-10.7,28l-10.5-28.1H39.5v8.1h6.3v31.7h-6.3v8.1h20.3v-8.1h-6.2v-31.7h1.1l15,39.8h5.1l14.9-39.8h1.1
		v31.7h-5.7v8.1h24.2v-8.1h-6.2v-31.7h6.2V159z"/>
	<path d="M107.1,190.7v8.1h2.2v-8.1H107.1z"/>
	<polygon points="205.2,190.7 205.2,198.8 179.8,198.8 179.8,191.1 184.6,191.1 177,181.2 171.4,174.2 159.8,159 153.1,159 
		153.1,150.9 177.8,150.9 177.8,158.5 173.3,158.5 180.4,167.5 185.8,174.7 198.4,190.7 	"/>
	<path d="M150.8,190.7l-10-31.7h6.5v-8.1h-31.4v8.1h6.4l-9.3,31.7h-3.7v8.1h19v-8.1h-6.4l3-9.7l11.6,0.2l2.7,9.5h-6.1v8.1h23.6v-8.1
		H150.8z M126.9,174.2l3.9-13.3l3.7,13.3H126.9z"/>
</g>
</svg>
