<?xml version="1.0" encoding="utf-8"?>
<!-- Generator: Adobe Illustrator 24.2.1, SVG Export Plug-In . SVG Version: 6.00 Build 0)  -->
<svg version="1.1" id="Layer_1" xmlns="http://www.w3.org/2000/svg" xmlns:xlink="http://www.w3.org/1999/xlink" x="0px" y="0px"
	 viewBox="0 0 576 576" style="enable-background:new 0 0 576 576;" xml:space="preserve">
<style type="text/css">
	.st0{fill:#FFFFFF;}
</style>
<path class="st0" d="M530.2,279.4c0-0.6-0.1-1.3-0.1-1.9c0-0.8-0.1-1.7-0.2-2.5c-0.7-6.3-2.3-12.3-4.8-18.2
	c-0.1-0.2-0.2-0.5-0.3-0.7c-3.4-8-8.1-15-14-21c-0.4-0.4-0.8-0.8-1.2-1.1c-1.6-1.6-3.3-3.1-5-4.5c-4.1-3.3-8.5-6.1-13.4-8.4
	c-0.5-0.3-1.1-0.6-1.7-0.8c-4.5-2.1-9.2-3.6-14.1-4.5c-3.6-0.7-7.2-1-11-1.1c-0.3,0-0.6,0-0.9,0h-52.2v105.5l-0.3-0.8l-7.2-19
	l-13.3-34.8l-13.7-36l-5.6-14.8h-38.6l-5.6,14.8l-1.4,3.6l0,0l-0.2,0.7l-4.7,12.2l-1.2,3.2l-0.3,0.7l-1.9,4.9l-6.1,16.1l-2.5,6.6
	l-6.4,16.8l-8.3,21.8l-1.8,4.7V214.8H257v52.4h-51v-52.4h-35.3v105.9h-37.2c-6,0-11.4-0.9-16.2-2.9c-4.8-1.9-8.9-4.6-12.2-8
	c-3.3-3.3-5.9-7.4-7.7-12c-0.5-1.1-0.8-2.3-1.1-3.5c-0.7-2.4-1.1-5-1.4-7.6c0-0.5-0.1-0.9-0.1-1.4c0-0.9-0.1-1.8-0.1-2.7
	c0-5.5,0.9-10.6,2.6-15.2c1.8-4.6,4.3-8.6,7.6-12c1.1-1.1,2.2-2.1,3.4-3l0,0c0.5-0.4,1-0.7,1.6-1.1c2.2-1.5,4.6-2.7,7.2-3.8
	c3.6-1.5,7.6-2.3,11.9-2.7c1.1-0.1,2.2-0.1,3.4-0.2c0.4,0,0.8,0,1.1,0h8.1v-29.9h-16.9c-9.4,0-18.1,1.9-26.2,5.6
	c-1.6,0.7-3.1,1.5-4.6,2.3c-3.4,1.9-6.6,4-9.6,6.4c-0.3,0.2-0.5,0.4-0.8,0.6c-0.4,0.3-0.8,0.7-1.2,1c-1.8,1.4-3.5,3-5.1,4.7
	c-6.1,6.2-10.8,13.5-14.2,21.7c-3.4,8.2-5.1,16.8-5.1,25.7c0,9,1.8,17.6,5.2,25.8c3.5,8.2,8.2,15.4,14.3,21.6
	c6.1,6.2,13.2,11.1,21.3,14.9c8.1,3.7,16.8,5.6,26,5.6H206v-56h51v56h56.9c0.1-0.3,0.2-0.7,0.4-1c0.9-1.9-0.1-1.2-1.9-1.2
	c-1.7,0.1-3.3,0.4-2.9-1.8c0.3-2.1,2.6-1.4,3.1-2.9s-1.5-1.8-1.9-3c-1.2-3.8,7.5-1,9-1.2c-0.9-0.3-3.6-1.4-2.8-2.3
	c-2.1-0.5-3.9-1.3-3.8-2.9c0-0.3,0.1-0.6,0.2-0.9c1.3-0.2,2.4,0.6,3.7,0.9c0.2,0,0.4,0.1,0.6,0.1c-0.1-0.1-0.2-0.2-0.3-0.3
	c-0.7-1.1,1.3-2.4,2.2-2.6c0.5-0.1,0.9,0,1.3,0.2c0.9,0.4,1.8,1.3,2.8,1.4c0-1.1,0.1-2.4,1.3-2.5c0.2,0,0.4,0,0.6,0.1l1.1-3.2
	l0.2-0.6h1.5c-0.1-0.1-0.1-0.2-0.1-0.2c-0.4-0.9,0.5-1.6,1.7-1.8c0,0-0.1,0-0.1-0.1c-1.6,0-2.8-0.1-4.3-0.8
	c-0.8-0.4-3.8-2.2-1.3-2.5c-2.2-0.8-4.8-1.2-4.8-4.6c1-0.2,1.8,0.3,2.7,0.5c-0.5-0.5-1-1-1.5-1.7c-0.7-0.8-1.3-1.8-1.7-2.8
	c-0.1-0.2-0.2-0.5-0.2-0.7c-0.5-2.8,2.4-2.1,3.8-0.8c0.4,0.3,1,1.7,1.5,1.6c0.7-0.1,0.6-1.3,1-1.7c1.9-1.5,3.1,1,4.1,2.2
	c0.5,0.6,1.4,1.8,2.3,1.5s0.4-1.6,1.1-2.2c0.3-0.2,0.5-0.4,0.7-0.4c0.1-0.1,0.2-0.2,0.3-0.4c-0.9-0.5-4.4-0.1-4.5-1.6
	c-0.1-1.4,1.7-1.3,2.4-1c-1.1-0.5-7.1-3.2-5.6-5.5c0-0.2,0-0.5,0-0.8c0.3-1.7,2-1.2,2.4-2.4c0.4-1.3-1.1-1.5-1.4-2.4
	c-0.9-3.1,5.7-0.9,6.8-1c-0.7-0.3-2.8-1.1-2.1-1.9c-0.7-0.2-1.3-0.4-1.8-0.7c-0.4-0.2-0.7-0.5-0.9-0.8c-0.2-0.4-0.3-0.9,0-1.5
	c1.1-0.2,2.1,0.7,3.2,0.8c-1.1-0.9,0.8-2.2,1.5-2.3c1.3-0.2,2,1.2,3.1,1.4c0-0.9,0.2-2,1.1-2.1c0.5-0.1,1,0.4,1.4,0.8l1.3-3.6
	c-0.2-0.3-0.3-0.5-0.3-0.7c0-0.5,0.4-0.9,0.9-1.1l0.1-0.2c-1.1,0-1.9-0.1-2.9-0.7c-0.6-0.3-2.8-1.8-0.9-2c-0.2-0.1-0.3-0.1-0.5-0.2
	c-1.5-0.5-3.1-1-3-3.5c0.7-0.2,1.3,0.2,2,0.4c-0.8-1-2.2-2.6-2.5-4.1c0-0.3,0-0.5,0-0.7c0-0.4,0.2-0.6,0.4-0.7
	c0.6-0.4,1.8,0.1,2.5,0.7c0.3,0.3,0.7,1.3,1.1,1.3c0.5-0.1,0.4-1,0.8-1.4c1.4-1.2,2.3,0.8,3.1,1.8c0.4,0.5,1.1,1.4,1.7,1.2
	c0.7-0.3,0.3-1.2,0.9-1.8c0.1-0.1,0.2-0.2,0.4-0.3c0.1-0.2,0.2-0.3,0.4-0.5c-0.7-0.4-3.3,0-3.4-1.3c-0.1-1,1-1,1.6-0.9
	c-1.1-0.5-5.3-2.7-3.8-4.5c0.8,0.2,1.3,1.1,2,1.5c-0.5-0.9,1-1.2,1.6-1.1c0.9,0.2,1.1,1.4,1.8,1.8c0.2-0.7,0.6-1.3,1.1-1.1
	c0.5,0.1,0.7,0.7,0.9,1.2l0.7-2c-0.3-0.1-0.7-0.3-0.9-0.6l0,0c-1.3-0.4-2.5-1.1-2.3-2.1c0.2-0.1,0.5-0.2,0.7-0.1
	c-0.8-0.3-1.3-0.8,0.2-1.5c-0.8-0.3-2.1-1.9-2.7-3.3c-0.2-0.5-0.3-0.9-0.3-1.2c0.3,0,0.6,0,0.9,0.1c-0.3-0.3-0.8-1.5-1.1-2.6
	c-0.3-1-0.3-2.1,0.3-2.2c0.4-0.1,0.9,0.6,1.4,1.5c0.7,1.1,1.2,2.5,1.4,3c-0.1-0.9,0.1-1.8,0.9-1.5c0.7,0.3,0.9,1.5,1.2,2.3
	c-0.1-0.4,0-0.7,0.2-0.8c-0.1-0.5-0.2-0.9-0.2-1.5c0-2.4,1.4-0.1,2,0.6c-0.2-0.5-0.4-1-0.6-1.5c-0.4-1.1-0.7-2.2-0.4-3.6
	c0.5,0.2,0.8,1,1.1,1.6c0-1.4-1.8-4-1.2-5.5c0.5-1.3,1.7,0.7,2.1,1.6c-0.2-1.6-0.8-4.2-0.1-5.6c0.4,0.3,0.7,0.9,1,1.3
	c-0.4-1.5-0.8-3.2-0.6-4.9c0.1-0.9,0.6-3.3,1.2-2.5c0.1-0.7,0.3-1.6,0.5-2.5c0.3,0.4,0.4,1.5,0.5,2.7c0.7-1.2,1.2,1.4,1.3,2.3
	c0.2,1.7-0.2,3.4-0.6,4.9c0.3-0.4,0.6-1,1-1.3c0.8,1.4,0.1,4,0,5.6c0.4-1,1.6-2.9,2.1-1.6c0.6,1.5-1.1,4.1-1.1,5.5
	c0.3-0.6,0.6-1.4,1-1.6c0.1,0.5,0.1,0.9,0.1,1.4c0,1.3-0.6,2.5-1,3.7c0.5-0.6,1.9-2.8,1.9-0.8c0,0.1,0,0.2,0,0.3
	c0,0.6-0.1,1-0.2,1.5c0.2,0.2,0.2,0.6,0,1c0.3-0.8,0.6-2.3,1.3-2.6c0.9-0.3,1,0.6,0.9,1.5c0.1-0.5,0.7-1.7,1.2-2.7
	c0.6-1,1.2-1.8,1.6-1.7s0.5,0.5,0.5,1.1c-0.1,1.3-0.9,3.2-1.2,3.6c0.3-0.1,0.6-0.1,0.9-0.1c0,1.4-1.9,4.2-3,4.5
	c1.5,0.7,1,1.2,0.2,1.5c0.3,0,0.5,0,0.8,0.1c0.1,1-1.1,1.7-2.4,2.1l0,0c-0.2,0.2-0.5,0.4-0.8,0.6l0.7,1.9c0.3-0.5,0.5-1,0.9-1.1
	c0.6-0.2,0.9,0.5,1.1,1.1c0.7-0.4,0.9-1.6,1.8-1.8c0.5-0.1,2,0.2,1.6,1.1c0.7-0.4,1.1-1.3,2-1.5c1.6,1.8-2.6,3.9-3.8,4.5
	c0.6-0.1,1.7-0.1,1.6,0.9c-0.1,1.2-2.6,0.9-3.4,1.3c0.1,0.2,0.3,0.3,0.4,0.5c0.1,0,0.3,0.1,0.4,0.3c0.5,0.5,0.1,1.5,0.8,1.8
	c0.6,0.2,1.3-0.7,1.7-1.2c0.8-1,1.7-3,3.1-1.8c0.4,0.3,0.3,1.3,0.8,1.4c0.4,0,0.8-1,1.1-1.3c1-1,3.2-1.6,2.9,0.7
	c-0.2,1.5-1.6,3.1-2.5,4.1c0.7-0.2,1.3-0.6,2-0.4c0,1.3-0.4,2.1-1,2.5c-0.7,0.6-1.6,0.8-2.5,1.2c1.8,0.2,0.1,1.4-0.7,1.9
	c-0.1,0-0.1,0.1-0.2,0.1c-0.3,0.1-0.5,0.3-0.7,0.3c-0.7,0.3-1.4,0.3-2.2,0.3l0.1,0.2c0.2,0.1,0.3,0.2,0.5,0.2c0.5,0.4,0.7,1,0.2,1.6
	l1.2,3.6c0.5-0.5,0.9-0.9,1.5-0.8c0.8,0.1,1,0.9,1,1.8v0.3c0.3-0.1,0.6-0.2,0.9-0.4c0.7-0.5,1.3-1.1,2.2-1c0.3,0.1,0.7,0.2,1,0.5
	c0.7,0.5,1.2,1.2,0.5,1.8c1.1-0.1,2.1-1,3.1-0.8c0.7,1.7-0.8,2.6-2.7,3.1c0.7,0.7-1.3,1.6-2,1.9c1.1,0.1,7.7-2.1,6.8,1
	c-0.3,0.9-1.7,1.1-1.3,2.4c0.3,0.8,1.1,0.8,1.7,1.3c0.3,0.2,0.6,0.6,0.7,1.1c0,0.4,0,0.7,0,0.9c1.4,2.3-4.6,5-5.6,5.4
	c0.7-0.2,2.5-0.4,2.4,1c-0.1,1.5-3.6,1.1-4.5,1.6c0.1,0.2,0.2,0.3,0.3,0.4c0.2,0.1,0.5,0.2,0.7,0.4c0.7,0.6,0.2,1.9,1.1,2.2
	c0.9,0.3,1.8-0.9,2.3-1.5c1.1-1.3,2.3-3.8,4.1-2.2c0.5,0.4,0.4,1.6,1,1.7c0.5,0.1,1.1-1.3,1.5-1.6c1.4-1.2,4.3-1.9,3.8,0.8
	c-0.3,1.9-2.2,3.9-3.4,5.1c0.9-0.2,1.7-0.7,2.7-0.5c0,3.5-2.5,3.8-4.8,4.6c2.5,0.3-0.5,2.1-1.3,2.5c-1.5,0.8-2.7,0.8-4.3,0.8
	c0,0-0.1,0-0.1,0.1c1.3,0.2,2.2,1.1,1.6,2.1h1.5l1.3,3.7c0.2-0.1,0.3-0.1,0.6-0.1c1.1,0.2,1.3,1.4,1.3,2.5c1.5-0.2,2.5-1.9,4.1-1.6
	c0.9,0.2,3.3,1.7,2,2.9c1.4-0.2,2.7-1.2,4.2-1c0.9,2.1-1.2,3.2-3.6,3.8c0.9,0.9-1.8,2-2.7,2.3c1.5,0.1,10.2-2.6,9,1.2
	c-0.1,0.2-0.1,0.3-0.3,0.4c-0.6,0.8-2,1.2-1.6,2.5c0.5,1.5,2.7,0.8,3.1,2.9c0.4,2.2-1.3,1.9-2.9,1.8c-0.5,0-1-0.1-1.3-0.1
	c-0.9-0.1-1.3-0.1-0.6,1.3c0.2,0.4,0.3,0.7,0.4,1h33l0,0h40.7c9.4,0,18.1-1.9,26.2-5.6c3.3-1.5,6.5-3.2,9.5-5.2
	c4.3-2.8,8.2-6,11.8-9.7c6.1-6.3,10.8-13.5,14.2-21.7c0.6-1.3,1-2.6,1.5-3.9c0.5-1.4,1-2.9,1.4-4.3c1.5-5.5,2.2-11.1,2.3-16.9v-0.6
	C530.3,281.6,530.3,280.5,530.2,279.4z M471.1,317.8c-4.8,1.9-10.3,2.9-16.4,2.9h-8.1v-76h9.5c3.5,0.1,6.8,0.5,9.9,1.3
	c1.7,0.4,3.3,0.9,4.8,1.6c1.3,0.5,2.6,1.1,3.8,1.8l0,0c2.6,1.4,5,3,7,4.9c0.4,0.4,0.8,0.8,1.3,1.2c2.6,2.7,4.8,5.8,6.5,9.3
	c0.5,0.9,0.8,1.8,1.2,2.7c0.3,0.8,0.6,1.6,0.8,2.4c0.9,2.9,1.5,6,1.7,9.2c0.1,1.2,0.2,2.4,0.2,3.6c0,1.8-0.1,3.5-0.3,5.1
	c-0.3,2.7-0.7,5.2-1.5,7.6c-0.3,0.8-0.6,1.7-0.9,2.5c-1.7,4.6-4.2,8.6-7.5,12c-2.7,2.7-5.8,5-9.5,6.7
	C472.9,317.1,472,317.5,471.1,317.8z"/>
<g>
	<path class="st0" d="M71.8,379.5c-0.4-1.6-1.1-2.8-2.1-3.5c-1-0.7-2.3-1-3.9-1c-1.1,0-2.1,0.2-3,0.7c-0.8,0.5-1.5,1.1-2,1.8
		c-0.5,0.8-0.9,1.7-1.2,2.7c-0.3,1-0.4,2.1-0.4,3.2c0,1.1,0.1,2.1,0.3,3.1c0.2,1,0.6,1.9,1.1,2.7c0.5,0.8,1.2,1.4,2.1,1.9
		c0.9,0.5,1.9,0.7,3.2,0.7c0.8,0,1.5-0.1,2.2-0.4c0.7-0.3,1.3-0.6,1.8-1.1c0.5-0.5,0.9-1,1.3-1.6c0.3-0.6,0.6-1.3,0.8-2.1h1.9
		c-0.2,0.9-0.5,1.8-0.9,2.6c-0.4,0.8-0.9,1.5-1.6,2.2c-0.7,0.6-1.5,1.1-2.4,1.5c-0.9,0.4-2,0.5-3.3,0.5c-1.5,0-2.7-0.3-3.7-0.8
		c-1-0.5-1.9-1.3-2.5-2.2c-0.7-0.9-1.1-2-1.4-3.2c-0.3-1.2-0.4-2.5-0.4-3.8c0-1.8,0.2-3.4,0.7-4.6c0.4-1.3,1.1-2.3,1.9-3.1
		s1.7-1.4,2.8-1.7c1.1-0.4,2.2-0.5,3.5-0.5c1,0,1.9,0.1,2.7,0.4c0.8,0.3,1.6,0.6,2.2,1.1c0.6,0.5,1.2,1.1,1.6,1.9
		c0.4,0.7,0.7,1.6,0.9,2.6H71.8z"/>
	<path class="st0" d="M76.6,383.5c0-1.4,0.2-2.7,0.6-3.9c0.4-1.2,0.9-2.3,1.7-3.2c0.7-0.9,1.7-1.6,2.7-2.2s2.4-0.8,3.8-0.8
		c1.5,0,2.8,0.3,3.9,0.8c1.1,0.5,2,1.2,2.8,2.1c0.7,0.9,1.3,2,1.7,3.2c0.4,1.2,0.6,2.5,0.6,3.9c0,1.4-0.2,2.7-0.6,3.9
		c-0.4,1.2-0.9,2.3-1.7,3.2c-0.7,0.9-1.7,1.6-2.8,2.2c-1.1,0.5-2.4,0.8-3.9,0.8c-1.5,0-2.7-0.3-3.9-0.8c-1.1-0.5-2-1.2-2.8-2.2
		c-0.7-0.9-1.3-2-1.7-3.2C76.8,386.1,76.6,384.8,76.6,383.5z M85.5,391.9c1.2,0,2.3-0.2,3.2-0.7c0.9-0.5,1.6-1.1,2.2-1.9
		c0.6-0.8,1-1.7,1.3-2.7c0.3-1,0.4-2.1,0.4-3.2c0-1.3-0.2-2.5-0.5-3.6c-0.3-1-0.8-1.9-1.4-2.7c-0.6-0.7-1.4-1.3-2.2-1.7
		s-1.9-0.6-3-0.6c-1.2,0-2.3,0.2-3.2,0.7c-0.9,0.5-1.6,1.1-2.2,1.9c-0.6,0.8-1,1.7-1.3,2.7c-0.3,1-0.4,2.1-0.4,3.2
		c0,1.1,0.1,2.2,0.4,3.2c0.3,1,0.7,1.9,1.3,2.7c0.6,0.8,1.3,1.4,2.2,1.8S84.2,391.9,85.5,391.9z"/>
	<path class="st0" d="M97.8,392.9v-19h2.7l6.2,16.8h0.1l6.1-16.8h2.7v19h-1.8V376h-0.1l-6.2,16.9h-1.7L99.6,376h-0.1v16.9H97.8z"/>
	<path class="st0" d="M119.8,392.9v-19h6.9c1.2,0,2.2,0.1,3,0.4c0.8,0.3,1.4,0.7,1.9,1.2c0.5,0.5,0.8,1.1,1,1.7
		c0.2,0.6,0.3,1.3,0.3,2c0,1.1-0.2,1.9-0.6,2.6c-0.4,0.7-1,1.2-1.7,1.6c-0.7,0.4-1.5,0.7-2.3,0.8c-0.9,0.2-1.7,0.2-2.6,0.2h-4.1v8.4
		H119.8z M125.7,383c0.8,0,1.6-0.1,2.3-0.2c0.7-0.1,1.2-0.3,1.7-0.6c0.5-0.3,0.8-0.7,1.1-1.2c0.3-0.5,0.4-1.2,0.4-2
		c0-1.2-0.4-2.1-1.2-2.7c-0.8-0.6-2-0.9-3.7-0.9h-4.6v7.6H125.7z"/>
	<path class="st0" d="M134.2,392.9l7.5-19h2l7.3,19h-1.8l-2.2-6h-8.7l-2.2,6H134.2z M138.9,385.5h7.4l-3.7-10L138.9,385.5z"/>
	<path class="st0" d="M167.1,379.5c-0.4-1.6-1.1-2.8-2.1-3.5c-1-0.7-2.3-1-3.9-1c-1.1,0-2.1,0.2-3,0.7c-0.8,0.5-1.5,1.1-2,1.8
		c-0.5,0.8-0.9,1.7-1.2,2.7c-0.3,1-0.4,2.1-0.4,3.2c0,1.1,0.1,2.1,0.3,3.1c0.2,1,0.6,1.9,1.1,2.7c0.5,0.8,1.2,1.4,2.1,1.9
		c0.9,0.5,1.9,0.7,3.2,0.7c0.8,0,1.5-0.1,2.2-0.4c0.7-0.3,1.3-0.6,1.8-1.1c0.5-0.5,0.9-1,1.3-1.6c0.3-0.6,0.6-1.3,0.8-2.1h1.9
		c-0.2,0.9-0.5,1.8-0.9,2.6c-0.4,0.8-0.9,1.5-1.6,2.2c-0.7,0.6-1.5,1.1-2.4,1.5c-0.9,0.4-2,0.5-3.3,0.5c-1.5,0-2.7-0.3-3.7-0.8
		c-1-0.5-1.9-1.3-2.5-2.2c-0.7-0.9-1.1-2-1.4-3.2c-0.3-1.2-0.4-2.5-0.4-3.8c0-1.8,0.2-3.4,0.7-4.6c0.4-1.3,1.1-2.3,1.9-3.1
		c0.8-0.8,1.7-1.4,2.8-1.7c1.1-0.4,2.2-0.5,3.5-0.5c1,0,1.9,0.1,2.7,0.4c0.8,0.3,1.6,0.6,2.2,1.1c0.6,0.5,1.2,1.1,1.6,1.9
		c0.4,0.7,0.7,1.6,0.9,2.6H167.1z"/>
	<path class="st0" d="M170.9,373.9h13.8v1.5h-6v17.5H177v-17.5h-6V373.9z"/>
	<path class="st0" d="M202,392.9v-19h1.8v8.2H215v-8.2h1.8v19H215v-9.3h-11.2v9.3H202z"/>
	<path class="st0" d="M220.3,383.5c0-1.4,0.2-2.7,0.6-3.9c0.4-1.2,0.9-2.3,1.7-3.2c0.7-0.9,1.7-1.6,2.7-2.2s2.4-0.8,3.8-0.8
		c1.5,0,2.8,0.3,3.9,0.8c1.1,0.5,2,1.2,2.8,2.1c0.7,0.9,1.3,2,1.7,3.2c0.4,1.2,0.6,2.5,0.6,3.9c0,1.4-0.2,2.7-0.6,3.9
		c-0.4,1.2-0.9,2.3-1.7,3.2c-0.7,0.9-1.7,1.6-2.8,2.2c-1.1,0.5-2.4,0.8-3.9,0.8c-1.5,0-2.7-0.3-3.9-0.8c-1.1-0.5-2-1.2-2.8-2.2
		c-0.7-0.9-1.3-2-1.7-3.2C220.5,386.1,220.3,384.8,220.3,383.5z M229.2,391.9c1.2,0,2.3-0.2,3.2-0.7c0.9-0.5,1.6-1.1,2.2-1.9
		c0.6-0.8,1-1.7,1.3-2.7c0.3-1,0.4-2.1,0.4-3.2c0-1.3-0.2-2.5-0.5-3.6c-0.3-1-0.8-1.9-1.4-2.7c-0.6-0.7-1.4-1.3-2.2-1.7
		c-0.9-0.4-1.9-0.6-3-0.6c-1.2,0-2.3,0.2-3.2,0.7c-0.9,0.5-1.6,1.1-2.2,1.9c-0.6,0.8-1,1.7-1.3,2.7c-0.3,1-0.4,2.1-0.4,3.2
		c0,1.1,0.1,2.2,0.4,3.2c0.3,1,0.7,1.9,1.3,2.7c0.6,0.8,1.3,1.4,2.2,1.8C226.9,391.7,227.9,391.9,229.2,391.9z"/>
	<path class="st0" d="M242.3,387.3c0.1,0.8,0.3,1.6,0.6,2.2c0.3,0.6,0.7,1.1,1.2,1.4s1,0.6,1.7,0.8c0.6,0.2,1.3,0.3,2,0.3
		c0.8,0,1.6-0.1,2.2-0.3c0.6-0.2,1.1-0.5,1.5-0.9c0.4-0.4,0.7-0.8,0.9-1.3s0.3-1,0.3-1.5c0-0.7-0.2-1.3-0.5-1.8
		c-0.3-0.5-0.8-0.8-1.3-1.1c-0.5-0.3-1.2-0.5-1.8-0.7c-0.7-0.2-1.4-0.3-2.1-0.5c-0.7-0.2-1.4-0.4-2.1-0.6c-0.7-0.2-1.3-0.5-1.8-0.9
		c-0.5-0.4-1-0.9-1.3-1.5c-0.3-0.6-0.5-1.4-0.5-2.3c0-0.7,0.1-1.3,0.4-1.9c0.3-0.6,0.7-1.2,1.2-1.6c0.5-0.5,1.2-0.9,2-1.1
		c0.8-0.3,1.7-0.4,2.8-0.4c1.1,0,2,0.2,2.8,0.4c0.8,0.3,1.5,0.7,2,1.2c0.5,0.5,0.9,1.1,1.2,1.8c0.3,0.7,0.4,1.4,0.4,2.2h-1.7
		c0-0.7-0.1-1.3-0.4-1.9c-0.3-0.5-0.6-1-1-1.3c-0.4-0.3-0.9-0.6-1.5-0.7c-0.6-0.2-1.1-0.2-1.7-0.2c-0.9,0-1.7,0.1-2.3,0.4
		c-0.6,0.3-1.1,0.6-1.5,1c-0.4,0.4-0.6,0.9-0.8,1.3c-0.1,0.5-0.2,1-0.1,1.5c0.1,0.6,0.4,1.1,0.7,1.5c0.4,0.4,0.9,0.7,1.4,0.9
		c0.6,0.2,1.2,0.4,1.9,0.6c0.7,0.2,1.4,0.3,2.1,0.5c0.7,0.2,1.4,0.4,2,0.6c0.7,0.2,1.2,0.5,1.8,0.9c0.5,0.4,0.9,0.9,1.2,1.5
		c0.3,0.6,0.5,1.4,0.5,2.3c0,1.8-0.6,3.1-1.8,4.1c-1.2,1-2.9,1.4-5.1,1.4c-1,0-1.9-0.1-2.7-0.4c-0.8-0.3-1.6-0.6-2.2-1.2
		c-0.6-0.5-1.1-1.2-1.4-1.9c-0.3-0.8-0.5-1.7-0.5-2.7H242.3z"/>
	<path class="st0" d="M257.7,392.9v-19h12.6v1.5h-10.8v6.9h9.8v1.5h-9.8v7.5h11.1v1.5H257.7z"/>
	<path class="st0" d="M286.8,392.9l7.5-19h2l7.3,19h-1.8l-2.2-6h-8.7l-2.2,6H286.8z M291.5,385.5h7.4l-3.7-10L291.5,385.5z"/>
	<path class="st0" d="M306.9,387.3c0.1,0.8,0.3,1.6,0.6,2.2c0.3,0.6,0.7,1.1,1.2,1.4c0.5,0.4,1,0.6,1.7,0.8c0.6,0.2,1.3,0.3,2,0.3
		c0.8,0,1.6-0.1,2.2-0.3c0.6-0.2,1.1-0.5,1.5-0.9c0.4-0.4,0.7-0.8,0.9-1.3c0.2-0.5,0.3-1,0.3-1.5c0-0.7-0.2-1.3-0.5-1.8
		c-0.3-0.5-0.8-0.8-1.3-1.1c-0.5-0.3-1.2-0.5-1.8-0.7c-0.7-0.2-1.4-0.3-2.1-0.5c-0.7-0.2-1.4-0.4-2.1-0.6c-0.7-0.2-1.3-0.5-1.8-0.9
		c-0.5-0.4-1-0.9-1.3-1.5c-0.3-0.6-0.5-1.4-0.5-2.3c0-0.7,0.1-1.3,0.4-1.9c0.3-0.6,0.7-1.2,1.2-1.6c0.5-0.5,1.2-0.9,2-1.1
		c0.8-0.3,1.7-0.4,2.8-0.4c1.1,0,2,0.2,2.8,0.4c0.8,0.3,1.5,0.7,2,1.2c0.5,0.5,0.9,1.1,1.2,1.8c0.3,0.7,0.4,1.4,0.4,2.2h-1.7
		c0-0.7-0.1-1.3-0.4-1.9c-0.3-0.5-0.6-1-1-1.3c-0.4-0.3-0.9-0.6-1.5-0.7c-0.6-0.2-1.1-0.2-1.7-0.2c-0.9,0-1.7,0.1-2.3,0.4
		c-0.6,0.3-1.1,0.6-1.5,1c-0.4,0.4-0.6,0.9-0.8,1.3c-0.1,0.5-0.2,1-0.1,1.5c0.1,0.6,0.4,1.1,0.7,1.5c0.4,0.4,0.9,0.7,1.4,0.9
		c0.6,0.2,1.2,0.4,1.9,0.6c0.7,0.2,1.4,0.3,2.1,0.5c0.7,0.2,1.4,0.4,2,0.6c0.7,0.2,1.2,0.5,1.8,0.9c0.5,0.4,0.9,0.9,1.2,1.5
		c0.3,0.6,0.5,1.4,0.5,2.3c0,1.8-0.6,3.1-1.8,4.1c-1.2,1-2.9,1.4-5.1,1.4c-1,0-1.9-0.1-2.7-0.4c-0.8-0.3-1.6-0.6-2.2-1.2
		c-0.6-0.5-1.1-1.2-1.4-1.9c-0.3-0.8-0.5-1.7-0.5-2.7H306.9z"/>
	<path class="st0" d="M323,387.3c0.1,0.8,0.3,1.6,0.6,2.2c0.3,0.6,0.7,1.1,1.2,1.4s1,0.6,1.7,0.8c0.6,0.2,1.3,0.3,2,0.3
		c0.8,0,1.6-0.1,2.2-0.3c0.6-0.2,1.1-0.5,1.5-0.9c0.4-0.4,0.7-0.8,0.9-1.3c0.2-0.5,0.3-1,0.3-1.5c0-0.7-0.2-1.3-0.5-1.8
		c-0.3-0.5-0.8-0.8-1.3-1.1c-0.5-0.3-1.2-0.5-1.8-0.7c-0.7-0.2-1.4-0.3-2.1-0.5c-0.7-0.2-1.4-0.4-2.1-0.6c-0.7-0.2-1.3-0.5-1.8-0.9
		c-0.5-0.4-1-0.9-1.3-1.5c-0.3-0.6-0.5-1.4-0.5-2.3c0-0.7,0.1-1.3,0.4-1.9c0.3-0.6,0.7-1.2,1.2-1.6c0.5-0.5,1.2-0.9,2-1.1
		c0.8-0.3,1.7-0.4,2.8-0.4c1.1,0,2,0.2,2.8,0.4c0.8,0.3,1.5,0.7,2,1.2c0.5,0.5,0.9,1.1,1.2,1.8c0.3,0.7,0.4,1.4,0.4,2.2h-1.7
		c0-0.7-0.1-1.3-0.4-1.9c-0.3-0.5-0.6-1-1-1.3c-0.4-0.3-0.9-0.6-1.5-0.7c-0.6-0.2-1.1-0.2-1.7-0.2c-0.9,0-1.7,0.1-2.3,0.4
		c-0.6,0.3-1.1,0.6-1.5,1c-0.4,0.4-0.6,0.9-0.8,1.3c-0.1,0.5-0.2,1-0.1,1.5c0.1,0.6,0.4,1.1,0.7,1.5c0.4,0.4,0.9,0.7,1.4,0.9
		c0.6,0.2,1.2,0.4,1.9,0.6c0.7,0.2,1.4,0.3,2.1,0.5c0.7,0.2,1.4,0.4,2,0.6c0.7,0.2,1.2,0.5,1.8,0.9c0.5,0.4,0.9,0.9,1.2,1.5
		c0.3,0.6,0.5,1.4,0.5,2.3c0,1.8-0.6,3.1-1.8,4.1c-1.2,1-2.9,1.4-5.1,1.4c-1,0-1.9-0.1-2.7-0.4c-0.8-0.3-1.6-0.6-2.2-1.2
		c-0.6-0.5-1.1-1.2-1.4-1.9c-0.3-0.8-0.5-1.7-0.5-2.7H323z"/>
	<path class="st0" d="M338.4,392.9v-19H351v1.5h-10.8v6.9h9.8v1.5h-9.8v7.5h11.1v1.5H338.4z"/>
	<path class="st0" d="M354.4,392.9v-19h2.7l6.2,16.8h0.1l6.1-16.8h2.7v19h-1.8V376h-0.1l-6.2,16.9h-1.7l-6.3-16.9h-0.1v16.9H354.4z"
		/>
	<path class="st0" d="M376.5,392.9v-19h6.9c1.1,0,2.1,0.1,2.9,0.3c0.8,0.2,1.4,0.6,1.9,1c0.5,0.4,0.9,0.9,1.1,1.5
		c0.2,0.6,0.3,1.2,0.3,1.9c0,0.7-0.1,1.2-0.3,1.7c-0.2,0.5-0.4,0.9-0.7,1.2c-0.3,0.3-0.6,0.6-1,0.8c-0.4,0.2-0.7,0.3-1.1,0.4v0.1
		c1.3,0.2,2.3,0.7,2.9,1.6c0.6,0.8,1,1.9,1,3.2c0,1-0.2,1.8-0.5,2.5c-0.3,0.7-0.7,1.2-1.3,1.7c-0.5,0.4-1.2,0.7-2,0.9
		c-0.8,0.2-1.6,0.3-2.5,0.3H376.5z M378.3,382.3h4.5c0.9,0,1.7-0.1,2.3-0.2c0.6-0.2,1.1-0.4,1.5-0.7c0.4-0.3,0.7-0.7,0.8-1.1
		c0.2-0.4,0.3-1,0.3-1.5c0-0.6-0.1-1.1-0.3-1.5c-0.2-0.4-0.5-0.7-0.9-1c-0.4-0.3-1-0.4-1.6-0.6c-0.7-0.1-1.5-0.2-2.5-0.2h-4.1V382.3
		z M378.3,391.4h4.6c1,0,1.8,0,2.6-0.1c0.7-0.1,1.3-0.3,1.8-0.5c0.5-0.3,0.8-0.7,1.1-1.2c0.2-0.5,0.4-1.2,0.4-2
		c0-0.8-0.1-1.4-0.4-1.9c-0.3-0.5-0.6-0.9-1.1-1.1c-0.5-0.3-1.1-0.4-1.8-0.5c-0.7-0.1-1.5-0.1-2.3-0.1h-4.8V391.4z"/>
	<path class="st0" d="M394.1,392.9v-19h1.8v17.5h10.2v1.5H394.1z"/>
	<path class="st0" d="M414.6,383.1l5.7-9.2h2.1l-6.9,10.7v8.3h-1.8v-8.2l-6.8-10.8h2.1L414.6,383.1z"/>
	<path class="st0" d="M439.6,392.9v-19h6.5c0.5,0,1,0,1.6,0c0.5,0,1,0.1,1.5,0.2c0.5,0.1,1,0.2,1.4,0.4c0.5,0.2,0.9,0.4,1.4,0.8
		c0.6,0.5,1.2,1,1.6,1.7c0.4,0.7,0.7,1.4,1,2.1s0.4,1.5,0.5,2.2c0.1,0.7,0.1,1.4,0.1,2.1c0,0.6,0,1.3-0.1,1.9
		c-0.1,0.7-0.2,1.3-0.4,1.9s-0.4,1.2-0.7,1.8c-0.3,0.6-0.7,1.1-1.1,1.6c-0.4,0.5-0.9,0.9-1.4,1.2c-0.5,0.3-1.1,0.5-1.6,0.7
		c-0.6,0.2-1.2,0.3-1.8,0.3c-0.6,0.1-1.2,0.1-1.9,0.1H439.6z M441.4,391.4h4.3c0.8,0,1.6,0,2.3-0.1c0.7-0.1,1.4-0.3,2.2-0.7
		c0.6-0.3,1.2-0.7,1.6-1.3c0.4-0.5,0.7-1.1,1-1.8s0.4-1.3,0.5-2c0.1-0.7,0.1-1.4,0.1-2c0-0.7,0-1.4-0.1-2.1s-0.3-1.4-0.5-2
		c-0.2-0.6-0.6-1.2-1-1.8c-0.4-0.5-1-1-1.6-1.3c-0.6-0.3-1.2-0.5-2-0.6s-1.6-0.1-2.3-0.1h-4.3V391.4z"/>
	<path class="st0" d="M458.7,392.9v-19h12.6v1.5h-10.8v6.9h9.8v1.5h-9.8v7.5h11.1v1.5H458.7z"/>
	<path class="st0" d="M473.1,373.9h1.9l5.7,16.9l5.7-16.9h1.9l-6.6,19h-2L473.1,373.9z"/>
	<path class="st0" d="M491.5,392.9v-19h1.8v19H491.5z"/>
	<path class="st0" d="M511.7,379.5c-0.4-1.6-1.1-2.8-2.1-3.5c-1-0.7-2.3-1-3.9-1c-1.1,0-2.1,0.2-3,0.7c-0.8,0.5-1.5,1.1-2,1.8
		c-0.5,0.8-0.9,1.7-1.2,2.7c-0.3,1-0.4,2.1-0.4,3.2c0,1.1,0.1,2.1,0.3,3.1c0.2,1,0.6,1.9,1.1,2.7c0.5,0.8,1.2,1.4,2.1,1.9
		c0.9,0.5,1.9,0.7,3.2,0.7c0.8,0,1.5-0.1,2.2-0.4c0.7-0.3,1.3-0.6,1.8-1.1c0.5-0.5,0.9-1,1.3-1.6c0.3-0.6,0.6-1.3,0.8-2.1h1.9
		c-0.2,0.9-0.5,1.8-0.9,2.6c-0.4,0.8-0.9,1.5-1.6,2.2c-0.7,0.6-1.5,1.1-2.4,1.5c-0.9,0.4-2,0.5-3.3,0.5c-1.5,0-2.7-0.3-3.7-0.8
		c-1-0.5-1.9-1.3-2.5-2.2c-0.7-0.9-1.1-2-1.4-3.2c-0.3-1.2-0.4-2.5-0.4-3.8c0-1.8,0.2-3.4,0.7-4.6c0.4-1.3,1.1-2.3,1.9-3.1
		s1.7-1.4,2.8-1.7c1.1-0.4,2.2-0.5,3.5-0.5c1,0,1.9,0.1,2.7,0.4c0.8,0.3,1.6,0.6,2.2,1.1c0.6,0.5,1.2,1.1,1.6,1.9
		c0.4,0.7,0.7,1.6,0.9,2.6H511.7z"/>
	<path class="st0" d="M517.3,392.9v-19h12.6v1.5h-10.8v6.9h9.8v1.5h-9.8v7.5h11.1v1.5H517.3z"/>
</g>
</svg>
