<?xml version="1.0" encoding="utf-8"?>
<!-- Generator: Adobe Illustrator 24.2.1, SVG Export Plug-In . SVG Version: 6.00 Build 0)  -->
<svg version="1.1" id="Layer_1" xmlns="http://www.w3.org/2000/svg" xmlns:xlink="http://www.w3.org/1999/xlink" x="0px" y="0px"
	 viewBox="0 0 472.8 135.9" style="enable-background:new 0 0 472.8 135.9;" xml:space="preserve">
<style type="text/css">
	.st0{fill:#FFFFFF;}
</style>
<path class="st0" d="M472.3,64.7c0-0.6-0.1-1.3-0.1-1.9c0-0.8-0.1-1.7-0.2-2.5c-0.7-6.3-2.3-12.3-4.8-18.2c-0.1-0.2-0.2-0.5-0.3-0.7
	c-3.4-8-8.1-15-14-21c-0.4-0.4-0.8-0.8-1.2-1.1c-1.6-1.6-3.3-3.1-5-4.5c-4.1-3.3-8.5-6.1-13.4-8.4c-0.5-0.3-1.1-0.6-1.7-0.8
	c-4.5-2.1-9.2-3.6-14.1-4.5c-3.6-0.7-7.2-1-11-1.1c-0.3,0-0.6,0-0.9,0h-52.2v105.5l-0.3-0.8l-7.2-19l-13.3-34.8l-13.7-36l-5.6-14.8
	h-38.6l-5.6,14.8l-1.4,3.6l0,0l-0.2,0.7l-4.7,12.2l-1.2,3.2l-0.3,0.7l-1.9,4.9l-6.1,16.1l-2.5,6.6l-6.4,16.8l-8.3,21.8l-1.8,4.7V0.1
	h-35.2v52.4h-51V0.1h-35.3V106H75.6c-6,0-11.4-0.9-16.2-2.9c-4.8-1.9-8.9-4.6-12.2-8c-3.3-3.3-5.9-7.4-7.7-12
	c-0.5-1.1-0.8-2.3-1.1-3.5c-0.7-2.4-1.1-5-1.4-7.6c0-0.5-0.1-0.9-0.1-1.4c0-0.9-0.1-1.8-0.1-2.7c0-5.5,0.9-10.6,2.6-15.2
	c1.8-4.6,4.3-8.6,7.6-12c1.1-1.1,2.2-2.1,3.4-3l0,0c0.5-0.4,1-0.7,1.6-1.1c2.2-1.5,4.6-2.7,7.2-3.8c3.6-1.5,7.6-2.3,11.9-2.7
	c1.1-0.1,2.2-0.1,3.4-0.2c0.4,0,0.8,0,1.1,0h8.1V0H66.8c-9.4,0-18.1,1.9-26.2,5.6C39,6.3,37.5,7.1,36,7.9c-3.4,1.9-6.6,4-9.6,6.4
	c-0.3,0.2-0.5,0.4-0.8,0.6c-0.4,0.3-0.8,0.7-1.2,1c-1.8,1.4-3.5,3-5.1,4.7C13.2,26.8,8.5,34.1,5.1,42.3C1.7,50.5,0,59.1,0,68
	c0,9,1.8,17.6,5.2,25.8c3.5,8.2,8.2,15.4,14.3,21.6c6.1,6.2,13.2,11.1,21.3,14.9c8.1,3.7,16.8,5.6,26,5.6h81.3v-56h51v56H256
	c0.1-0.3,0.2-0.7,0.4-1c0.9-1.9-0.1-1.2-1.9-1.2c-1.7,0.1-3.3,0.4-2.9-1.8c0.3-2.1,2.6-1.4,3.1-2.9s-1.5-1.8-1.9-3
	c-1.2-3.8,7.5-1,9-1.2c-0.9-0.3-3.6-1.4-2.8-2.3c-2.1-0.5-3.9-1.3-3.8-2.9c0-0.3,0.1-0.6,0.2-0.9c1.3-0.2,2.4,0.6,3.7,0.9
	c0.2,0,0.4,0.1,0.6,0.1c-0.1-0.1-0.2-0.2-0.3-0.3c-0.7-1.1,1.3-2.4,2.2-2.6c0.5-0.1,0.9,0,1.3,0.2c0.9,0.4,1.8,1.3,2.8,1.4
	c0-1.1,0.1-2.4,1.3-2.5c0.2,0,0.4,0,0.6,0.1l1.1-3.2l0.2-0.6h1.5c-0.1-0.1-0.1-0.2-0.1-0.2c-0.4-0.9,0.5-1.6,1.7-1.8
	c0,0-0.1,0-0.1-0.1c-1.6,0-2.8-0.1-4.3-0.8c-0.8-0.4-3.8-2.2-1.3-2.5c-2.2-0.8-4.8-1.2-4.8-4.6c1-0.2,1.8,0.3,2.7,0.5
	c-0.5-0.5-1-1-1.5-1.7c-0.7-0.8-1.3-1.8-1.7-2.8c-0.1-0.2-0.2-0.5-0.2-0.7c-0.5-2.8,2.4-2.1,3.8-0.8c0.4,0.3,1,1.7,1.5,1.6
	c0.7-0.1,0.6-1.3,1-1.7c1.9-1.5,3.1,1,4.1,2.2c0.5,0.6,1.4,1.8,2.3,1.5s0.4-1.6,1.1-2.2c0.3-0.2,0.5-0.4,0.7-0.4
	c0.1-0.1,0.2-0.2,0.3-0.4c-0.9-0.5-4.4-0.1-4.5-1.6c-0.1-1.4,1.7-1.3,2.4-1c-1.1-0.5-7.1-3.2-5.6-5.5c0-0.2,0-0.5,0-0.8
	c0.3-1.7,2-1.2,2.4-2.4c0.4-1.3-1.1-1.5-1.4-2.4c-0.9-3.1,5.7-0.9,6.8-1c-0.7-0.3-2.8-1.1-2.1-1.9c-0.7-0.2-1.3-0.4-1.8-0.7
	c-0.4-0.2-0.7-0.5-0.9-0.8c-0.2-0.4-0.3-0.9,0-1.5c1.1-0.2,2.1,0.7,3.2,0.8c-1.1-0.9,0.8-2.2,1.5-2.3c1.3-0.2,2,1.2,3.1,1.4
	c0-0.9,0.2-2,1.1-2.1c0.5-0.1,1,0.4,1.4,0.8l1.3-3.6c-0.2-0.3-0.3-0.5-0.3-0.7c0-0.5,0.4-0.9,0.9-1.1l0.1-0.2
	c-1.1,0-1.9-0.1-2.9-0.7c-0.6-0.3-2.8-1.8-0.9-2c-0.2-0.1-0.3-0.1-0.5-0.2c-1.5-0.5-3.1-1-3-3.5c0.7-0.2,1.3,0.2,2,0.4
	c-0.8-1-2.2-2.6-2.5-4.1c0-0.3,0-0.5,0-0.7c0-0.4,0.2-0.6,0.4-0.7c0.6-0.4,1.8,0.1,2.5,0.7c0.3,0.3,0.7,1.3,1.1,1.3
	c0.5-0.1,0.4-1,0.8-1.4c1.4-1.2,2.3,0.8,3.1,1.8c0.4,0.5,1.1,1.4,1.7,1.2c0.7-0.3,0.3-1.2,0.9-1.8c0.1-0.1,0.2-0.2,0.4-0.3
	c0.1-0.2,0.2-0.3,0.4-0.5c-0.7-0.4-3.3,0-3.4-1.3c-0.1-1,1-1,1.6-0.9c-1.1-0.5-5.3-2.7-3.8-4.5c0.8,0.2,1.3,1.1,2,1.5
	c-0.5-0.9,1-1.2,1.6-1.1c0.9,0.2,1.1,1.4,1.8,1.8c0.2-0.7,0.6-1.3,1.1-1.1c0.5,0.1,0.7,0.7,0.9,1.2l0.7-2c-0.3-0.1-0.7-0.3-0.9-0.6
	l0,0c-1.3-0.4-2.5-1.1-2.3-2.1c0.2-0.1,0.5-0.2,0.7-0.1c-0.8-0.3-1.3-0.8,0.2-1.5c-0.8-0.3-2.1-1.9-2.7-3.3
	c-0.2-0.5-0.3-0.9-0.3-1.2c0.3,0,0.6,0,0.9,0.1c-0.3-0.3-0.8-1.5-1.1-2.6c-0.3-1-0.3-2.1,0.3-2.2c0.4-0.1,0.9,0.6,1.4,1.5
	c0.7,1.1,1.2,2.5,1.4,3c-0.1-0.9,0.1-1.8,0.9-1.5c0.7,0.3,0.9,1.5,1.2,2.3c-0.1-0.4,0-0.7,0.2-0.8c-0.1-0.5-0.2-0.9-0.2-1.5
	c0-2.4,1.4-0.1,2,0.6c-0.2-0.5-0.4-1-0.6-1.5c-0.4-1.1-0.7-2.2-0.4-3.6c0.5,0.2,0.8,1,1.1,1.6c0-1.4-1.8-4-1.2-5.5
	c0.5-1.3,1.7,0.7,2.1,1.6c-0.2-1.6-0.8-4.2-0.1-5.6c0.4,0.3,0.7,0.9,1,1.3c-0.4-1.5-0.8-3.2-0.6-4.9c0.1-0.9,0.6-3.3,1.2-2.5
	c0.1-0.7,0.3-1.6,0.5-2.5c0.3,0.4,0.4,1.5,0.5,2.7c0.7-1.2,1.2,1.4,1.3,2.3c0.2,1.7-0.2,3.4-0.6,4.9c0.3-0.4,0.6-1,1-1.3
	c0.8,1.4,0.1,4,0,5.6c0.4-1,1.6-2.9,2.1-1.6c0.6,1.5-1.1,4.1-1.1,5.5c0.3-0.6,0.6-1.4,1-1.6c0.1,0.5,0.1,0.9,0.1,1.4
	c0,1.3-0.6,2.5-1,3.7c0.5-0.6,1.9-2.8,1.9-0.8c0,0.1,0,0.2,0,0.3c0,0.6-0.1,1-0.2,1.5c0.2,0.2,0.2,0.6,0,1c0.3-0.8,0.6-2.3,1.3-2.6
	c0.9-0.3,1,0.6,0.9,1.5c0.1-0.5,0.7-1.7,1.2-2.7c0.6-1,1.2-1.8,1.6-1.7s0.5,0.5,0.5,1.1c-0.1,1.3-0.9,3.2-1.2,3.6
	c0.3-0.1,0.6-0.1,0.9-0.1c0,1.4-1.9,4.2-3,4.5c1.5,0.7,1,1.2,0.2,1.5c0.3,0,0.5,0,0.8,0.1c0.1,1-1.1,1.7-2.4,2.1l0,0
	c-0.2,0.2-0.5,0.4-0.8,0.6l0.7,1.9c0.3-0.5,0.5-1,0.9-1.1c0.6-0.2,0.9,0.5,1.1,1.1c0.7-0.4,0.9-1.6,1.8-1.8c0.5-0.1,2,0.2,1.6,1.1
	c0.7-0.4,1.1-1.3,2-1.5c1.6,1.8-2.6,3.9-3.8,4.5c0.6-0.1,1.7-0.1,1.6,0.9c-0.1,1.2-2.6,0.9-3.4,1.3c0.1,0.2,0.3,0.3,0.4,0.5
	c0.1,0,0.3,0.1,0.4,0.3c0.5,0.5,0.1,1.5,0.8,1.8c0.6,0.2,1.3-0.7,1.7-1.2c0.8-1,1.7-3,3.1-1.8c0.4,0.3,0.3,1.3,0.8,1.4
	c0.4,0,0.8-1,1.1-1.3c1-1,3.2-1.6,2.9,0.7c-0.2,1.5-1.6,3.1-2.5,4.1c0.7-0.2,1.3-0.6,2-0.4c0,1.3-0.4,2.1-1,2.5
	c-0.7,0.6-1.6,0.8-2.5,1.2c1.8,0.2,0.1,1.4-0.7,1.9c-0.1,0-0.1,0.1-0.2,0.1c-0.3,0.1-0.5,0.3-0.7,0.3c-0.7,0.3-1.4,0.3-2.2,0.3
	l0.1,0.2c0.2,0.1,0.3,0.2,0.5,0.2c0.5,0.4,0.7,1,0.2,1.6l1.2,3.6c0.5-0.5,0.9-0.9,1.5-0.8c0.8,0.1,1,0.9,1,1.8v0.3
	c0.3-0.1,0.6-0.2,0.9-0.4c0.7-0.5,1.3-1.1,2.2-1c0.3,0.1,0.7,0.2,1,0.5c0.7,0.5,1.2,1.2,0.5,1.8c1.1-0.1,2.1-1,3.1-0.8
	c0.7,1.7-0.8,2.6-2.7,3.1c0.7,0.7-1.3,1.6-2,1.9c1.1,0.1,7.7-2.1,6.8,1c-0.3,0.9-1.7,1.1-1.3,2.4c0.3,0.8,1.1,0.8,1.7,1.3
	c0.3,0.2,0.6,0.6,0.7,1.1c0,0.4,0,0.7,0,0.9c1.4,2.3-4.6,5-5.6,5.4c0.7-0.2,2.5-0.4,2.4,1c-0.1,1.5-3.6,1.1-4.5,1.6
	c0.1,0.2,0.2,0.3,0.3,0.4c0.2,0.1,0.5,0.2,0.7,0.4c0.7,0.6,0.2,1.9,1.1,2.2c0.9,0.3,1.8-0.9,2.3-1.5c1.1-1.3,2.3-3.8,4.1-2.2
	c0.5,0.4,0.4,1.6,1,1.7c0.5,0.1,1.1-1.3,1.5-1.6c1.4-1.2,4.3-1.9,3.8,0.8c-0.3,1.9-2.2,3.9-3.4,5.1c0.9-0.2,1.7-0.7,2.7-0.5
	c0,3.5-2.5,3.8-4.8,4.6c2.5,0.3-0.5,2.1-1.3,2.5c-1.5,0.8-2.7,0.8-4.3,0.8c0,0-0.1,0-0.1,0.1c1.3,0.2,2.2,1.1,1.6,2.1h1.5l1.3,3.7
	c0.2-0.1,0.3-0.1,0.6-0.1c1.1,0.2,1.3,1.4,1.3,2.5c1.5-0.2,2.5-1.9,4.1-1.6c0.9,0.2,3.3,1.7,2,2.9c1.4-0.2,2.7-1.2,4.2-1
	c0.9,2.1-1.2,3.2-3.6,3.8c0.9,0.9-1.8,2-2.7,2.3c1.5,0.1,10.2-2.6,9,1.2c-0.1,0.2-0.1,0.3-0.3,0.4c-0.6,0.8-2,1.2-1.6,2.5
	c0.5,1.5,2.7,0.8,3.1,2.9c0.4,2.2-1.3,1.9-2.9,1.8c-0.5,0-1-0.1-1.3-0.1c-0.9-0.1-1.3-0.1-0.6,1.3c0.2,0.4,0.3,0.7,0.4,1h33l0,0
	h40.7c9.4,0,18.1-1.9,26.2-5.6c3.3-1.5,6.5-3.2,9.5-5.2c4.3-2.8,8.2-6,11.8-9.7c6.1-6.3,10.8-13.5,14.2-21.7c0.6-1.3,1-2.6,1.5-3.9
	c0.5-1.4,1-2.9,1.4-4.3c1.5-5.5,2.2-11.1,2.3-16.9v-0.6C472.4,66.9,472.4,65.8,472.3,64.7z M413.2,103.1c-4.8,1.9-10.3,2.9-16.4,2.9
	h-8.1V30h9.5c3.5,0.1,6.8,0.5,9.9,1.3c1.7,0.4,3.3,0.9,4.8,1.6c1.3,0.5,2.6,1.1,3.8,1.8l0,0c2.6,1.4,5,3,7,4.9
	c0.4,0.4,0.8,0.8,1.3,1.2c2.6,2.7,4.8,5.8,6.5,9.3c0.5,0.9,0.8,1.8,1.2,2.7c0.3,0.8,0.6,1.6,0.8,2.4c0.9,2.9,1.5,6,1.7,9.2
	c0.1,1.2,0.2,2.4,0.2,3.6c0,1.8-0.1,3.5-0.3,5.1c-0.3,2.7-0.7,5.2-1.5,7.6c-0.3,0.8-0.6,1.7-0.9,2.5c-1.7,4.6-4.2,8.6-7.5,12
	c-2.7,2.7-5.8,5-9.5,6.7C415,102.4,414.1,102.8,413.2,103.1z"/>
</svg>
