<?xml version="1.0" encoding="utf-8"?>
<!-- Generator: Adobe Illustrator 24.2.1, SVG Export Plug-In . SVG Version: 6.00 Build 0)  -->
<svg version="1.1" id="Layer_1" xmlns="http://www.w3.org/2000/svg" xmlns:xlink="http://www.w3.org/1999/xlink" x="0px" y="0px"
	 viewBox="0 0 1152 576" style="enable-background:new 0 0 1152 576;" xml:space="preserve">
<style type="text/css">
	.st0{fill:none;stroke:#000000;stroke-miterlimit:10;}
	.st1{fill:#6CBE45;}
	.st2{fill:#38A549;}
	.st3{fill:#D1D3D4;}
	.st4{fill:#A7A9AC;}
	.st5{fill:#8DC63F;}
	.st6{opacity:0.3;}
	.st7{fill:#FFFFFF;}
	.st8{fill:#39B54A;}
	.st9{opacity:0.23;}
	.st10{fill:#6D6E71;}
	.st11{opacity:0.12;}
	.st12{fill:#58595B;}
	.st13{opacity:0.31;}
	.st14{opacity:0.14;}
</style>
<g>
	<g>
		<path class="st0" d="M566.2,261.7"/>
	</g>
</g>
<g>
	<g>
		<path class="st0" d="M579.8,153.6"/>
	</g>
</g>
<g>
	<path class="st1" d="M579.9,216.3V280l-13.6-18.2L556,248.1L535,220l-42.2-56.2c-4.6-6.2-12-10.3-20.4-10.3h-37.2v-36.8h40
		c19.8,0,37.3,9.6,48.1,24.4l0,0L579.9,216.3z"/>
</g>
<g>
	<path class="st2" d="M566.2,261.7l13.6,18.2L523.5,355l0,0c-10.9,14.8-28.4,24.4-48.2,24.4h-40v-36.8h37.2c8.5,0,16-4.1,20.5-10.5
		l42-56l21.1-28.1L566.2,261.7z"/>
</g>
<g>
	<path class="st3" d="M435.2,338.1v4.6v36.8v4.6c0,1.3-1.1,2.4-2.4,2.4h-45.9c-1.3,0-2.4-1.1-2.4-2.4v-4.6v-36.8v-4.6
		c0-1.3,1.1-2.4,2.4-2.4h45.9C434.1,335.7,435.2,336.8,435.2,338.1z"/>
</g>
<g>
	<path class="st3" d="M435.2,112.1v4.6v36.8v4.6c0,1.3-1.1,2.4-2.4,2.4h-45.9c-1.3,0-2.4-1.1-2.4-2.4v-4.6v-36.8v-4.6
		c0-1.3,1.1-2.4,2.4-2.4h45.9C434.1,109.7,435.2,110.8,435.2,112.1z"/>
</g>
<g>
	<rect x="376.3" y="342.7" class="st4" width="8.2" height="36.8"/>
</g>
<g>
	<rect x="376.3" y="116.7" class="st4" width="8.2" height="36.8"/>
</g>
<g>
	<path class="st3" d="M376.3,338.3v4.4v36.8v4.8c0,1.3-1.1,2.4-2.4,2.4h-12.6c-1.3,0-2.4-1.1-2.4-2.4v-4.8v-36.8v-4.4
		c0-1.3,1.1-2.4,2.4-2.4h12.6C375.2,335.9,376.3,337,376.3,338.3z"/>
</g>
<g>
	<path class="st3" d="M376.3,116.7v36.8v4.8c0,1.3-1.1,2.4-2.4,2.4h-12.6c-1.3,0-2.4-1.1-2.4-2.4v-4.8v-36.8v-4.3
		c0-1.3,1.1-2.4,2.4-2.4h12.6c1.3,0,2.4,1.1,2.4,2.4V116.7z"/>
</g>
<g>
	<rect x="349" y="342.7" class="st4" width="9.8" height="36.8"/>
</g>
<g>
	<rect x="349" y="116.7" class="st4" width="9.8" height="36.8"/>
</g>
<g>
	<path class="st3" d="M349,342.7v36.8v4.6c0,1.3-1.1,2.4-2.4,2.4H334c-1.3,0-2.4-1.1-2.4-2.4v-4.6v-36.8v-4.6c0-1.3,1.1-2.4,2.4-2.4
		h12.7c1.3,0,2.4,1.1,2.4,2.4v4.6H349z"/>
</g>
<g>
	<path class="st3" d="M349,116.7v36.8v4.6c0,1.3-1.1,2.4-2.4,2.4H334c-1.3,0-2.4-1.1-2.4-2.4v-4.6v-36.8v-4.6c0-1.3,1.1-2.4,2.4-2.4
		h12.7c1.3,0,2.4,1.1,2.4,2.4v4.6H349z"/>
</g>
<g>
	<rect x="321.8" y="342.7" class="st4" width="9.8" height="36.8"/>
</g>
<g>
	<rect x="321.8" y="116.7" class="st4" width="9.8" height="36.8"/>
</g>
<g>
	<path class="st3" d="M321.8,338.1v4.6v36.8v4.6c0,1.3-1.1,2.4-2.4,2.4h-12.7c-1.3,0-2.4-1.1-2.4-2.4v-4.6v-36.8v-4.6
		c0-1.3,1.1-2.4,2.4-2.4h12.7C320.7,335.7,321.8,336.8,321.8,338.1z"/>
</g>
<g>
	<path class="st3" d="M321.8,112.1v4.6v36.8v4.6c0,1.3-1.1,2.4-2.4,2.4h-12.7c-1.3,0-2.4-1.1-2.4-2.4v-4.6v-36.8v-4.6
		c0-1.3,1.1-2.4,2.4-2.4h12.7C320.7,109.7,321.8,110.8,321.8,112.1z"/>
</g>
<g>
	<rect x="296.2" y="342.7" class="st4" width="8.2" height="36.8"/>
</g>
<g>
	<rect x="296.2" y="116.7" class="st4" width="8.2" height="36.8"/>
</g>
<g>
	<path class="st3" d="M296.2,338.1v4.6v36.8v4.6c0,1.3-1.1,2.4-2.4,2.4h-45.9c-1.3,0-2.4-1.1-2.4-2.4v-4.6v-36.8v-4.6
		c0-1.3,1.1-2.4,2.4-2.4h45.9C295.1,335.7,296.2,336.8,296.2,338.1z"/>
</g>
<g>
	<path class="st3" d="M296.2,112.1v4.6v36.8v4.6c0,1.3-1.1,2.4-2.4,2.4h-45.9c-1.3,0-2.4-1.1-2.4-2.4v-4.6v-36.8v-4.6
		c0-1.3,1.1-2.4,2.4-2.4h45.9C295.1,109.7,296.2,110.8,296.2,112.1z"/>
</g>
<g>
	<path d="M245.4,342.7v36.8H88.5c-33,0-59.8-26.7-59.8-59.7V176.4c0-33,26.8-59.7,59.8-59.7h156.9v36.8h-153
		c-14,0-25.3,11.3-25.3,25.3v138.6c0,14,11.4,25.3,25.3,25.3H245.4z"/>
</g>
<g>
	<g>
		<path class="st5" d="M579.9,229.7l-66.4-87.6c-9.8-12.4-26.7-16.5-33.8-16.7c-7.1-0.2-31.6-0.1-31.6-0.1c-9.6-0.2-9.8,21,0,21.2
			s30.1,0.1,30.1,0.1c11.6,0.7,18.5,9.4,24.1,17.7s77.5,101.2,77.5,101.2L579.9,229.7L579.9,229.7z"/>
	</g>
</g>
<g class="st6">
	<g>
		<path class="st7" d="M454.2,129.8c-7,0-7.3,10.6,0,11s21.5,0,21.5,0c10.8,0,21.9,8.1,25.7,12.8c3.8,4.7,78.5,103.6,78.5,103.6V239
			l-73.5-95.6c-9-10-22.1-13.4-27.6-13.7C473.2,129.5,454.2,129.8,454.2,129.8z"/>
	</g>
</g>
<g>
	<g>
		<path class="st8" d="M565,274.3c3.2,4,3.3,9.7,0.1,13.7l-51.8,66c-9.8,12.4-26.7,16.5-33.8,16.7c-7.1,0.2-31.6,0.1-31.6,0.1
			c-9.6,0.2-9.8-21,0-21.2s30.1-0.1,30.1-0.1c11.6-0.7,18.5-9.4,24.1-17.7c4.3-6.3,32.4-42,46.3-59.9c3.7-4.7,10.8-4.8,14.5-0.1
			L565,274.3z"/>
	</g>
</g>
<g class="st9">
	<g>
		<path class="st7" d="M454.2,366.5c-7,0-7.3-10.6,0-11s21.5,0,21.5,0c10.8,0,21.9-8.1,25.7-12.8c3.2-4,40-51.9,50.9-66.2
			c1.6-2.1,4.7-2.4,6.7-0.5l0.4,0.4c1.9,1.8,2.1,4.8,0.5,6.9l-53.5,69.6c-9,10-22.1,13.4-27.6,13.7
			C473.2,366.8,454.2,366.5,454.2,366.5z"/>
	</g>
</g>
<g>
	<g>
		<rect x="245.4" y="116.7" class="st7" width="50.8" height="4.4"/>
	</g>
</g>
<g>
	<g>
		<rect x="245.4" y="131.1" class="st10" width="50.8" height="7.7"/>
	</g>
</g>
<g>
	<g>
		<rect x="245.4" y="149.5" class="st7" width="50.8" height="4.4"/>
	</g>
</g>
<g>
	<g>
		<rect x="245.4" y="144" class="st7" width="50.8" height="2.2"/>
	</g>
</g>
<g>
	<g>
		<rect x="245.4" y="123.7" class="st7" width="50.8" height="2.2"/>
	</g>
</g>
<g class="st11">
	<g>
		<g>
			<path d="M293.4,112.5v45.3h-45.3v-45.3H293.4L293.4,112.5z M293.8,109.7h-46c-1.3,0-2.4,1.1-2.4,2.4v46c0,1.3,1.1,2.4,2.4,2.4h46
				c1.3,0,2.4-1.1,2.4-2.4v-46C296.1,110.8,295.1,109.7,293.8,109.7L293.8,109.7z"/>
		</g>
	</g>
</g>
<g>
	<g>
		<rect x="384.5" y="116.5" class="st7" width="50.8" height="4.4"/>
	</g>
</g>
<g>
	<g>
		<rect x="384.5" y="130.9" class="st10" width="50.8" height="7.7"/>
	</g>
</g>
<g>
	<g>
		<rect x="384.5" y="149.4" class="st7" width="50.8" height="4.4"/>
	</g>
</g>
<g>
	<g>
		<rect x="384.5" y="143.8" class="st7" width="50.8" height="2.2"/>
	</g>
</g>
<g>
	<g>
		<rect x="384.5" y="123.5" class="st7" width="50.8" height="2.2"/>
	</g>
</g>
<g class="st11">
	<g>
		<g>
			<path d="M432.5,112.3v45.3h-45.3v-45.3H432.5L432.5,112.3z M432.8,109.6h-46c-1.3,0-2.4,1.1-2.4,2.4v46c0,1.3,1.1,2.4,2.4,2.4h46
				c1.3,0,2.4-1.1,2.4-2.4v-46C435.2,110.6,434.1,109.6,432.8,109.6L432.8,109.6z"/>
		</g>
	</g>
</g>
<g>
	<g>
		<rect x="245.4" y="342.6" class="st7" width="50.8" height="4.4"/>
	</g>
</g>
<g>
	<g>
		<rect x="245.4" y="357" class="st10" width="50.8" height="7.7"/>
	</g>
</g>
<g>
	<g>
		<rect x="245.4" y="375.5" class="st7" width="50.8" height="4.4"/>
	</g>
</g>
<g>
	<g>
		<rect x="245.4" y="369.9" class="st7" width="50.8" height="2.2"/>
	</g>
</g>
<g>
	<g>
		<rect x="245.4" y="349.7" class="st7" width="50.8" height="2.2"/>
	</g>
</g>
<g class="st11">
	<g>
		<g>
			<path d="M293.4,338.4v45.3h-45.3v-45.3H293.4L293.4,338.4z M293.8,335.7h-46c-1.3,0-2.4,1.1-2.4,2.4v46c0,1.3,1.1,2.4,2.4,2.4h46
				c1.3,0,2.4-1.1,2.4-2.4v-46C296.1,336.7,295.1,335.7,293.8,335.7L293.8,335.7z"/>
		</g>
	</g>
</g>
<g>
	<g>
		<g>
			<rect x="384.5" y="342.6" class="st7" width="50.8" height="4.4"/>
		</g>
	</g>
	<g>
		<g>
			<rect x="384.5" y="357" class="st10" width="50.8" height="7.7"/>
		</g>
	</g>
	<g>
		<g>
			<rect x="384.5" y="375.5" class="st7" width="50.8" height="4.4"/>
		</g>
	</g>
	<g>
		<g>
			<rect x="384.5" y="369.9" class="st7" width="50.8" height="2.2"/>
		</g>
	</g>
	<g>
		<g>
			<rect x="384.5" y="349.7" class="st7" width="50.8" height="2.2"/>
		</g>
	</g>
	<g class="st11">
		<g>
			<g>
				<path d="M432.5,338.4v45.3h-45.3v-45.3H432.5L432.5,338.4z M432.8,335.7h-46c-1.3,0-2.4,1.1-2.4,2.4v46c0,1.3,1.1,2.4,2.4,2.4
					h46c1.3,0,2.4-1.1,2.4-2.4v-46C435.2,336.7,434.1,335.7,432.8,335.7L432.8,335.7z"/>
			</g>
		</g>
	</g>
</g>
<g>
	<g>
		<g>
			<rect x="304.3" y="342.6" class="st7" width="17.5" height="4.4"/>
		</g>
	</g>
	<g>
		<g>
			<rect x="304.3" y="357" class="st10" width="17.5" height="7.7"/>
		</g>
	</g>
	<g>
		<g>
			<rect x="304.3" y="375.5" class="st7" width="17.5" height="4.4"/>
		</g>
	</g>
	<g>
		<g>
			<rect x="304.3" y="369.9" class="st7" width="17.5" height="2.2"/>
		</g>
	</g>
	<g>
		<g>
			<rect x="304.3" y="349.7" class="st7" width="17.5" height="2.2"/>
		</g>
	</g>
	<g class="st11">
		<g>
			<g>
				<path d="M319.1,338.4v45.3h-12v-45.3H319.1L319.1,338.4z M319.4,335.7h-12.7c-1.3,0-2.4,1.1-2.4,2.4v46c0,1.3,1.1,2.4,2.4,2.4
					h12.7c1.3,0,2.4-1.1,2.4-2.4v-46C321.8,336.7,320.7,335.7,319.4,335.7L319.4,335.7z"/>
			</g>
		</g>
	</g>
</g>
<g>
	<g>
		<g>
			<rect x="331.6" y="342.7" class="st7" width="17.5" height="4.4"/>
		</g>
	</g>
	<g>
		<g>
			<rect x="331.6" y="357.1" class="st10" width="17.5" height="7.7"/>
		</g>
	</g>
	<g>
		<g>
			<rect x="331.6" y="375.5" class="st7" width="17.5" height="4.4"/>
		</g>
	</g>
	<g>
		<g>
			<rect x="331.6" y="370" class="st7" width="17.5" height="2.2"/>
		</g>
	</g>
	<g>
		<g>
			<rect x="331.6" y="349.7" class="st7" width="17.5" height="2.2"/>
		</g>
	</g>
	<g class="st11">
		<g>
			<g>
				<path d="M346.3,338.4v45.3h-12v-45.3H346.3L346.3,338.4z M346.6,335.7h-12.7c-1.3,0-2.4,1.1-2.4,2.4v46c0,1.3,1.1,2.4,2.4,2.4
					h12.7c1.3,0,2.4-1.1,2.4-2.4v-46C349,336.8,348,335.7,346.6,335.7L346.6,335.7z"/>
			</g>
		</g>
	</g>
</g>
<g>
	<g>
		<g>
			<rect x="358.8" y="342.9" class="st7" width="17.5" height="4.4"/>
		</g>
	</g>
	<g>
		<g>
			<rect x="358.8" y="357.3" class="st10" width="17.5" height="7.7"/>
		</g>
	</g>
	<g>
		<g>
			<rect x="358.8" y="375.7" class="st7" width="17.5" height="4.4"/>
		</g>
	</g>
	<g>
		<g>
			<rect x="358.8" y="370.2" class="st7" width="17.5" height="2.2"/>
		</g>
	</g>
	<g>
		<g>
			<rect x="358.8" y="349.9" class="st7" width="17.5" height="2.2"/>
		</g>
	</g>
	<g class="st11">
		<g>
			<g>
				<path d="M373.5,338.6v45.3h-12v-45.3H373.5L373.5,338.6z M373.9,335.9h-12.7c-1.3,0-2.4,1.1-2.4,2.4v46c0,1.3,1.1,2.4,2.4,2.4
					h12.7c1.3,0,2.4-1.1,2.4-2.4v-46C376.3,337,375.2,335.9,373.9,335.9L373.9,335.9z"/>
			</g>
		</g>
	</g>
</g>
<g>
	<g>
		<g>
			<rect x="358.8" y="116.9" class="st7" width="17.5" height="4.4"/>
		</g>
	</g>
	<g>
		<g>
			<rect x="358.8" y="131.3" class="st10" width="17.5" height="7.7"/>
		</g>
	</g>
	<g>
		<g>
			<rect x="358.8" y="149.8" class="st7" width="17.5" height="4.4"/>
		</g>
	</g>
	<g>
		<g>
			<rect x="358.8" y="144.2" class="st7" width="17.5" height="2.2"/>
		</g>
	</g>
	<g>
		<g>
			<rect x="358.8" y="123.9" class="st7" width="17.5" height="2.2"/>
		</g>
	</g>
	<g class="st11">
		<g>
			<g>
				<path d="M373.5,112.7V158h-12v-45.3H373.5L373.5,112.7z M373.9,109.9h-12.7c-1.3,0-2.4,1.1-2.4,2.4v46c0,1.3,1.1,2.4,2.4,2.4
					h12.7c1.3,0,2.4-1.1,2.4-2.4v-46C376.3,111,375.2,109.9,373.9,109.9L373.9,109.9z"/>
			</g>
		</g>
	</g>
</g>
<g>
	<g>
		<g>
			<rect x="349" y="121.7" class="st3" width="9.8" height="3.2"/>
		</g>
	</g>
	<g>
		<g>
			<rect x="349" y="132.2" class="st12" width="9.8" height="5.6"/>
		</g>
	</g>
	<g>
		<g>
			<rect x="349" y="145.5" class="st3" width="9.8" height="3.2"/>
		</g>
	</g>
	<g>
		<g>
			<rect x="349" y="141.5" class="st3" width="9.8" height="1.6"/>
		</g>
	</g>
	<g>
		<g>
			<rect x="349" y="126.8" class="st3" width="9.8" height="1.6"/>
		</g>
	</g>
	<g class="st11">
		<g>
			<g>
				<path d="M356.1,119.4v31.3h-4.3v-31.3L356.1,119.4L356.1,119.4z M358.8,116.7H349v36.8h9.8V116.7L358.8,116.7z"/>
			</g>
		</g>
	</g>
</g>
<g>
	<g>
		<g>
			<rect x="321.8" y="121.7" class="st3" width="9.8" height="3.2"/>
		</g>
	</g>
	<g>
		<g>
			<rect x="321.8" y="132.2" class="st12" width="9.8" height="5.6"/>
		</g>
	</g>
	<g>
		<g>
			<rect x="321.8" y="145.5" class="st3" width="9.8" height="3.2"/>
		</g>
	</g>
	<g>
		<g>
			<rect x="321.8" y="141.5" class="st3" width="9.8" height="1.6"/>
		</g>
	</g>
	<g>
		<g>
			<rect x="321.8" y="126.8" class="st3" width="9.8" height="1.6"/>
		</g>
	</g>
	<g class="st11">
		<g>
			<g>
				<path d="M328.8,119.4v31.3h-4.3v-31.3L328.8,119.4L328.8,119.4z M331.6,116.7h-9.8v36.8h9.8V116.7L331.6,116.7z"/>
			</g>
		</g>
	</g>
</g>
<g>
	<g>
		<g>
			<rect x="296.1" y="121.7" class="st3" width="8.2" height="3.2"/>
		</g>
	</g>
	<g>
		<g>
			<rect x="296.1" y="132.2" class="st12" width="8.2" height="5.6"/>
		</g>
	</g>
	<g>
		<g>
			<rect x="296.1" y="145.5" class="st3" width="8.2" height="3.2"/>
		</g>
	</g>
	<g>
		<g>
			<rect x="296.1" y="141.5" class="st3" width="8.2" height="1.6"/>
		</g>
	</g>
	<g>
		<g>
			<rect x="296.1" y="126.8" class="st3" width="8.2" height="1.6"/>
		</g>
	</g>
	<g class="st11">
		<g>
			<g>
				<path d="M301.6,119.4v31.3h-2.7v-31.3L301.6,119.4L301.6,119.4z M304.3,116.7h-8.2v36.8h8.2V116.7L304.3,116.7z"/>
			</g>
		</g>
	</g>
</g>
<g>
	<g>
		<g>
			<rect x="376.3" y="121.8" class="st3" width="8.2" height="3.2"/>
		</g>
	</g>
	<g>
		<g>
			<rect x="376.3" y="132.2" class="st12" width="8.2" height="5.6"/>
		</g>
	</g>
	<g>
		<g>
			<rect x="376.3" y="145.6" class="st3" width="8.2" height="3.2"/>
		</g>
	</g>
	<g>
		<g>
			<rect x="376.3" y="141.6" class="st3" width="8.2" height="1.6"/>
		</g>
	</g>
	<g>
		<g>
			<rect x="376.3" y="126.9" class="st3" width="8.2" height="1.6"/>
		</g>
	</g>
	<g class="st11">
		<g>
			<g>
				<path d="M381.7,119.5v31.3H379v-31.3H381.7L381.7,119.5z M384.5,116.8h-8.2v36.8h8.2V116.8L384.5,116.8z"/>
			</g>
		</g>
	</g>
</g>
<g>
	<g>
		<g>
			<rect x="349" y="347.7" class="st3" width="9.8" height="3.2"/>
		</g>
	</g>
	<g>
		<g>
			<rect x="349" y="358.2" class="st12" width="9.8" height="5.6"/>
		</g>
	</g>
	<g>
		<g>
			<rect x="349" y="371.5" class="st3" width="9.8" height="3.2"/>
		</g>
	</g>
	<g>
		<g>
			<rect x="349" y="367.5" class="st3" width="9.8" height="1.6"/>
		</g>
	</g>
	<g>
		<g>
			<rect x="349" y="352.8" class="st3" width="9.8" height="1.6"/>
		</g>
	</g>
	<g class="st11">
		<g>
			<g>
				<path d="M356.1,345.4v31.3h-4.3v-31.3H356.1L356.1,345.4z M358.8,342.7H349v36.8h9.8V342.7L358.8,342.7z"/>
			</g>
		</g>
	</g>
</g>
<g>
	<g>
		<g>
			<rect x="321.8" y="347.7" class="st3" width="9.8" height="3.2"/>
		</g>
	</g>
	<g>
		<g>
			<rect x="321.8" y="358.2" class="st12" width="9.8" height="5.6"/>
		</g>
	</g>
	<g>
		<g>
			<rect x="321.8" y="371.5" class="st3" width="9.8" height="3.2"/>
		</g>
	</g>
	<g>
		<g>
			<rect x="321.8" y="367.5" class="st3" width="9.8" height="1.6"/>
		</g>
	</g>
	<g>
		<g>
			<rect x="321.8" y="352.8" class="st3" width="9.8" height="1.6"/>
		</g>
	</g>
	<g class="st11">
		<g>
			<g>
				<path d="M328.8,345.4v31.3h-4.3v-31.3H328.8L328.8,345.4z M331.6,342.7h-9.8v36.8h9.8V342.7L331.6,342.7z"/>
			</g>
		</g>
	</g>
</g>
<g>
	<g>
		<g>
			<rect x="296.1" y="347.7" class="st3" width="8.2" height="3.2"/>
		</g>
	</g>
	<g>
		<g>
			<rect x="296.1" y="358.2" class="st12" width="8.2" height="5.6"/>
		</g>
	</g>
	<g>
		<g>
			<rect x="296.1" y="371.5" class="st3" width="8.2" height="3.2"/>
		</g>
	</g>
	<g>
		<g>
			<rect x="296.1" y="367.5" class="st3" width="8.2" height="1.6"/>
		</g>
	</g>
	<g>
		<g>
			<rect x="296.1" y="352.8" class="st3" width="8.2" height="1.6"/>
		</g>
	</g>
	<g class="st11">
		<g>
			<g>
				<path d="M301.6,345.4v31.3h-2.7v-31.3H301.6L301.6,345.4z M304.3,342.7h-8.2v36.8h8.2V342.7L304.3,342.7z"/>
			</g>
		</g>
	</g>
</g>
<g>
	<g>
		<g>
			<rect x="376.3" y="347.8" class="st3" width="8.2" height="3.2"/>
		</g>
	</g>
	<g>
		<g>
			<rect x="376.3" y="358.2" class="st12" width="8.2" height="5.6"/>
		</g>
	</g>
	<g>
		<g>
			<rect x="376.3" y="371.6" class="st3" width="8.2" height="3.2"/>
		</g>
	</g>
	<g>
		<g>
			<rect x="376.3" y="367.6" class="st3" width="8.2" height="1.6"/>
		</g>
	</g>
	<g>
		<g>
			<rect x="376.3" y="352.9" class="st3" width="8.2" height="1.6"/>
		</g>
	</g>
	<g class="st11">
		<g>
			<g>
				<path d="M381.7,345.5v31.3H379v-31.3H381.7L381.7,345.5z M384.5,342.8h-8.2v36.8h8.2V342.8L384.5,342.8z"/>
			</g>
		</g>
	</g>
</g>
<g>
	<g>
		<g>
			<rect x="331.6" y="116.7" class="st7" width="17.5" height="4.4"/>
		</g>
	</g>
	<g>
		<g>
			<rect x="331.6" y="131.1" class="st10" width="17.5" height="7.7"/>
		</g>
	</g>
	<g>
		<g>
			<rect x="331.6" y="149.5" class="st7" width="17.5" height="4.4"/>
		</g>
	</g>
	<g>
		<g>
			<rect x="331.6" y="144" class="st7" width="17.5" height="2.2"/>
		</g>
	</g>
	<g>
		<g>
			<rect x="331.6" y="123.7" class="st7" width="17.5" height="2.2"/>
		</g>
	</g>
	<g class="st11">
		<g>
			<g>
				<path d="M346.3,112.5v45.3h-12v-45.3H346.3L346.3,112.5z M346.6,109.7h-12.7c-1.3,0-2.4,1.1-2.4,2.4v46c0,1.3,1.1,2.4,2.4,2.4
					h12.7c1.3,0,2.4-1.1,2.4-2.4v-46C349,110.8,348,109.7,346.6,109.7L346.6,109.7z"/>
			</g>
		</g>
	</g>
</g>
<g>
	<g>
		<g>
			<rect x="304.3" y="116.7" class="st7" width="17.5" height="4.4"/>
		</g>
	</g>
	<g>
		<g>
			<rect x="304.3" y="131.1" class="st10" width="17.5" height="7.7"/>
		</g>
	</g>
	<g>
		<g>
			<rect x="304.3" y="149.5" class="st7" width="17.5" height="4.4"/>
		</g>
	</g>
	<g>
		<g>
			<rect x="304.3" y="144" class="st7" width="17.5" height="2.2"/>
		</g>
	</g>
	<g>
		<g>
			<rect x="304.3" y="123.7" class="st7" width="17.5" height="2.2"/>
		</g>
	</g>
	<g class="st11">
		<g>
			<g>
				<path d="M319.1,112.5v45.3h-12v-45.3H319.1L319.1,112.5z M319.4,109.7h-12.7c-1.3,0-2.4,1.1-2.4,2.4v46c0,1.3,1.1,2.4,2.4,2.4
					h12.7c1.3,0,2.4-1.1,2.4-2.4v-46C321.8,110.8,320.7,109.7,319.4,109.7L319.4,109.7z"/>
			</g>
		</g>
	</g>
</g>
<g class="st13">
	<g>
		<path class="st7" d="M460.4,133.2c-5.1,0.1-5,5.3,0.2,5.4c5.2,0.1,18.6,0,18.6,0c8.3,1,17.3,4.4,26.6,16.6
			c9.3,12.2,74,96.9,74,96.9v-6.4l-73.3-97.4c-8.7-10.4-21.6-15.2-29.4-15.2C472.6,133.2,460.4,133.2,460.4,133.2z"/>
	</g>
</g>
<g class="st13">
	<g>
		<path class="st7" d="M459.6,364.1c-5.1-0.1-5-5.3,0.2-5.4s18.6,0,18.6,0c8.3-1,17.3-4.4,26.6-16.6c8.3-10.8,41.7-54,48.6-62.9
			c0.7-0.9,2.1-1.1,3.1-0.5l0.3,0.2c0.8,0.5,0.9,1.6,0.4,2.3l-51.6,67.7c-8.7,10.4-21.6,15.2-29.4,15.2
			C471.8,364.1,459.6,364.1,459.6,364.1z"/>
	</g>
</g>
<g class="st14">
	<g>
		<polygon points="552.8,252.4 576.6,284.4 579.9,279.9 556,248.1 		"/>
	</g>
</g>
<g>
	<g>
		<path class="st0" d="M593.5,234.5"/>
	</g>
</g>
<g>
	<g>
		<path class="st0" d="M579.9,342.6"/>
	</g>
</g>
<g>
	<path class="st1" d="M579.9,279.9v-63.7l13.6,18.2l10.2,13.6l21.1,28.1l42.2,56.2c4.6,6.2,12,10.3,20.4,10.3h37.2v36.8h-40
		c-19.8,0-37.3-9.6-48.1-24.4l0,0L579.9,279.9z"/>
</g>
<g>
	<path class="st2" d="M593.5,234.5l-13.6-18.2l56.4-75.1l0,0c10.9-14.8,28.4-24.4,48.2-24.4h40v36.8h-37.2c-8.5,0-16,4.1-20.5,10.5
		l-42,56l-21.1,28.1L593.5,234.5z"/>
</g>
<g>
	<path class="st3" d="M724.6,158.1v-4.6v-36.8v-4.6c0-1.3,1.1-2.4,2.4-2.4h45.9c1.3,0,2.4,1.1,2.4,2.4v4.6v36.8v4.6
		c0,1.3-1.1,2.4-2.4,2.4H727C725.6,160.5,724.6,159.5,724.6,158.1z"/>
</g>
<g>
	<path class="st3" d="M724.6,384.1v-4.6v-36.8v-4.6c0-1.3,1.1-2.4,2.4-2.4h45.9c1.3,0,2.4,1.1,2.4,2.4v4.6v36.8v4.6
		c0,1.3-1.1,2.4-2.4,2.4H727C725.6,386.5,724.6,385.4,724.6,384.1z"/>
</g>
<g>
	<rect x="775.3" y="116.8" class="st4" width="8.2" height="36.8"/>
</g>
<g>
	<rect x="775.3" y="342.8" class="st4" width="8.2" height="36.8"/>
</g>
<g>
	<path class="st3" d="M783.5,153.5v-36.8V112c0-1.3,1.1-2.4,2.4-2.4h12.6c1.3,0,2.4,1.1,2.4,2.4v4.8v36.8v4.4c0,1.3-1.1,2.4-2.4,2.4
		h-12.6c-1.3,0-2.4-1.1-2.4-2.4V153.5z"/>
</g>
<g>
	<path class="st3" d="M783.5,383.9v-4.3v-36.8V338c0-1.3,1.1-2.4,2.4-2.4h12.6c1.3,0,2.4,1.1,2.4,2.4v4.8v36.8v4.3
		c0,1.3-1.1,2.4-2.4,2.4h-12.6C784.6,386.3,783.5,385.2,783.5,383.9z"/>
</g>
<g>
	<rect x="801" y="116.8" class="st4" width="9.8" height="36.8"/>
</g>
<g>
	<rect x="801" y="342.8" class="st4" width="9.8" height="36.8"/>
</g>
<g>
	<path class="st3" d="M810.7,153.5v-36.8v-4.6c0-1.3,1.1-2.4,2.4-2.4h12.7c1.3,0,2.4,1.1,2.4,2.4v4.6v36.8v4.6
		c0,1.3-1.1,2.4-2.4,2.4h-12.7c-1.3,0-2.4-1.1-2.4-2.4V153.5z"/>
</g>
<g>
	<path class="st3" d="M810.7,384.1v-4.6v-36.8v-4.6c0-1.3,1.1-2.4,2.4-2.4h12.7c1.3,0,2.4,1.1,2.4,2.4v4.6v36.8v4.6
		c0,1.3-1.1,2.4-2.4,2.4h-12.7C811.8,386.5,810.7,385.4,810.7,384.1z"/>
</g>
<g>
	<rect x="828.2" y="116.8" class="st4" width="9.8" height="36.8"/>
</g>
<g>
	<rect x="828.2" y="342.8" class="st4" width="9.8" height="36.8"/>
</g>
<g>
	<path class="st3" d="M838,153.5v-36.8v-4.6c0-1.3,1.1-2.4,2.4-2.4H853c1.3,0,2.4,1.1,2.4,2.4v4.6v36.8v4.6c0,1.3-1.1,2.4-2.4,2.4
		h-12.7c-1.3,0-2.4-1.1-2.4-2.4v-4.6H838z"/>
</g>
<g>
	<path class="st3" d="M838,384.1v-4.6v-36.8v-4.6c0-1.3,1.1-2.4,2.4-2.4H853c1.3,0,2.4,1.1,2.4,2.4v4.6v36.8v4.6
		c0,1.3-1.1,2.4-2.4,2.4h-12.7C839.1,386.5,838,385.4,838,384.1z"/>
</g>
<g>
	<rect x="855.4" y="116.8" class="st4" width="8.2" height="36.8"/>
</g>
<g>
	<rect x="855.4" y="342.8" class="st4" width="8.2" height="36.8"/>
</g>
<g>
	<path class="st3" d="M863.6,153.5v-36.8v-4.6c0-1.3,1.1-2.4,2.4-2.4h46c1.3,0,2.4,1.1,2.4,2.4v4.6v36.8v4.6c0,1.3-1.1,2.4-2.4,2.4
		h-46c-1.3,0-2.4-1.1-2.4-2.4V153.5z"/>
</g>
<g>
	<path class="st3" d="M863.6,379.5v-36.8v-4.6c0-1.3,1.1-2.4,2.4-2.4h46c1.3,0,2.4,1.1,2.4,2.4v4.6v36.8v4.6c0,1.3-1.1,2.4-2.4,2.4
		h-46c-1.3,0-2.4-1.1-2.4-2.4V379.5z"/>
</g>
<g>
	<path d="M914.4,153.5v-36.8h156.9c33,0,59.8,26.7,59.8,59.7v143.3c0,33-26.8,59.7-59.8,59.7H914.4v-36.8h153
		c14,0,25.3-11.3,25.3-25.3V178.8c0-14-11.4-25.3-25.3-25.3H914.4z"/>
</g>
<g>
	<g>
		<path class="st5" d="M579.9,265.5l66.4,85.9c9.8,12.4,26.7,16.5,33.8,16.7s31.5,0.1,31.5,0.1c9.6,0.2,9.8-21,0-21.2
			s-30.1-0.1-30.1-0.1c-11.6-0.7-18.5-9.4-24.1-17.7c-5.6-8.3-77.5-100.3-77.5-100.3L579.9,265.5L579.9,265.5z"/>
	</g>
</g>
<g class="st6">
	<g>
		<path class="st7" d="M705.6,366.5c7,0,7.3-10.6,0-11s-21.5,0-21.5,0c-10.8,0-21.9-8.1-25.7-12.8C654.6,338,579.9,239,579.9,239
			v18.2l73.5,95.6c9,10,22.1,13.4,27.6,13.7C686.5,366.7,705.6,366.5,705.6,366.5z"/>
	</g>
</g>
<g>
	<g>
		<path class="st8" d="M594.7,221.9c-3.2-4-3.3-9.7-0.1-13.7l51.8-66c9.8-12.4,26.7-16.5,33.8-16.7s31.6-0.1,31.6-0.1
			c9.6-0.2,9.8,21,0,21.2c-9.8,0.2-30.1,0.1-30.1,0.1c-11.6,0.7-18.5,9.4-24.1,17.7c-4.3,6.3-32.4,42-46.3,59.9
			c-3.7,4.7-10.8,4.8-14.5,0.1L594.7,221.9z"/>
	</g>
</g>
<g class="st9">
	<g>
		<path class="st7" d="M705.6,129.7c7,0,7.3,10.6,0,11s-21.5,0-21.5,0c-10.8,0-21.9,8.1-25.7,12.8c-3.2,4-40,51.9-50.9,66.2
			c-1.6,2.1-4.7,2.4-6.7,0.5l-0.4-0.4c-1.9-1.8-2.1-4.8-0.5-6.9l53.5-69.6c9-10,22.1-13.4,27.6-13.7
			C686.6,129.5,705.6,129.7,705.6,129.7z"/>
	</g>
</g>
<g>
	<g>
		<rect x="863.6" y="375.2" class="st7" width="50.8" height="4.4"/>
	</g>
</g>
<g>
	<g>
		<rect x="863.6" y="357.4" class="st10" width="50.8" height="7.7"/>
	</g>
</g>
<g>
	<g>
		<rect x="863.6" y="342.3" class="st7" width="50.8" height="4.4"/>
	</g>
</g>
<g>
	<g>
		<rect x="863.6" y="350" class="st7" width="50.8" height="2.2"/>
	</g>
</g>
<g>
	<g>
		<rect x="863.6" y="370.3" class="st7" width="50.8" height="2.2"/>
	</g>
</g>
<g class="st11">
	<g>
		<g>
			<path d="M911.6,338.5v45.3h-45.3v-45.3H911.6L911.6,338.5z M912,335.7h-46c-1.3,0-2.4,1.1-2.4,2.4v46c0,1.3,1.1,2.4,2.4,2.4h46
				c1.3,0,2.4-1.1,2.4-2.4v-46C914.4,336.8,913.3,335.7,912,335.7L912,335.7z"/>
		</g>
	</g>
</g>
<g>
	<g>
		<rect x="724.5" y="375.3" class="st7" width="50.8" height="4.4"/>
	</g>
</g>
<g>
	<g>
		<rect x="724.5" y="357.6" class="st10" width="50.8" height="7.7"/>
	</g>
</g>
<g>
	<g>
		<rect x="724.5" y="342.5" class="st7" width="50.8" height="4.4"/>
	</g>
</g>
<g>
	<g>
		<rect x="724.5" y="350.2" class="st7" width="50.8" height="2.2"/>
	</g>
</g>
<g>
	<g>
		<rect x="724.5" y="370.5" class="st7" width="50.8" height="2.2"/>
	</g>
</g>
<g class="st11">
	<g>
		<g>
			<path d="M772.6,338.6v45.3h-45.3v-45.3H772.6L772.6,338.6z M772.9,335.9h-46c-1.3,0-2.4,1.1-2.4,2.4v46c0,1.3,1.1,2.4,2.4,2.4h46
				c1.3,0,2.4-1.1,2.4-2.4v-46C775.3,337,774.2,335.9,772.9,335.9L772.9,335.9z"/>
		</g>
	</g>
</g>
<g>
	<g>
		<rect x="863.6" y="149.2" class="st7" width="50.8" height="4.4"/>
	</g>
</g>
<g>
	<g>
		<rect x="863.6" y="131.5" class="st10" width="50.8" height="7.7"/>
	</g>
</g>
<g>
	<g>
		<rect x="863.6" y="116.3" class="st7" width="50.8" height="4.4"/>
	</g>
</g>
<g>
	<g>
		<rect x="863.6" y="124" class="st7" width="50.8" height="2.2"/>
	</g>
</g>
<g>
	<g>
		<rect x="863.6" y="144.3" class="st7" width="50.8" height="2.2"/>
	</g>
</g>
<g class="st11">
	<g>
		<g>
			<path d="M911.6,112.5v45.3h-45.3v-45.3H911.6L911.6,112.5z M912,109.8h-46c-1.3,0-2.4,1.1-2.4,2.4v46c0,1.3,1.1,2.4,2.4,2.4h46
				c1.3,0,2.4-1.1,2.4-2.4v-46C914.4,110.9,913.3,109.8,912,109.8L912,109.8z"/>
		</g>
	</g>
</g>
<g>
	<g>
		<g>
			<rect x="724.5" y="149.2" class="st7" width="50.8" height="4.4"/>
		</g>
	</g>
	<g>
		<g>
			<rect x="724.5" y="131.5" class="st10" width="50.8" height="7.7"/>
		</g>
	</g>
	<g>
		<g>
			<rect x="724.5" y="116.3" class="st7" width="50.8" height="4.4"/>
		</g>
	</g>
	<g>
		<g>
			<rect x="724.5" y="124" class="st7" width="50.8" height="2.2"/>
		</g>
	</g>
	<g>
		<g>
			<rect x="724.5" y="144.3" class="st7" width="50.8" height="2.2"/>
		</g>
	</g>
	<g class="st11">
		<g>
			<g>
				<path d="M772.6,112.5v45.3h-45.3v-45.3H772.6L772.6,112.5z M772.9,109.8h-46c-1.3,0-2.4,1.1-2.4,2.4v46c0,1.3,1.1,2.4,2.4,2.4
					h46c1.3,0,2.4-1.1,2.4-2.4v-46C775.3,110.9,774.2,109.8,772.9,109.8L772.9,109.8z"/>
			</g>
		</g>
	</g>
</g>
<g>
	<g>
		<g>
			<rect x="837.9" y="149.2" class="st7" width="17.5" height="4.4"/>
		</g>
	</g>
	<g>
		<g>
			<rect x="837.9" y="131.5" class="st10" width="17.5" height="7.7"/>
		</g>
	</g>
	<g>
		<g>
			<rect x="837.9" y="116.3" class="st7" width="17.5" height="4.4"/>
		</g>
	</g>
	<g>
		<g>
			<rect x="837.9" y="124" class="st7" width="17.5" height="2.2"/>
		</g>
	</g>
	<g>
		<g>
			<rect x="837.9" y="144.3" class="st7" width="17.5" height="2.2"/>
		</g>
	</g>
	<g class="st11">
		<g>
			<g>
				<path d="M852.7,112.5v45.3h-12v-45.3H852.7L852.7,112.5z M853.1,109.8h-12.7c-1.3,0-2.4,1.1-2.4,2.4v46c0,1.3,1.1,2.4,2.4,2.4
					h12.7c1.3,0,2.4-1.1,2.4-2.4v-46C855.4,110.9,854.4,109.8,853.1,109.8L853.1,109.8z"/>
			</g>
		</g>
	</g>
</g>
<g>
	<g>
		<g>
			<rect x="810.8" y="149.1" class="st7" width="17.5" height="4.4"/>
		</g>
	</g>
	<g>
		<g>
			<rect x="810.8" y="131.4" class="st10" width="17.5" height="7.7"/>
		</g>
	</g>
	<g>
		<g>
			<rect x="810.8" y="116.3" class="st7" width="17.5" height="4.4"/>
		</g>
	</g>
	<g>
		<g>
			<rect x="810.8" y="124" class="st7" width="17.5" height="2.2"/>
		</g>
	</g>
	<g>
		<g>
			<rect x="810.8" y="144.3" class="st7" width="17.5" height="2.2"/>
		</g>
	</g>
	<g class="st11">
		<g>
			<g>
				<path d="M825.5,112.5v45.3h-12v-45.3H825.5L825.5,112.5z M825.8,109.8h-12.7c-1.3,0-2.4,1.1-2.4,2.4v46c0,1.3,1.1,2.4,2.4,2.4
					h12.7c1.3,0,2.4-1.1,2.4-2.4v-46C828.2,110.8,827.1,109.8,825.8,109.8L825.8,109.8z"/>
			</g>
		</g>
	</g>
</g>
<g>
	<g>
		<g>
			<rect x="783.5" y="148.9" class="st7" width="17.5" height="4.4"/>
		</g>
	</g>
	<g>
		<g>
			<rect x="783.5" y="131.2" class="st10" width="17.5" height="7.7"/>
		</g>
	</g>
	<g>
		<g>
			<rect x="783.5" y="116.2" class="st7" width="17.5" height="4.4"/>
		</g>
	</g>
	<g>
		<g>
			<rect x="783.5" y="123.8" class="st7" width="17.5" height="2.2"/>
		</g>
	</g>
	<g>
		<g>
			<rect x="783.5" y="144.2" class="st7" width="17.5" height="2.2"/>
		</g>
	</g>
	<g class="st11">
		<g>
			<g>
				<path d="M798.3,112.3v45.3h-12v-45.3H798.3L798.3,112.3z M798.6,109.6h-12.7c-1.3,0-2.4,1.1-2.4,2.4v46c0,1.3,1.1,2.4,2.4,2.4
					h12.7c1.3,0,2.4-1.1,2.4-2.4v-46C801,110.6,799.9,109.6,798.6,109.6L798.6,109.6z"/>
			</g>
		</g>
	</g>
</g>
<g>
	<g>
		<g>
			<rect x="783.5" y="374.9" class="st7" width="17.5" height="4.4"/>
		</g>
	</g>
	<g>
		<g>
			<rect x="783.5" y="357.2" class="st10" width="17.5" height="7.7"/>
		</g>
	</g>
	<g>
		<g>
			<rect x="783.5" y="342.1" class="st7" width="17.5" height="4.4"/>
		</g>
	</g>
	<g>
		<g>
			<rect x="783.5" y="349.8" class="st7" width="17.5" height="2.2"/>
		</g>
	</g>
	<g>
		<g>
			<rect x="783.5" y="370.1" class="st7" width="17.5" height="2.2"/>
		</g>
	</g>
	<g class="st11">
		<g>
			<g>
				<path d="M798.3,338.2v45.3h-12v-45.3H798.3L798.3,338.2z M798.6,335.5h-12.7c-1.3,0-2.4,1.1-2.4,2.4v46c0,1.3,1.1,2.4,2.4,2.4
					h12.7c1.3,0,2.4-1.1,2.4-2.4v-46C801,336.6,799.9,335.5,798.6,335.5L798.6,335.5z"/>
			</g>
		</g>
	</g>
</g>
<g>
	<g>
		<g>
			<rect x="800.9" y="371.3" class="st3" width="9.8" height="3.2"/>
		</g>
	</g>
	<g>
		<g>
			<rect x="800.9" y="358.4" class="st12" width="9.8" height="5.6"/>
		</g>
	</g>
	<g>
		<g>
			<rect x="800.9" y="347.5" class="st3" width="9.8" height="3.2"/>
		</g>
	</g>
	<g>
		<g>
			<rect x="800.9" y="353.1" class="st3" width="9.8" height="1.6"/>
		</g>
	</g>
	<g>
		<g>
			<rect x="800.9" y="367.8" class="st3" width="9.8" height="1.6"/>
		</g>
	</g>
	<g class="st11">
		<g>
			<g>
				<path d="M808,345.5v31.3h-4.3v-31.3H808L808,345.5z M810.7,342.7H801v36.8h9.8L810.7,342.7L810.7,342.7z"/>
			</g>
		</g>
	</g>
</g>
<g>
	<g>
		<g>
			<rect x="828.2" y="371.3" class="st3" width="9.8" height="3.2"/>
		</g>
	</g>
	<g>
		<g>
			<rect x="828.2" y="358.4" class="st12" width="9.8" height="5.6"/>
		</g>
	</g>
	<g>
		<g>
			<rect x="828.2" y="347.5" class="st3" width="9.8" height="3.2"/>
		</g>
	</g>
	<g>
		<g>
			<rect x="828.2" y="353.1" class="st3" width="9.8" height="1.6"/>
		</g>
	</g>
	<g>
		<g>
			<rect x="828.2" y="367.8" class="st3" width="9.8" height="1.6"/>
		</g>
	</g>
	<g class="st11">
		<g>
			<g>
				<path d="M835.2,345.5v31.3h-4.3v-31.3H835.2L835.2,345.5z M838,342.7h-9.8v36.8h9.8V342.7L838,342.7z"/>
			</g>
		</g>
	</g>
</g>
<g>
	<g>
		<g>
			<rect x="855.5" y="371.3" class="st3" width="8.2" height="3.2"/>
		</g>
	</g>
	<g>
		<g>
			<rect x="855.5" y="358.4" class="st12" width="8.2" height="5.6"/>
		</g>
	</g>
	<g>
		<g>
			<rect x="855.5" y="347.5" class="st3" width="8.2" height="3.2"/>
		</g>
	</g>
	<g>
		<g>
			<rect x="855.5" y="353.1" class="st3" width="8.2" height="1.6"/>
		</g>
	</g>
	<g>
		<g>
			<rect x="855.5" y="367.8" class="st3" width="8.2" height="1.6"/>
		</g>
	</g>
	<g class="st11">
		<g>
			<g>
				<path d="M860.9,345.5v31.3h-2.7v-31.3H860.9L860.9,345.5z M863.6,342.7h-8.2v36.8h8.2V342.7L863.6,342.7z"/>
			</g>
		</g>
	</g>
</g>
<g>
	<g>
		<g>
			<rect x="775.3" y="371.3" class="st3" width="8.2" height="3.2"/>
		</g>
	</g>
	<g>
		<g>
			<rect x="775.3" y="358.4" class="st12" width="8.2" height="5.6"/>
		</g>
	</g>
	<g>
		<g>
			<rect x="775.3" y="347.5" class="st3" width="8.2" height="3.2"/>
		</g>
	</g>
	<g>
		<g>
			<rect x="775.3" y="353.1" class="st3" width="8.2" height="1.6"/>
		</g>
	</g>
	<g>
		<g>
			<rect x="775.3" y="367.8" class="st3" width="8.2" height="1.6"/>
		</g>
	</g>
	<g class="st11">
		<g>
			<g>
				<path d="M780.8,345.4v31.3H778v-31.3H780.8L780.8,345.4z M783.5,342.7h-8.2v36.8h8.2V342.7L783.5,342.7z"/>
			</g>
		</g>
	</g>
</g>
<g>
	<g>
		<g>
			<rect x="800.9" y="145.3" class="st3" width="9.8" height="3.2"/>
		</g>
	</g>
	<g>
		<g>
			<rect x="800.9" y="132.4" class="st12" width="9.8" height="5.6"/>
		</g>
	</g>
	<g>
		<g>
			<rect x="800.9" y="121.5" class="st3" width="9.8" height="3.2"/>
		</g>
	</g>
	<g>
		<g>
			<rect x="800.9" y="127.1" class="st3" width="9.8" height="1.6"/>
		</g>
	</g>
	<g>
		<g>
			<rect x="800.9" y="141.8" class="st3" width="9.8" height="1.6"/>
		</g>
	</g>
	<g class="st11">
		<g>
			<g>
				<path d="M808,119.5v31.3h-4.3v-31.3H808L808,119.5z M810.7,116.7H801v36.8h9.8L810.7,116.7L810.7,116.7z"/>
			</g>
		</g>
	</g>
</g>
<g>
	<g>
		<g>
			<rect x="828.2" y="145.3" class="st3" width="9.8" height="3.2"/>
		</g>
	</g>
	<g>
		<g>
			<rect x="828.2" y="132.4" class="st12" width="9.8" height="5.6"/>
		</g>
	</g>
	<g>
		<g>
			<rect x="828.2" y="121.5" class="st3" width="9.8" height="3.2"/>
		</g>
	</g>
	<g>
		<g>
			<rect x="828.2" y="127.1" class="st3" width="9.8" height="1.6"/>
		</g>
	</g>
	<g>
		<g>
			<rect x="828.2" y="141.8" class="st3" width="9.8" height="1.6"/>
		</g>
	</g>
	<g class="st11">
		<g>
			<g>
				<path d="M835.2,119.5v31.3h-4.3v-31.3H835.2L835.2,119.5z M838,116.7h-9.8v36.8h9.8V116.7L838,116.7z"/>
			</g>
		</g>
	</g>
</g>
<g>
	<g>
		<g>
			<rect x="855.5" y="145.3" class="st3" width="8.2" height="3.2"/>
		</g>
	</g>
	<g>
		<g>
			<rect x="855.5" y="132.4" class="st12" width="8.2" height="5.6"/>
		</g>
	</g>
	<g>
		<g>
			<rect x="855.5" y="121.5" class="st3" width="8.2" height="3.2"/>
		</g>
	</g>
	<g>
		<g>
			<rect x="855.5" y="127.1" class="st3" width="8.2" height="1.6"/>
		</g>
	</g>
	<g>
		<g>
			<rect x="855.5" y="141.8" class="st3" width="8.2" height="1.6"/>
		</g>
	</g>
	<g class="st11">
		<g>
			<g>
				<path d="M860.9,119.5v31.3h-2.7v-31.3H860.9L860.9,119.5z M863.6,116.7h-8.2v36.8h8.2V116.7L863.6,116.7z"/>
			</g>
		</g>
	</g>
</g>
<g>
	<g>
		<g>
			<rect x="775.3" y="145.3" class="st3" width="8.2" height="3.2"/>
		</g>
	</g>
	<g>
		<g>
			<rect x="775.3" y="132.4" class="st12" width="8.2" height="5.6"/>
		</g>
	</g>
	<g>
		<g>
			<rect x="775.3" y="121.5" class="st3" width="8.2" height="3.2"/>
		</g>
	</g>
	<g>
		<g>
			<rect x="775.3" y="127.1" class="st3" width="8.2" height="1.6"/>
		</g>
	</g>
	<g>
		<g>
			<rect x="775.3" y="141.7" class="st3" width="8.2" height="1.6"/>
		</g>
	</g>
	<g class="st11">
		<g>
			<g>
				<path d="M780.8,119.4v31.3H778v-31.3L780.8,119.4L780.8,119.4z M783.5,116.7h-8.2v36.8h8.2V116.7L783.5,116.7z"/>
			</g>
		</g>
	</g>
</g>
<g>
	<g>
		<g>
			<rect x="810.8" y="375.2" class="st7" width="17.5" height="4.4"/>
		</g>
	</g>
	<g>
		<g>
			<rect x="810.8" y="357.4" class="st10" width="17.5" height="7.7"/>
		</g>
	</g>
	<g>
		<g>
			<rect x="810.8" y="342.3" class="st7" width="17.5" height="4.4"/>
		</g>
	</g>
	<g>
		<g>
			<rect x="810.8" y="350" class="st7" width="17.5" height="2.2"/>
		</g>
	</g>
	<g>
		<g>
			<rect x="810.8" y="370.3" class="st7" width="17.5" height="2.2"/>
		</g>
	</g>
	<g class="st11">
		<g>
			<g>
				<path d="M825.5,338.5v45.3h-12v-45.3H825.5L825.5,338.5z M825.8,335.7h-12.7c-1.3,0-2.4,1.1-2.4,2.4v46c0,1.3,1.1,2.4,2.4,2.4
					h12.7c1.3,0,2.4-1.1,2.4-2.4v-46C828.2,336.8,827.1,335.7,825.8,335.7L825.8,335.7z"/>
			</g>
		</g>
	</g>
</g>
<g>
	<g>
		<g>
			<rect x="837.9" y="375.2" class="st7" width="17.5" height="4.4"/>
		</g>
	</g>
	<g>
		<g>
			<rect x="837.9" y="357.4" class="st10" width="17.5" height="7.7"/>
		</g>
	</g>
	<g>
		<g>
			<rect x="837.9" y="342.3" class="st7" width="17.5" height="4.4"/>
		</g>
	</g>
	<g>
		<g>
			<rect x="837.9" y="350" class="st7" width="17.5" height="2.2"/>
		</g>
	</g>
	<g>
		<g>
			<rect x="837.9" y="370.3" class="st7" width="17.5" height="2.2"/>
		</g>
	</g>
	<g class="st11">
		<g>
			<g>
				<path d="M852.7,338.5v45.3h-12v-45.3H852.7L852.7,338.5z M853.1,335.7h-12.7c-1.3,0-2.4,1.1-2.4,2.4v46c0,1.3,1.1,2.4,2.4,2.4
					h12.7c1.3,0,2.4-1.1,2.4-2.4v-46C855.4,336.8,854.4,335.7,853.1,335.7L853.1,335.7z"/>
			</g>
		</g>
	</g>
</g>
<g class="st13">
	<g>
		<path class="st7" d="M699.4,363.1c5.1-0.1,5-5.3-0.2-5.4s-18.6,0-18.6,0c-8.3-1-17.3-4.4-26.6-16.6s-74-95.3-74-95.3v6.4
			l73.3,95.7c8.7,10.4,21.6,15.2,29.4,15.2C687.1,363,699.4,363.1,699.4,363.1z"/>
	</g>
</g>
<g class="st13">
	<g>
		<path class="st7" d="M700.2,132.1c5.1,0.1,5,5.3-0.2,5.4c-5.2,0.1-18.6,0-18.6,0c-8.3,1-17.3,4.4-26.6,16.6
			c-8.3,10.8-41.7,54-48.6,62.9c-0.7,0.9-2.1,1.1-3.1,0.5l-0.3-0.2c-0.8-0.5-0.9-1.6-0.4-2.3l51.6-67.7
			c8.7-10.4,21.6-15.2,29.4-15.2C688,132.1,700.2,132.1,700.2,132.1z"/>
	</g>
</g>
<g class="st14">
	<g>
		<polygon points="607,243.8 583.2,211.8 579.9,216.3 603.7,248.1 		"/>
	</g>
</g>
<g>
	<g>
		<path class="st7" d="M680.1,210.3c6,0,22.5,0.4,22.5,15.9c0,10.4-8.2,16.1-16.8,16.6v1c7.4,0.3,19.2,3.8,19.2,17.9
			c0,14.6-9.4,19.1-23.7,19.1h-32.1v-4.4h3.7c2.8,0,4.6-0.7,4.6-4.4v-53c0-3.6-1.8-4.4-4.6-4.4h-3.7v-4.4L680.1,210.3L680.1,210.3z
			 M675.4,241.2c7.5,0,12-3.4,12-13.4c0-5.5-1.2-13.3-10.5-13.3h-1.2c-1.1,0-3.3,0.3-3.3,4.5v22.2H675.4z M672.4,273.4
			c0,2.9,1.6,3.1,2.5,3.1h2c5.3,0,11.3-1.1,11.3-15.4c0-6.9-0.5-15.4-12.8-15.4h-3V273.4z"/>
		<path class="st7" d="M681.3,281.1h-32.5v-5h4.1c2.7,0,4.2-0.7,4.2-4V219c0-3.4-1.5-4-4.2-4h-4.1v-5h31.3
			c15.2,0,22.8,5.5,22.8,16.2c0,10.8-8.6,16.3-16.8,16.9v0.4c2.8,0.2,7.9,0.9,12.2,3.8c4.6,3.2,7,8.1,7,14.4
			C705.4,274.9,697.7,281.1,681.3,281.1z M649.5,280.4h31.8c16.2,0,23.4-5.8,23.4-18.7c0-15.6-14.4-17.4-18.9-17.6h-0.3v-1.7h0.3
			c7.9-0.5,16.5-5.8,16.5-16.2c0-10.3-7.5-15.5-22.2-15.5h-30.7v3.7h3.4c2.9,0,4.9,0.8,4.9,4.7v53.1c0,3.9-2,4.7-4.9,4.7h-3.4v3.5
			H649.5z M676.8,276.9h-2c-1.9,0-2.8-1.1-2.8-3.5v-28.1h3.3c13.1,0,13.1,9.9,13.1,15.8C688.5,275,682.9,276.9,676.8,276.9z
			 M672.7,246v27.4c0,2.4,1.1,2.8,2.1,2.8h2c5.3,0,11-1.2,11-15.1c0-7.6-1-15.1-12.4-15.1L672.7,246L672.7,246z M675.4,241.5H672
			V219c0-3.2,1.2-4.8,3.7-4.8h1.2c7.2,0,10.8,4.6,10.8,13.6C687.7,237.2,683.8,241.5,675.4,241.5z M672.7,240.8h2.7
			c8.1,0,11.7-4,11.7-13c0-8.7-3.3-12.9-10.1-12.9h-1.2c-0.7,0-3,0-3,4.1v21.8L672.7,240.8L672.7,240.8z"/>
	</g>
	<g>
		<path class="st7" d="M737.1,225.1c14.6,0,17.8,8.1,17.8,13.8c0,2.5-1.4,11.7-14.6,13.2v0.6c4.3,0.4,8.3,3.4,9.6,10.6
			c0.8,4.7,0.4,11.9,3.4,11.9c1.4,0,3-2.6,3.2-8.5h3.9c0,5-2.9,15.7-11.5,15.7c-9.2,0-10.5-9.6-11.3-18.7c-0.8-8.6-3.1-9.6-6-9.6
			h-2.5v19.7c0,2.9,1.1,3.4,3.2,3.4h2.4v3.4h-24v-3.4h2.9c2.2,0,3.6-0.6,3.6-3.4V232c0-2.9-1.4-3.4-3.6-3.4h-2.9v-3.4h26.4
			L737.1,225.1L737.1,225.1z M733.4,250.3c4.2,0,8.6-1.4,8.6-11.5c0-7.6-2.5-10.2-8.3-10.2h-1.5c-1.2,0-3,0.5-3,4.1v17.7h4.2V250.3z
			"/>
		<path class="st7" d="M749,282.7c-9.9,0-10.9-11-11.6-19c-0.8-8.6-3-9.3-5.6-9.3h-2.1v19.4c0,2.6,0.9,3.1,2.9,3.1h2.7v4.1h-24.7v-4
			h3.3c2.1,0,3.3-0.5,3.3-3.1V232c0-2.6-1.1-3.1-3.3-3.1h-3.3v-4.1h26.6c6.6,0,11.5,1.6,14.6,4.9c3.1,3.2,3.6,7.2,3.6,9.3
			c0,1.2-0.4,11.7-14.4,13.5c4.9,0.7,8.4,4.6,9.4,10.9c0.2,1.3,0.4,2.7,0.5,4.1c0.3,3.7,0.7,7.5,2.5,7.5c1,0,2.7-2.2,2.9-8.2v-0.3
			h4.6v0.3C760.8,271.7,757.8,282.7,749,282.7z M728.9,253.8h2.8c3.4,0,5.5,1.6,6.3,9.9c0.9,9.7,2.4,18.4,11,18.4
			c8.1,0,11-10.1,11.1-15h-3.3c-0.2,5.9-1.9,8.5-3.5,8.5c-2.5,0-2.8-3.9-3.2-8.1c-0.1-1.4-0.3-2.8-0.5-4.1c-1-6.1-4.4-9.9-9.3-10.4
			H740v-1.2h0.3c13.9-1.6,14.3-11.7,14.3-12.8c0-4.1-1.7-13.5-17.5-13.5h-25.9v2.8h2.6c2,0,3.9,0.5,3.9,3.8V274
			c0,3.3-1.9,3.8-3.9,3.8h-2.6v2.8h23.3v-2.8h-2c-2.2,0-3.5-0.6-3.5-3.8L728.9,253.8L728.9,253.8z M733.4,250.7h-4.5v-18
			c0-3.7,1.8-4.4,3.4-4.4h1.5c6.2,0,8.6,3,8.6,10.6C742.4,249.3,737.6,250.7,733.4,250.7z M729.6,250h3.8c4.1,0,8.3-1.3,8.3-11.2
			c0-7.2-2.1-9.9-7.9-9.9h-1.5c-1.8,0-2.7,1.2-2.7,3.8L729.6,250L729.6,250z"/>
	</g>
	<g>
		<path class="st7" d="M789.1,223.4c16.5,0,22.9,15.1,22.9,29.5c0,14.3-6.5,29.5-22.9,29.5s-22.9-15.1-22.9-29.5
			C766.2,238.6,772.7,223.4,789.1,223.4z M789.1,279.1c8.1,0,9.4-13.4,9.4-26.1c0-12.7-1.4-26.2-9.4-26.2s-9.4,13.5-9.4,26.2
			C779.7,265.6,780.9,279.1,789.1,279.1z"/>
		<path class="st7" d="M789.1,282.7c-7.6,0-13.8-3.3-17.9-9.5c-3.5-5.2-5.4-12.5-5.4-20.3s1.9-15.1,5.4-20.3
			c4.1-6.3,10.3-9.6,17.9-9.6c17.2,0,23.3,16.1,23.3,29.9c0,7.8-1.9,15-5.4,20.3C802.9,279.5,796.7,282.7,789.1,282.7z M789.1,223.7
			c-10.4,0-22.6,7.6-22.6,29.2c0,13.4,5.9,29.1,22.6,29.1c16.7,0,22.6-15.7,22.6-29.1C811.7,239.5,805.8,223.7,789.1,223.7z
			 M789.1,279.4c-8.6,0-9.8-14.1-9.8-26.5c0-11.4,1-26.5,9.8-26.5c8.7,0,9.8,15.1,9.8,26.5C798.9,265.3,797.7,279.4,789.1,279.4z
			 M789.1,227.1c-8.1,0-9.1,14.8-9.1,25.9c0,12,1,25.8,9.1,25.8s9.1-14.7,9.1-25.8C798.2,241.8,797.2,227.1,789.1,227.1z"/>
	</g>
	<g>
		<path class="st7" d="M861.9,225.1v21.2h-3.4c-0.7-14.6-8.1-17.8-11-17.8h-1.4v45.4c0,2.9,1.4,3.4,3.4,3.4h2.8v3.4H828v-3.4h2.7
			c2.1,0,3.5-0.6,3.5-3.4v-45.4h-1.4c-2.9,0-10.2,3.3-11,17.8h-3.4v-21.2H861.9z"/>
		<path class="st7" d="M852.6,281.1h-25V277h3c2,0,3.2-0.5,3.2-3.1v-45.1h-1c-2.7,0-9.9,3.1-10.7,17.5v0.3H818v-21.9h44.3v21.9h-4.1
			v-0.3c-0.7-14.4-8-17.5-10.7-17.5h-1v45.1c0,2.6,1.1,3.1,3.1,3.1h3.1L852.6,281.1L852.6,281.1z M828.3,280.4h23.6v-2.8h-2.4
			c-1.9,0-3.8-0.4-3.8-3.8V228h1.7c2.9,0,10.5,3.2,11.4,17.8h2.8v-20.5h-42.9V246h2.8c0.9-14.6,8.5-17.8,11.4-17.8h1.7V274
			c0,3.3-1.9,3.8-3.9,3.8h-2.4L828.3,280.4L828.3,280.4z"/>
	</g>
	<g>
		<path class="st7" d="M902.6,248.4V232c0-2.9-1.4-3.4-3.4-3.4H897v-3.4h24v3.4h-3.1c-2.1,0-3.4,0.6-3.4,3.4v41.9
			c0,2.9,1.3,3.4,3.4,3.4h3.1v3.4h-24v-3.4h2.2c2,0,3.4-0.6,3.4-3.4V252h-15.7v21.9c0,2.9,1.3,3.4,3.4,3.4h2.1v3.4h-23.9v-3.4h3.1
			c2.1,0,3.4-0.6,3.4-3.4V232c0-2.9-1.3-3.4-3.4-3.4h-3.1v-3.4h23.9v3.4h-2.1c-2,0-3.4,0.6-3.4,3.4v16.4H902.6z"/>
		<path class="st7" d="M921.4,281.1h-24.7V277h2.6c2,0,3.1-0.5,3.1-3.1v-21.6h-15v21.6c0,2.6,1.1,3.1,3,3.1h2.5v4.1h-24.6V277h3.5
			c2,0,3.1-0.5,3.1-3.1V232c0-2.6-1.1-3.1-3.1-3.1h-3.5v-4.1h24.6v4.1h-2.5c-2,0-3,0.5-3,3.1v16h15v-16c0-2.6-1.1-3.1-3.1-3.1h-2.6
			v-4.1h24.7v4.1h-3.5c-2,0-3.1,0.5-3.1,3.1v41.9c0,2.6,1.1,3.1,3.1,3.1h3.5V281.1z M897.3,280.4h23.4v-2.8h-2.8
			c-2,0-3.8-0.5-3.8-3.8V232c0-3.3,1.8-3.8,3.8-3.8h2.8v-2.8h-23.4v2.8h1.9c1.9,0,3.8,0.4,3.8,3.8v16.7h-16.4V232
			c0-3.3,1.8-3.8,3.7-3.8h1.8v-2.8h-23.2v2.8h2.8c2,0,3.8,0.5,3.8,3.8v41.9c0,3.3-1.8,3.8-3.8,3.8h-2.8v2.8h23.2v-2.8h-1.8
			c-1.9,0-3.7-0.5-3.7-3.8v-22.3H903v22.3c0,3.3-1.9,3.8-3.8,3.8h-1.9V280.4z"/>
	</g>
	<g>
		<path class="st7" d="M966,244.3c-0.2-5.9-2-15.8-11.7-15.8h-5.4c-0.8,0-2,0.6-2,2.9v17.9h2.9c5.7,0,5.9-5.3,5.9-7.5v-1.6h3.4v21.7
			h-3.4v-1.1c0-5.9-2.1-8-6.5-8h-2.3v21.7c0,1.7,0,2.9,4.1,2.9h1.9c4.9,0,14.1-1.3,14.1-17.1h3.4v20.5h-41.8v-3.4h2.9
			c2.4,0,3.6-0.6,3.6-3.4v-42c0-2.9-1.3-3.4-3.6-3.4h-2.9v-3.4h40.8v19.2H966V244.3z"/>
		<path class="st7" d="M970.7,281.1h-42.5V277h3.3c2.2,0,3.3-0.5,3.3-3.1V232c0-2.6-1.1-3.1-3.3-3.1h-3.3v-4.1h41.5v19.8h-4v-0.3
			c-0.1-4.6-1.5-15.5-11.4-15.5h-5.4c-0.5,0-1.6,0.3-1.6,2.6V249h2.5c5,0,5.6-4.1,5.6-7.2v-1.9h4v22.4h-4v-1.5
			c0-5.5-1.8-7.7-6.1-7.7h-2v21.4c0,1.7,0,2.6,3.8,2.6h1.9c9.1,0,13.7-5.6,13.7-16.8V260h4V281.1z M928.8,280.4H970v-19.8h-2.7
			c-0.1,11.4-4.9,17.1-14.4,17.1H951c-4.1,0-4.4-1.2-4.4-3.3v-22h2.6c4.8,0,6.8,2.5,6.8,8.4v0.8h2.7v-21H956v1.2
			c0,5.2-2.1,7.9-6.2,7.9h-3.2v-18.3c0-2.4,1.2-3.3,2.3-3.3h5.4c10.2,0,11.8,10.8,12,15.8h2.7v-18.5h-40.2v2.8h2.6
			c2.4,0,3.9,0.6,3.9,3.8v41.9c0,3.1-1.5,3.8-3.9,3.8h-2.6V280.4z"/>
	</g>
	<g>
		<path class="st7" d="M1005,225.1c14.6,0,17.8,8.1,17.8,13.8c0,2.5-1.4,11.7-14.6,13.2v0.6c4.3,0.4,8.3,3.4,9.6,10.6
			c0.8,4.7,0.4,11.9,3.4,11.9c1.4,0,3-2.6,3.2-8.5h3.9c0,5-2.9,15.7-11.5,15.7c-9.2,0-10.5-9.6-11.3-18.7c-0.8-8.6-3.1-9.6-6-9.6
			H997v19.7c0,2.9,1.1,3.4,3.2,3.4h2.4v3.4h-24v-3.4h2.9c2.2,0,3.6-0.6,3.6-3.4V232c0-2.9-1.4-3.4-3.6-3.4h-2.9v-3.4h26.4
			L1005,225.1L1005,225.1z M1001.3,250.3c4.2,0,8.6-1.4,8.6-11.5c0-7.6-2.5-10.2-8.3-10.2h-1.5c-1.2,0-3,0.5-3,4.1v17.7h4.2V250.3z"
			/>
		<path class="st7" d="M1016.9,282.7c-9.9,0-10.9-11-11.6-19c-0.8-8.6-3-9.3-5.6-9.3h-2.1v19.4c0,2.6,0.9,3.1,2.9,3.1h2.7v4.1h-24.7
			v-4h3.3c2.1,0,3.3-0.5,3.3-3.1V232c0-2.6-1.1-3.1-3.3-3.1h-3.3v-4.1h26.6c6.6,0,11.5,1.6,14.6,4.9c3.1,3.2,3.6,7.2,3.6,9.3
			c0,1.2-0.4,11.7-14.4,13.5c4.9,0.7,8.4,4.6,9.4,10.9c0.2,1.3,0.4,2.7,0.5,4.1c0.3,3.7,0.7,7.5,2.5,7.5c1,0,2.7-2.2,2.9-8.2v-0.3
			h4.6v0.3C1028.7,271.7,1025.7,282.7,1016.9,282.7z M996.8,253.8h2.8c3.4,0,5.5,1.6,6.3,9.9c0.9,9.7,2.4,18.4,11,18.4
			c8.1,0,11-10.1,11.1-15h-3.3c-0.2,5.9-1.9,8.5-3.5,8.5c-2.5,0-2.8-3.9-3.2-8.1c-0.1-1.4-0.3-2.8-0.5-4.1c-1-6.1-4.4-9.9-9.3-10.4
			h-0.3v-1.2h0.3c13.9-1.6,14.3-11.7,14.3-12.8c0-4.1-1.7-13.5-17.5-13.5h-25.9v2.8h2.6c2,0,3.9,0.5,3.9,3.8V274
			c0,3.3-1.9,3.8-3.9,3.8h-2.6v2.8h23.3v-2.8h-2c-2.2,0-3.5-0.6-3.5-3.8L996.8,253.8L996.8,253.8z M1001.3,250.7h-4.5v-18
			c0-3.7,1.8-4.4,3.4-4.4h1.5c6.2,0,8.6,3,8.6,10.6C1010.3,249.3,1005.5,250.7,1001.3,250.7z M997.5,250h3.8c4.1,0,8.3-1.3,8.3-11.2
			c0-7.2-2.1-9.9-7.9-9.9h-1.5c-1.8,0-2.7,1.2-2.7,3.8L997.5,250L997.5,250z"/>
	</g>
	<g>
		<path class="st7" d="M1071.2,223.8v19.3h-4.1c-0.9-6.7-3.8-15.6-12.4-15.6c-4.6,0-9,2.9-9,8.6c0,7.6,8.3,8.8,13.3,10.6
			c8,2.8,15.1,6.5,15.1,17.1c0,9.7-5.6,18.5-16.5,18.5c-4.8,0-9.6-1.4-14.1-5.5l-2.9,3.8h-3.5v-20.3h4.2c3.5,16,10.6,17.7,16.5,17.7
			c4.7,0,8.8-3.3,8.8-8.3c0-6.3-7-9.1-12.8-11c-6.3-2-15.6-4.9-15.6-18.3c0-10.1,6.9-17.1,16.8-17.1c5.6,0,9.2,2.3,11.1,3.9l1.5-3.5
			L1071.2,223.8L1071.2,223.8z"/>
		<path class="st7" d="M1057.7,282.7c-5.4,0-10-1.7-14-5.3l-2.7,3.7h-4v-21h4.8l0.1,0.3c3.4,15.3,9.8,17.4,16.2,17.4
			c4.8,0,8.4-3.4,8.4-8c0-6-6.5-8.7-12.6-10.7l-0.2-0.1c-6.2-2-15.6-5.1-15.6-18.5c0-10.3,7-17.4,17.1-17.4c4.2,0,7.9,1.3,11,3.7
			l1.4-3.3h4.2v20h-4.7v-0.3c-0.9-7-3.8-15.3-12-15.3c-4.2,0-8.7,2.6-8.7,8.3c0,6.2,5.9,8,10.6,9.5c0.9,0.3,1.7,0.5,2.5,0.8
			c7.4,2.6,15.4,6.3,15.4,17.4C1074.5,273.3,1069.3,282.7,1057.7,282.7z M1043.5,276.4l0.3,0.3c4,3.6,8.5,5.4,13.9,5.4
			c11.2,0,16.2-9.1,16.2-18.2c0-10.7-7.4-14.2-14.9-16.8c-0.8-0.3-1.6-0.5-2.5-0.8c-4.9-1.5-11.1-3.5-11.1-10.2
			c0-6.1,4.8-8.9,9.3-8.9c3.9,0,10.8,2,12.7,15.6h3.5v-18.6h-3l-1.6,3.7l-0.4-0.3c-3.1-2.6-6.7-3.9-10.9-3.9
			c-9.7,0-16.4,6.9-16.4,16.8c0,12.9,8.8,15.8,15.2,17.9l0.2,0.1c4.6,1.5,13.1,4.4,13.1,11.4c0,5-3.9,8.7-9.1,8.7
			c-6.4,0-13.3-2.1-16.8-17.7h-3.6v19.6h3L1043.5,276.4z"/>
	</g>
</g>
<g>
	<g>
		<path class="st7" d="M170.4,199.9v27.7h-5.9c-1.3-9.6-5.4-22.3-17.7-22.3c-6.6,0-12.9,4.1-12.9,12.3c0,10.9,12,12.7,19.1,15.3
			c11.5,4,21.7,9.3,21.7,24.5c0,14-8,26.5-23.7,26.5c-6.9,0-13.7-2-20.2-7.9l-4.1,5.5h-5v-29.1h6c5,23,15.1,25.3,23.7,25.3
			c6.7,0,12.6-4.7,12.6-12c0-9-10-13-18.4-15.8c-9-2.9-22.4-7-22.4-26.2c0-14.5,9.9-24.5,24.1-24.5c8,0,13.1,3.3,16,5.6l2.1-5h5
			L170.4,199.9L170.4,199.9z"/>
		<path class="st7" d="M151,284.3c-7.7,0-14.3-2.5-20.1-7.7l-4,5.3h-5.6v-29.8h6.6l0.1,0.3c4.8,22,14.1,25.1,23.4,25.1
			c7,0,12.2-5,12.2-11.6c0-8.3-8.7-12.4-18.2-15.5l-0.3-0.1c-8.9-2.9-22.3-7.2-22.3-26.4c0-14.6,10-24.9,24.4-24.9
			c6,0,11.3,1.8,15.8,5.4l2-4.8h5.7V228h-6.5v-0.3c-2.4-18.2-10.8-22-17.4-22c-6.1,0-12.6,3.7-12.6,12c0,9,8.5,11.6,15.3,13.8
			c1.3,0.4,2.5,0.8,3.6,1.2c10.6,3.7,21.9,8.9,21.9,24.8c0,7.3-2.1,13.9-6,18.7C164.7,281.5,158.5,284.3,151,284.3z M130.8,275.6
			l0.3,0.3c5.8,5.2,12.3,7.8,19.9,7.8c16.1,0,23.4-13.1,23.4-26.2c0-15.5-10.6-20.4-21.5-24.2c-1.1-0.4-2.3-0.8-3.5-1.2
			c-7-2.2-15.8-4.9-15.8-14.4c0-8.7,6.9-12.7,13.2-12.7c12.9,0,16.8,13.8,18,22.3h5.2v-27h-4.6l-2.2,5.3l-0.4-0.3
			c-4.4-3.7-9.7-5.6-15.7-5.6c-14,0-23.7,9.9-23.7,24.2c0,18.7,12.6,22.7,21.9,25.7l0.3,0.1c6.5,2.2,18.7,6.2,18.7,16.2
			c0,7-5.5,12.3-12.9,12.3c-9.1,0-19-3-24-25.3H122v28.4h4.5L130.8,275.6z"/>
	</g>
	<g>
		<path class="st7" d="M227.9,262.7c-1.8,9.3-7.4,20.7-20.1,20.7c-17.5,0-25.8-16.3-25.8-33.1c0-18.4,10.3-31.9,24.3-31.9
			c5.8,0,9.4,1.7,12.9,5.6l2.2-3.7h4.1l0.5,23.1h-4.6c-3.1-15.7-7.9-20.4-13.3-20.4c-6.5,0-11.1,7.2-11.1,27.3
			c0,17,3.3,27.8,13,27.8c7.8,0,11.6-7,13.3-15.5L227.9,262.7L227.9,262.7z"/>
		<path class="st7" d="M207.8,283.7c-8.2,0-15-3.6-19.7-10.4c-4.1-6-6.4-14.1-6.4-23c0-18.7,10.4-32.2,24.7-32.2
			c5.5,0,9.2,1.6,12.8,5.4l2-3.5h4.6l0.5,23.7H221l-0.1-0.3c-2.6-13.5-6.9-20.1-13-20.1c-7.1,0-10.7,9.1-10.7,26.9
			c0,18.8,4,27.5,12.6,27.5c6.6,0,11-5.1,13-15.2l0.1-0.3h5.4l-0.1,0.4C227.2,267.7,222.9,283.7,207.8,283.7z M206.3,218.8
			c-13.9,0-24,13.3-24,31.5c0,22.6,12.8,32.7,25.4,32.7c4.7,0,16-2,19.7-20h-4c-2.1,10.3-6.7,15.5-13.6,15.5
			c-11.9,0-13.3-16.1-13.3-28.2c0-18.3,3.8-27.6,11.4-27.6c6.5,0,10.9,6.5,13.6,20.4h4l-0.4-22.4h-3.5l-2.3,3.9l-0.3-0.3
			C215.4,220.4,211.8,218.8,206.3,218.8z"/>
	</g>
	<g>
		<path class="st7" d="M272.8,245.9v-18c0-3.2-1.5-3.8-3.8-3.8h-2.4v-3.8H293v3.8h-3.4c-2.3,0-3.8,0.6-3.8,3.8V274
			c0,3.1,1.4,3.8,3.8,3.8h3.4v3.8h-26.5v-3.8h2.4c2.3,0,3.8-0.6,3.8-3.8v-24.1h-17.3V274c0,3.1,1.4,3.8,3.7,3.8h2.3v3.8h-26.3v-3.8
			h3.4c2.3,0,3.8-0.6,3.8-3.8v-46.1c0-3.2-1.4-3.8-3.8-3.8h-3.4v-3.8h26.3v3.8h-2.3c-2.3,0-3.7,0.6-3.7,3.8v18H272.8z"/>
		<path class="st7" d="M293.4,281.9h-27.2v-4.5h2.8c2.2,0,3.4-0.6,3.4-3.4v-23.8h-16.6V274c0,2.9,1.2,3.4,3.4,3.4h2.7v4.5h-27v-4.5
			h3.8c2.2,0,3.4-0.5,3.4-3.4v-46.1c0-2.9-1.2-3.4-3.4-3.4h-3.8V220h27v4.5h-2.7c-2.2,0-3.4,0.5-3.4,3.4v17.7h16.6v-17.7
			c0-2.9-1.3-3.4-3.4-3.4h-2.8V220h27.2v4.5h-3.8c-2.2,0-3.4,0.5-3.4,3.4V274c0,2.9,1.2,3.4,3.4,3.4h3.8V281.9z M266.9,281.3h25.8
			v-3.1h-3.1c-2.1,0-4.1-0.5-4.1-4.1V228c0-3.4,1.6-4.1,4.1-4.1h3.1v-3.1h-25.8v3.1h2.1c2,0,4.1,0.5,4.1,4.1v18.3h-18V228
			c0-3.6,1.9-4.1,4-4.1h2v-3.1h-25.6v3.1h3.1c2.5,0,4.1,0.7,4.1,4.1v46c0,3.4-1.6,4.1-4.1,4.1h-3.1v3.1h25.6v-3.1h-2
			c-2.1,0-4-0.5-4-4.1v-24.5h18V274c0,3.6-2.1,4.1-4.1,4.1h-2.1V281.3z"/>
	</g>
	<g>
		<path class="st7" d="M297.2,220.4h24.7v3.8h-1.4c-1.6,0-2.2,1.1-2.2,2.4c0,1,0.4,2.3,0.5,3l9.2,31.8h0.5l6.5-20.1l-3.1-11.1
			c-0.9-3.1-2.3-6-5.6-6v-3.8h22.8v3.8h-2.3c-1.5,0-2.6,1-2.6,2.5c0,0.8,0.5,2.2,0.6,2.9l8.3,31.3h0.5l9.2-29.4
			c0.6-2.1,0.7-3.2,0.7-3.4c0-3.7-2.1-4-4.9-4h-1.8v-3.8h19.7v3.8c-5.9,0-7.4,2.9-9.4,9.2l-15.3,49.2h-5l-9.7-33.2h-0.4L326,282.5
			h-4.8l-15-49.1c-2-6.6-4.1-9.3-9.2-9.3v-3.7H297.2z"/>
		<path class="st7" d="M352.2,282.8h-5.5l-9.7-33l-10.6,33h-5.3l-0.1-0.2l-15-49.1c-2.1-6.8-4.2-9-8.9-9h-0.3V220h25.4v4.5h-1.7
			c-1.2,0-1.8,0.7-1.8,2.1c0,0.9,0.3,2.2,0.5,2.9l9.1,31.5l6.3-19.7l-3-11c-0.9-3-2.1-5.8-5.3-5.8H326V220h23.5v4.5h-2.7
			c-1.4,0-2.3,0.9-2.3,2.2c0,0.6,0.3,1.5,0.5,2.2c0.1,0.2,0.1,0.4,0.2,0.6l8.2,31.1l9.1-29.1c0.7-2.3,0.7-3.3,0.7-3.3
			c0-3.4-1.7-3.6-4.5-3.6h-2.1V220H377v4.5h-0.3c-5.6,0-7.1,2.7-9,8.9L352.2,282.8z M347.2,282.2h4.4l15.2-48.9
			c2-6.3,3.6-9.3,9.3-9.4v-3.1h-19v3.1h1.5c2.8,0,5.2,0.3,5.2,4.3c0,0.1,0,1.2-0.7,3.5l-9.3,29.6h-1.1l-0.1-0.3l-8.3-31.3
			c0-0.2-0.1-0.4-0.2-0.6c-0.2-0.8-0.5-1.7-0.5-2.4c0-1.7,1.2-2.9,3-2.9h2v-3.1h-22.1v3.1c3.3,0.2,4.7,3.3,5.6,6.3l3.1,11.2v0.1
			l-6.6,20.3h-1l-0.1-0.2l-9.2-31.8c-0.3-0.9-0.6-2.1-0.6-3.1c0-1.8,0.9-2.8,2.5-2.8h1v-3.1h-24v3.1c5.4,0.1,7.3,3.3,9.2,9.5
			l15,48.8h4.3l10.7-33.2h0.9L347.2,282.2z"/>
	</g>
	<g>
		<path class="st7" d="M364.1,277.8c5.9,0,7.7-5.5,10.1-12.4l16.2-46.8h4.7l18.1,50.5c1.8,4.9,3.8,8.7,8.9,8.7v3.8h-27.5v-3.8h3.2
			c1.6,0,3-0.7,3-2.4c0-0.4,0-1.1-0.8-3.3l-2.3-6.9h-18.6l-1.7,5.1c-0.2,0.8-0.6,2.5-0.6,3.3c0,4.2,3.2,4.2,5.1,4.2h2.2v3.8h-20
			L364.1,277.8L364.1,277.8z M396.1,261.2l-7.7-23.9h-0.1l-7.8,23.9H396.1z"/>
		<path class="st7" d="M422.4,281.9h-28.1v-4.5h3.6c0.8,0,2.6-0.2,2.6-2.1c0-0.3,0-1-0.8-3.2l-2.3-6.7h-18.1l-1.6,4.9l-0.1,0.5
			c-0.2,0.8-0.5,2.1-0.5,2.7c0,3.9,2.9,3.9,4.8,3.9h2.5v4.5h-20.7v-4.5h0.3c5.5,0,7.3-5.2,9.6-11.8l0.2-0.4l16.3-47.1h5.2l18.2,50.7
			c1.7,4.7,3.6,8.5,8.6,8.5h0.3V281.9z M395,281.3h26.8v-3.1c-5.2-0.2-7.2-4.3-8.9-9l-18-50.3h-4.2l-16.3,47
			c-2.3,6.7-4.2,12-9.9,12.2v3.1h19.3v-3.1H382c-1.9,0-5.5,0-5.5-4.6c0-0.7,0.3-1.9,0.5-2.9l0.1-0.5l1.8-5.4h19l2.4,7.2
			c0.8,2.3,0.8,3.1,0.8,3.4c0,1.7-1.3,2.8-3.3,2.8H395V281.3z M396.6,261.5H380l8.1-24.5h0.6l0.1,0.2L396.6,261.5z M380.9,260.8
			h14.7l-7.3-22.6L380.9,260.8z"/>
	</g>
	<g>
		<path class="st7" d="M454.2,220.4c5.2,0,19.5,0.4,19.5,13.8c0,9-7.1,14-14.6,14.4v0.9c6.4,0.3,16.7,3.3,16.7,15.6
			c0,12.7-8.2,16.6-20.6,16.6h-27.9v-3.8h3.2c2.4,0,4-0.6,4-3.8V228c0-3.2-1.5-3.8-4-3.8h-3.2v-3.8H454.2z M450.1,247.2
			c6.5,0,10.4-3,10.4-11.6c0-4.8-1.1-11.5-9.1-11.5h-1.1c-1,0-2.9,0.3-2.9,3.9v19.3L450.1,247.2L450.1,247.2z M447.5,275.2
			c0,2.5,1.3,2.7,2.2,2.7h1.7c4.6,0,9.8-1,9.8-13.4c0-6-0.5-13.4-11.1-13.4h-2.6V275.2z"/>
		<path class="st7" d="M455.2,281.9h-28.3v-4.5h3.6c2.3,0,3.6-0.5,3.6-3.4v-46.1c0-2.9-1.3-3.4-3.6-3.4h-3.6V220h27.3
			c13.2,0,19.9,4.8,19.9,14.1c0,9.4-7.5,14.2-14.6,14.7v0.3c8.1,0.4,16.7,4.8,16.7,15.9C476.2,276.6,469.5,281.9,455.2,281.9z
			 M427.6,281.3h27.6c14,0,20.3-5,20.3-16.2c0-3.4-1.2-14.6-16.3-15.2h-0.3v-1.5h0.3c6.9-0.4,14.3-5,14.3-14.1
			c0-8.9-6.5-13.4-19.2-13.4h-26.6v3.1h2.9c2.2,0,4.3,0.5,4.3,4.1V274c0,3.6-2.1,4.1-4.3,4.1h-2.9L427.6,281.3L427.6,281.3z
			 M451.3,278.3h-1.7c-1.7,0-2.5-1-2.5-3v-24.5h3c11.4,0,11.4,8.6,11.4,13.8C461.5,276.6,456.6,278.3,451.3,278.3z M447.8,251.4
			v23.8c0,2.4,1.2,2.4,1.8,2.4h1.7c4.6,0,9.5-1,9.5-13.1c0-6.6-0.8-13.1-10.7-13.1L447.8,251.4L447.8,251.4z M450.1,247.5h-3v-19.6
			c0-2.8,1.1-4.2,3.2-4.2h1.1c6.3,0,9.4,4,9.4,11.9C460.9,243.7,457.4,247.5,450.1,247.5z M447.8,246.9h2.3c7,0,10.1-3.5,10.1-11.3
			c0-7.5-2.9-11.2-8.8-11.2h-1.1c-1.1,0-2.5,0.4-2.5,3.5V246.9z"/>
	</g>
</g>
<g>
	<g>
		<path d="M308.9,424.8v53.1c0,3.4,1.4,4,4,4h4.3v5H286v-5h3.1c2.5,0,4-0.7,4-4v-27.4h-19.2v27.4c0,3.3,1.4,4,3.9,4h3v5h-31v-5h4.3
			c2.6,0,4-0.6,4-4v-53.1c0-3.4-1.4-4-4-4h-4.3v-5h31v5h-3c-2.5,0-3.9,0.7-3.9,4v20.4h19.2v-20.4c0-3.3-1.5-4-4-4H286v-5h31.2v5
			h-4.3C310.3,420.8,308.9,421.4,308.9,424.8z"/>
	</g>
	<g>
		<path d="M388.3,415.7v5H388c-5,0-7.8,5.1-8.3,6.1l-13.5,26.5v24.5c0,3.3,1.5,4,4.2,4h4.1v5h-32.3v-5h4.1c2.6,0,4.2-0.7,4.2-4V456
			l-16-28.8c-2.7-4.6-4.8-6-9.5-6.4h-0.3v-5h32.2v5h-3.7c-2,0-2.7,1.5-2.7,2.8c0,0.6,0.3,1.5,0.7,2.6l11.5,21.3h0.1l9.8-19
			c0.5-1.1,1.1-2.4,1.1-3.6c0-2.1-0.5-4-3.8-4h-2.1v-5h20.5L388.3,415.7L388.3,415.7z"/>
	</g>
	<g>
		<path d="M423.6,415.7H396v5h4.1c2.6,0,4.2,0.7,4.2,4v53.1c0,3.3-1.6,4-4.2,4H396v5h26c16.2,0,35.6-5.9,35.6-34.2
			C457.7,430.2,444.3,415.7,423.6,415.7z M423.8,420.8c10.9,0,16.1,9.8,16.1,29.9c0,20.7-5.2,31.2-15.4,31.2c-4.5,0-4.5-1.5-4.5-3.9
			v-53.8C420,421.3,421.4,420.8,423.8,420.8z"/>
	</g>
	<g>
		<path d="M526.6,468.4v0.3c-0.2,7.7-2.3,10.5-3.7,10.5c-2.4,0-2.9-4.8-3.3-9.5c-0.2-1.8-0.3-3.6-0.6-5.2c-1.4-8-5.8-13-12.1-13.7
			v-0.1c17.9-2.2,18.5-15.5,18.5-17c0-2.6-0.6-7.7-4.5-11.7c-3.9-4.1-10.1-6.1-18.5-6.1h-33.6v5h4.1c2.7,0,4.2,0.7,4.2,4V478
			c0,3.3-1.5,4-4.2,4h-4.1v5h31.1v-5h-3.4c-2.5,0-3.7-0.6-3.7-4v-24.7h2.8c3.3,0,6.2,0.9,7.2,11.8c1.1,12.6,3.1,24,14.6,24
			c11.1,0,14.9-13.9,14.9-20.2v-0.3h-5.7L526.6,468.4L526.6,468.4z M497.6,447.6h-4.9v-22c0-3.3,1.1-4.8,3.5-4.8h1.9
			c7.4,0,10.1,3.4,10.1,12.6C508.2,445.9,502.9,447.6,497.6,447.6z"/>
	</g>
	<g>
		<path d="M605.4,481.9c-5.8,0-8-4.5-9.9-9.8l-20.8-58.2l-0.1-0.2h-5.9L550,467.8l-0.2,0.5c-2.7,7.6-4.8,13.6-11.1,13.6h-0.3v5H562
			v-5h-2.8c-2.2,0-5.6,0-5.6-4.5c0-0.7,0.3-2.2,0.6-3.1l0.1-0.6l1.9-5.7H577l2.6,7.8c0.9,2.5,0.9,3.3,0.9,3.7c0,2.2-2.2,2.5-3.1,2.5
			h-4.1v5h32.3v-5L605.4,481.9L605.4,481.9z M557.9,462.7l8.6-26.2l8.5,26.2H557.9z"/>
	</g>
	<g>
		<path d="M674.5,415.7v5h-4.3c-2.6,0-4.1,0.7-4.1,4v37.5c0,23.2-14.5,26.7-23.2,26.7c-4.3,0-10.6-0.4-15.9-4
			c-6.3-4.2-9.5-11.9-9.5-22.7v-37.5c0-3.4-1.5-4-4.1-4h-4.2v-5h31.5v5h-3.3c-2.7,0-4.1,0.6-4.1,4v37.8c0,11.2,0.9,20.5,12.4,20.5
			c8.9,0,14.2-7.7,14.2-20.5v-37.8c0-3.3-1.6-4-4.2-4h-4.3v-5H674.5z"/>
	</g>
	<g>
		<path d="M737.3,463v23.9h-52.7v-5h4.3c2.5,0,4-0.7,4-4v-53.1c0-3.3-1.5-4-4-4h-4.3v-5h32v5h-4c-2.6,0-4,0.6-4,4V478
			c0,2.7,1.1,4,3.2,4h2.2c11.4,0,17.4-6.1,18.4-18.6v-0.3h4.9L737.3,463L737.3,463z"/>
	</g>
	<g>
		<path d="M773.1,424.8v53.1c0,3.3,1.6,4,4.2,4h3.2v5H749v-5h4.2c2.5,0,4.1-0.7,4.1-4v-53.1c0-3.3-1.6-4-4.1-4H749v-5h31.5v5h-3.2
			C774.7,420.8,773.1,421.4,773.1,424.8z"/>
	</g>
	<g>
		<path d="M845.1,464.4l-0.1,0.4c-1.1,5.7-6,24.1-23.5,24.1c-9.4,0-17.3-4.1-22.7-11.9c-4.7-6.9-7.3-16.3-7.3-26.5
			c0-21.5,11.9-37,28.3-37c6.3,0,10.6,1.8,14.8,6.2l2.4-4h5.2v0.3l0.5,26.9h-5.9l-0.1-0.3c-4.5-23.2-12.4-23.2-15-23.2
			c-8.2,0-12.4,10.5-12.4,31.1c0,21.6,4.6,31.7,14.6,31.7c7.6,0,12.6-5.9,15-17.6v-0.3L845.1,464.4L845.1,464.4z"/>
	</g>
	<g>
		<path d="M906.6,465.2c0,16.4-10.7,23.8-21.3,23.8c-6.8,0-12.6-2.2-17.8-6.8l-3.5,4.7h-5v-26.4h5.9l0.1,0.3
			c4.3,19.5,12.4,22.1,20.6,22.1c6.1,0,10.8-4.4,10.8-10.2c0-7.3-7.7-10.9-16-13.7l-0.3-0.1c-7.9-2.5-19.8-6.4-19.8-23.3
			c0-13,8.9-22,21.6-22c5.3,0,10,1.6,14,4.8l1.8-4.2h5.1v25.1H897V439c-2.1-16-9.5-19.4-15.3-19.4c-5.3,0-11.1,3.3-11.1,10.6
			c0,7.9,7.5,10.2,13.5,12.1c1.1,0.3,2.2,0.7,3.2,1C896.6,446.5,906.6,451.1,906.6,465.2z"/>
	</g>
</g>
<polygon points="532.2,468.4 532.2,463.6 526.5,468.7 "/>
<polygon points="845.1,459.3 845,464.8 840.1,468.7 "/>
<g>
	<g>
		<path class="st7" d="M308.9,419.7v53.1c0,3.4,1.4,4,4,4h4.3v5H286v-5h3.1c2.5,0,4-0.7,4-4v-27.4H274v27.4c0,3.3,1.4,4,3.9,4h3v5
			h-31v-5h4.3c2.6,0,4-0.6,4-4v-53.1c0-3.4-1.4-4-4-4h-4.3v-5h31v5h-3c-2.5,0-3.9,0.7-3.9,4V440h19.2v-20.4c0-3.3-1.5-4-4-4H286v-5
			h31.2v5h-4.3C310.3,415.6,308.9,416.3,308.9,419.7z"/>
	</g>
	<g>
		<path class="st7" d="M388.3,410.6v5H388c-5,0-7.8,5.1-8.3,6.1l-13.5,26.5v24.5c0,3.3,1.5,4,4.2,4h4.1v5h-32.3v-5h4.1
			c2.6,0,4.2-0.7,4.2-4v-21.9l-16-28.8c-2.7-4.6-4.8-6-9.5-6.4h-0.3v-5h32.2v5h-3.7c-2,0-2.7,1.5-2.7,2.8c0,0.6,0.3,1.5,0.7,2.6
			l11.5,21.3h0.1l9.8-19c0.5-1.1,1.1-2.4,1.1-3.6c0-2.1-0.5-4-3.8-4h-2.1v-5h20.5L388.3,410.6L388.3,410.6z"/>
	</g>
	<g>
		<path class="st7" d="M423.6,410.6H396v5h4.1c2.6,0,4.2,0.7,4.2,4v53.1c0,3.3-1.6,4-4.2,4H396v5h26c16.2,0,35.6-5.9,35.6-34.2
			C457.7,425.1,444.3,410.6,423.6,410.6z M423.8,415.6c10.9,0,16.1,9.8,16.1,29.9c0,20.7-5.2,31.2-15.4,31.2c-4.5,0-4.5-1.5-4.5-3.9
			V419C420,416.2,421.4,415.6,423.8,415.6z"/>
	</g>
	<g>
		<path class="st7" d="M526.6,463.3v0.3c-0.2,7.7-2.3,10.5-3.7,10.5c-2.4,0-2.9-4.8-3.3-9.5c-0.2-1.8-0.3-3.6-0.6-5.2
			c-1.4-8-5.8-13-12.1-13.7v-0.1c17.9-2.2,18.5-15.5,18.5-17c0-2.6-0.6-7.7-4.5-11.7c-3.9-4.1-10.1-6.1-18.5-6.1h-33.6v5h4.1
			c2.7,0,4.2,0.7,4.2,4v53.1c0,3.3-1.5,4-4.2,4h-4.1v5h31.1v-5h-3.4c-2.5,0-3.7-0.6-3.7-4v-24.7h2.8c3.3,0,6.2,0.9,7.2,11.8
			c1.1,12.6,3.1,24,14.6,24c11.1,0,14.9-13.9,14.9-20.2v-0.3h-5.7L526.6,463.3L526.6,463.3z M497.7,442.5h-4.9v-22
			c0-3.3,1.1-4.8,3.5-4.8h1.9c7.4,0,10.1,3.4,10.1,12.6C508.2,440.8,502.9,442.5,497.7,442.5z"/>
	</g>
	<g>
		<path class="st7" d="M605.4,476.8c-5.8,0-8-4.5-9.9-9.8l-20.8-58.2l-0.1-0.2h-5.9L550,462.7l-0.2,0.5c-2.7,7.6-4.8,13.6-11.1,13.6
			h-0.3v5H562v-5h-2.8c-2.2,0-5.6,0-5.6-4.5c0-0.7,0.3-2.2,0.6-3.1l0.1-0.6l1.9-5.7H577l2.6,7.8c0.9,2.5,0.9,3.3,0.9,3.7
			c0,2.2-2.2,2.5-3.1,2.5h-4.1v5h32.3v-5L605.4,476.8L605.4,476.8z M558,457.6l8.6-26.2l8.5,26.2H558z"/>
	</g>
	<g>
		<path class="st7" d="M674.5,410.6v5h-4.3c-2.6,0-4.1,0.7-4.1,4v37.5c0,23.2-14.5,26.7-23.2,26.7c-4.3,0-10.6-0.4-15.9-4
			c-6.3-4.2-9.5-11.9-9.5-22.7v-37.5c0-3.4-1.5-4-4.1-4h-4.2v-5h31.5v5h-3.3c-2.7,0-4.1,0.6-4.1,4v37.8c0,11.2,0.9,20.5,12.4,20.5
			c8.9,0,14.2-7.7,14.2-20.5v-37.8c0-3.3-1.6-4-4.2-4h-4.3v-5H674.5z"/>
	</g>
	<g>
		<path class="st7" d="M737.3,457.9v23.9h-52.7v-5h4.3c2.5,0,4-0.7,4-4v-53.1c0-3.3-1.5-4-4-4h-4.3v-5h32v5h-4c-2.6,0-4,0.6-4,4
			v53.2c0,2.7,1.1,4,3.2,4h2.2c11.4,0,17.4-6.1,18.4-18.6V458h4.9L737.3,457.9L737.3,457.9z"/>
	</g>
	<g>
		<path class="st7" d="M773.1,419.7v53.1c0,3.3,1.6,4,4.2,4h3.2v5H749v-5h4.2c2.5,0,4.1-0.7,4.1-4v-53.1c0-3.3-1.6-4-4.1-4H749v-5
			h31.5v5h-3.2C774.7,415.6,773.1,416.3,773.1,419.7z"/>
	</g>
	<g>
		<path class="st7" d="M845.1,459.3l-0.1,0.4c-1.1,5.7-6,24.1-23.5,24.1c-9.4,0-17.3-4.1-22.7-11.9c-4.7-6.9-7.3-16.3-7.3-26.5
			c0-21.5,11.9-37,28.3-37c6.3,0,10.6,1.8,14.8,6.2l2.4-4h5.2v0.3l0.5,26.9h-5.9l-0.1-0.3c-4.5-23.2-12.4-23.2-15-23.2
			c-8.2,0-12.4,10.5-12.4,31.1c0,21.6,4.6,31.7,14.6,31.7c7.6,0,12.6-5.9,15-17.6v-0.3L845.1,459.3L845.1,459.3z"/>
	</g>
	<g>
		<path class="st7" d="M906.6,460.1c0,16.4-10.7,23.8-21.3,23.8c-6.8,0-12.6-2.2-17.8-6.8l-3.5,4.7h-5v-26.4h5.9l0.1,0.3
			c4.3,19.5,12.4,22.1,20.6,22.1c6.1,0,10.8-4.4,10.8-10.2c0-7.3-7.7-10.9-16-13.7l-0.3-0.1c-7.9-2.5-19.8-6.4-19.8-23.3
			c0-13,8.9-22,21.6-22c5.3,0,10,1.6,14,4.8l1.8-4.2h5.1v25.1H897v-0.3c-2.1-16-9.5-19.4-15.3-19.4c-5.3,0-11.1,3.3-11.1,10.6
			c0,7.9,7.5,10.2,13.5,12.1c1.1,0.3,2.2,0.7,3.2,1C896.6,441.4,906.6,446,906.6,460.1z"/>
	</g>
</g>
</svg>
